<svg id="Capa_1" enable-background="new 0 0 508.362 508.362" height="512" viewBox="0 0 508.362 508.362" width="512" xmlns="http://www.w3.org/2000/svg" fill="#FFFFFF"><g><path d="m439.81 340.225-230.435-216.531c-6.243-5.866-15.31-7.354-23.101-3.791-7.791 3.564-12.595 11.397-12.239 19.958l9 216.255c.172 4.138 3.637 7.355 7.806 7.182 4.139-.172 7.354-3.667 7.182-7.806l-9-216.255c-.155-3.729 2.633-5.3 3.491-5.693s3.868-1.476 6.589 1.082l230.435 216.532c2.59 2.434 2.119 5.346 1.796 6.485s-1.449 3.866-4.931 4.58l-82.967 17.02c-2.239.459-4.146 1.915-5.18 3.953-1.035 2.038-1.083 4.436-.133 6.515l14.019 30.645c1.261 2.755 3.98 4.382 6.825 4.382 1.044 0 2.104-.219 3.116-.682 3.767-1.723 5.423-6.173 3.7-9.94l-10.097-22.072 73.733-15.125c7.889-1.619 14.154-7.438 16.348-15.187 2.194-7.752-.088-15.991-5.957-21.507z"/><path d="m379.082 443.184c-1.724-3.767-6.175-5.424-9.94-3.7-3.767 1.723-5.423 6.174-3.7 9.94l9.155 20.011c.458 1.002.5 2.124.115 3.157-.384 1.033-1.148 1.854-2.151 2.313l-39.504 18.072c-1.002.458-2.124.498-3.156.115-1.033-.385-1.854-1.148-2.313-2.151l-36.472-79.727c-.951-2.078-2.797-3.609-5.016-4.16-2.218-.551-4.566-.059-6.378 1.335l-67.129 51.644c-2.816 2.167-5.616 1.237-6.688.736s-3.584-2.049-3.732-5.6l-2.818-67.715c-.172-4.139-3.653-7.36-7.806-7.182-4.138.172-7.354 3.667-7.182 7.806l2.818 67.715c.335 8.047 5.077 15.162 12.375 18.568 7.298 3.407 15.796 2.471 22.179-2.439l59.657-45.896 32.55 71.155c2.125 4.646 5.933 8.187 10.721 9.969 2.174.809 4.431 1.212 6.682 1.212 2.709 0 5.411-.583 7.948-1.744l39.503-18.071c4.646-2.125 8.187-5.933 9.969-10.721s1.594-9.983-.532-14.63z"/><path d="m211.108 82.148c13.065 4.863 23.454 14.523 29.253 27.201 3.229 7.057 4.82 14.551 4.731 22.272-.048 4.142 3.271 7.538 7.413 7.586 4.127.064 7.538-3.271 7.586-7.413.114-9.95-1.935-19.601-6.09-28.685-7.466-16.32-20.841-28.757-37.661-35.018s-35.07-5.598-51.391 1.869c-33.69 15.413-48.561 55.361-33.149 89.052 3.567 7.796 8.518 14.746 14.714 20.656 1.453 1.385 3.315 2.072 5.175 2.072 1.979 0 3.955-.779 5.429-2.324 2.858-2.998 2.746-7.745-.251-10.604-4.812-4.588-8.656-9.985-11.426-16.041-11.972-26.169-.421-57.199 25.749-69.171 12.676-5.8 26.853-6.315 39.918-1.452z"/><path d="m305.966 104.816c5.704 24.46 3.163 50.631-7.156 73.69-1.692 3.781.001 8.217 3.782 9.909.995.445 2.035.656 3.059.656 2.867 0 5.604-1.653 6.85-4.438 11.65-26.034 14.517-55.59 8.073-83.224-.94-4.034-4.969-6.541-9.007-5.601-4.034.941-6.542 4.974-5.601 9.008z"/><path d="m157.101 241.45c-30.842-10.011-56.26-32.65-69.738-62.111-12.896-28.19-14.042-59.715-3.228-88.767s32.295-52.154 60.486-65.05c55.817-25.537 122.042-3.097 150.763 51.084 1.941 3.659 6.479 5.055 10.139 3.114 3.66-1.94 5.054-6.479 3.114-10.139-32.437-61.19-107.221-86.535-170.256-57.7-31.833 14.563-56.091 40.65-68.303 73.458-12.212 32.807-10.918 68.406 3.645 100.24 15.22 33.27 43.922 58.834 78.748 70.139.769.25 1.549.368 2.317.368 3.162 0 6.103-2.016 7.132-5.187 1.278-3.939-.879-8.169-4.819-9.449z"/></g></svg>