<svg id="Layer_1" height="512" viewBox="0 0 512 512" width="512" xmlns="http://www.w3.org/2000/svg" data-name="Layer 1"><path d="m143.565 155.808a14.783 14.783 0 0 0 -14.565 14.867v68.034c0 12.607.6 24.843 7.49 35.966a56.451 56.451 0 0 1 8.51 29.707v25.618h-6.184a5.816 5.816 0 0 0 -5.816 5.816v33.184a6 6 0 0 0 6 6v122.5a6.519 6.519 0 0 0 6.5 6.5h79.625a5.875 5.875 0 0 0 5.875-5.875v-123.125h1.5a5.5 5.5 0 0 0 5.5-5.5v-33.947a5.553 5.553 0 0 0 -5.553-5.553h-5.447l.066-19.147a26.814 26.814 0 0 1 12.755-23.017q.615-.368 1.254-.709c7.982-4.265 11.925-11.4 11.925-20.993v-66.253a5.881 5.881 0 0 0 -5.881-5.881h-2.244c-8.16 0-15.875 3.64-19.875 9.508v-44.694a16.639 16.639 0 0 0 -16.646-16.456 17.052 17.052 0 0 0 -4.652.656 16.947 16.947 0 0 0 -33.836.016 16.543 16.543 0 0 0 -21.058 13.629 16.241 16.241 0 0 0 -5.243-.851zm75.435 336.192h-68v-117h68zm7-129h-81v-21h81zm-71.185-140.925a6 6 0 0 0 6.185-6v-55.382a4.63 4.63 0 0 1 4.058-4.672 4.5 4.5 0 0 1 4.942 4.479v55.326a6.166 6.166 0 0 0 5.815 6.249 6 6 0 0 0 6.185-6v-69.86a5.145 5.145 0 0 1 4.509-5.192 5 5 0 0 1 5.491 4.977v69.826a6.166 6.166 0 0 0 5.815 6.249 6 6 0 0 0 6.185-6l-.111-55.44a4.679 4.679 0 0 1 4.123-4.733 4.558 4.558 0 0 1 4.988 4.54v74.717a8.832 8.832 0 0 0 17.664.037l.063-15.188a14.033 14.033 0 0 1 10.273-13.622v59.748c0 6.384-2.673 8.724-5.626 10.3q-.7.372-1.379.77a38.238 38.238 0 0 0 -18.611 32.406l-.384 20.39h-58v-26.5a67.544 67.544 0 0 0 -10.375-35.255c-5.17-8.431-5.625-18.369-5.625-29.54v-66.533a4.116 4.116 0 0 1 3.608-4.153 4 4 0 0 1 4.392 3.981v43.826a6.166 6.166 0 0 0 5.815 6.249z"/><path d="m468.907 212.358a16.3 16.3 0 0 0 -4.606.672 16.9 16.9 0 0 0 -33.744-.016 14.726 14.726 0 0 0 -4.649-.652 16.391 16.391 0 0 0 -15.908 16.473v44.682a27.234 27.234 0 0 0 -20.7-9.517h-2.243a6.069 6.069 0 0 0 -6.057 6.052v66.082c0 9.593 4.073 16.62 12.055 20.886q.639.341 1.255.707a28.036 28.036 0 0 1 13.345 21.965l.345 4.308h-6.33a5.669 5.669 0 0 0 -5.67 5.67v32.974a6.374 6.374 0 0 0 6.356 6.356h.644v68.5a6.519 6.519 0 0 0 6.5 6.5h79.8a5.7 5.7 0 0 0 5.7-5.7v-69.3h.354a5.646 5.646 0 0 0 5.646-5.646v-33.8a5.553 5.553 0 0 0 -5.553-5.554h-6.447v-9.618a56.439 56.439 0 0 1 8.51-29.706c6.887-11.123 7.49-23.36 7.49-35.967v-68.138a14.681 14.681 0 0 0 -14.391-14.763 16.331 16.331 0 0 0 -5.348.851 16.541 16.541 0 0 0 -16.354-14.301zm14.093 279.642h-68v-63h68zm6-75h-81v-21h81zm-3-175.3a3.633 3.633 0 0 1 3.312-3.693 3.5 3.5 0 0 1 3.688 3.493v67.209c0 11.171-.455 21.108-5.625 29.539a67.546 67.546 0 0 0 -10.375 35.252v10.5h-57l-.543-5.922a39.747 39.747 0 0 0 -19.082-30.741q-.79-.465-1.6-.9c-2.954-1.579-5.771-3.919-5.771-10.3v-59.75a14.183 14.183 0 0 1 10.406 13.681l.136 14.779a9.229 9.229 0 0 0 18.454-.085v-74.2a4.545 4.545 0 0 1 3.968-4.586 4.417 4.417 0 0 1 4.864 4.38l.168 55.517a6.147 6.147 0 0 0 5.815 6.226 6.02 6.02 0 0 0 6.185-6.021v-70.385a4.63 4.63 0 0 1 4.058-4.672 4.5 4.5 0 0 1 4.942 4.479v70.326a6.166 6.166 0 0 0 5.815 6.249 6 6 0 0 0 6.185-6v-54.86a5.145 5.145 0 0 1 4.509-5.192 5 5 0 0 1 5.491 4.977v54.826a6.166 6.166 0 0 0 5.815 6.249 6 6 0 0 0 6.185-6z"/><path d="m182.057 453.933a6 6 0 0 0 5.973 5.5c.166 0 .334-.007.5-.021a6 6 0 0 0 5.483-6.476l-.594-7.151a12.8 12.8 0 0 1 2.768-8.977 24.822 24.822 0 0 0 5.353-20.952l-1.033-4.507a6 6 0 1 0 -11.7 2.679l1.032 4.507a12.677 12.677 0 0 1 -2.575 10.247 24.617 24.617 0 0 0 -5.807 18z"/><path d="m451.364 327.977a5.979 5.979 0 0 0 -5.2-2.977h-18.422a5.971 5.971 0 0 0 -5.2 2.969l-9.212 15.952a6.041 6.041 0 0 0 0 6.02l9.212 15.993a6.06 6.06 0 0 0 5.2 3.066h18.425a6.06 6.06 0 0 0 5.2-3.066l9.212-16a6.026 6.026 0 0 0 0-6.012zm-8.664 29.023h-11.492l-5.751-10 5.751-10h11.492l5.751 10z"/><path d="m177.568 277.457a21.379 21.379 0 1 0 -21.378-21.379 21.4 21.4 0 0 0 21.378 21.379zm0-30.757a9.379 9.379 0 1 1 -9.378 9.378 9.389 9.389 0 0 1 9.378-9.378z"/><path d="m267.055 327.02q.639.341 1.255.709a27.3 27.3 0 0 1 12.975 23.029l.715 39.242h-6.447a5.553 5.553 0 0 0 -5.553 5.553v53.091a6.356 6.356 0 0 0 6.356 6.356h.644v42.5a6.519 6.519 0 0 0 6.5 6.5h79.8a5.7 5.7 0 0 0 5.7-5.7v-43.3h.354a5.646 5.646 0 0 0 5.646-5.646v-53.8a5.553 5.553 0 0 0 -5.553-5.554h-6.447v-25.618c0-30.3 3-40.833 8.49-49.674 6.906-11.132 7.51-23.38 7.51-36v-68.137a14.681 14.681 0 0 0 -14.391-14.763 16.331 16.331 0 0 0 -5.348.851 16.542 16.542 0 0 0 -16.354-14.3 16.3 16.3 0 0 0 -4.606.672 16.9 16.9 0 0 0 -33.744-.016 14.728 14.728 0 0 0 -4.65-.652 16.392 16.392 0 0 0 -15.907 16.471v44.683a27.234 27.234 0 0 0 -20.7-9.517h-2.243a6.069 6.069 0 0 0 -6.057 6.052v66.082c0 9.593 4.073 16.62 12.055 20.886zm89.945 164.98h-68v-37h68zm6-49h-81v-41h81zm-96-196.613a14.184 14.184 0 0 1 10.406 13.681l.136 14.779a9.229 9.229 0 0 0 18.458-.085v-74.069a4.63 4.63 0 0 1 4.058-4.672 4.5 4.5 0 0 1 4.942 4.479v55.326a6.167 6.167 0 0 0 5.815 6.249 6 6 0 0 0 6.185-6v-70.382a4.63 4.63 0 0 1 4.058-4.672 4.5 4.5 0 0 1 4.942 4.479v70.326a6.167 6.167 0 0 0 5.815 6.249 6 6 0 0 0 6.185-6v-54.86a5.145 5.145 0 0 1 4.509-5.192 5 5 0 0 1 5.491 4.977v54.826a6.167 6.167 0 0 0 5.815 6.249 6 6 0 0 0 6.185-6v-42.375a3.633 3.633 0 0 1 3.312-3.693 3.5 3.5 0 0 1 3.688 3.493v65.209c0 11.23-.459 21.214-5.708 29.673-6.654 10.726-10.292 22.827-10.292 56v25.618h-57l-1.053-40.283a38.514 38.514 0 0 0 -18.587-32.28q-.783-.462-1.589-.893c-2.954-1.578-5.771-4.026-5.771-10.41z"/><path d="m116.452 359.291a30.579 30.579 0 0 1 3.623-2.271c7.982-4.266 11.925-11.293 11.925-20.886v-66.254a5.881 5.881 0 0 0 -5.88-5.88h-2.245c-8.16 0-15.875 3.64-19.875 9.508v-44.694a16.639 16.639 0 0 0 -16.646-16.456 17.052 17.052 0 0 0 -4.652.656 16.947 16.947 0 0 0 -33.836.016 16.543 16.543 0 0 0 -21.058 13.629 16.241 16.241 0 0 0 -5.243-.851 14.783 14.783 0 0 0 -14.565 14.867v68.034c0 12.607.6 24.843 7.49 35.966a56.451 56.451 0 0 1 8.51 29.707v45.618h-6.184a5.816 5.816 0 0 0 -5.816 5.816v33.184a6 6 0 0 0 6 6v32.5a6.519 6.519 0 0 0 6.5 6.5h79.625a5.875 5.875 0 0 0 5.875-5.875v-33.125h1.5a5.5 5.5 0 0 0 5.5-5.5v-33.947a5.553 5.553 0 0 0 -5.553-5.553h-5.447l.078-39.744a25.927 25.927 0 0 1 10.374-20.965zm-18.452 132.709h-68v-27h68zm7-39h-81v-21h81zm-8.927-86.964a18.179 18.179 0 0 0 -1.544 7.2l-.529 46.764h-58v-46.5a67.546 67.546 0 0 0 -10.375-35.255c-5.17-8.427-5.625-18.365-5.625-29.536v-66.537a4.116 4.116 0 0 1 3.608-4.153 4 4 0 0 1 4.392 3.981v43.826a6.166 6.166 0 0 0 5.815 6.249 6 6 0 0 0 6.185-6v-55.441a4.5 4.5 0 1 1 9-.1v55.288a6.166 6.166 0 0 0 5.816 6.249 6 6 0 0 0 6.184-6v-69.856a5.145 5.145 0 0 1 4.509-5.192 5 5 0 0 1 5.491 4.977v69.826a6.167 6.167 0 0 0 5.815 6.249 6 6 0 0 0 6.185-6l-.111-55.627a4.556 4.556 0 0 1 5.017-4.542 4.7 4.7 0 0 1 4.094 4.74v74.513a8.832 8.832 0 0 0 17.664.037l.063-15.188a14.031 14.031 0 0 1 10.273-13.621v59.747c0 6.384-2.673 8.724-5.626 10.3a41.313 41.313 0 0 0 -18.301 19.602z"/><path d="m32.625 19.992 4.023 3.373a6.747 6.747 0 0 1 1.589 8.357 18.652 18.652 0 0 0 1.995 20.814l4.87 5.925a6 6 0 1 0 9.271-7.619l-4.873-5.925a6.7 6.7 0 0 1 -.717-7.477 18.786 18.786 0 0 0 -4.428-23.271l-4.02-3.369a6 6 0 0 0 -7.71 9.2z"/><path d="m381.005 138.752-2.175 4.779a18.787 18.787 0 0 0 6.037 22.907 6.7 6.7 0 0 1 2.575 7.053l-1.84 7.447a6 6 0 1 0 11.65 2.878l1.84-7.448a18.65 18.65 0 0 0 -7.174-19.64 6.748 6.748 0 0 1 -2.166-8.227l2.175-4.779a6 6 0 0 0 -10.922-4.97z"/><path d="m14.291 192.989a6.7 6.7 0 0 1 2.574 7.053l-1.839 7.448a6 6 0 1 0 11.65 2.877l1.839-7.448a18.648 18.648 0 0 0 -7.173-19.64 6.747 6.747 0 0 1 -2.167-8.226l2.176-4.78a6 6 0 0 0 -10.923-4.97l-2.175 4.779a18.786 18.786 0 0 0 6.038 22.907z"/><path d="m292.654 76.493a6.7 6.7 0 0 1 2.574 7.053l-1.839 7.448a6 6 0 1 0 11.65 2.877l1.839-7.448a18.65 18.65 0 0 0 -7.173-19.64 6.745 6.745 0 0 1 -2.166-8.226l2.175-4.779a6 6 0 0 0 -10.922-4.971l-2.176 4.779a18.789 18.789 0 0 0 6.038 22.907z"/><path d="m170.112 54.18a5.839 5.839 0 0 0 5.2 2.82h18.424a5.837 5.837 0 0 0 5.2-2.82l9.208-15.88a5.916 5.916 0 0 0 0-5.95l-9.213-16.159a6.183 6.183 0 0 0 -5.2-3.192h-18.421a6.209 6.209 0 0 0 -5.2 3.214l-9.21 16.077a5.93 5.93 0 0 0 0 5.958zm8.663-29.18h11.494l5.751 10-5.751 10h-11.494l-5.751-10z"/><path d="m349.078 68.149a5.864 5.864 0 0 0 5.2 2.851h18.422a5.866 5.866 0 0 0 5.2-2.851l9.212-15.893a5.932 5.932 0 0 0 0-5.959l-9.212-16.132a6.16 6.16 0 0 0 -5.2-3.165h-18.425a6.175 6.175 0 0 0 -5.2 3.184l-9.213 16.06a5.945 5.945 0 0 0 0 5.966zm8.662-29.149h11.494l5.751 10-5.751 10h-11.494l-5.751-10z"/><path d="m80.135 334.052a6.049 6.049 0 0 0 -5.2-3.052h-18.422a6.049 6.049 0 0 0 -5.2 3.052l-9.212 16a6.026 6.026 0 0 0 0 6.009l9.212 15.955a5.988 5.988 0 0 0 5.2 2.989h18.424a5.984 5.984 0 0 0 5.2-2.982l9.212-15.96a6.039 6.039 0 0 0 0-6.016zm-8.663 28.948h-11.494l-5.751-10 5.751-10h11.494l5.751 10z"/><path d="m37.888 129.878a18.184 18.184 0 1 0 -18.188-18.184 18.2 18.2 0 0 0 18.188 18.184zm0-24.368a6.184 6.184 0 1 1 -6.184 6.184 6.191 6.191 0 0 1 6.184-6.184z"/><path d="m234.758 122.1a17.118 17.118 0 1 0 -17.118-17.117 17.136 17.136 0 0 0 17.118 17.117zm0-22.235a5.118 5.118 0 1 1 -5.118 5.118 5.124 5.124 0 0 1 5.118-5.114z"/><path d="m49.24 185.033a6 6 0 0 0 7.1 7.428l52.26-11.674a6 6 0 0 0 4.482-4.283l6.544-24.106a6 6 0 0 0 -1.452-5.717l-9.084-7.975 19.778-5.448a6 6 0 0 0 4.184-4.164l6.789-24.2a6 6 0 0 0 -7.308-7.422l-5.062 1.335-5.071-5.43 19.132-4.277a6 6 0 0 0 4.482-4.284l6.545-24.1a6 6 0 0 0 -7.1-7.428l-52.259 11.673a6 6 0 0 0 -4.482 4.283l-6.542 24.106a6 6 0 0 0 1.452 5.717l9.908 8.7-13.1 3.457a6 6 0 0 0 -4.341 4.569l-5.111 24.339a5.99 5.99 0 0 0 1.564 5.392l-.009.008 6.653 6.89-18.924 4.228a6 6 0 0 0 -4.483 4.283zm50.112-109.15 39.021-8.717-2.991 11.016-39.021 8.718zm14.947 26.4-6.76 1.783-6.713-5.87 7.994-1.786zm-27.222 19.594 38.374-10.126-3.04 10.838-37.662 10.373zm13.9 25.674-8.061 1.8-4.722-4.891 7.034-1.937zm-34.56 20.015 39.021-8.716-2.991 11.015-39.021 8.717z"/><path d="m412.873 82.4a6.1 6.1 0 0 0 4.521 3.877l14.215 1.633-9.609 11.207a6 6 0 0 0 -.988 6.222l10.083 24.012a5.986 5.986 0 0 0 4.354 3.547v.012l10.323 2.062-14.129 15.309a6 6 0 0 0 -1.248 6.069l8.718 24.665a6 6 0 0 0 10.066 2.07l38.058-41.237a6 6 0 0 0 1.248-6.069l-8.718-24.665a6 6 0 0 0 -4.449-3.878l-13.071-1.5 14.134-16.9a6 6 0 0 0 1.07-5.8l-8.571-24.898a6 6 0 0 0 -10.235-1.946l-3.677 4.3-8.243-1.792 14.275-15.465a6 6 0 0 0 1.247-6.069l-8.72-24.666a6 6 0 0 0 -10.067-2.069l-38.06 41.237a6 6 0 0 0 -1.248 6.069zm18.1-6.631 6.317-6.845 8.833 1.923-5.175 6.053zm40.789 48.731 4.2 11.872-28.862 31.261-4.2-11.871zm-24.062-1.378 5.314-6.356 8.649.978-6.364 6.9zm13.247-51.154 4.053 11.764-26.665 31.89-4.847-11.522zm-15.418-46.086 4.2 11.872-28.859 31.266-4.2-11.872z"/></svg>