<svg xmlns="http://www.w3.org/2000/svg" xmlns:xlink="http://www.w3.org/1999/xlink" viewBox="0 0 512 512" width="18" height="18" fill="#fff">
    <g>
        <g>
            <g class="cls-2"><path d="M460.75,439.16C536.24,352.09,527,220.79,441.8,144.58,485.55,297.87,369.87,451,210.5,451c-3.07,0,15.45.11-57.48-.34A209.75,209.75,0,0,0,301.5,512l195.56-1c13.33-.06,20-16.29,10.46-25.68Z"/><path d="M210.5,421C326.57,421,421,326.57,421,210.5S326.57,0,210.5,0,0,94.43,0,210.5A208.93,208.93,0,0,0,51.25,348.16L4.48,394.32C-5,403.68,1.56,419.93,14.94,420l195.56,1M121,136H301a15,15,0,0,1,0,30H121a15,15,0,1,1,0-30m0,60H301a15,15,0,0,1,0,30H121a15,15,0,1,1,0-30m-15,75a15,15,0,0,1,15-15H301a15,15,0,0,1,0,30H121a15,15,0,0,1-15-15"/></g>
        </g>
    </g>
</svg>
