<?xml version="1.0" encoding="iso-8859-1"?>
<!-- Generator: Adobe Illustrator 17.1.0, SVG Export Plug-In . SVG Version: 6.00 Build 0)  -->
<!DOCTYPE svg PUBLIC "-//W3C//DTD SVG 1.1//EN" "http://www.w3.org/Graphics/SVG/1.1/DTD/svg11.dtd">
<svg version="1.1" id="Capa_1" xmlns="http://www.w3.org/2000/svg" xmlns:xlink="http://www.w3.org/1999/xlink" x="0px" y="0px"
	 viewBox="0 0 211.076 211.076" style="enable-background:new 0 0 211.076 211.076;" xml:space="preserve">
<path d="M105.47,211.076c-37.51,0-68.027-30.517-68.027-68.028v-0.988h-1.488c-11.568,0-20.979-9.411-20.979-20.979v-9.606
	c0-11.568,9.411-20.979,20.979-20.979h1.488V59.579c0-11.853,5.486-23.12,14.753-30.465c-0.333-1.606-0.506-3.262-0.506-4.943
	c0-4.319,2.3-8.756,6.153-11.868c0.039-0.031,0.078-0.061,0.118-0.09l2.334-1.666c0.083-0.059,0.169-0.113,0.258-0.162
	c0.363-0.198,0.774-0.445,1.245-0.728c2.199-1.319,5.522-3.313,11.018-4.99l0.001,0c7.604-2.49,15.59-3.941,24.414-4.437
	c33.881-1.898,64.038,8.071,73.364,24.252c1.193,1.927,2.005,3.411,2.795,5.111c7.619,16.386,1.423,33.585,0.107,36.862v24.041
	h1.624c11.568,0,20.979,9.411,20.979,20.979v9.606c0,11.568-9.411,20.979-20.979,20.979h-1.624v0.988
	C173.498,180.559,142.981,211.076,105.47,211.076z M42.443,139.561v3.488c0,34.754,28.274,63.028,63.027,63.028
	c34.754,0,63.028-28.274,63.028-63.028v-21.191h-4.429c-0.668,0-1.308-0.267-1.778-0.742s-0.729-1.118-0.722-1.786
	c0.003-0.29,0.303-29.081-1.925-37.996c-2.04-8.159-7.934-11.366-7.994-11.398c-0.604-0.32-1.051-0.874-1.235-1.533
	c-0.185-0.658-0.092-1.364,0.257-1.952c0.033-0.055,3.431-5.876,3.581-11.458c0.023-0.87-3.561-2.988-8.3-4.337
	c-5.417-1.16-9.582-1.1-9.687-1.096c-0.019,0-0.042,0-0.061,0h-52c-7.521,0-14.019-1.292-19.313-3.842
	c-0.886-0.426-1.738-0.908-2.554-1.439c-2.335,2.7-5.657,7.304-5.648,10.775c0.014,5.525,3.523,11.304,3.559,11.361
	c0.361,0.588,0.464,1.302,0.283,1.968s-0.63,1.229-1.24,1.552c-0.231,0.126-5.98,3.342-7.994,11.398
	c-2.229,8.915-1.929,37.706-1.925,37.996c0.007,0.668-0.252,1.311-0.722,1.786s-1.11,0.742-1.778,0.742h-4.429V139.561z
	 M173.634,137.061h1.488c8.811,0,15.979-7.168,15.979-15.979v-9.606c0-8.811-7.168-15.979-15.979-15.979h-1.488V137.061z
	 M35.955,95.496c-8.811,0-15.979,7.168-15.979,15.979v9.606c0,8.811,7.168,15.979,15.979,15.979h1.488V95.496H35.955z
	 M166.585,116.858h1.913V66.593c-2.173-4.74-5.537-8.161-9.288-10.63c-0.302,4.367-1.991,8.548-3.146,10.954
	c2.525,1.973,6.663,6.137,8.43,13.204C166.493,88.117,166.608,109.459,166.585,116.858z M42.443,116.858h1.913
	c-0.023-7.398,0.092-28.741,2.091-36.737c1.761-7.043,5.876-11.204,8.404-13.185c-1.272-2.577-3.15-7.171-3.162-11.869
	c-0.013-5.307,4.219-11.005,6.778-13.963c-1.923-1.964-3.501-4.273-4.648-6.826C46.643,40.668,42.443,49.9,42.443,59.579V116.858z
	 M136.651,44.477c3.392,0,23.563,0.639,33.742,15.312c0.355-1.348,0.71-2.915,1.002-4.647c-2.933-2.857-13.529-12.21-29.297-15.208
	c-11.022-2.095-24.042-1.284-36.633-0.499c-9.361,0.584-19.04,1.188-27.616,0.536c-8.314-0.631-14.077-2.801-18.019-5.227
	c1.808,2.758,4.323,5.017,7.344,6.452c4.592,2.182,10.319,3.288,17.021,3.288h52C136.259,44.48,136.414,44.477,136.651,44.477z
	 M125.357,33.599c6.125,0,12.095,0.361,17.675,1.422c13.856,2.634,23.881,9.605,29.015,13.95c0.089-2.201,0.025-4.529-0.271-6.915
	c-6.97-6.976-19.33-11.841-35.824-14.089c-8.735-1.189-18.695,0.165-29.239,1.599c-10.625,1.446-21.612,2.941-31.5,1.64
	c-10.966-1.443-15.992-5.392-18.282-8.933c-0.158,0.638-0.241,1.275-0.241,1.899c0,0.235,0.004,0.47,0.013,0.703
	c0.811,1.571,5.428,8.887,21.526,10.11c8.231,0.625,17.312,0.059,26.926-0.541C111.869,34.025,118.705,33.599,125.357,33.599z
	 M128.72,22.519c2.712,0,5.358,0.146,7.906,0.493c13.973,1.904,25.27,5.678,33.214,11.041c-0.293-0.787-0.62-1.57-0.983-2.351
	c-0.707-1.52-1.442-2.86-2.537-4.627c-0.021-0.034-0.042-0.068-0.061-0.104c-8.285-14.371-37.191-23.519-68.747-21.749
	c-8.399,0.471-15.98,1.848-23.176,4.208c-0.029,0.01-0.059,0.019-0.088,0.027c-4.893,1.496-7.891,3.295-9.877,4.486
	c-0.48,0.289-0.907,0.544-1.29,0.756l-2.152,1.536c-0.292,0.239-0.573,0.489-0.84,0.75c0.314,1.97,2.399,7.501,15.775,9.261
	c9.223,1.213,19.874-0.236,30.173-1.637C113.631,23.578,121.413,22.519,128.72,22.519z M106.409,198.158
	c-11.203,0-20.317-9.114-20.317-20.317v-2.944c-11.591-5.32-16.006-13.865-16.196-14.242c-0.391-0.775-0.352-1.697,0.104-2.437
	c0.455-0.739,1.261-1.189,2.129-1.189h68.562c0.868,0,1.674,0.45,2.129,1.189c0.455,0.739,0.494,1.662,0.104,2.437
	c-0.19,0.376-4.605,8.921-16.197,14.242v2.943C126.726,189.044,117.612,198.158,106.409,198.158z M91.092,173.259v4.583
	c0,8.446,6.871,15.317,15.317,15.317s15.317-6.871,15.317-15.317v-15.811h-12.817v19.843c0,1.381-1.119,2.5-2.5,2.5
	s-2.5-1.119-2.5-2.5v-19.843H91.092V173.259z M126.726,162.031v7.279c4.285-2.328,7.246-5.107,9.122-7.279H126.726z M76.971,162.031
	c1.875,2.17,4.836,4.95,9.122,7.278v-7.278H76.971z M129.833,124.199c-8.398,0-15.231-6.833-15.231-15.231
	c0-8.399,6.833-15.232,15.231-15.232c8.399,0,15.232,6.833,15.232,15.232C145.065,117.366,138.232,124.199,129.833,124.199z
	 M129.833,98.735c-5.642,0-10.231,4.59-10.231,10.232c0,5.642,4.59,10.231,10.231,10.231c5.642,0,10.232-4.59,10.232-10.231
	C140.065,103.325,135.475,98.735,129.833,98.735z M129.833,111.717c-1.381,0-2.5-1.119-2.5-2.5v-0.25c0-1.381,1.119-2.5,2.5-2.5
	s2.5,1.119,2.5,2.5v0.25C132.333,110.598,131.214,111.717,129.833,111.717z M66.131,111.468c-0.294,0-0.594-0.052-0.886-0.163
	c-1.291-0.489-1.941-1.933-1.452-3.224c0.144-0.378,3.644-9.263,15.098-9.263c11.414,0,15.119,8.835,15.271,9.211
	c0.518,1.28-0.101,2.737-1.38,3.255c-1.274,0.516-2.726-0.096-3.249-1.366c-0.13-0.304-2.72-6.101-10.642-6.101
	c-8.041,0-10.399,5.975-10.422,6.035C68.09,110.852,67.139,111.468,66.131,111.468z M138.548,86.073
	c-0.437,0-0.879-0.114-1.281-0.355l-17.333-10.366c-1.185-0.708-1.571-2.244-0.862-3.429c0.709-1.184,2.244-1.571,3.429-0.862
	l17.333,10.366c1.185,0.708,1.571,2.244,0.862,3.429C140.228,85.638,139.399,86.073,138.548,86.073z M70.323,86.073
	c-0.851,0-1.68-0.434-2.148-1.217c-0.708-1.185-0.323-2.72,0.862-3.429l17.333-10.366c1.185-0.708,2.721-0.323,3.429,0.862
	c0.708,1.185,0.323,2.72-0.862,3.429L71.604,85.718C71.202,85.958,70.76,86.073,70.323,86.073z"/>
<g>
</g>
<g>
</g>
<g>
</g>
<g>
</g>
<g>
</g>
<g>
</g>
<g>
</g>
<g>
</g>
<g>
</g>
<g>
</g>
<g>
</g>
<g>
</g>
<g>
</g>
<g>
</g>
<g>
</g>
</svg>
