<svg height="512pt" viewBox="-23 0 512 512.00001" width="512pt" xmlns="http://www.w3.org/2000/svg"><path d="m466.789062 45.171875-18.824218-39.828125c-.84375-1.78125-2.363282-3.15625-4.21875-3.820312-1.855469-.667969-3.898438-.566407-5.679688.277343l-73.785156 34.875c-3.710938 1.753907-5.296875 6.1875-3.542969 9.898438 0 0 7.992188 16.910156 7.996094 16.914062l26.445313 55.949219-45.398438 44.011719c1.988281-3.875 3.453125-8.046875 4.316406-12.441407 2.398438-12.246093-.117187-24.691406-7.078125-35.050781-6.964843-10.355469-17.542969-17.378906-29.789062-19.777343-9.683594-1.898438-19.488281-.710938-28.289063 3.304687-.320312-1.320313-.996094-2.574219-2.042968-3.589844-8.34375-8.085937-20.742188-7.886719-28.839844.464844l-70.941406 73.175781c-.285157-.199218-.578126-.394531-.867188-.589844 9.660156-8.601562 15.761719-21.125 15.761719-35.050781 0-22.289062-16.464844-42.15625-38.417969-46.148437-.015625 0-.027344-.003906-.039062-.007813-28.21875-5.128906-55.417969 17.402344-55.417969 46.15625 0 14.847657 6.933593 28.09375 17.726562 36.703125-.417969.316406-.835937.636719-1.246093.96875l-53.109376-51.488281s27.261719-57.675781 27.261719-57.675781l7.996094-16.914063c1.753906-3.710937.167969-8.144531-3.542969-9.898437l-73.78125-34.875c-1.78125-.84375-3.828125-.945313-5.683594-.28125-1.855468.667968-3.371093 2.042968-4.214843 3.824218l-18.828125 39.828126c-1.753906 3.714843-.167969 8.144531 3.542968 9.898437l67.0625 31.699219-11.40625 24.128906c-3.230468-1.832031-6.894531-2.800781-10.714843-2.734375-12.207031.1875-23.703125 12.085937-23.515625 24.257813.085937 5.644531 2.355468 10.90625 6.390625 14.816406l7.308593 7.085937-6.65625 14.082031c-1.753906 3.714844-.167968 8.144532 3.546876 9.898438 1.023437.484375 2.105468.714844 3.171874.714844 2.785157 0 5.457032-1.574219 6.726563-4.257813l4.492187-9.503906 54.609376 52.941406v27.988281c-3.222657 5.601563-5.078126 12.085938-5.078126 19v38.738282c0 .246094.011719.488281.035157.726562-9.9375 8.527344-16.25 21.160156-16.25 35.25v43.464844c-15.117188 2.417969-26.710938 15.546875-26.710938 31.335938 0 15.9375 11.8125 29.167968 27.140625 31.402343v27.484375c0 21.777344 17.71875 39.496094 39.496094 39.496094 11.574219 0 21.316406-4.039062 28.175781-11.675781 6.570313-7.316407 10.304688-17.652344 11.140625-30.773438h14.214844c4.105469 0 7.433594-3.328125 7.433594-7.433593 0-4.109376-3.328125-7.4375-7.433594-7.4375h-26.535156c-5.46875 0-9.921875-4.449219-9.921875-9.917969v-13.789063c0-5.46875 4.453125-9.917968 9.921875-9.917968h164.941406c5.46875 0 9.921875 4.449218 9.921875 9.917968v13.789063c0 5.46875-4.453125 9.917969-9.921875 9.917969h-108.667969c-4.105469 0-7.433593 3.332031-7.433593 7.4375 0 4.105468 3.328124 7.433593 7.433593 7.433593h100.25v2.953125c0 21.777344 17.71875 39.496094 39.496094 39.496094 21.78125 0 39.496094-17.71875 39.496094-39.496094v-29.746094c11.269531-4.878906 19.175781-16.101562 19.175781-29.140624 0-13.203126-8.109375-24.546876-19.605469-29.320313v-45.480469c0-6.566406-1.5625-12.949218-4.359375-18.871094-1.378906-2.921874-3.039062-5.703124-4.820312-8.390624-.875-1.320313-2.609375-2.945313-3.117188-4.417969-.582031-1.683594.109375-2.460938.109375-4.292969v-38.742188c0-12.726562-6.261719-24.015624-15.859375-30.964843v-13.296875l58.082032-56.308594 5.3125 11.230469c1.269531 2.6875 3.9375 4.261719 6.722656 4.261719 1.066406 0 2.148437-.230469 3.175781-.714844 3.710937-1.757813 5.296875-6.1875 3.542969-9.898438l-7.476563-15.8125 5.625-5.453125c4.035157-3.910156 6.304688-9.175781 6.394531-14.820312.085938-5.644531-2.019531-10.972657-5.929687-15.007813 0 0-.933594-.964844-.9375-.964844l-.515625-.535156-1.316406-1.355468c-3.914063-4.035157-9.175782-6.304688-14.820313-6.394532-3.054687-.046875-6.007812.566406-8.722656 1.746094l-10.890625-23.039062 67.058594-31.703126c3.710937-1.753906 5.296875-6.183593 3.542968-9.898437zm-420.691406 93.867187-2.707031-2.625c-1.4375-1.398437-2.25-3.285156-2.28125-5.316406-.03125-2.035156.722656-3.949218 2.117187-5.390625l.183594-.183593.71875-.746094c1.480469-1.523438 3.453125-2.289063 5.429688-2.289063 1.339844 0 2.675781.359375 3.863281 1.0625zm14.738282 14.285157-3.460938-3.351563 7.417969-15.691406 5.757812 5.582031c-3.511719 4.789063-6.707031 9.222657-9.714843 13.460938zm-43.5-109.605469 12.472656-26.386719 60.335937 28.523438-4.816406 10.195312-7.65625 16.191407zm273.140624 71.878906c7.058594-4.75 15.546876-6.464844 23.894532-4.828125s15.5625 6.425781 20.308594 13.488281c3.375 5.019532 5.210937 10.765626 5.402343 16.667969l-56.039062-19.609375c1.855469-2.160156 4.003906-4.089844 6.433593-5.71875zm46.589844 40.027344c-2.421875 5.152344-6.199218 9.574219-11.046875 12.835938-7.058593 4.746093-15.542969 6.457031-23.894531 4.824218-17.234375-3.375-28.511719-20.144531-25.132812-37.382812.078124-.40625.171874-.804688.265624-1.207032zm-68.332031-48.917969c1.167969-1.203125 2.511719-1.851562 3.886719-1.875 1.378906-.007812 2.730468.578125 3.925781 1.742188.207031.199219.421875.378906.644531.550781-7.621094 6.753906-12.804687 15.761719-14.792968 25.921875-.023438.113281-.039063.230469-.058594.34375l-11.46875-8.253906zm-37.785156 119.183594h-21.796875v-12.753906l54.746094-56.476563c1.882812 5.671875 4.828124 10.921875 8.652343 15.464844-.910156.621094-1.804687 1.273438-2.675781 1.953125l-1.792969-.492187c-11.652343-3.207032-23.742187 3.664062-26.949219 15.316406zm-105.074219-105.230469c4.75-10.394531 14.914062-17.753906 26.585938-18.714844.152343-.011718.300781-.027343.449218-.035156.714844-.050781 1.4375-.082031 2.164063-.082031.726562 0 1.445312.03125 2.160156.082031.152344.007813.300781.023438.449219.035156 11.675781.964844 21.835937 8.320313 26.585937 18.714844.011719.023438.023438.046875.03125.070313h-58.457031c.011719-.023438.023438-.046875.03125-.070313zm-2.824219 14.9375h64.046875c-.886718 16.894532-14.914062 30.371094-32.023437 30.371094-17.113281 0-31.136719-13.476562-32.023438-30.371094zm-51.410156 28.203125c3.003906-4.257812 6.1875-8.691406 9.691406-13.488281l38.011719 36.847656c1.4375 1.394532 3.382812 2.148438 5.382812 2.09375 2.003907-.054687 3.898438-.917968 5.257813-2.390625 3.113281-3.382812 6.871094-6.175781 10.96875-8.203125 4.457031 1.410156 9.203125 2.175782 14.121094 2.175782 5.824219 0 11.398437-1.074219 16.546875-3.023438 4.023437 1.726562 7.785156 4.175781 10.984375 7.199219 1.4375 1.355469 3.273437 2.027343 5.105469 2.027343 1.941406 0 3.882812-.753906 5.339843-2.257812l47.359375-48.855469 13.480469 9.699219-57.554687 59.371094c-1.417969 1.460937-2.171876 3.4375-2.09375 5.46875.019531.484375.039062.972656.039062 1.460937v13.960938h-55.875c-6.609375 0-12.832031 1.691406-18.261719 4.65625v-16.578125c0-2.011719-.816406-3.9375-2.261719-5.335938zm76.691406 305.617188c-1.351562 18.394531-9.546875 27.714843-24.425781 27.714843-13.578125 0-24.625-11.050781-24.625-24.628906v-27.144531h26.847656c.296875 12.527344 9.933594 22.789063 22.203125 24.058594zm223.214844 3.085937c0 13.578125-11.046875 24.625-24.625 24.625s-24.625-11.046875-24.625-24.625v-3.8125c10.363281-2.796875 18.058594-12.160156 18.324219-23.335937h30.925781zm2.304687-75.753906c9.304688 0 16.871094 7.566406 16.871094 16.867188 0 7.316406-4.6875 13.539062-11.210937 15.875h-38.925781c-.769532-12.980469-11.570313-23.308594-24.742188-23.308594h-164.941406c-13.171875 0-23.972656 10.328125-24.742188 23.308594h-41.746094v.34375c-7.074218-2.007813-12.273437-8.511719-12.273437-16.21875 0-9.300782 7.570313-16.867188 16.871094-16.867188zm-157.648437-89.511719h123.335937c17.414063 0 31.578126 14.164063 31.578126 31.578125v41.671875h-272.265626v-41.671875c0-17.410156 14.164063-31.578125 31.578126-31.578125h56.035156c4.109375 0 7.4375-3.328125 7.4375-7.433593 0-4.109376-3.332032-7.433594-7.4375-7.433594h-56.035156c-5.382813 0-10.550782.929687-15.363282 2.621094v-30.890626c0-4.285156 1.164063-8.296874 3.1875-11.753906.5-.558594.914063-1.191406 1.226563-1.886718 4.246093-5.871094 11.144531-9.703126 18.925781-9.703126h197.179688c12.871093 0 23.34375 10.472657 23.34375 23.34375v32.523438c-5.90625-2.726562-12.472657-4.257812-19.390626-4.257812h-123.335937c-4.105469 0-7.433594 3.328124-7.433594 7.433593 0 4.109375 3.328125 7.4375 7.433594 7.4375zm129.113281-95.871093c-1.46875 1.421874-2.285156 3.382812-2.261718 5.421874l.007812 9.839844c-2.417969-.480468-4.917969-.738281-7.476562-.738281h-57.671876l.847657-5.597656c.617187-4.058594-2.171875-7.847657-6.234375-8.464844-4.0625-.621094-7.847656 2.171875-8.464844 6.234375l-1.191406 7.828125h-16.5l9.097656-33.042969c.492188-1.800781 1.671875-3.308594 3.320312-4.242187 1.648438-.9375 3.546876-1.175781 5.347657-.683594l4.066406 1.121094c.015625.003906.03125.007812.042969.011719 3.277344.890624 6.761718.117187 9.332031-2.078126 2.136719-1.824218 4.453125-3.402343 6.902344-4.730468 4.453125 2.636718 9.417969 4.582031 14.785156 5.632812 3.023437.59375 6.0625.886719 9.078125.886719 6.292969 0 12.488281-1.277344 18.273438-3.765625.191406.183594 9.132812 7.640625 11.136718 7.695312 2 .054688 3.941406-.699218 5.378906-2.09375l40.535157-39.296874c3.503906 4.796874 6.6875 9.230468 9.6875 13.488281zm70.246094-87.875c2.03125.03125 3.917969.839843 5.3125 2.277343l.90625.9375c1.390625 1.4375 2.140625 3.347657 2.109375 5.378907-.03125 2.035156-.839844 3.921874-2.28125 5.320312l-1.023437.988281-6.945313-14.691406c.625-.148437 1.265625-.226563 1.921875-.210937zm-6.253906 25.835937-5.144532 4.988281c-3.007812-4.238281-6.203124-8.671875-9.714843-13.460937l7.441406-7.21875zm-19.476563-76-12.472656-26.386719 60.339844-28.519531 12.46875 26.382813zm0 0"/><path d="m151.554688 311.601562c-17.789063 0-32.261719 14.472657-32.261719 32.261719 0 17.789063 14.472656 32.261719 32.261719 32.261719 17.789062 0 32.261718-14.472656 32.261718-32.261719 0-17.789062-14.472656-32.261719-32.261718-32.261719zm0 49.65625c-9.589844 0-17.394532-7.804687-17.394532-17.394531 0-9.589843 7.804688-17.394531 17.394532-17.394531 9.589843 0 17.390624 7.804688 17.390624 17.394531 0 9.589844-7.800781 17.394531-17.390624 17.394531zm0 0"/><path d="m322.09375 376.125c17.789062 0 32.261719-14.472656 32.261719-32.261719 0-17.789062-14.472657-32.261719-32.261719-32.261719s-32.261719 14.472657-32.261719 32.261719c0 17.789063 14.472657 32.261719 32.261719 32.261719zm0-49.65625c9.589844 0 17.394531 7.804688 17.394531 17.394531 0 9.589844-7.804687 17.394531-17.394531 17.394531s-17.390625-7.804687-17.390625-17.394531c0-9.589843 7.800781-17.394531 17.390625-17.394531zm0 0"/></svg>