<svg xmlns="http://www.w3.org/2000/svg">
    <symbol id="symbol-cake-3" viewBox="0 0 26 23.5">
        <path d="M14,2.5c-1-1.6-2.9-2.5-3-2.5c-0.2-0.1-0.4,0-0.5,0.1C9.9,1,9.5,1.8,9.2,2.8C3.7,3.6,0,6,0,8.8v8.5c0,3.5,5.7,6.2,13,6.2
              s13-2.7,13-6.2V8.8C26,5.5,20.8,2.8,14,2.5z M16.2,7.4C16.2,7.3,16.2,7.3,16.2,7.4c0.3-0.1,0.7-0.1,1-0.1c1.6,0.3,2.8,1.9,3.3,2.5
              c-0.6,0.5-2.3,1.6-3.9,1.3c-0.3,0-0.5-0.1-0.8-0.2c0.3-0.7,0.2-1.4-0.2-2C16,8.5,16.2,7.9,16.2,7.4z M10.6,6.5
              c0.8,0,1.4,0.6,1.4,1.4s-0.6,1.4-1.4,1.4S9.2,8.7,9.2,7.9v0C9.2,7.1,9.9,6.5,10.6,6.5C10.6,6.5,10.6,6.5,10.6,6.5L10.6,6.5z
              M13.7,8.6c0.8,0,1.4,0.6,1.4,1.4s-0.6,1.4-1.4,1.4s-1.4-0.6-1.4-1.4v0C12.3,9.3,12.9,8.6,13.7,8.6C13.7,8.6,13.7,8.6,13.7,8.6
              L13.7,8.6z M15.1,8.2c-0.6-0.5-1.4-0.6-2.2-0.3c0-0.4-0.1-0.7-0.3-1.1c0.3-0.7,1.1-1.1,1.9-0.8c0.7,0.3,1.1,1.1,0.8,1.9
              C15.2,8,15.2,8.1,15.1,8.2L15.1,8.2z M11,1c0.7,0.4,2.4,1.5,2.8,3.1c0.1,0.3,0.1,0.7,0.1,1c-0.7,0-1.4,0.4-1.8,1
              c-0.5-0.4-1.2-0.6-1.8-0.4C10.1,5.5,10,5.2,10,5C9.6,3.4,10.5,1.7,11,1z M25.1,17.2c0,2.9-5.6,5.4-12.1,5.4S0.9,20.1,0.9,17.2v-0.6
              c1.9,2.3,6.5,4,12.1,4s10.3-1.6,12.1-4V17.2z M25.1,14.4c0,2.9-5.6,5.4-12.1,5.4S0.9,17.3,0.9,14.4v-0.6c1.9,2.3,6.5,4,12.1,4
              s10.3-1.6,12.1-4L25.1,14.4z M25.1,11.6c0,2.9-5.6,5.4-12.1,5.4S0.9,14.5,0.9,11.6V11C2.7,13.4,7.4,15,13,15s10.3-1.6,12.1-3.9V11.6
              z M13,14.1c-6.6,0-12.1-2.5-12.1-5.4c0-2.3,3.3-4.3,8.2-5.1C9,4.2,9,4.7,9.1,5.2C9.2,5.5,9.3,5.7,9.4,6C8.3,6.7,8,8.1,8.7,9.1
              c0.6,0.9,1.7,1.3,2.7,0.9c0,1.3,1,2.3,2.3,2.3c0.6,0,1.2-0.3,1.6-0.7c0.3,0.2,0.7,0.3,1.1,0.4c0.2,0,0.5,0.1,0.7,0.1
              c2.2,0,4.1-1.7,4.2-1.8c0.2-0.1,0.2-0.4,0.1-0.5c-0.1-0.1-1.6-2.8-4.1-3.3c-0.4-0.1-0.9-0.1-1.3,0c-0.3-0.6-0.8-1-1.4-1.3
              c0-0.4,0-0.9-0.1-1.3c0-0.1-0.1-0.3-0.1-0.4c5.9,0.3,10.7,2.7,10.7,5.3C25.1,11.7,19.6,14.1,13,14.1z">
        </path>
    </symbol>
    <symbol id="symbol-cake-4" viewBox="0 0 27 19.8">
        <path d="M8.7,3.7c-0.2,0-0.4-0.2-0.4-0.4C8.2,2,9.2,1,10.5,1c0.2,0,0.4,0.2,0.4,0.4s-0.2,0.4-0.4,0.4c-0.7,0-1.3,0.6-1.3,1.3
              C9.1,3.5,8.9,3.7,8.7,3.7">
        </path>
        <path d="M20.4,3.7c-0.2,0-0.4-0.2-0.4-0.4c0-1.2,1-2.2,2.2-2.2c0.2,0,0.4,0.2,0.4,0.4s-0.2,0.4-0.4,0.4c-0.7,0-1.3,0.6-1.3,1.3
              C20.8,3.5,20.6,3.7,20.4,3.7">
        </path>
        <path d="M19.5,4.6h1.8c0-0.5-0.4-0.9-0.9-0.9C19.9,3.7,19.5,4.1,19.5,4.6 M21.6,5.5h-2.5c-0.2,0-0.4-0.1-0.4-0.3
              c-0.1-0.2-0.1-0.4-0.1-0.6c0-1,0.8-1.8,1.8-1.8s1.8,0.8,1.8,1.8c0,0.2,0,0.4-0.1,0.6C22,5.4,21.8,5.5,21.6,5.5">
        </path>
        <path d="M7.8,4.6h1.8c0-0.5-0.4-0.9-0.9-0.9C8.2,3.7,7.8,4.1,7.8,4.6 M9.9,5.5H7.4C7.2,5.5,7,5.4,7,5.2C6.9,5,6.9,4.8,6.9,4.6
              c0-1,0.8-1.8,1.8-1.8s1.8,0.8,1.8,1.8c0,0.2,0,0.4-0.1,0.6C10.3,5.4,10.1,5.5,9.9,5.5">
        </path>
        <path d="M14.5,3.7c-0.2,0-0.4-0.2-0.4-0.4c0-1.2,1-2.2,2.2-2.2c0.2,0,0.4,0.2,0.4,0.4s-0.2,0.4-0.4,0.4c-0.7,0-1.3,0.6-1.3,1.3
              C15,3.5,14.8,3.7,14.5,3.7">
        </path>
        <path d="M13.6,4.6h1.8c0-0.5-0.4-0.9-0.9-0.9C14,3.7,13.6,4.1,13.6,4.6 M15.8,5.5h-2.5c-0.2,0-0.4-0.1-0.4-0.3
              c-0.1-0.2-0.1-0.4-0.1-0.6c0-1,0.8-1.8,1.8-1.8s1.8,0.8,1.8,1.8c0,0.2,0,0.4-0.1,0.6C16.1,5.4,16,5.5,15.8,5.5">
        </path>
        <path d="M4.2,18.1h20.6L23.3,6.6C23.2,6,22.6,5.5,22,5.5H7.1C6.4,5.5,5.8,6,5.7,6.6L4.2,18.1z M25.3,19H3.7
              c-0.1,0-0.3-0.1-0.3-0.2c-0.1-0.1-0.1-0.2-0.1-0.4l1.6-12C5,5.4,5.9,4.6,7.1,4.6H22c1.1,0,2.1,0.8,2.2,1.9l1.6,12
              c0,0.1,0,0.3-0.1,0.4C25.6,18.9,25.4,19,25.3,19L25.3,19z">
        </path>
        <path d="M24.2,10.8c-0.1,0-0.2,0-0.3-0.1l-1.4-1c-0.8-0.6-1.9-0.6-2.7,0c-1.1,0.8-2.5,0.8-3.6,0.1l-0.4-0.3
              c-0.8-0.5-1.8-0.5-2.6,0.1l-0.1,0.1c-1.1,0.8-2.5,0.8-3.6,0.1L9.1,9.6C8.3,9.1,7.3,9.1,6.5,9.7L5,10.7c-0.2,0.1-0.5,0.1-0.6-0.1
              c-0.1-0.2-0.1-0.5,0.1-0.6L6,8.9c1.1-0.8,2.5-0.8,3.6-0.1L10,9.1c0.8,0.5,1.8,0.5,2.6-0.1l0.1-0.1c1.1-0.8,2.5-0.8,3.6-0.1
              l0.4,0.3c0.8,0.5,1.8,0.5,2.6-0.1c1.1-0.8,2.7-0.8,3.8,0l1.4,1c0.2,0.1,0.2,0.4,0.1,0.6C24.5,10.8,24.4,10.8,24.2,10.8">
        </path>
        <path d="M3,19.9H26l0.7-0.9H2.4L3,19.9z M26.2,20.8H2.8c-0.1,0-0.3-0.1-0.4-0.2l-1.3-1.8C1,18.7,1,18.5,1,18.3
              c0.1-0.2,0.2-0.2,0.4-0.2h26.1c0.2,0,0.3,0.1,0.4,0.2c0.1,0.2,0.1,0.3,0,0.5l-1.3,1.8C26.5,20.7,26.3,20.8,26.2,20.8L26.2,20.8z">
        </path>
    </symbol>
    <symbol id="symbol-rabbit-4" viewBox="0 0 24 26.5">
        <path d="M10.1,19H14l-2,2L10.1,19z M15.4,16.9c0,0.5,0.4,0.9,0.9,0.9c0.5,0,0.9-0.4,0.9-0.9c0-0.5-0.4-0.9-0.9-0.9
              C15.8,16,15.4,16.4,15.4,16.9z M7.8,16C7.3,16,7,16.4,7,16.9c0,0.5,0.4,0.9,0.9,0.9s0.9-0.4,0.9-0.9C8.7,16.4,8.3,16,7.8,16z
              M24,3.4c0,0.2,0,0.4-0.1,0.6c-0.2,0.9-0.8,1.6-1.3,2.2c-0.4,0.4-0.7,0.9-1.1,1.3c-0.2,0.3-0.5,0.6-0.7,0.9
              c-0.2,0.2-0.4,0.4-0.5,0.6c-0.9,1.1-1.8,2.2-2.6,3.3c0,0,0,0.1,0,0.1c0.4,0.3,0.7,0.5,1,0.9c1.8,1.8,2.7,4.1,2.7,6.7v0.5
              c0,3.3-2.7,5.9-5.9,5.9h-7c-3.3,0-5.9-2.6-5.9-5.9V20c0-3,1.4-5.8,3.8-7.5c0,0,0,0,0-0.1l0,0C5.6,11.2,4.7,10.1,3.7,9
              C3.6,8.8,3.4,8.6,3.2,8.4C3,8.1,2.7,7.8,2.5,7.6C2.1,7.1,1.7,6.7,1.4,6.2C0.9,5.6,0.3,4.9,0.1,4C0,3.8,0,3.6,0,3.4
              c0-1,0.5-2,1.3-2.7c1-0.8,2.4-0.9,3.8-0.2c3,1.4,4.4,8.1,4.9,10.3c1.3-0.3,2.7-0.3,4,0c0.4-2.2,1.9-9,4.9-10.3
              c1.4-0.7,2.8-0.5,3.8,0.2C23.5,1.4,24,2.4,24,3.4z M22.8,3.4c0-0.7-0.3-1.3-0.9-1.8c-0.9-0.7-2.1-0.3-2.6-0.1
              C17,2.6,15.4,9.2,15,11.6c0,0.2-0.1,0.3-0.3,0.4c-0.2,0.1-0.3,0.1-0.5,0.1c-1.5-0.4-3.1-0.4-4.6,0c-0.2,0-0.4,0-0.5-0.1
              C9.1,11.9,9,11.8,9,11.6C8.6,9.2,7,2.6,4.6,1.5C4.2,1.4,3,0.9,2.1,1.7C1.5,2.1,1.2,2.8,1.2,3.4c0,0.1,0,0.2,0,0.4
              C1.4,4.4,1.8,5,2.3,5.5C2.7,5.9,3,6.4,3.4,6.9c0.2,0.3,0.5,0.6,0.7,0.9c0.2,0.2,0.3,0.4,0.5,0.6c0.9,1.1,1.9,2.2,2.7,3.5l0,0
              c0.3,0.6,0.4,0.7,0.3,1c0,0.1-0.1,0.2-0.2,0.3c-2.3,1.5-3.7,4.1-3.7,6.9v0.5c0,2.6,2.1,4.8,4.8,4.8h7c2.6,0,4.8-2.1,4.8-4.8V20
              c0-2.2-0.9-4.3-2.4-5.8c-0.4-0.4-0.8-0.7-1.3-1.1c-0.2-0.2-0.4-0.5-0.2-0.7c0,0,0,0,0-0.1c0-0.1,0.2-0.3,0.2-0.5
              c0.8-1.3,1.7-2.4,2.7-3.5c0.2-0.2,0.3-0.4,0.5-0.6c0.2-0.3,0.5-0.6,0.7-0.9c0.4-0.4,0.7-0.9,1.1-1.3c0.4-0.5,0.9-1.1,1.1-1.7
              C22.8,3.7,22.8,3.6,22.8,3.4L22.8,3.4z">
        </path>
    </symbol>
    <symbol id="symbol-magic-wand" viewBox="0 0 22 24.2">
        <path d="M12.6,14.1c0.2,0,0.4-0.1,0.4-0.3l0.8-1.8c0.1-0.1,0.1-0.3,0.2-0.3c0.1-0.1,0.3-0.1,0.5-0.1l1.4-0.1c0.2,0,0.4-0.1,0.5-0.4
              c0.1-0.2,0-0.4-0.1-0.6c-0.6-0.5-1.2-1-1.8-1.4c0.4-0.7,0.8-1.3,1.4-1.9C16,7,16.1,6.8,15.9,6.5s-0.4-0.3-0.6-0.2
              c-1.1,0.3-2.2,0.6-3.3,0.8c-0.4-0.2-1.5-0.6-2.2-0.6c-0.2,0-0.3,0.1-0.4,0.2C9.3,6.8,9.2,7,9.3,7.2c0.3,0.9,0.5,1.3,0.8,2
              c0,0,0,0.1,0,0.1C9.8,9.5,9.5,9.7,9.2,10c-0.4,0.3-0.7,0.7-1,0.8c-0.2,0.1-0.4,0.4-0.3,0.6c0.1,0.3,0.3,0.4,0.6,0.4
              c1-0.1,2-0.2,3-0.2c0,0.8,0.2,1.5,0.6,2.1C12.2,14,12.4,14.1,12.6,14.1C12.6,14.1,12.6,14.1,12.6,14.1z M12,10.6
              c-0.6,0-1.3,0-2,0.1c0.3-0.3,0.6-0.6,0.9-0.7c0.3-0.1,0.4-0.4,0.3-0.7C11.2,9,11.1,8.9,11,8.7c-0.2-0.4-0.3-0.7-0.4-1
              c0.5,0.1,1,0.3,1.2,0.4c0.1,0,0.2,0.1,0.3,0c0.6-0.1,1.2-0.2,1.9-0.4c-0.3,0.4-0.5,0.8-0.7,1.3c-0.1,0.2,0,0.5,0.2,0.7
              c0.3,0.2,0.7,0.4,1,0.7c-0.3,0-0.7,0-1.1,0.3c-0.3,0.2-0.4,0.5-0.5,0.7l-0.3,0.7c-0.1-0.3-0.1-0.6,0-0.9c0-0.2,0-0.3-0.1-0.4
              C12.4,10.7,12.2,10.6,12,10.6C12,10.6,12,10.6,12,10.6z M1,24.1l0.5-0.5c0.1-0.1,0.1-0.1,0.1-0.2c3.1-3.2,0.5-0.5,3.4-3.8
              c1.7-2,3.4-4,5.1-5.9l1.8-2.2c0.2-0.2,0.2-0.6-0.1-0.8c-0.2-0.2-0.6-0.2-0.8,0.1L9.2,13c-1.6,1.9-3.3,3.9-5,5.9
              c-3.1,3.5-0.7,1.1-4,4.4c-0.2,0.2-0.2,0.6,0,0.8c0.1,0.1,0.3,0.2,0.4,0.2C0.7,24.2,0.8,24.2,1,24.1z M12.9,3
              c0.3-0.1,0.4-0.4,0.3-0.7c-0.1-0.2-0.3-1.3-0.2-1.6C13,0.4,12.8,0.1,12.5,0c-0.3-0.1-0.6,0.1-0.6,0.4c-0.1,0.5,0.1,1.9,0.3,2.3
              C12.3,2.9,12.5,3,12.7,3C12.7,3,12.8,3,12.9,3z M17.3,3.5c0.2-0.3,0.9-1,1.2-1.3c0.2-0.2,0.2-0.5,0-0.8c-0.2-0.2-0.5-0.2-0.8,0
              c-0.3,0.3-1,1-1.3,1.3c-0.2,0.2-0.2,0.6,0.1,0.8c0.1,0.1,0.2,0.1,0.3,0.1C17.1,3.7,17.2,3.7,17.3,3.5z M21.1,6.6
              c0.3-0.1,0.4-0.5,0.3-0.7c-0.1-0.3-0.4-0.4-0.7-0.3c-0.3,0.1-1.6,0.1-1.8,0c-0.3-0.1-0.6,0.1-0.7,0.4c-0.1,0.3,0.1,0.6,0.3,0.7
              c0.2,0.1,0.6,0.1,1,0.1C20.1,6.8,20.8,6.8,21.1,6.6z M21.5,10.1c0.3,0,0.5-0.3,0.5-0.6C22,9.2,21.7,9,21.4,9c-0.4,0-1.6,0-1.9-0.1
              c-0.3-0.1-0.6,0.1-0.7,0.4C18.8,9.6,19,9.9,19.2,10c0.4,0.1,1.4,0.2,1.9,0.2C21.3,10.1,21.4,10.1,21.5,10.1z M20.5,13
              c0.1-0.3-0.1-0.6-0.4-0.6c-0.3-0.1-1.6-0.6-1.9-0.8c-0.3-0.2-0.6-0.1-0.7,0.2c-0.2,0.3-0.1,0.6,0.2,0.7c0.4,0.2,1.8,0.8,2.3,0.9
              c0,0,0.1,0,0.1,0C20.3,13.4,20.5,13.2,20.5,13z M17.5,17.8c0.3-0.1,0.5-0.3,0.4-0.6c-0.1-0.5-0.8-1.9-1.1-2.3
              c-0.2-0.2-0.5-0.3-0.8-0.1c-0.2,0.2-0.3,0.5-0.1,0.8c0.2,0.3,0.8,1.6,0.9,1.9c0.1,0.3,0.3,0.4,0.5,0.4
              C17.4,17.8,17.5,17.8,17.5,17.8z M9.2,3.3c0.1-0.2,0-0.5-0.3-0.6C8.7,2.5,8.4,1.8,8.4,1.6C8.4,1.3,8.3,1.1,8,1
              C7.7,0.9,7.4,1,7.3,1.3C7.2,1.7,7.5,2.4,7.7,2.9c0.3,0.7,0.6,0.8,0.8,0.8c0,0,0.1,0,0.1,0C8.9,3.7,9.1,3.6,9.2,3.3z M6.8,6
              c0.3,0,0.5-0.3,0.5-0.6c0-0.3-0.2-0.5-0.5-0.5C6.5,4.8,4.9,4.1,4.6,4C4.4,3.8,4.1,3.9,3.9,4.1C3.7,4.3,3.8,4.7,4,4.9
              C4.3,5.1,6.2,6,6.8,6C6.8,6,6.8,6,6.8,6z M5.5,8.8c0.3-0.1,0.4-0.5,0.2-0.7C5.6,7.8,5.3,7.7,5.1,7.9c-0.3,0.1-1.5,0-2,0
              C2.8,7.8,2.5,8,2.5,8.3c0,0.3,0.2,0.6,0.5,0.6C3,8.9,3.7,9,4.4,9C4.9,9,5.3,8.9,5.5,8.8z M4.6,12.9C5.2,12.6,6.1,12,6.3,12
              c0.3-0.1,0.4-0.4,0.3-0.7C6.6,11,6.3,10.9,6,11c-0.4,0.1-1.9,1-1.9,1c-0.3,0.2-0.3,0.5-0.2,0.7C4,12.9,4.1,13,4.3,13
              C4.4,13,4.5,13,4.6,12.9z M14.1,19c0.2-0.2,0.2-0.5,0.1-0.7c-0.1-0.3-0.3-1.7-0.2-2c0-0.3-0.2-0.6-0.5-0.6c-0.3,0-0.6,0.2-0.6,0.5
              c0,0.3,0,2.4,0.4,2.9c0.1,0.1,0.3,0.2,0.4,0.2C13.8,19.2,14,19.1,14.1,19z">
        </path>
    </symbol>
    <symbol id="symbol-berries" viewBox="0 0 23 23">
        <path d="M12.2,23c-2.8,0-5.2-2.3-5.2-5.2c0-2.8,2.3-5.2,5.2-5.2s5.2,2.3,5.2,5.2C17.4,20.7,15.1,23,12.2,23z M12.2,13.3
              c-2.5,0-4.5,2-4.5,4.5c0,2.5,2,4.5,4.5,4.5s4.5-2,4.5-4.5C16.7,15.3,14.7,13.3,12.2,13.3z">
        </path>
        <path d="M5.2,21.7c-2.8,0-5.2-2.3-5.2-5.2s2.3-5.2,5.2-5.2c1.8,0,3.5,0.9,4.4,2.5c0.1,0.2,0,0.4-0.1,0.4c-0.2,0.1-0.4,0-0.4-0.1
              C8.2,12.9,6.7,12,5.2,12c-2.5,0-4.5,2-4.5,4.5c0,2.5,2,4.5,4.5,4.5c1,0,2-0.3,2.7-0.9C8,20,8.2,20,8.4,20.2
              c0.1,0.1,0.1,0.3-0.1,0.5C7.4,21.3,6.3,21.7,5.2,21.7z">
        </path>
        <path d="M14.7,14c-0.1,0-0.2,0-0.2-0.1c-0.1-0.1-0.1-0.3,0-0.5c0.8-0.9,1.3-2,1.3-3.2c0-2.5-2-4.5-4.5-4.5s-4.5,2-4.5,4.5
              c0,0.6,0.1,1.1,0.3,1.6c0.1,0.2,0,0.4-0.2,0.4c-0.2,0.1-0.4,0-0.4-0.2c-0.2-0.6-0.3-1.2-0.3-1.9c0-2.8,2.3-5.2,5.2-5.2
              s5.2,2.3,5.2,5.2c0,1.4-0.5,2.7-1.5,3.6C14.9,14,14.8,14,14.7,14z">
        </path>
        <path d="M17.8,19c-0.3,0-0.6,0-0.9-0.1c-0.2,0-0.3-0.2-0.3-0.4c0-0.2,0.2-0.3,0.4-0.3c0.3,0,0.5,0.1,0.8,0.1c2.5,0,4.5-2,4.5-4.5
              c0-2.5-2-4.5-4.5-4.5c-0.6,0-1.2,0.1-1.7,0.3c-0.2,0.1-0.4,0-0.4-0.2c-0.1-0.2,0-0.4,0.2-0.4c0.6-0.3,1.3-0.4,2-0.4
              c2.8,0,5.2,2.3,5.2,5.2C23,16.6,20.7,19,17.8,19z">
        </path>
        <path d="M3.1,12.5c-0.1,0-0.2,0-0.2-0.1C0.8,10.1,0,7.6,0.3,4.6c0-0.2,0.1-0.3,0.3-0.3c2.9-0.2,5.2,0.9,6.8,3.2
              C7.5,7.7,7.5,7.9,7.3,8C7.2,8.1,7,8,6.9,7.9c-1.4-2.1-3.4-3.1-5.9-3c-0.3,2.7,0.5,5,2.4,7c0.1,0.1,0.1,0.3,0,0.5
              C3.3,12.5,3.2,12.5,3.1,12.5z">
        </path>
        <path d="M8.3,6.8C8.2,6.8,8,6.7,8,6.5C7.2,4.2,7.9,2,10,0.1c0.1-0.1,0.3-0.1,0.4,0c2.5,1.7,3.8,3.7,3.7,6.1c0,0.2-0.1,0.3-0.3,0.3
              c0,0,0,0,0,0c-0.2,0-0.3-0.2-0.3-0.3c0-2.1-1-3.9-3.2-5.4C8.5,2.5,7.9,4.3,8.6,6.3c0.1,0.2,0,0.4-0.2,0.4C8.4,6.8,8.3,6.8,8.3,6.8
              z">
        </path>
        <path d="M10.9,5.8c-0.2,0-0.3-0.1-0.3-0.3L10,2.9c0-0.2,0.1-0.3,0.3-0.4c0.2,0,0.3,0.1,0.4,0.3l0.5,2.6C11.2,5.5,11.1,5.7,10.9,5.8
              C10.9,5.7,10.9,5.8,10.9,5.8z">
        </path>
        <path d="M6.7,12c-0.1,0-0.2,0-0.3-0.1L3.1,7.8C3,7.6,3,7.4,3.2,7.3c0.1-0.1,0.3-0.1,0.5,0l3.3,4.1c0.1,0.1,0.1,0.3,0,0.5
              C6.8,12,6.7,12,6.7,12z">
        </path>
        <path d="M13.7,20.2c0,0-0.1,0-0.1,0c-0.2-0.1-0.3-0.2-0.2-0.4c0.2-0.6-0.1-1.3-0.6-1.4c-0.2-0.1-0.3-0.2-0.2-0.4
              c0.1-0.2,0.2-0.3,0.4-0.2c0.9,0.3,1.3,1.3,1,2.3C14,20.2,13.8,20.2,13.7,20.2z">
        </path>
        <path d="M13.7,20.2c0,0-0.1,0-0.1,0c-0.2-0.1-0.3-0.2-0.2-0.4c0.2-0.5,0.5-0.9,0.9-1.1c0.4-0.2,0.8-0.2,1.2-0.1
              c0.2,0.1,0.3,0.2,0.2,0.4c-0.1,0.2-0.2,0.3-0.4,0.2c-0.2-0.1-0.5-0.1-0.7,0.1c-0.3,0.1-0.5,0.4-0.6,0.7
              C14,20.2,13.8,20.2,13.7,20.2z">
        </path>
        <path d="M13.3,18.5c-0.2,0-0.3,0-0.5-0.1c-0.2-0.1-0.3-0.2-0.2-0.4c0.1-0.2,0.2-0.3,0.4-0.2c0.2,0.1,0.5,0.1,0.7-0.1
              c0.3-0.1,0.5-0.4,0.6-0.7c0.1-0.2,0.2-0.3,0.4-0.2c0.2,0.1,0.3,0.2,0.2,0.4c-0.2,0.5-0.5,0.9-0.9,1.1
              C13.8,18.4,13.5,18.5,13.3,18.5z">
        </path>
        <path d="M15.5,19.3c0,0-0.1,0-0.1,0c-0.9-0.3-1.3-1.3-1-2.3c0.1-0.2,0.2-0.3,0.4-0.2c0.2,0.1,0.3,0.2,0.2,0.4
              c-0.2,0.6,0.1,1.3,0.6,1.4c0.2,0.1,0.3,0.2,0.2,0.4C15.7,19.2,15.6,19.3,15.5,19.3z">
        </path>
        <path d="M8.6,10.5c0,0-0.1,0-0.1,0c-0.2-0.1-0.3-0.2-0.2-0.4c0.2-0.6-0.1-1.3-0.6-1.4C7.5,8.5,7.4,8.4,7.5,8.2
              C7.6,8,7.7,7.9,7.9,8c0.9,0.3,1.3,1.3,1,2.3C8.9,10.4,8.7,10.5,8.6,10.5z">
        </path>
        <path d="M8.6,10.5c0,0-0.1,0-0.1,0c-0.2-0.1-0.3-0.2-0.2-0.4c0.2-0.5,0.5-0.9,0.9-1.1c0.4-0.2,0.8-0.2,1.2-0.1
              c0.2,0.1,0.3,0.2,0.2,0.4c-0.1,0.2-0.2,0.3-0.4,0.2C10,9.4,9.8,9.4,9.5,9.5C9.2,9.7,9,9.9,8.9,10.2C8.9,10.4,8.7,10.5,8.6,10.5z">
        </path>
        <path d="M8.2,8.7c-0.2,0-0.3,0-0.5-0.1C7.5,8.5,7.4,8.4,7.5,8.2C7.6,8,7.7,7.9,7.9,8C8.1,8.1,8.4,8,8.6,7.9
              c0.3-0.1,0.5-0.4,0.6-0.7C9.3,7,9.5,6.9,9.7,7C9.8,7,9.9,7.2,9.9,7.4C9.7,7.9,9.4,8.3,8.9,8.5C8.7,8.6,8.4,8.7,8.2,8.7z">
        </path>
        <path d="M10.4,9.5c0,0-0.1,0-0.1,0c-0.9-0.3-1.3-1.3-1-2.3C9.3,7,9.5,6.9,9.7,7C9.8,7,9.9,7.2,9.9,7.4C9.7,8,9.9,8.7,10.5,8.8
              c0.2,0.1,0.3,0.2,0.2,0.4C10.6,9.4,10.5,9.5,10.4,9.5z">
        </path>
        <path d="M18.8,12.8c-0.1,0-0.2-0.1-0.3-0.1c-0.1-0.1-0.1-0.4,0.1-0.4c0.4-0.2,0.4-0.8,0.2-1.2c-0.1-0.1-0.1-0.4,0.1-0.4
              c0.1-0.1,0.4-0.1,0.4,0.1c0.5,0.7,0.3,1.7-0.3,2.1C19,12.8,18.9,12.8,18.8,12.8z">
        </path>
        <path d="M20.1,11.8c-0.1,0-0.2,0-0.3,0c-0.4-0.1-0.8-0.3-1-0.7c-0.1-0.1-0.1-0.4,0.1-0.4c0.1-0.1,0.4-0.1,0.4,0.1
              c0.1,0.2,0.4,0.4,0.6,0.4c0.2,0,0.4,0,0.6-0.1c0.1-0.1,0.4-0.1,0.4,0.1c0.1,0.1,0.1,0.4-0.1,0.4C20.6,11.7,20.4,11.8,20.1,11.8z">
        </path>
        <path d="M20.4,13.3c-0.1,0-0.2-0.1-0.3-0.1c-0.1-0.2-0.4-0.4-0.6-0.4c-0.2,0-0.4,0-0.6,0.1c-0.1,0.1-0.4,0.1-0.4-0.1
              c-0.1-0.1-0.1-0.4,0.1-0.4c0.3-0.2,0.7-0.3,1-0.2c0.4,0.1,0.8,0.3,1,0.7c0.1,0.1,0.1,0.4-0.1,0.4C20.6,13.2,20.5,13.3,20.4,13.3z">
        </path>
        <path d="M20.4,13.3c-0.1,0-0.2-0.1-0.3-0.1c-0.5-0.7-0.3-1.7,0.3-2.1c0.1-0.1,0.4-0.1,0.4,0.1c0.1,0.1,0.1,0.4-0.1,0.4
              c-0.4,0.2-0.4,0.8-0.2,1.2c0.1,0.1,0.1,0.4-0.1,0.4C20.6,13.2,20.5,13.3,20.4,13.3z">
        </path>
        <path d="M3.3,17c-0.3,0-0.6-0.1-0.8-0.3c-0.3-0.2-0.6-0.6-0.6-1c0-0.2,0.1-0.3,0.2-0.4c0.2,0,0.3,0.1,0.4,0.2
              c0.1,0.2,0.2,0.5,0.4,0.6c0.2,0.1,0.4,0.2,0.6,0.1c0.2,0,0.3,0.1,0.4,0.2c0,0.2-0.1,0.3-0.2,0.4C3.5,17,3.4,17,3.3,17z">
        </path>
        <path d="M1.3,17.5c-0.1,0-0.3-0.1-0.3-0.3c0-0.2,0.1-0.3,0.2-0.4c0.4-0.1,0.7-0.6,0.6-1.1c0-0.2,0.1-0.3,0.2-0.4
              c0.2,0,0.3,0.1,0.4,0.2C2.6,16.5,2.2,17.3,1.3,17.5C1.4,17.5,1.4,17.5,1.3,17.5z">
        </path>
        <path d="M2.7,18.5c-0.1,0-0.3-0.1-0.3-0.3c-0.2-0.8,0.3-1.7,1-1.9c0.2,0,0.3,0.1,0.4,0.2c0,0.2-0.1,0.3-0.2,0.4
              c-0.4,0.1-0.7,0.6-0.6,1.1C3.1,18.2,2.9,18.4,2.7,18.5C2.7,18.5,2.7,18.5,2.7,18.5z">
        </path>
        <path d="M2.7,18.5c-0.1,0-0.3-0.1-0.3-0.3C2.3,18,2.2,17.7,2,17.6c-0.2-0.1-0.4-0.1-0.6-0.1c-0.2,0-0.3-0.1-0.4-0.2
              c0-0.2,0.1-0.3,0.2-0.4c0.4-0.1,0.7,0,1,0.2c0.4,0.2,0.6,0.6,0.7,1C3.1,18.2,2.9,18.4,2.7,18.5C2.7,18.5,2.7,18.5,2.7,18.5z">
        </path>
    </symbol>
    <symbol id="symbol-corn" viewBox="0 0 22 15.7">
        <path d="M11,0C5.7,0,0,1.5,0,4.2v7.2c0,2.7,5.7,4.2,11,4.2s11-1.5,11-4.2V4.2C22,1.5,16.3,0,11,0z M11,1c5.9,0,10,1.7,10,3.2
              s-4.1,3.2-10,3.2S1,5.7,1,4.2S5.1,1,11,1z M21,11.4c0,1.5-4.1,3.2-10,3.2S1,12.9,1,11.4V9.5l0-1.2V6.1c1.9,1.5,6,2.4,10,2.4
              s8.1-0.8,10-2.4l0,2.3">
        </path>
    </symbol> 
    <symbol id="symbol-cake-2" viewBox="0 0 28 27">
        <path d="M26.4,15.7c-0.2,0.1-0.5,0.1-0.7,0.1c-0.6,0-1.2-0.2-1.7-0.5c-0.5,0.3-1.1,0.5-1.7,0.5c-0.6,0-1.2-0.2-1.7-0.5
              c-0.5,0.3-1.1,0.5-1.7,0.5c-0.6,0-1.2-0.2-1.7-0.5c-0.5,0.3-1.1,0.5-1.7,0.5s-1.2-0.2-1.7-0.5c-0.5,0.3-1.1,0.5-1.7,0.5
              s-1.2-0.2-1.7-0.5c-0.5,0.3-1.1,0.5-1.7,0.5s-1.2-0.2-1.7-0.5c-0.5,0.3-1.1,0.5-1.7,0.5S4.5,15.6,4,15.3c-0.5,0.3-1.1,0.5-1.7,0.5
              c-0.3,0-0.5,0-0.7-0.1v2.5h24.8L26.4,15.7L26.4,15.7z">
        </path>
        <path d="M1.6,24c0,0,0,0.1,0,0.1h24.8c0,0,0-0.1,0-0.1v-5H1.6V24z"></path>
        <path d="M1.6,14.9C1.8,15,2.1,15,2.3,15C3,15,3.7,14.6,4,14.1C4.3,14.6,5,15,5.7,15c0.7,0,1.3-0.4,1.7-0.9C7.7,14.6,8.3,15,9,15
              s1.3-0.4,1.7-0.9c0.3,0.5,1,0.9,1.7,0.9c0.7,0,1.3-0.4,1.7-0.9c0.3,0.5,1,0.9,1.7,0.9c0.7,0,1.3-0.4,1.7-0.9
              c0.3,0.5,1,0.9,1.7,0.9s1.3-0.4,1.7-0.9c0.3,0.5,1,0.9,1.7,0.9s1.3-0.4,1.7-0.9c0.3,0.5,1,0.9,1.7,0.9c0.3,0,0.5-0.1,0.7-0.1
              c0.7-0.3,1.2-0.9,1.2-1.7c0-0.1,0-0.2,0-0.2c0,0,0-0.1,0-0.1v-2.4c0-0.3-0.4-0.6-0.8-0.6H15V9.4V9V7.3c0-0.4-0.4-0.8-0.8-0.8h-0.4
              c-0.4,0-0.8,0.4-0.8,0.8V9v0.4v0.4H1.2c-0.5,0-0.8,0.3-0.8,0.6v2.4c0,0,0,0.1,0,0.1c0,0.1,0,0.2,0,0.2C0.4,13.9,0.9,14.6,1.6,14.9
              z">
        </path>
        <path d="M27.2,24.9H0.8c-0.4,0-0.8,0.4-0.8,1V26c0,0.6,0.4,1,0.8,1h26.4c0.4,0,0.8-0.4,0.8-1v-0.1C28,25.4,27.6,24.9,27.2,24.9z"></path>
        <path d="M14.2,6C14.2,6,14.2,6.1,14.2,6c1-0.2,1.9-1.4,1.7-2.5c-0.2-1-0.9-1.4-1.3-2.2c-0.2-0.3-0.3-0.7-0.2-1.1
              c0-0.3,0-0.3-0.2-0.1c-0.5,0.5-1,1.2-1.2,1.7c-0.3,0.6-0.3,1-0.1,1.6c0,0.2,0.1,0.3,0.1,0.4c0.1,0.2,0,0.4-0.3,0.3
              c-0.1,0-0.2-0.1-0.3-0.2c-0.2-0.2-0.3-0.2-0.2,0.1C12.3,5,13.2,6,14.2,6z">
        </path>
    </symbol>
    <symbol id="symbol-birthday-cake" viewBox="-41 164.9 512 512">
        <path d="M462.6,612.6h-28.4v-98.5c0-22-17.9-40-40-40h-12.3V371.4c0-19.7-16.1-35.8-35.8-35.8h-99.8V253
              c0-4.6-3.8-8.4-8.4-8.4h-14.5V232c11.1-3.6,19.2-14,19.2-26.3c0-12.9-16.4-31.7-21.4-37.2c-1.6-1.7-3.8-2.7-6.2-2.7
              c-2.4,0-4.6,1-6.2,2.7c-5,5.5-21.4,24.3-21.4,37.2c0,12.3,8.1,22.8,19.2,26.3v12.6h-14.5c-4.6,0-8.4,3.8-8.4,8.4v82.6H83.9
              c-19.7,0-35.8,16.1-35.8,35.8v74.1c0,4.6,3.8,8.4,8.4,8.4s8.4-3.8,8.4-8.4v-74.1c0-10.4,8.5-19,19-19h262.2c10.4,0,19,8.5,19,19
              v102.7H56.5H35.8c-22,0-40,17.9-40,40v69.1c0,4.6,3.8,8.4,8.4,8.4s8.4-3.8,8.4-8.4v-69.1c0-12.8,10.4-23.1,23.1-23.1h20.7h316.9
              h20.7c12.8,0,23.1,10.4,23.1,23.1v98.5H4.2h-36.8c-4.6,0-8.4,3.8-8.4,8.4c0,30.3,24.7,55,55,55H416c30.3,0,55-24.7,55-55
              C471,616.3,467.2,612.6,462.6,612.6z M204.2,205.7c0-2.9,4.7-10.7,10.8-18.5c6.1,7.8,10.8,15.6,10.8,18.5c0,6-4.8,10.8-10.8,10.8
              C209,216.5,204.2,211.7,204.2,205.7z M229.5,335.6h-29v-74.1h29V335.6z M416,659.1H14c-18.1,0-33.3-12.7-37.2-29.7H4.2h421.5h27.5
              C449.4,646.4,434.2,659.1,416,659.1z">
        </path>
        <path d="M336.7,377c-12.2-0.2-20.6,8.1-27.4,14.7c-6.1,6-10.2,9.7-14.5,9.5c-4.1-0.1-7.2-3.7-12-9.5
              c-5.6-6.8-12.6-15.2-24.5-15.6c-11.8-0.4-19.6,7.4-26.4,14.2c-6.3,6.3-10.6,10.1-15.8,10.1c0,0,0,0,0,0c-5.2,0-9.3-3.8-15.4-10.1
              c-6.5-6.6-14.5-14.9-26.7-14.9c-0.1,0-0.2,0-0.2,0c-12.7,0.1-20.9,9.1-27.5,16.3c-5.9,6.5-9.8,10.4-14.4,10.4c0,0,0,0,0,0
              c-4.5,0-8.4-3.9-14.1-10.4c-6.3-7-14-15.8-26.2-15.8c0,0-0.1,0-0.1,0c-4.6,0-8.4,3.8-8.4,8.5c0,4.6,3.8,8.4,8.4,8.4
              c0,0,0.1,0,0.1,0c4.2,0,8,3.8,13.6,10.1c6.3,7.1,14.2,16,26.7,16.1c0,0,0,0,0.1,0c12.3,0,20.3-8.8,26.8-15.9
              c6.1-6.7,10.2-10.8,15.2-10.8c4.9,0,8.8,3.7,14.7,9.8c6.6,6.8,14.8,15.2,27.5,15.2c0,0,0,0,0,0c12.6,0,20.9-8.3,27.7-15
              c5.8-5.8,9.7-9.3,13.8-9.3c0.1,0,0.1,0,0.2,0c4.1,0.1,7.2,3.7,12,9.5c5.6,6.8,12.6,15.2,24.5,15.6c11.9,0.4,20.2-7.8,26.8-14.4
              c6.3-6.2,10.4-10,15.2-9.9c4.7,0.1,8.5-3.6,8.6-8.3C345.1,380.9,341.4,377.1,336.7,377z">
        </path>
        <path d="M393.7,516.4c-12.6-0.4-20.9,7.9-28.3,15.3c-6.1,6-11.3,11.2-17.8,11.3c-5-0.1-8.6-3.8-14-9.9
              c-6.2-6.9-13.9-15.6-26.9-15.8c-0.2,0-0.3,0-0.5,0c-12.8,0-21.7,8.8-28.9,15.9c-5.9,5.8-11,10.8-16.5,10.7
              c-4.8-0.1-8.4-4.1-13.7-10.6c-6-7.3-13.5-16.4-26.2-16.8c-12.6-0.4-20.9,7.9-28.3,15.3c-6.1,6.1-11.4,11.3-17.9,11.3c0,0,0,0,0,0
              c-6,0-10.6-4.3-17.4-11.3c-7-7.2-15.6-16-28.6-16c-0.1,0-0.2,0-0.2,0c-13.6,0.1-22.4,9.8-29.5,17.6c-6.6,7.2-11,11.6-16.3,11.6
              c0,0,0,0,0,0c-5.3,0-9.6-4.4-16-11.7c-6.8-7.6-15.2-17.1-28.2-17c-4.6,0-8.4,3.8-8.4,8.5c0,4.6,3.8,8.4,8.4,8.4c0,0,0,0,0.1,0
              c5-0.1,9.2,4.3,15.5,11.4c6.8,7.7,15.4,17.3,28.6,17.3c0,0,0.1,0,0.1,0c13.1,0,21.4-9.1,28.7-17.1c6.8-7.5,11.4-12,17.2-12.1
              c0,0,0.1,0,0.1,0c5.5,0,9.9,4.1,16.6,11c7.1,7.3,16,16.4,29.5,16.4c0,0,0,0,0,0c13.4,0,22.4-9,29.7-16.2c6.6-6.6,11-10.5,16-10.4
              c4.8,0.1,8.4,4.1,13.7,10.6c6,7.3,13.5,16.4,26.2,16.8c12.7,0.4,21.2-8.1,28.8-15.5c6.1-6,11.3-11.2,17.2-11
              c5.4,0.1,9.1,3.9,14.7,10.2c6.1,6.8,13.7,15.3,26.4,15.5c0,0,0.1,0,0.1,0c13.4,0,22.4-9,29.7-16.2c6.6-6.6,11-10.5,16-10.4
              c4.7,0.1,8.5-3.5,8.7-8.2C402,520.4,398.3,516.5,393.7,516.4z">
        </path>
    </symbol>
    <symbol id="symbol-book" viewBox="0 0 22 21">
        <path d="M2.5,1.3C2.4,4.5,2,7.6,1.8,10.7c-0.2,2.7-0.7,5.7,0.1,8.2c0,0.2,0.2,0.2,0.4,0.2c2.2-1,3.7-1.8,6.3-1.2
              c0.7,0.2,1.8,1.4,2.6,0.9c0.4-0.2,0.3-1.7,0.4-2.1c0.2-2.3,0-4.7-0.1-7.1c-0.1-2.1-0.3-4.1-0.3-6.2c0-0.8,0.4-2.2-0.5-2.8
              c-2.1-1.2-6-0.7-8,0.4c-0.3,0.2,0,0.7,0.3,0.5C5,0.5,7.5,0.6,9.8,1c1.2,0.2,1,6.7,1,7.8c0.2,2.3,0.3,4.7,0.2,7.1
              c0,1.2,0.5,3-0.9,2.1c-0.6-0.4-1.3-0.6-2-0.7C7,16.9,5.8,17,4.6,17.4c-0.7,0.2-1.3,0.6-1.9,0.9c-0.8,0.5-0.6-2.8-0.6-3.2
              C2.3,10.5,3,6,3.1,1.4C3.1,1,2.5,1,2.5,1.3L2.5,1.3z">
        </path>
        <path d="M11.1,1.4c1.3-0.6,8.2-1.5,8.3,0.8c0.1,2.7,0,5.3-0.1,8c0,0.8,0.1,7.7-0.7,7.6c-2.5-0.3-5-0.2-7.4,0.3
              c-0.4,0.1-0.2,0.7,0.1,0.6c2.7-0.7,5.3-0.5,8.1-0.2c0.1,0,0.3-0.1,0.3-0.3c0.1-2.9,0.2-5.9,0.3-8.9c0-2.3,0.6-5.4,0.1-7.7
              c-0.3-1.4-1.3-1.3-2.5-1.4c-2.2-0.1-4.7-0.4-6.7,0.5C10.4,1.1,10.7,1.6,11.1,1.4L11.1,1.4z">
        </path>
        <path d="M19.9,2.8c2.1,0,1.4,3.6,1.4,5.1c0,2.4,0,4.9,0,7.3c0,0.9,0,1.8,0,2.7c0,2.1-1.9,2.3-3.6,2.3c-2.3,0.1-4.7,0-7.1,0
              c-2.1,0-4.2,0-6.3-0.1c-0.9,0-3.7,0.3-3.7-1.3c0-1.2,0-2.5,0-3.7c0-2.1,0-4.3,0-6.4c0-1.8-0.9-6.4,1.8-6.1c0.4,0,0.4-0.6,0-0.6
              C1.7,2,0.1,1.7,0.1,2.9c-0.1,3.2,0,6.4,0,9.5c0,1.5,0,3.1,0,4.6c0,0.8-0.3,2.4,0.1,3.2c0.1,0.2,0.4,0.2,0.6,0.3
              c1.8,0.1,3.6,0.2,5.4,0.3C9.5,21,12.8,21,16.1,21c1,0,5.1,0.4,5.7-0.7c0.4-0.6,0.1-1.7,0.1-2.3c0-1.8,0-3.6,0-5.5
              c0-3.3,0-6.7-0.1-10c0-0.1-0.1-0.3-0.3-0.3c-0.5,0-1.1,0-1.6,0C19.5,2.2,19.5,2.8,19.9,2.8L19.9,2.8z">
        </path>
    </symbol>
    
    <symbol id="symbol-camera" viewBox="0 0 20 14">
        <path class="st0" d="M0,3.1C0,2.5,0.5,2,1.1,2h3.5c0.2,0,0.5-0.1,0.7-0.2L7,0.2C7.1,0.1,7.4,0,7.6,0h4.7c0.2,0,0.5,0.1,0.7,0.2
              l1.7,1.5C14.9,1.9,15.2,2,15.4,2h3.5C19.5,2,20,2.5,20,3.1v9.7c0,0.6-0.5,1.1-1.1,1.1H1.1C0.5,14,0,13.5,0,12.9V3.1z M14.1,2.5
              L12.4,1c0,0-4.7,0-4.7,0c0,0-1.7,1.5-1.7,1.5C5.6,2.8,5.1,3,4.6,3H1.1C1.1,3,1,3.1,1,3.1v9.7C1,12.9,1.1,13,1.1,13h17.7
              c0.1,0,0.1-0.1,0.1-0.1V3.1C19,3.1,18.9,3,18.9,3h-3.5C14.9,3,14.4,2.8,14.1,2.5 M10,12c-2.5,0-4.5-2-4.5-4.5C5.5,5,7.5,3,10,3
              s4.5,2,4.5,4.5C14.5,10,12.5,12,10,12 M10,11c1.9,0,3.5-1.6,3.5-3.5S11.9,4,10,4S6.5,5.6,6.5,7.5S8.1,11,10,11 M16,4.1
              C16,4.1,16.1,4,16.1,4h1.2c0.1,0,0.1,0.1,0.1,0.1v1.2c0,0.1-0.1,0.1-0.1,0.1h-1.2c-0.1,0-0.1-0.1-0.1-0.1V4.1z">
        </path>
    </symbol>
    <symbol id="symbol-clip-2" viewBox="0 0 17 18.8">
        <path d="M6.7,17.7C6,18.4,5,18.8,4,18.8s-2-0.4-2.8-1.1C0.4,17,0,16,0,14.9c0-1.1,0.4-2,1.1-2.8l6.3-6.3C7.9,5.3,8.6,5,9.3,5
              c0,0,0,0,0,0c0.7,0,1.4,0.3,1.9,0.8C11.7,6.3,12,7,12,7.7s-0.3,1.4-0.8,1.9L7,13.9c-0.1,0.1-0.3,0.1-0.5,0c-0.1-0.1-0.1-0.3,0-0.5
              l4.2-4.3c0.4-0.4,0.6-0.9,0.6-1.4c0-0.5-0.2-1-0.6-1.4c-0.4-0.4-0.9-0.6-1.4-0.6c0,0,0,0,0,0c-0.5,0-1,0.2-1.4,0.6l-6.3,6.3
              c-0.6,0.6-1,1.4-1,2.3c0,0.9,0.3,1.7,1,2.3c0.6,0.6,1.4,1,2.3,0.9s1.7-0.3,2.3-1L15,8.4c0.9-0.9,1.3-2,1.3-3.2C16.3,4,15.9,2.8,15,2
              c-0.9-0.9-2-1.3-3.2-1.3c-1.2,0-2.3,0.5-3.2,1.3L1.9,8.8c-0.1,0.1-0.3,0.1-0.5,0c-0.1-0.1-0.1-0.3,0-0.5l6.7-6.8
              c1-1,2.3-1.5,3.7-1.5c1.4,0,2.7,0.5,3.7,1.5S17,3.8,17,5.2c0,1.4-0.5,2.7-1.5,3.7L6.7,17.7z">
        </path>
    </symbol>
    <symbol id="symbol-cake-5" viewBox="0 0 50 50.7">
        <path d="M46.2,15c-0.9-0.2-2.1-0.5-2.7-3.6c-0.1-0.2-0.2-0.2-0.4-0.2c-0.1,0-0.2,0.1-0.2,0.2v1.3
              c-0.5,0.7-1.1,1.2-1.9,1.5c-0.6,0.2-1,0.7-1.1,1.3c0,0.7,0.4,1.4,1,1.8c0.5,0.3,1.2,0.5,1.8,0.5c0.8,0,1.6-0.2,2.4-0.5
              c0.3,0.2,0.6,0.2,0.9,0.2c0.6-0.1,1.1-0.5,1.4-1c0.1-0.4,0-0.8-0.2-1.1C47,15.2,46.6,15,46.2,15z M41.3,16.8
              c-0.4-0.2-0.7-0.7-0.7-1.2c0-0.4,0.3-0.7,0.7-0.8c0.7-0.3,1.3-0.7,1.7-1.2c0.1,0.9,0.3,2.1,0.8,2.6l0.1,0.1
              c0.2,0.2,0.5,0.5,0.7,0.7C43.1,17.4,42.1,17.3,41.3,16.8L41.3,16.8z M46.9,16.3c-0.2,0.3-0.5,0.6-0.9,0.6c-0.2,0-0.4,0-0.6-0.2
              l0,0c-0.4-0.3-0.8-0.6-1.1-0.9l-0.1-0.1c-0.2-0.2-0.5-1.2-0.6-2c0.4,1,1.4,1.7,2.5,1.9c0.2,0,0.5,0.1,0.7,0.2
              C46.9,15.9,46.9,16.1,46.9,16.3L46.9,16.3z">
        </path>
        <path d="M30.3,11.5c0.4-1.9-0.3-3.3-2.1-4c-0.8-0.3-1.6-0.3-2.4-0.2l-0.3-1.4c-0.8-3.6-2.7-5.1-3.3-5.4
              c-0.1-0.1-0.3-0.1-0.4-0.2s-0.3-0.2-0.5-0.2S21,0.2,21,0.4c0,0.2,0.1,0.3,0.3,0.3l0.1,0.1c0.1,0.1,0.3,0.2,0.5,0.3
              c0,0,2.1,1.1,3,5l0.3,1.3c-1.6-0.2-2.9,0.2-3.7,1c-0.6,0.6-0.9,1.4-0.9,2.2l0,0c-0.1,0.6-1.2,1-1.6,1.1C13,12.4,7.9,14,4.7,16.1
              l0,0c-0.4,0.3-4.4,2.6-4.4,4.5c0,0.6,0.1,1.1,0.2,1.7c0.3,1.2,0.2,2.4-0.2,3.5C-0.2,27,0,28.3,0.7,29.4c0.2,0.3,0.6,0.5,0.9,0.6
              l0.3,6.7c0.1,3.2,1.8,6.2,4.4,8c4.3,2.9,10.1,5.9,20.1,5.9c9.5,0,15.7-3.6,19.1-6.5c2.1-1.8,3.3-4.4,3.4-7.1l0.6-12.3l0,0l0.2-3.5
              C49.9,16.4,41.7,12.4,30.3,11.5z M32,16.8c-0.5-1-2.5-1.3-3.9-1.4l-0.6-0.1c-1.1-0.2-2.3-1.7-2.4-1.7c-0.2-0.2-0.3-0.3-0.4-0.4
              c0.3-0.1,0.6-0.2,1-0.3s0.9,0.2,1.5,0.6c0.4,0.3,0.9,0.5,1.4,0.6c0.5,0,1-0.1,1.4-0.4c0.3-0.2,0.6-0.3,0.9-0.4
              c0.6-0.1,1.8,1,2.7,2c0.1,0.1,0.1,0.3,0.1,0.4c-0.2,0.8-0.6,1.5-1.2,2.1c-0.1,0.1-0.2,0.1-0.3,0.1c-0.1,0-0.1-0.1-0.1-0.1
              C32.2,17.5,32.2,17.2,32,16.8z M20,15.9c0.3,1.1,1.3,2,2.7,2.4c-1.3,0.4-3.4,0.8-4.7-0.3c-0.5-0.5-1.1-1.7-0.7-2.3
              c0.2-0.3,0.4-0.5,0.6-0.7l0,0c0.6-0.4,1.4-0.6,2.1-0.4C19.9,15.1,19.9,15.5,20,15.9z M20.6,15.8c-0.2-0.6,0-1.2,0.5-1.7
              c0.8-0.6,1.9-0.9,2.9-0.7c0.3,0.2,0.5,0.4,0.7,0.6c0.1,0.1,1.4,1.7,2.7,1.9L28,16c1.1,0.1,3.1,0.4,3.4,1.1
              c0.1,0.2,0.1,0.4-0.1,0.6v0.1c-0.4,0.4-3.6,0.5-7.5,0.1l0,0h-0.2C22.1,17.6,20.9,16.9,20.6,15.8z M21.9,8.7c0.7-0.7,2-1,3.6-0.8
              h0.1C26.4,7.7,27.2,7.8,28,8c1.6,0.6,2.2,1.8,1.6,3.6l0,0c-0.2,0.6-0.5,1.3-0.8,1.8c0,0,0,0,0,0.1h-0.1c-0.4-0.1-0.8-0.3-1.1-0.5
              c-0.6-0.4-1.2-0.8-1.9-0.6c-0.5,0.1-1.1,0.3-1.6,0.4c-0.7-0.1-1.5,0-2.2,0.2l-0.2-0.5l0,0c-0.2-0.5-0.3-0.9-0.4-1.4
              C21.1,10.3,21.4,9.4,21.9,8.7z M19.2,12.2c0.5-0.1,1-0.4,1.5-0.7c0.1,0.4,0.2,0.9,0.4,1.3l0.2,0.5c-0.2,0.1-0.4,0.2-0.6,0.4
              c-0.2,0.1-0.3,0.3-0.4,0.5c-0.7-0.2-1.5-0.1-2.2,0.2C18,13.4,18.5,12.7,19.2,12.2z M48.5,36.9c-0.1,2.6-1.3,5-3.2,6.7
              c-3.4,2.9-9.4,6.4-18.7,6.4c-9.8,0-15.5-2.9-19.8-5.8c-2.5-1.7-4.1-4.5-4.2-7.5l-0.3-6.8c0.7-0.2,1.2-1.1,1.6-1.8
              c0.2-0.3,0.6-1.1,0.7-1c0.8,0.4,1.8,3.1,1.5,5c-0.3,1.8-0.5,3.4,1.2,3.8c0.2,0,0.4,0,0.5-0.1c0.4-0.3,0.5-1.2,0.6-2.4
              c0.1-1.2,0.2-2.8,0.8-3.4c0.2-0.2,0.5-0.2,0.7-0.2c2.8,0.3,4.1,1.7,4,4.2s0.2,4.2,1,5c0.3,0.3,0.8,0.5,1.2,0.4
              c0.3,0,0.5-0.2,0.7-0.4c0.5-0.7,0.2-2-0.1-3.4c-0.2-0.7-0.3-1.4-0.3-2.2c0-0.8,0.5-2.3,1.6-2.8s2.5,0,4.3,1.5c1,1,1.7,2.2,2,3.6
              c0.4,1.8,1.4,2.3,2,2.3c0.5,0,1.1-0.4,1.1-1.5c0.2-1.9,0.5-4.1,1.8-5c0.8-0.5,1.8-0.6,3.3-0.2c1.9,0.5,2.1,1.8,2.5,4.3
              c0.1,0.8,0.3,1.6,0.5,2.6c0.1,0.9,0,1.8-0.2,2.7c-0.1,0.4-0.2,0.9-0.2,1.3c0,0.8,0.4,1.5,1.1,1.9c0.2,0.2,0.8,0.5,1.2,0.3
              c1.5-0.7,1.2-1.8,0.8-3c-0.1-0.2-0.1-0.4-0.2-0.7c-0.3-1.2-0.2-4.5,0.5-5.5c0.2-0.2,0.3-0.2,0.3-0.2c1.3-0.1,2-1.1,2.5-1.9
              c0.3-0.4,0.6-0.9,0.8-0.9c0.1,0,0.4,0.1,0.8,1.1c0.1,0.4,0.5,0.6,0.9,0.6c1.5-0.1,3.6-4.4,4.8-7.3L48.5,36.9z M49.1,24.6
              c-1.3,3.8-3.9,8.6-5,8.7c-0.1,0-0.2,0-0.3-0.3c-0.5-0.9-0.9-1.3-1.3-1.4c-0.6,0-0.9,0.5-1.4,1.2c-0.5,0.8-1.1,1.6-2.1,1.7
              c-0.3,0-0.6,0.2-0.8,0.5c-0.9,1.2-0.9,4.8-0.7,6c0.1,0.2,0.1,0.5,0.2,0.7c0.4,1.3,0.5,1.9-0.5,2.3c-0.3-0.1-0.6-0.2-0.8-0.5
              c-0.3-0.3-0.5-0.7-0.6-1.1c0.1-0.4,0.1-0.8,0.2-1.2c0.3-1,0.4-2,0.2-2.9c-0.2-1-0.4-1.8-0.5-2.6c-0.4-2.5-0.7-4.1-3-4.8
              c-1.6-0.4-2.8-0.3-3.8,0.3c-1.5,1.1-1.9,3.3-2.1,5.4c-0.1,0.6-0.3,0.9-0.6,0.9c-0.4,0-1.1-0.6-1.4-1.8c-0.3-1.5-1.1-2.8-2.2-3.9
              c-1.9-1.6-3.6-2.1-4.9-1.6c-1.4,0.7-1.9,2.4-2,3.4c0,0.8,0.1,1.5,0.3,2.3c0.2,1.1,0.5,2.5,0.2,2.9c-0.1,0.1-0.2,0.1-0.3,0.1
              c-0.3,0-0.6,0-0.8-0.2c-0.6-0.6-0.9-2.2-0.8-4.5c0.1-2.9-1.4-4.5-4.6-4.9c-0.4-0.1-0.9,0.1-1.2,0.3c-0.9,0.7-1,2.4-1.1,3.8
              c0,0.7-0.1,1.9-0.4,2c-1-0.2-1.2-1-0.8-3.1c0.4-2-0.6-5-1.8-5.6c-0.6-0.3-1.1,0.4-1.5,1.2c-0.4,0.7-0.9,1.5-1.4,1.5l0,0
              c-0.3,0-0.6-0.2-0.7-0.4c-0.6-0.9-0.7-2-0.4-3c0.5-1.2,0.5-2.5,0.2-3.8c-0.1-0.5-0.2-1-0.2-1.6c0-1.3,2.9-3.3,4-3.9h0.1
              c2.9-2,7.6-3.5,13.1-4.2c-0.5,0.6-0.8,1.4-0.7,2.2c-0.2,0.2-0.5,0.5-0.6,0.7c-0.6,1,0.1,2.5,0.8,3.1c2.1,1.7,5.7,0.3,6.3,0
              c2.8,0.3,6.7,0.5,7.8-0.1c0.1,0.1,0.2,0.2,0.3,0.2c0.3,0.1,0.6,0,0.8-0.2c0.7-0.7,1.2-1.5,1.4-2.5c0.1-0.3,0-0.6-0.2-0.9
              c-0.6-0.7-2.2-2.4-3.3-2.2c-0.4,0.1-0.7,0.2-1.1,0.5H29c0.2-0.4,0.3-0.8,0.5-1.1c10.9,0.8,19.1,4.7,19.1,9L49.1,24.6z">
        </path>
        <path d="M26.6,50.7c-4.6,0-8.6-0.6-12.2-1.9c-3.5-1.2-6.1-2.8-8-4.1c-1.3-0.9-2.4-2.1-3.2-3.5c-0.8-1.4-1.2-3-1.3-4.6
              l-0.3-6.7c-0.4-0.1-0.7-0.3-0.9-0.7c-0.8-1.1-0.9-2.5-0.5-3.7c0.4-1.1,0.5-2.3,0.2-3.4l0,0c-0.1-0.6-0.2-1.1-0.2-1.7l0,0
              c0-0.8,0.7-1.8,2.1-2.9c1-0.8,2.1-1.5,2.4-1.6c3.2-2.2,8.3-3.8,14.3-4.4c0.4-0.1,1.4-0.4,1.5-1c0-0.9,0.3-1.7,0.9-2.3l0,0
              c0.8-0.8,2-1.2,3.6-1l-0.3-1.1c-0.5-2-1.2-3.2-1.8-3.9c-0.6-0.7-1.1-1-1.1-1c-0.2-0.1-0.3-0.2-0.5-0.3l-0.1-0.1
              c-0.2,0-0.4-0.2-0.4-0.4C20.8,0.2,21,0,21.2,0l0,0c0.2,0,0.4,0.1,0.5,0.2s0.2,0.2,0.4,0.2c0.7,0.3,2.5,1.9,3.4,5.5l0,0l0.3,1.3
              c0.8-0.1,1.6,0,2.3,0.2l0,0C29,7.7,29.7,8.3,30,9c0.4,0.7,0.4,1.5,0.3,2.4c2.7,0.2,5.3,0.6,7.7,1.2c2.4,0.6,4.5,1.3,6.2,2.2
              c1.8,0.9,3.1,1.8,4.1,2.9s1.5,2.3,1.5,3.4l0,0l-0.2,3.5l0,0L49,36.9c-0.1,1.4-0.4,2.7-1,3.9s-1.4,2.3-2.5,3.2
              C42.3,47.2,36.1,50.7,26.6,50.7z M0.7,22.2c0.3,1.2,0.2,2.4-0.2,3.5c-0.4,1.2-0.3,2.5,0.4,3.5c0.2,0.3,0.5,0.5,0.9,0.6h0.1
              l0.3,6.8c0.1,3.2,1.8,6.1,4.4,7.9c4.3,2.9,10.1,5.9,20.1,5.9c9.5,0,15.6-3.5,19-6.5c2-1.8,3.3-4.3,3.4-7l0.6-12.3l0,0l0.2-3.5
              c0-4.6-8.2-8.6-19.5-9.5h-0.1v-0.1c0.4-1.8-0.3-3.2-2-3.8c-0.8-0.2-1.6-0.3-2.3-0.2h-0.1L25.6,6c-0.3-1.5-0.9-2.9-1.7-3.9
              c-0.6-0.8-1.2-1.3-1.5-1.4c-0.1-0.1-0.3-0.1-0.4-0.2l0,0c-0.1-0.1-0.3-0.2-0.4-0.2s-0.1,0-0.1,0.1l-0.1,0.1c0,0.1,0.1,0.2,0.2,0.2
              l0,0l0.2,0.1c0.1,0.1,0.3,0.2,0.4,0.3l0,0c0,0,0.5,0.3,1.2,1.1c0.6,0.7,1.4,2,1.8,4l0.3,1.4h-0.2c-1.6-0.1-2.8,0.2-3.6,1
              c-0.6,0.6-0.9,1.4-0.9,2.2l0,0l0,0c-0.1,0.9-1.6,1.2-1.7,1.2l0,0c-6,0.7-11.1,2.3-14.2,4.4l0,0c-0.2,0.1-1.3,0.8-2.3,1.6
              c-1.3,1.1-2,2-2,2.8C0.5,21.1,0.5,21.7,0.7,22.2z M26.6,50.1c-9.8,0-15.5-2.9-19.8-5.8c-1.3-0.8-2.3-2-3-3.3s-1.2-2.8-1.2-4.3
              l-0.3-6.8h0.1c0.7-0.2,1.1-1,1.5-1.7L4,28.1c0.3-0.6,0.6-0.9,0.7-1h0.1c0.4,0.2,0.9,1,1.2,2c0.4,1.1,0.5,2.2,0.3,3.1
              C6,34,5.8,35.5,7.5,35.9l0,0c0.2,0,0.3,0,0.4-0.1c0.4-0.3,0.5-1.2,0.5-2.3c0.1-1.3,0.2-2.9,0.9-3.5c0.2-0.2,0.5-0.3,0.8-0.2
              c1.5,0.2,2.5,0.6,3.2,1.3c0.7,0.7,1,1.7,0.9,3s0,2.3,0.2,3.1c0.2,0.8,0.4,1.4,0.8,1.8c0.3,0.3,0.7,0.4,1.1,0.4l0,0
              c0.2,0,0.5-0.1,0.6-0.3c0.5-0.6,0.2-1.9-0.1-3.3c-0.2-0.7-0.3-1.4-0.3-2.2l0,0c0-0.9,0.5-2.4,1.7-2.9s2.6,0,4.4,1.5l0,0
              c1,1,1.8,2.2,2.1,3.6c0.4,1.7,1.3,2.2,1.9,2.2c0.4,0,1-0.4,1-1.4l0,0c0.2-2,0.5-4.1,1.9-5.1c0.8-0.6,1.9-0.6,3.4-0.2
              c0.9,0.3,1.5,0.7,1.9,1.5c0.3,0.7,0.5,1.6,0.7,2.9l0,0c0.1,0.8,0.3,1.6,0.5,2.6l0,0c0.1,0.9,0,1.8-0.2,2.7
              c-0.1,0.4-0.2,0.9-0.2,1.3c0,0.7,0.4,1.4,1,1.8l0,0c0.3,0.2,0.7,0.5,1,0.3l0,0c1.4-0.6,1.1-1.7,0.8-2.9c-0.1-0.2-0.1-0.4-0.2-0.7
              c-0.1-0.6-0.2-1.7-0.1-2.8c0.1-0.8,0.2-2.1,0.7-2.7c0.2-0.2,0.3-0.3,0.4-0.3l0,0c1.2-0.1,1.9-1.1,2.4-1.9V33
              c0.4-0.6,0.7-0.9,0.9-0.9c0.2,0,0.6,0.4,0.9,1.1l0,0c0.1,0.3,0.4,0.5,0.8,0.5c0.6,0,1.5-0.9,2.4-2.6c1-1.7,1.9-3.7,2.3-4.7
              l0.2-0.6l-0.5,11c-0.1,1.3-0.4,2.5-0.9,3.7c-0.6,1.2-1.3,2.2-2.3,3C42,46.6,36,50.1,26.6,50.1z M2.5,30l0.3,6.7
              c0.1,3,1.7,5.8,4.1,7.4c4.3,2.9,10,5.8,19.7,5.8c9.3,0,15.3-3.5,18.6-6.4c1.9-1.7,3.1-4.1,3.2-6.6l0,0l0.5-9.8
              c-0.5,1.1-1.2,2.7-2.1,4.1c-1,1.7-1.9,2.6-2.6,2.7c-0.4,0-0.8-0.2-1-0.6c-0.5-1-0.7-1-0.7-1l0,0c0,0-0.1,0-0.3,0.2
              c-0.1,0.2-0.3,0.4-0.4,0.6v0.1c-0.6,0.8-1.3,1.9-2.6,2l0,0c0,0-0.1,0-0.2,0.2c-0.3,0.4-0.5,1.4-0.6,2.6c-0.1,1.1,0,2.2,0.1,2.8
              c0.1,0.2,0.1,0.4,0.2,0.6c0.3,1.2,0.7,2.5-0.9,3.2c-0.4,0.2-0.9-0.1-1.3-0.3c-0.7-0.4-1.1-1.2-1.1-2l0,0l0,0
              c0.1-0.4,0.1-0.9,0.2-1.3l0,0c0.3-0.8,0.3-1.7,0.2-2.6c-0.2-1-0.4-1.8-0.5-2.6l0,0c-0.2-1.3-0.4-2.2-0.7-2.8
              c-0.3-0.7-0.9-1.1-1.7-1.3c-1.4-0.4-2.4-0.3-3.2,0.2c-1.3,0.9-1.6,3-1.8,4.9c-0.1,1.1-0.7,1.5-1.2,1.6h-0.1c-0.7,0-1.6-0.6-2-2.4
              c-0.3-1.3-1-2.6-2-3.5c-1.7-1.5-3.1-1.9-4.1-1.5c-1.1,0.5-1.6,1.9-1.6,2.7c0,0.7,0.1,1.4,0.3,2.1l0,0c0.3,1.4,0.6,2.8,0.1,3.5
              c-0.2,0.3-0.5,0.4-0.8,0.4c-0.5,0.1-1-0.1-1.3-0.4c-0.8-0.8-1.1-2.5-1-5s-1.2-3.8-3.9-4.1l0,0c-0.2,0-0.5,0-0.6,0.2
              C9,31,8.9,33,8.9,33.7c-0.1,1.2-0.1,2.1-0.6,2.5c-0.2,0.1-0.4,0.2-0.6,0.1c-0.9-0.2-1.3-0.7-1.5-1.5c-0.1-0.7,0-1.6,0.2-2.5
              c0.2-0.8,0.1-1.9-0.3-3c-0.3-0.9-0.7-1.7-1.1-1.9c-0.1,0.1-0.3,0.3-0.6,0.9l-0.1,0.1C3.6,29,3.2,29.7,2.5,30z M37.3,44L37.3,44
              c-0.4-0.1-0.7-0.3-0.9-0.5c-0.4-0.3-0.6-0.7-0.6-1.2l0,0l0,0c0.1-0.4,0.1-0.8,0.2-1.3l0,0c0.3-0.9,0.4-1.9,0.2-2.9
              c-0.2-1-0.3-1.8-0.5-2.6c-0.2-1.2-0.4-2.3-0.8-3.1c-0.4-0.8-1.1-1.3-2.1-1.6c-1.6-0.4-2.8-0.3-3.7,0.3c-1.5,1-1.8,3.2-2.1,5.3
              c-0.1,0.6-0.3,1-0.7,1c-0.5,0-1.2-0.6-1.5-1.9c-0.3-1.5-1.1-2.8-2.2-3.8c-1.9-1.6-3.5-2.1-4.8-1.6c-1.4,0.7-1.9,2.4-1.9,3.3
              c0,0.8,0.1,1.5,0.3,2.3l0,0l0,0c0.2,1.2,0.5,2.5,0.2,3c-0.1,0.1-0.2,0.2-0.3,0.2c-0.3,0-0.6-0.1-0.8-0.3c-0.6-0.6-0.9-2.2-0.8-4.6
              c0.1-2.8-1.4-4.4-4.5-4.8l0,0c-0.4-0.1-0.8,0-1.1,0.3c-0.4,0.3-0.6,0.8-0.8,1.6c-0.1,0.7-0.2,1.4-0.2,2.2c-0.1,1.5-0.2,2-0.4,2.1
              l0,0l0,0c-0.6-0.1-0.9-0.4-1-0.9s-0.1-1.2,0.1-2.3c0.2-0.9,0.1-2.1-0.3-3.3c-0.4-1.1-0.9-2-1.4-2.2C4.4,26.4,4,27,3.5,27.8l0,0
              c-0.4,0.7-0.9,1.5-1.5,1.6l0,0l0,0c-0.3,0-0.6-0.2-0.8-0.5c-0.6-0.9-0.8-2.1-0.4-3.1c0.5-1.2,0.5-2.5,0.2-3.7l0,0
              c-0.1-0.5-0.2-1.1-0.2-1.6c0-0.6,0.5-1.4,1.6-2.3c0.8-0.7,1.9-1.4,2.5-1.7H5c1.4-1,3.3-1.9,5.6-2.6c2.3-0.7,4.8-1.3,7.5-1.6h0.3
              l-0.2,0.2c-0.5,0.6-0.7,1.4-0.6,2.1v0.1l0,0c-0.2,0.2-0.4,0.4-0.6,0.7c-0.3,0.4-0.3,1-0.1,1.6c0.2,0.5,0.5,1.1,0.9,1.4
              c0.8,0.7,2.1,1,3.6,0.7c1.2-0.2,2.3-0.6,2.6-0.7l0,0l0,0c1.5,0.2,3.2,0.3,4.5,0.3l0,0c1.6,0,2.7-0.1,3.1-0.4h0.1l0.1,0.1
              c0.1,0.1,0.2,0.1,0.3,0.2c0.3,0.1,0.5,0,0.7-0.2c0.7-0.6,1.2-1.5,1.4-2.4c0-0.3,0-0.6-0.2-0.8c-0.5-0.6-2.1-2.4-3.2-2.2
              c-0.4,0.1-0.7,0.2-1,0.4l0,0l-0.4,0.2l0.2-0.3c0.2-0.4,0.3-0.7,0.5-1.1v-0.1h0.1c5.3,0.4,10.2,1.5,13.7,3.2c1.7,0.8,3.1,1.7,4,2.7
              c1,1,1.5,2.1,1.5,3.2l0,0l-0.2,3.5l0,0c-0.7,1.9-1.6,4-2.6,5.8c-0.7,1.3-1.8,2.9-2.5,3l0,0c-0.1,0-0.3,0-0.4-0.3l0,0
              c-0.5-0.9-0.8-1.3-1.3-1.3s-0.8,0.5-1.3,1.1l0,0c-0.5,0.8-1.1,1.7-2.1,1.7c-0.3,0-0.5,0.2-0.7,0.4l0,0c-0.4,0.5-0.7,1.6-0.8,3
              c-0.1,1.1,0,2.3,0.1,2.9c0.1,0.3,0.1,0.5,0.2,0.7c0.2,0.7,0.3,1.1,0.2,1.5C38.1,43.5,37.8,43.8,37.3,44L37.3,44z M36,42.3
              c0,0.4,0.2,0.8,0.5,1l0,0l0,0c0.2,0.2,0.5,0.4,0.7,0.4c0.8-0.4,0.8-0.9,0.4-2.2c-0.1-0.2-0.1-0.4-0.2-0.7c-0.2-0.6-0.2-1.9-0.1-3
              c0.1-0.8,0.2-2.3,0.8-3.1c0.2-0.3,0.5-0.5,0.9-0.5l0,0c0.9,0,1.5-0.9,2-1.6l0,0c0.4-0.6,0.8-1.2,1.5-1.2c0.5,0,0.9,0.5,1.4,1.4
              C44,33,44.1,33,44.1,33c0.9-0.1,3.4-4.5,4.8-8.6l0.2-3.5c0-2-1.9-4.1-5.4-5.7s-8.3-2.8-13.5-3.2c-0.1,0.3-0.2,0.5-0.3,0.8
              c0.3-0.1,0.5-0.2,0.8-0.3l0,0c0.5-0.1,1.1,0.2,1.9,0.8c0.6,0.5,1.2,1.1,1.5,1.5l0,0c0.2,0.3,0.3,0.6,0.2,1c-0.2,1-0.7,1.9-1.4,2.6
              c-0.3,0.2-0.6,0.3-0.9,0.2l0,0c-0.1,0-0.2-0.1-0.3-0.2c-0.5,0.3-1.6,0.4-3.2,0.4c-1.4,0-3-0.1-4.5-0.3c-0.3,0.1-1.4,0.6-2.6,0.7
              c-1.6,0.2-2.9,0-3.8-0.8c-0.4-0.3-0.8-0.9-0.9-1.5c-0.2-0.7-0.2-1.3,0.1-1.8c0.2-0.3,0.4-0.5,0.6-0.7c-0.1-0.7,0.1-1.4,0.5-2
              c-5.3,0.7-10,2.2-12.8,4.2l0,0H5c-0.6,0.3-1.6,1-2.4,1.7c-1,0.9-1.5,1.6-1.5,2.1s0.1,1,0.2,1.6c0.3,1.3,0.3,2.6-0.2,3.9
              c-0.4,1-0.2,2.1,0.3,2.9l0,0C1.5,29,1.8,29.2,2,29.2c0.5,0,1-0.8,1.3-1.5l0,0c0.4-0.8,1-1.6,1.7-1.2c0.6,0.3,1.2,1.2,1.5,2.4
              c0.4,1.2,0.5,2.4,0.3,3.4c-0.2,1.1-0.3,1.8-0.1,2.2c0.1,0.4,0.3,0.6,0.8,0.8c0,0,0.1-0.2,0.2-0.7c0.1-0.4,0.1-0.8,0.1-1.2
              C7.9,32,8,30.3,8.9,29.5c0.4-0.3,0.8-0.4,1.3-0.3c1.6,0.2,2.8,0.7,3.6,1.5c0.8,0.8,1.1,2,1.1,3.5c-0.1,1.1,0,2.1,0.1,2.9
              c0.1,0.7,0.3,1.3,0.6,1.5l0,0c0.2,0.2,0.4,0.3,0.7,0.2l0,0c0.1,0,0.1,0,0.2-0.1c0.3-0.4,0-1.8-0.2-2.8l0,0
              c-0.2-0.8-0.3-1.5-0.3-2.3l0,0l0,0c0-0.3,0.1-1.1,0.5-1.9s0.9-1.3,1.6-1.6l0,0c1.4-0.6,3-0.1,5,1.6l0,0c1.1,1.1,1.9,2.4,2.2,3.9
              c0.3,1.2,0.9,1.8,1.2,1.7c0.2,0,0.4-0.4,0.5-0.8c0.1-1,0.3-2.1,0.6-3.1c0.4-1.1,0.9-1.9,1.6-2.4c1-0.7,2.2-0.8,3.9-0.3
              c1.1,0.3,1.8,0.8,2.2,1.7c0.4,0.8,0.6,1.9,0.8,3.1c0.1,0.8,0.3,1.6,0.5,2.6l0,0c0.1,1,0.1,2-0.2,3C36.1,41.5,36,41.9,36,42.3z
              M7.5,35.3L7.5,35.3L7.5,35.3z M20.3,18.8c-1,0-1.8-0.2-2.3-0.7l0,0c-0.3-0.3-0.6-0.7-0.7-1.1c-0.2-0.5-0.2-1,0-1.3
              s0.4-0.5,0.6-0.7l0,0c0.6-0.4,1.4-0.6,2.2-0.4h0.1v0.1c-0.1,0.4-0.1,0.8,0,1.2l0,0c0.3,1.1,1.2,1.9,2.7,2.3l0.4,0.1l-0.4,0.1
              c-0.6,0.2-1.5,0.4-2.4,0.4C20.4,18.8,20.3,18.8,20.3,18.8z M18.1,17.9c1.2,1,3.1,0.7,4.3,0.4c-0.6-0.2-1.1-0.5-1.5-0.8
              c-0.5-0.4-0.8-0.9-1-1.5c-0.1-0.4-0.1-0.8,0-1.2c-0.7-0.1-1.3,0-1.9,0.4c-0.2,0.2-0.4,0.4-0.6,0.6c-0.2,0.3-0.2,0.7,0,1.1
              S17.8,17.7,18.1,17.9z M28.4,18.3c-1.4,0-2.9-0.1-4.5-0.3h-0.2l0,0c-0.8-0.1-1.6-0.4-2.1-0.8c-0.6-0.4-0.9-0.9-1.1-1.4
              c-0.2-0.6,0-1.3,0.5-1.8l0,0c0.8-0.6,1.9-0.9,3-0.7l0,0l0,0c0.3,0.2,0.5,0.4,0.8,0.7l0,0c0.1,0.1,1.4,1.6,2.6,1.9l0.7,0.1
              c1.5,0.2,3.1,0.5,3.5,1.2l0,0c0.1,0.2,0.1,0.5-0.1,0.7c0,0,0,0,0,0.1l0,0l0,0c-0.3,0.3-1.7,0.4-2.5,0.4
              C28.8,18.3,28.6,18.3,28.4,18.3z M23.8,17.8H24c1.8,0.2,3.5,0.3,5,0.3c1.4,0,2.1-0.2,2.3-0.3v-0.1l0,0c0.1-0.1,0.1-0.3,0-0.5
              c-0.3-0.7-2.4-0.9-3.3-1l0,0l-0.7-0.1c-1.3-0.2-2.6-1.7-2.8-1.9c-0.2-0.2-0.4-0.4-0.7-0.6c-1-0.1-2,0.1-2.8,0.7
              c-0.4,0.4-0.6,1-0.4,1.5l0,0C21,16.8,22.1,17.5,23.8,17.8z M32.2,18.1L32.2,18.1L32.2,18.1L32.2,18.1c-0.1,0-0.2-0.1-0.3-0.2v-0.1
              v-0.1c0.1-0.3,0.1-0.6,0-0.9c-0.5-0.9-2.5-1.2-3.8-1.4l-0.6-0.1c-1-0.2-2.1-1.4-2.4-1.7l0,0l0,0c-0.2-0.2-0.3-0.3-0.4-0.4
              l-0.1-0.1l0.2-0.1c0.4-0.1,0.7-0.2,1-0.3c0.4-0.1,1,0.2,1.5,0.6l0,0c0.4,0.3,0.8,0.5,1.3,0.6c0.5,0,1-0.1,1.4-0.4l0,0
              c0.3-0.2,0.6-0.3,0.9-0.4l0,0c0.7-0.1,2.1,1.2,2.8,2l0,0l0,0c0.1,0.1,0.1,0.3,0.1,0.5c-0.2,0.8-0.6,1.6-1.2,2.2
              C32.5,18,32.4,18.1,32.2,18.1z M32.2,17.9c0.1,0,0.2,0,0.2-0.1c0.6-0.5,1-1.3,1.1-2l0,0c0-0.1,0-0.2,0-0.3c-1-1.2-2.1-2-2.6-2
              c-0.3,0.1-0.6,0.2-0.9,0.4c-0.4,0.3-1,0.5-1.5,0.4l0,0l0,0c-0.5-0.1-1-0.3-1.4-0.6c-0.5-0.3-1-0.6-1.4-0.5
              c-0.3,0.1-0.5,0.1-0.8,0.2c0.1,0.1,0.2,0.2,0.3,0.3l0,0c0.3,0.3,1.4,1.5,2.3,1.6l0.6,0.1c1.4,0.2,3.4,0.4,4,1.5l0,0
              C32.3,17.1,32.3,17.5,32.2,17.9L32.2,17.9z M17.9,14.4v-0.2c0-0.9,0.5-1.7,1.2-2.1l0,0l0,0c0.5-0.1,1-0.4,1.4-0.7l0.1-0.1v0.2
              c0.1,0.4,0.2,0.8,0.4,1.2l0.3,0.6h-0.1c-0.2,0.1-0.4,0.2-0.5,0.3c-0.2,0.1-0.3,0.3-0.4,0.4v0.1h-0.1c-0.7-0.2-1.5-0.1-2.2,0.2
              L17.9,14.4z M19.2,12.3c-0.6,0.4-1,1-1.1,1.7c0.7-0.2,1.4-0.3,2.1-0.1c0.1-0.2,0.3-0.3,0.4-0.4c0.2-0.1,0.3-0.2,0.5-0.3l-0.2-0.4
              c-0.2-0.4-0.3-0.7-0.3-1.1C20.2,12,19.7,12.2,19.2,12.3z M28.9,13.7h-0.3l0,0c-0.4-0.1-0.8-0.3-1.1-0.5c-0.6-0.4-1.2-0.7-1.8-0.6
              c-0.5,0.1-1.1,0.2-1.6,0.4l0,0l0,0c-0.7-0.1-1.5,0-2.2,0.2h-0.1l-0.3-0.6c-0.2-0.5-0.3-0.9-0.4-1.4c-0.2-0.9,0.1-1.8,0.7-2.5l0,0
              c0.8-0.8,2.1-1,3.7-0.8h0.1C26.4,7.7,27.2,7.8,28,8l0,0c0.8,0.3,1.4,0.8,1.7,1.4c0.3,0.6,0.3,1.4,0,2.3c-0.2,0.6-0.5,1.3-0.8,1.8
              l0,0L28.9,13.7z M28.7,13.4L28.7,13.4L28.7,13.4c0.4-0.6,0.6-1.2,0.8-1.8l0,0c0.5-1.7,0-2.9-1.5-3.4c-0.7-0.2-1.5-0.3-2.3-0.1l0,0
              h-0.1l0,0c-1.5-0.2-2.8,0-3.5,0.7c-0.6,0.6-0.8,1.5-0.7,2.3l0,0c0.1,0.5,0.2,0.9,0.4,1.4l0.2,0.4c0.7-0.2,1.4-0.3,2.2-0.2
              c0.5-0.2,1-0.3,1.6-0.4c0.7-0.1,1.3,0.3,2,0.7l0,0C27.9,13.2,28.3,13.3,28.7,13.4z">
        </path>
        <path d="M27.1,6.7L27.1,6.7c1.7,0,2.3-0.4,2.4-0.5s0.1-0.1,0.1-0.2c0-1.6-1.1-1.9-1.2-1.9s-0.2,0-0.3,0.1
              c-0.3,0.3-0.7,0.6-1.1,0.7c-0.1,0-0.2,0.2-0.2,0.3v1.1C26.8,6.6,26.9,6.7,27.1,6.7L27.1,6.7z M27.4,5.5c0.4-0.2,0.7-0.4,1-0.7
              C28.8,5,29,5.4,29,5.9c-0.5,0.2-1,0.3-1.6,0.3V5.5z">
        </path>
        <path d="M45.5,21.3c-0.4-0.2-0.9,0.1-1.8,0.5c-2.4,1.2-5,2-7.7,2.4c-0.4,0-0.8,0.3-0.9,0.7c-0.2,0.5,0,1,0.4,1.2l0,0
              c0.2,0.1,0.4,0.1,0.7,0.1c2.1,0,7.5-1.7,9.4-3.3l0,0c0.3-0.3,0.4-0.7,0.4-1.1C45.9,21.6,45.7,21.4,45.5,21.3z M45.2,22.5
              c-2.2,1.8-8.6,3.4-9.3,3.1c-0.3-0.2-0.3-0.3-0.2-0.4l0,0c0.1-0.2,0.3-0.3,0.5-0.3c2.7-0.3,5.4-1.2,7.9-2.4
              c0.4-0.2,0.8-0.4,1.3-0.5l0,0c0.1,0,0.1,0.1,0.1,0.1C45.4,22.2,45.3,22.3,45.2,22.5L45.2,22.5z">
        </path>
        <path d="M10.9,15.1c-0.9-0.2-2.1-0.5-2.7-3.6c0-0.2-0.2-0.3-0.4-0.2c-0.1,0-0.2,0.2-0.2,0.3V13c0,0.1,0,0.1,0,0.2
              c-0.6,0.5-1.2,0.9-1.9,1.2c-0.6,0.2-1,0.7-1.1,1.3c0,0.7,0.4,1.4,1,1.8c0.6,0.3,1.2,0.5,1.9,0.4c0.9,0,1.8-0.1,2.6-0.3
              c0.2,0.1,0.4,0.1,0.6,0.1c0.6-0.1,1.1-0.5,1.4-1c0.1-0.4,0-0.8-0.2-1.1C11.7,15.3,11.3,15.1,10.9,15.1z M6,16.9
              c-0.4-0.2-0.7-0.7-0.7-1.2c0-0.4,0.3-0.7,0.7-0.8c0.6-0.3,1.2-0.6,1.8-1c0.1,0.8,0.3,1.9,0.7,2.3l0.1,0.1c0.3,0.3,0.5,0.5,0.8,0.8
              C8,17.3,6.8,17.4,6,16.9L6,16.9z M11.6,16.4c-0.2,0.3-0.5,0.6-0.9,0.6c-0.1,0-0.2,0-0.4,0h-0.1c-0.5-0.3-1-0.6-1.3-1.1l-0.1-0.1
              c-0.2-0.2-0.5-1.2-0.6-2c0.4,1,1.4,1.7,2.5,1.9c0.2,0,0.5,0.1,0.7,0.2C11.6,16,11.6,16.2,11.6,16.4z">
        </path>
        <path d="M29,19.9c-0.9-0.2-2.1-0.5-2.7-3.6c0-0.2-0.2-0.3-0.4-0.2c-0.1,0-0.2,0.2-0.2,0.3v1.5c-0.5,0.6-1.2,1-1.9,1.3
              c-0.6,0.2-1,0.7-1.1,1.3c0,0.7,0.4,1.4,1,1.8c0.6,0.3,1.3,0.5,2,0.4c0.9,0,1.8-0.1,2.6-0.3c0.2,0,0.4,0,0.5,0
              c0.6-0.1,1.1-0.5,1.4-1c0.1-0.4,0-0.8-0.2-1.1C29.7,20.1,29.3,19.9,29,19.9z M24,21.8c-0.4-0.2-0.7-0.7-0.7-1.2
              c0-0.4,0.3-0.7,0.7-0.8c0.6-0.3,1.2-0.6,1.8-1.1c0.1,0.8,0.3,2,0.8,2.4l0.1,0.1c0.3,0.3,0.6,0.6,0.9,0.8
              C26.1,22.2,24.8,22.2,24,21.8z M29.6,21.2c-0.2,0.3-0.5,0.6-0.9,0.6c-0.1,0-0.2,0-0.3,0h-0.1c-0.5-0.3-1-0.6-1.4-1.1l-0.1-0.1
              c-0.2-0.2-0.5-1.2-0.6-2c0.4,1,1.4,1.7,2.5,1.9c0.2,0,0.5,0.1,0.7,0.2C29.6,20.9,29.7,21.1,29.6,21.2L29.6,21.2z">
        </path>
    </symbol>
</svg>