<svg xmlns="http://www.w3.org/2000/svg">
    <symbol id="symbol-bird-with-bubble" viewBox="0 0 117 77.6">
        <path d="M48.2,35.9c-1.6,0.4-1,2.8,0.6,2.4C50.5,37.9,49.8,35.5,48.2,35.9z"></path>
        <path d="M66.7,35.7c-2.7-0.6-5.5-1.1-8.3-0.9c-0.5-1.9-1.3-3.7-2.6-5.1c-2.5-2.8-5.4-3.4-8.6-2.9
              c-2.3,0.4-4.2,1.3-6.2,2.4c-4,2.1-8.5,4.5-12.7,6.3c-2.4,1.1-4.8,2.2-7.4,3.1c-4-2.8-6.6-7.5-6.9-12.3c-0.1-0.9-1.6-0.9-1.5,0.1
              c0.4,5,2.9,9.7,6.8,12.8c-1.6,0.5-3.2,1-4.8,1.3c-2.3,0.4-4.6,0.5-6.9,0.6c-2.3,0.1-4.5,0.3-6.9,0c-0.6-0.1-1,0.5-0.7,1
              c1.7,2.6,4.7,4.3,7.3,5.8c3.5,2.1,7.3,3.9,11.2,5.3c5.3,1.8,11.6,3.5,17.6,3.8c-2.9,4.4-4.9,9.5-6,14.8c-0.6,0.4-1.6,0.3-2.1,1.1
              c-0.4,0.6-0.9,1.2-1.3,1.8c-0.2,0.3-0.5,0.6-0.7,1c0.6,0.8,1.2,0.9,1.8,0.1c0.4-0.6,0.9-1.2,1.6-1.8c0,0.8,0,1.6-0.2,2.4
              c-0.2,1,0.4,1.2,1.4,1.3c0.1-1,0.1-2,0.2-3.1c0.9,0.6,0.9,2.3,2.8,2.1c-0.8-1.4-1.6-2.7-2.3-3.9l0,0l0.1,0
              c1.2-5.8,3.3-11.2,6.6-15.8c0.8,0,1.7,0,2.5-0.1c1.6,5.6,4.5,11,8.6,15.1c-0.3,0.6-0.8,1.2-0.6,1.9c0.2,0.7,0.2,1.5,0.4,2.2
              c0.1,0.4,0.1,0.8,0.2,1.2c1,0.1,1.5-0.2,1.3-1.2c-0.1-0.8-0.2-1.5-0.2-2.4c0.5,0.6,1.1,1.2,1.6,1.8c0.6,0.8,1.2,0.6,1.9-0.1
              c-0.7-0.8-1.3-1.5-2.1-2.3c1.1-0.2,2.3,1,3.4-0.5c-1.6-0.4-3-0.8-4.4-1.1c-4.2-3.9-7.2-9.2-8.7-14.8c3.8-0.5,7.3-1.9,10.2-4.4
              c2.8-2.4,5.1-5.8,6.1-9.5c0,0,0.1,0,0.1,0.1c2.4,1.1,3.8,1,6.3,1.4c0.7,0.1,0.8-0.9,0.4-1.2c-1.5-1.3-3.1-2.6-4.7-3.9
              c2-0.7,4.1-1.3,6.1-2C67.2,36.9,67.5,35.9,66.7,35.7z M55.5,45.5c-2.9,5.7-8.1,8.3-14.7,9c-6.6,0.7-13.4-0.4-19.9-2.5
              c-3.8-1.2-7.4-2.4-11-4.3c-2.3-1.3-5.6-2.9-7.5-5c1.5,0.1,3,0,4.6-0.1c2.3-0.1,4.7-0.2,7-0.5c2.4-0.3,4.8-1,7-1.8
              c2.4,1.4,5.2,2.2,8,2.6c2.4,0.3,5.4,0.6,7.6-0.7c0.9-0.5-0.1-1.6-0.9-1.2c-2.1,1.2-5.1,0.7-7.4,0.3c-1.9-0.3-3.8-0.9-5.6-1.8
              c1.3-0.5,2.6-1,3.8-1.6c4.3-1.8,8.8-3.6,12.8-5.8c2.1-1.1,4.2-2.1,6.5-2.8c1.7-0.5,3.5-0.8,5.3-0.4c3.6,0.8,5.6,4.5,6,7.6
              C57.7,39.7,56.8,42.8,55.5,45.5z M58.9,41.6c-0.1,0-0.2-0.1-0.2-0.1c0.1-0.7,0.2-1.4,0.3-2.1c0,0,0,0,0,0c0,0.1,0.1,0.3,0.2,0.4
              c0.1,0,0.1,0.1,0.2,0.1c0,0,0,0,0,0c1,0.9,2,1.7,3,2.5C60.8,42.1,60.4,42.3,58.9,41.6z M59.4,38C59.4,38,59.4,38,59.4,38
              c-0.1,0-0.2,0-0.3,0c-0.1,0-0.1,0-0.2,0.1c0-0.6-0.1-1.2-0.2-1.9c1.6,0,3.2,0.1,4.8,0.4C62.2,37.1,60.8,37.5,59.4,38z">
        </path>
        <path d="M117,20.7c-0.2-2.3-2.2-8.3-2.3-8.4c-0.1-0.4-0.2-0.5-0.5-1c-0.6-1-1.1-2-1.6-2.9c-0.1-0.1-0.1-0.3-0.2-0.4
              c-1-1-1.8-2.1-2.7-3.1c-0.7-0.7-1.5-1.3-2.5-1.6c-1-0.3-2-0.8-3-1.2c-1-0.4-2.1-0.7-3.2-1c-1.6-0.3-3.2-0.4-4.7-0.6
              c-1.8-0.1-3.5-0.1-5.3-0.6c-0.1-0.1-0.2,0-0.4,0c-1.3,0.1-2.5,0.5-3.8,0.4c-0.1-0.1-0.4,0-0.5,0.1c-1.3,0.4-2.6,0.7-4,1.2
              c-2.3,0.8-4.6,1.6-6.4,3.2c-1.5,1.3-2.7,2.8-3.5,4.6c-0.4,0.9-0.7,1.9-0.9,2.9c-0.2,0.8-0.4,1.8-0.4,2.6c0.1,2.1,0.3,4.1,0.4,6.2
              c0.1,1.5,0.5,2.9,1.2,4.3c0.6,1.2,1,2.1,1.7,3.3c0.1,0.3,1.4,1.1,1.7,1.2c1,0.4,1.1,0.7,2,1.4c-0.1,0.4-0.2,0.7-0.4,1.1
              c-0.3,0.6-0.7,1.2-0.9,1.8c-0.4,1.2-1.2,2.1-1.9,3c-1,1.1-2,2.2-3.5,2.6c-0.4,0.1-0.7,0.4-1,0.5c-0.6,0.3-0.7,0.6-0.5,1
              c0.3,0.7,0.5,0.7,1.3,0.7c0.4-0.1,1,0,1.4,0c0.4,0,0.9,0.1,1.3,0c1.6-0.2,3.2-0.4,4.7-0.7c0.4-0.1,0.8-0.3,1.3-0.5
              c0.7-0.3,1.3-0.6,1.9-1c1.5-0.8,2.9-1.9,3.8-3.4c0.3-0.5,0.6-1,0.9-1.5c0.1-0.2,0.2-0.4,0.6-0.4c0.1,0,0.3,0,0.4,0.1l-0.3,0
              c0,0,0,0,0.5,0.1c0,0,0,0,0.1,0c1.1,0.2,2,0.4,3.1,0.5c0,0,0.3,0.1,0.3,0.1l0.6,0.1h3.6c2.2,0.1,8.5-0.8,10.6-1.7
              c2.1-0.9,6.5-2.9,8.5-5.6C116.4,25.4,117.1,23,117,20.7z M115.1,24c-0.3,1.6-1.3,2.9-2.4,3.9c-1.3,1-2.8,1.7-4.2,2.5
              c-1.7,1-3.6,1.5-5.4,2.1c-1.4,0.4-2.9,0.7-4.4,1c-0.7,0.1-1.5,0.3-2.3,0.3c-1,0.1-2.1,0-3.1,0c-0.8-0.1-1.6-0.1-2.4-0.1
              c-0.7,0-1.3,0-2-0.1c-0.8-0.1-1.7-0.3-2.4-0.8c-0.6-0.4-1-0.3-1.2,0.2C85,33.4,85,33.7,84.9,34c-0.7,1.4-1.3,2.6-2.6,3.5
              c-1,0.6-1.8,1.3-2.7,1.8c-0.4,0.3-1,0.4-1.5,0.6c-1,0.2-2,0.4-3,0.6c-0.1,0-0.3,0-0.7,0c0.3-0.4,0.4-0.7,0.8-0.7
              c0.8-0.9,1.6-1.7,2.4-2.6c0.5-0.7,0.9-1.5,1.3-2.3c0.2-0.4,0.5-0.8,0.7-1.3c0.3-0.7,0.5-1.5,0.7-2.2c0.1-0.8-0.4-1.4-1-1.8
              c-0.7-0.4-1.4-0.7-2.1-1.1c-0.4-0.2-0.5-0.6-0.9-0.9c-0.5-0.4-0.6-0.8-0.7-0.9c-1-2.4-2-3.9-2.2-6.3c-0.1-1.5-0.3-3.1-0.3-4.6
              c0-1,0.2-2,0.4-2.9c0.1-0.7,0.3-1.3,0.4-2c0.2-1,0.9-1.8,1.5-2.7c1.1-1.5,2.6-2.4,4.1-3.3c0.6-0.3,1.3-0.5,1.9-0.7
              c0.7-0.3,1.5-0.6,2.1-0.9c1.3-0.7,2.7-0.9,4.2-1.1c1-0.1,1.8-0.2,2.8-0.4c0.1,0,0.4,0,0.6,0c1.9,0.2,3.8,0.5,5.7,0.7
              c0.8,0.1,1.7,0.1,2.5,0.1c1.8,0.1,3.4,0.9,5.1,1.5c0.7,0.3,1.4,0.7,2.1,0.9c1,0.3,1.7,1,2.4,1.6c1.1,0.9,2,2.1,2.6,3.3
              c0.5,1,1.2,1.8,1.7,2.8c0.4,0.5,0.5,1.2,0.7,1.8c0.7,1.8,1.3,3.7,1.4,5.6C115.4,21.4,115.3,22.8,115.1,24z">
        </path>
        <path d="M85.8,17.4c-2.8-0.2-3.1,3.9-0.3,4.1C88.3,21.7,88.6,17.6,85.8,17.4z"></path>
        <path d="M94.4,17.2l-0.7,0c-1.1-0.1-2.3,0.7-2.3,1.9c0,1.2,0.9,2.1,2.1,2.2l0.7,0c1.1,0.1,2.3-0.7,2.3-1.9
              C96.5,18.2,95.6,17.2,94.4,17.2z">
        </path>
        <path d="M102.4,17.2c-2.8-0.2-3.1,3.9-0.3,4.1C104.9,21.5,105.2,17.4,102.4,17.2z"></path>
    </symbol>
    <symbol id="symbol-city" viewBox="0 0 15 21">
        <path d="M0.3,8.6c-0.2-2.7,1-4.9,2.9-6.6c1.4-1.3,3.6-1.9,5.5-1.7c3.8,0.3,6.3,4.2,6.1,7.3c-0.1,2-0.5,3.1-1.3,4.9
              c-0.9,2.2-3.1,3.8-4.3,5.8c-0.3,0.5-0.6,1.2-0.8,1.8c-0.1,0.3-0.2,0.6-0.5,0.6c-0.4,0.1-0.6-0.2-0.7-0.5C5.4,17,2,13.8,0.6,10.2
              C0.3,9.5,0.3,8.9,0.3,8.6 M7.6,18.8c0.4-0.1,0.5-0.4,0.5-0.6c1.3-2.5,3.7-4.2,4.7-6.8c0.6-1.5,0.8-2.2,0.9-3.9
              c0.1-2.6-2.5-6.3-5.8-6.4C4.9,1.1,3.2,3,2.2,4.5C1.3,5.9,1,7.8,1.5,9.7c0.6,2.2,2.3,4.5,3.8,6.3C6.1,17.2,6.9,17.9,7.6,18.8">
        </path>

        <path d="M7.8,21c-0.5,0-0.7-0.4-0.8-0.6c-0.7-1.4-1.8-2.7-2.8-4.1c-1.4-1.9-3-3.9-3.8-6C0.1,9.5,0,8.9,0,8.6
              C-0.2,6,0.8,3.7,3,1.8C4.4,0.5,6.5-0.2,8.6,0c3.9,0.4,6.6,4.3,6.3,7.6c-0.1,2.1-0.5,3.2-1.3,4.9c-0.6,1.3-1.5,2.3-2.4,3.3
              c-0.7,0.8-1.4,1.6-2,2.5c-0.2,0.3-0.6,1-0.8,1.7c-0.1,0.2-0.2,0.7-0.6,0.8C7.9,21,7.9,21,7.8,21z M7.9,0.5
              c-1.8,0-3.4,0.6-4.6,1.6c-2,1.8-3,4-2.8,6.4l0,0c0,0.3,0,0.8,0.3,1.5c0.8,2.1,2.3,4.1,3.8,5.9c1.1,1.4,2.1,2.7,2.8,4.1
              c0.2,0.3,0.3,0.4,0.5,0.3c0.1,0,0.2-0.3,0.2-0.5c0.2-0.8,0.6-1.5,0.8-1.9c0.6-0.9,1.3-1.8,2-2.6c0.9-1,1.8-2.1,2.3-3.2
              c0.8-1.7,1.1-2.7,1.3-4.8c0.2-3-2.3-6.7-5.9-7.1C8.4,0.5,8.1,0.5,7.9,0.5z M7.5,19.1l-0.1-0.1c-0.2-0.3-0.6-0.7-0.8-1
              C6,17.4,5.6,16.9,5,16.1c-2-2.4-3.3-4.6-3.8-6.3C0.8,7.9,1,5.9,2,4.4c1.4-2.3,3.5-3.5,6-3.4c1.4,0,2.9,0.7,4,2
              c1.3,1.4,2.1,3.2,2,4.7c-0.1,1.7-0.3,2.5-0.9,4c-0.6,1.5-1.6,2.7-2.6,3.8c-0.8,0.9-1.6,1.9-2.2,3c0,0,0,0.1,0,0.1
              c-0.1,0.2-0.2,0.5-0.6,0.6H7.5z M7.8,1.4c-2.2,0-4.1,1.1-5.4,3.2c-0.9,1.4-1.2,3.3-0.7,5c0.5,1.7,1.7,3.8,3.7,6.2
              c0.5,0.7,1,1.3,1.4,1.8c0.3,0.3,0.5,0.6,0.7,0.9c0.1-0.1,0.1-0.1,0.2-0.2c0,0,0-0.1,0.1-0.1C8.4,17,9.3,16,10,15.1
              c1-1.2,1.9-2.3,2.5-3.7c0.6-1.5,0.8-2.2,0.9-3.8c0.1-1.4-0.7-3.1-1.9-4.3c-1.1-1.1-2.3-1.8-3.6-1.8C7.9,1.4,7.8,1.4,7.8,1.4z">
        </path>

        <path d="M7.4,4.1c-2.1,0-3.4,1.7-3.4,3c0,0.6,0.2,1.5,0.8,2.4c0.5,0.7,1.2,1.4,2.5,1.4c2.2,0,3.6-1.2,3.6-3
              C10.9,5.4,9.7,4.1,7.4,4.1z M9.8,9.7c-0.1,0.1-0.6,0.4-0.6,0.4c-0.6,0.3-1.1,0.4-1.1,0.4c-0.2,0-0.5,0.1-0.8,0.1
              c-0.6,0-1.1-0.2-1.5-0.5C5.6,9.8,5.3,9.6,5.2,9.3C4.7,8.6,4.5,7.7,4.5,7.2c0-1.1,1.2-2.6,3-2.6c2.1,0,3.1,1.1,3.1,3.4
              C10.5,8.9,9.8,9.7,9.8,9.7z">
        </path>
        <path d="M7.3,11.3c-1.4,0-2.3-0.9-2.8-1.6C3.9,8.8,3.7,7.8,3.7,7.1c0-1.4,1.4-3.4,3.7-3.4c2.5,0,3.9,1.4,3.9,4.1
              C11.3,9.9,9.7,11.3,7.3,11.3z M7.4,4.9c-1.6,0-2.6,1.4-2.6,2.3c0,0.5,0.2,1.3,0.7,1.9l0,0c0.1,0.2,0.3,0.5,0.6,0.6
              c0.4,0.3,0.8,0.5,1.3,0.5c0.2,0,0.5,0,0.7-0.1c0.1,0,0.5-0.1,1-0.4c0.1-0.1,0.4-0.2,0.5-0.3l0.3,0.2L9.6,9.5c0,0,0.6-0.7,0.6-1.5
              C10.1,5.8,9.3,4.9,7.4,4.9z M9.6,9.4l0.3,0.2L9.6,9.4z">
        </path>
    </symbol>
    <symbol id="symbol-clock-3" viewBox="0 0 23 21.4">
        <path d="M22.8,8.3c-0.2-1.1-0.4-2.1-0.9-3.2c-0.4-0.8-0.9-1.6-1.7-2.2c-0.4-0.3-0.8-0.4-1.1-0.7C18.1,1.4,17,1,15.9,0.7
              c-1.3-0.4-2.7-0.7-4.1-0.6c-0.2,0-0.5-0.2-0.7-0.1c-0.7,0.3-1.5,0.2-2.2,0.5C7.7,0.9,6.5,1.3,5.5,2.1C5.3,2.2,5.1,2.4,4.8,2.5
              C3.8,3.2,2.9,3.9,2.3,5C1.4,6.3,0.6,7.8,0.2,9.4c-0.2,1-0.3,2-0.1,3c0.1,0.8,0.3,1.6,0.6,2.4c0.4,1.2,0.9,2.3,1.9,3.1
              c1.4,1.2,3.1,2,4.8,2.8c1.2,0.6,2.5,0.7,3.9,0.7c0.4,0,0.8,0,1.2,0c1-0.1,1.9-0.4,2.8-0.7c1.1-0.5,2.2-1,3.2-1.9
              c0.4-0.3,0.7-0.7,1.1-1c0.2-0.2,0.5-0.3,0.7-0.5c0.7-0.9,1.4-2,1.9-3c0.4-0.9,0.6-1.8,0.7-2.8C23.1,10.4,23,9.3,22.8,8.3z M21.9,11
              c-0.2,1.1-0.4,2.2-0.9,3.2c-0.6,1.1-1.3,2.1-2.2,3c-1.3,1.1-2.8,2.1-4.4,2.6c-0.9,0.3-1.7,0.6-2.8,0.6c-1,0.2-2.1,0-3.2-0.3
              c-0.7-0.2-1.3-0.5-1.9-0.8c-0.5-0.3-1-0.5-1.5-0.8c-1.3-0.7-2.3-1.5-2.9-2.8c-0.5-1.2-0.9-2.4-1-3.7C0.9,10.4,1.2,9,1.9,7.7
              c0.3-0.5,0.5-1,0.8-1.5C2.8,6,2.9,5.9,3,5.8h0c0.3-0.5,0.7-1,1-1.5C4.4,3.7,4.8,3.3,5.4,3c1.1-0.7,2.5-0.8,3.5-1.5
              c0.3-0.2,0.6-0.2,0.8-0.1h0c0.1,0,0.1,0,0.2,0c0.1,0,0.2,0,0.3,0.1c0,0,0.1,0,0.2-0.1c1.6-0.2,3.1-0.1,4.6,0.2
              C16,1.7,17,2,17.8,2.4c0.8,0.4,1.5,0.8,2.2,1.4c0.2,0.2,0.4,0.5,0.5,0.7c0.7,1.1,1.1,2.3,1.2,3.6c0,0.6,0.3,1.2,0.3,1.9
              C22,10.4,22,10.7,21.9,11z">
        </path>
        <path d="M11.7,4.7c0,0.2,0,0.5,0,0.7c0.1,1.1,0.1,2.1,0.1,3.2c0,0.2,0,0.5,0,0.7c0,0.4,0.2,0.7,0.5,1.1c0.8,1,1.9,1.2,2.9,1.7
              c0.7,0.4,1.4,0.7,2,1.2c0.6,0.4,1.2,0.8,1.7,1.2c0.2,0.1,0.3,0.3,0.4,0.5c0.1,0.1,0.1,0.3,0,0.4c-0.1,0.1-0.3,0.3-0.5,0.1
              c-0.2-0.1-0.4-0.2-0.6-0.4c-1-0.8-2.2-1.5-3.4-2.1c-0.7-0.4-1.5-0.7-2.3-1.1c-0.2-0.1-0.3,0-0.4,0.1c-0.4,0.3-0.7,0.2-1.1,0
              c-0.2-0.2-0.5-0.3-0.6-0.7c-0.1-0.4-0.1-0.8,0.2-1.1c0.2-0.2,0.2-0.4,0.2-0.6c0-0.9,0-1.9,0-2.8c0-0.8-0.1-1.7-0.1-2.5
              c0-0.2-0.1-0.6,0.2-0.7c0.3-0.1,0.4,0.2,0.6,0.3C11.8,4,11.7,4.3,11.7,4.7z">
        </path>
    </symbol>
    <symbol id="symbol-cake-ice" viewBox="0 0 132.4 148">
        <g>
            <g>
                <g>
                    <path class="st0" d="M9.7,90.6c0.2,1,1.9,1,1.7,0c-0.9-4.6,3.1-10.4,5.7-14c3.9-5.2,9.3-8.9,15.5-10.7c0.1,0.3,0.2,0.6,0.3,1
                          c2.8,7.8,9.6,14.2,15.8,19.3c3.5,2.9,7.3,5.4,11.6,6.9c4.1,1.5,8.4,2.1,12.7,2.3c2.2,0.1,4.7,0.4,6.6-0.5
                          c2.2,10.2-5.6,22-14,27.2c-0.9,0.6,0.1,1.9,0.9,1.4c9.2-5.7,17.3-18.4,14.6-29.5c0.2-0.2,0.4-0.4,0.5-0.6c1.3-1.7,2.2-3.9,3-5.9
                          c1.3-3.7,1.9-8.6-2.2-10.1c0.6-1.1,0.9-2.4,1-3.4c0.4-4.6-3.4-8.9-7.3-10.7c-1-0.5-1.7,0.9-0.7,1.4c4.3,2,8.5,7.7,5.2,12.4
                          c-1.5,2.2-5,1.5-7.4,1.2c-3.3-0.4-6.6-1.2-9.7-2.5c-5.5-2.3-9.8-6.1-13.9-10.4c-1.8-2-3.7-4.4-3.7-7.2c0-3.3,3.2-5.3,6.2-5.3
                          c1.1,0,0.9-1.6-0.1-1.6c-3.2,0-5.6,1.5-6.8,3.8c-3.4-0.5-7.1,0.2-9.8,2.5c-1.9,1.7-3.1,4.3-3.1,6.8c-6.7,1.8-12.5,5.8-16.7,11.3
                          C12.8,79.5,8.7,85.6,9.7,90.6z M44.6,56.5c-0.4,1.6-0.3,3.4,0.6,5.2c1,2.2,2.7,4.1,4.4,5.8c2.2,2.2,4.3,4.4,6.9,6.1
                          c5.2,3.7,11.3,5.6,17.6,6.2c2.1,0.2,4.9,0.6,6.8-0.7c0.2-0.1,0.3-0.3,0.5-0.4c4.7,1.3,1.9,7.9,0.5,10.9c-1.1,2.2-2.1,4.1-4.8,4.3
                          c-3.2,0.3-6.7-0.2-9.9-0.7c-7.4-1.2-13.7-4.8-19.2-9.8c-5.1-4.6-9.8-9.4-12.9-15.6C31.6,61.1,38.1,55.8,44.6,56.5z">
                    </path>
                </g>
                <g>
                    <path class="st0" d="M74.3,100.3c0.7,1.9,0.5,4,0.1,5.9c-0.3,1-1.9,0.6-1.6-0.4c0.4-1.7,0.6-3.5,0-5.1
                          C72.4,99.7,74,99.4,74.3,100.3z">
                    </path>
                </g>
                <g>
                    <path class="st0" d="M65.8,107.2c0.5,1.1,0.7,2.3,1.6,3.1c0.8,0.7-0.3,1.8-1.1,1.1c-1.1-1-1.4-2.5-2-3.8
                          C63.7,106.6,65.4,106.3,65.8,107.2z">
                    </path>
                </g>
                <g>
                    <path class="st0" d="M64.5,100.6c1.8-0.1,3.4,0.5,4.9,1.4c1,0.5,0.2,1.9-0.7,1.4c-1.3-0.7-2.6-1.2-4.1-1.1
                          C63.6,102.2,63.4,100.6,64.5,100.6z">
                    </path>
                </g>
                <g>
                    <path class="st0" d="M29.8,73.1c0.1,1.6,0.5,3,0.3,4.6c-0.2,1-1.8,0.6-1.6-0.4c0.2-1.4-0.3-2.8-0.3-4.1
                          C28.1,72.1,29.7,72.1,29.8,73.1z">
                    </path>
                </g>
                <g>
                    <path class="st0" d="M22.6,77.7c0.8-0.6,2,0.5,1.2,1.1c-1.1,0.9-2.1,2-2.7,3.3c-0.5,0.9-2,0.1-1.5-0.8
                          C20.3,79.9,21.4,78.7,22.6,77.7z">
                    </path>
                </g>
                <g>
                    <path class="st0" d="M24.9,85.7c1.9-0.1,3.6-1.2,5.5-1.2c1,0,1.2,1.6,0.1,1.6c-1.9,0-3.6,1.1-5.5,1.2
                          C23.9,87.4,23.8,85.8,24.9,85.7z">
                    </path>
                </g>
                <g>
                    <path class="st0" d="M41,62.5c0.2,1.6,0.4,3.2,0.4,4.8c0,1.1-1.7,1-1.7,0c0-1.6-0.2-3.2-0.4-4.8C39.2,61.5,40.9,61.5,41,62.5z"></path>
                </g>
                <g>
                    <path class="st0" d="M38.5,49.2c1.8,0.7,3.8,0.6,5.7,1.1c1,0.3,0.7,1.8-0.3,1.5c-2-0.6-4.1-0.5-6.1-1.3
                          C36.8,50.2,37.5,48.8,38.5,49.2z">
                    </path>
                </g>
                <g>
                    <path class="st0" d="M43.4,44.8c1.8-0.5,3.4-1.3,5.2-1.5c1-0.1,1.2,1.5,0.1,1.6c-1.7,0.2-3.2,1-4.8,1.5
                          C42.9,46.7,42.3,45.1,43.4,44.8z">
                    </path>
                </g>
                <g>
                    <path class="st0" d="M73.1,1.1c0.7,1.2,0.7,2.9,0.9,4.2c0.1,1.3,0.3,2.7,0.3,4.1c0.3,4.3-0.3,8.5-1.1,12.7
                          c-1,5.2-1.9,10.8-3.6,15.9c-2.5-1.6-5.9-2.2-8.7-2c-4.1,0.3-6.7,3.4-8,7.1c-1.2,3.4-2,7.2-1,10.7c0.9,3.2,3,6,5.7,8.1
                          c5.6,4.3,13.4,5.3,19.6,1.5c5.5-3.4,10.1-11.1,7.8-17.6c-2-5.8-8.4-8.3-14.1-6.9c0,0,0,0,0,0c0.4-1.4,0.8-2.7,1.2-4.1
                          c1.1-4.5,2.1-9.1,2.9-13.7c0.7-4.2,1.1-8.5,0.8-12.8c0-0.3,0-0.7-0.1-1.1c0,0,0,0,0,0C82,13.6,89.1,20.4,98.2,22
                          c7.9,1.3,16.9-1.2,23.7-5.2c0.6-0.3,0.3-1.1-0.3-1.3c-3-0.9-5.2-3.1-7.7-4.9c-1.9-1.4-4-2.3-6.2-3.2c-3.9-1.5-7.7-3.5-11.8-4.6
                          C89,1,81.5,1.1,75.6,5.4c-0.1-1.8-0.4-3.7-1.2-5.1C73.9-0.4,72.6,0.2,73.1,1.1z M69.3,39.4c-1,2.7-2.2,5.3-3.8,7.6
                          c-0.5,0.7,0.8,1.5,1.3,0.7c1.5-2.2,2.7-4.6,3.6-7.1c0.1,0,0.2,0,0.3,0c6-1.9,13.2,1.4,13.5,8.3c0.3,5.9-4.3,12-9.5,14.3
                          C69,65.7,62.1,64.1,57.6,60c-5.1-4.6-5.3-11-2.8-17.1c1.3-3.3,3.7-5.5,7.3-5.5C64.5,37.4,67.2,37.9,69.3,39.4z M118.9,15.8
                          c-6.9,0.3-13.4-2.1-19.8-4.4c-7-2.5-14.1-4.2-21.4-5.6c5.9-3.6,13.3-3.1,19.9-1c4,1.3,8,3.1,11.9,4.8
                          C113,11.1,115.6,14,118.9,15.8z M77.7,7.2c7.4,1.5,14.7,3.2,21.8,5.8c5.9,2.1,11.9,4.3,18.2,4.3c-6.1,2.9-13.4,4.5-19.9,3.2
                          C89.8,18.9,83.4,12.9,77.7,7.2z">
                    </path>
                </g>
            </g>
            <g>
                <path class="st0" d="M87.7,75.4c0,0.1-0.1,0.2-0.1,0.3c-0.1,0.3,0.1,0.8,0.5,1.1c0.1,0.1,0.1,0.1,0.2,0.2c0.6,0.4,1,1.6,1.4,2.1
                      c0.5,0.7,1.1,1.4,1.8,2c0.9,0.9,1.7,1.5,2.8,1.9c1.6,0.5,4.1,0.7,5.1-1c2.2-4-4.4-4.7-7.7-5.5c3.3-0.6,6.5-1.4,9.6-2.5
                      c1.8,1.8,3.9,3.8,6.3,4.6c1.8,0.6,4.4,0.2,4.9-2c0.4-1.9-1.9-2.6-3.4-3c-1.2-0.3-2.5-0.5-3.7-0.6c-0.3,0-0.8-0.1-1.3-0.1
                      c3.2-1.3,6.2-2.9,9.2-4.7c1.3,1.5,2.5,3.1,4.2,4c1.4,0.7,3.7,1.1,5-0.1c1.3-1.1,0.3-2.7-0.9-3.5c-1.8-1.3-4.1-1.1-6.1-1.8
                      c1.8-1.2,3.5-2.5,5.1-3.8c0.2,0,0.3,0,0.5-0.1c3.2-1.7,7.6-2.5,10.2-5.2c1.3-1.3,1.5-3.2-0.3-4.1c-4.9-2.4-9.7,4.1-11.7,7.7
                      c-0.1,0.2-0.1,0.4-0.1,0.6c-1.4,1.1-2.8,2.2-4.2,3.2c0.2-1,0.2-2.1,0.3-3.1c0.1-1.4,0.2-3.9-1.2-4.7c-1.7-1-3,1.1-3.1,2.5
                      c-0.2,2.4,0.9,4.5,1.2,6.8c0,0.1,0,0.2,0.1,0.2c-2.5,1.5-5.1,2.9-7.8,4.1c0.8-1.6,1.1-3.5,1.3-5.3c0.1-1.2,0.3-3.5-1-4.2
                      c-1.7-0.8-3.2,1.8-3.6,3.1c-0.8,2.5-0.3,5.2-0.8,7.8c0,0.1,0,0.1,0,0.2c-2.7,0.9-5.6,1.7-8.5,2.3c1-1,1.7-2.2,2.2-3.6
                      c0.3-1,1.1-3.2,0.1-4.1c-1.2-1.2-3,0.7-3.7,1.6C88.9,70.6,88.5,73.1,87.7,75.4z M113.5,64.4c-0.2-0.8-0.5-1.6-0.6-2.4
                      c-0.1-0.7-0.3-1.6-0.1-2.4c0.1-0.2,0.3-0.8,0.6-0.9c0,0,0,0.1,0.1,0.2c0.6,1,0.3,3.1,0.2,4.2C113.6,63.5,113.5,63.9,113.5,64.4z
                      M121.6,60.8c1.7-2.7,4.2-5.9,7.3-6c1.5-0.1,2.3,0.5,1.2,1.8c-0.8,0.9-2,1.4-3,1.9C125.3,59.3,123.5,60,121.6,60.8z M115.5,68.4
                      c0.7,0.2,1.5,0.4,2.3,0.5c0.5,0.1,1.1,0.2,1.6,0.4c0.6,0.2,1.1,0.4,1.5,0.8c-0.2,1-0.6,1.4-1.3,1.2
                      C118.1,71.4,116.7,69.8,115.5,68.4z M104.3,74.6c2,0.3,4.4,0,6,1c0.8,0.5,0.6,1.1-0.4,1.5c-1,0.5-2.3-0.3-3.2-0.8
                      C105.8,75.9,105,75.2,104.3,74.6z M102.2,71.4c0.1-1,0.1-2.1,0.1-3.1c0.1-1.3,0.2-4.4,1.7-5.1c0.2-0.1,0.1-0.3,0.2,0.3
                      c0.1,0.3,0,0.6,0.1,0.9c0,0.6-0.1,1.1-0.1,1.7C103.9,68,103.4,69.9,102.2,71.4z M90.7,77.8c2.5,0.6,7.5,1.2,7.3,3
                      c-0.3,2.1-4,0.5-4.9-0.3C92.2,79.7,91.4,78.8,90.7,77.8z M91.5,70.1c0.3-0.4,0.6-0.8,1-1.1c0.2-0.1,0.4-0.2,0.5-0.2
                      c0,1-0.9,2.8-1.2,3.4c-0.6,1-1.4,1.8-2.2,2.5c0.2-0.8,0.5-1.5,0.7-2.2C90.7,71.6,91.1,70.8,91.5,70.1z">
                </path>
            </g>
            <g>
                <path class="st0" d="M12.9,43.7c0.9,1.3,2.7,2.3,4.4,2.4c0.1,0.5,0.1,1.1,0.2,1.6c0.2,1.8,0.8,3.5,1.3,5.2
                      c-1.7-1.5-3.6-2.4-4.9-1.1c-1.7,1.7,0.1,4.3,1.5,5.4c1.9,1.6,4.5,2.7,7,2.9c0.7,0,0.9-0.6,0.7-1.1c1.9-2.2,6.6-8,3.8-10
                      c-2.8-1.9-4.8,3.5-5.5,6.8c-0.8-2.4-1.9-4.7-2.2-7.2c-0.1-0.6-0.2-1.2-0.2-1.8c2.1-0.9,7.3-4.1,5-5.9c-1.1-1-2.9-0.1-3.9,0.7
                      c-0.5,0.4-1,1-1.5,1.5c0-1.1,0.2-2.1,0.6-3.1c0.1,0,0.2-0.1,0.3-0.2c1.3-1.2,2.4-2.8,3.2-4.4c0.6-1.1,1.7-3.2,0.6-4.3
                      c-1.3-1.4-3.3-0.1-4.2,1.2c-1.2,1.7-2,4.4-1.6,6.5c0,0.2,0.1,0.3,0.2,0.4c-0.5,1.1-0.6,2.3-0.7,3.5c-0.2-0.3-0.5-0.7-0.7-1
                      c-0.7-0.8-1.8-2.1-3-1.7C11.8,40.4,12.2,42.7,12.9,43.7z M20.2,36.2c-0.3,0.5-0.7,1-1.1,1.5c0-1.2,0.4-2.5,0.9-3.6
                      c0.3-0.6,0.7-1.5,1.4-1.9c0.8-0.4,0.6-0.1,0.6,0.4C22.1,33.7,20.8,35.3,20.2,36.2z M25,51.1c0.4-0.6,0.8-1.2,1-0.5
                      c0.4,1.1-1.6,3.6-2.2,4.4c-0.3,0.4-0.6,0.8-0.9,1.3c0.2-1.1,0.6-2.2,1-3.1C24.2,52.5,24.5,51.7,25,51.1z M18.4,54.8
                      c0.5,0.5,1.3,1.3,1.7,2.1c0.1,0.4,0.2,0.7,0.3,1.1c-1-0.3-2-0.8-2.8-1.3c-0.6-0.3-4-2.9-2.5-3.9C15.9,52.3,17.9,54.3,18.4,54.8z
                      M19.6,44.6c0.3-0.5,0.6-0.9,1-1.3c0.3-0.4,0.7-0.7,1.1-1c0.2-0.1,0.4-0.2,0.6-0.3c0.1,0,0.2,0,0.3,0c-0.1,0.1-0.2,0.3-0.3,0.4
                      c-0.3,0.4-0.7,0.7-1,1C20.7,43.9,20.2,44.3,19.6,44.6z M14,41.5c0,0,0.1,0.1,0.1,0.1c0.6,0.7,1.2,1.4,1.8,2.1
                      c0.1,0.1,0.2,0.3,0.3,0.4c-0.8-0.3-1.6-0.8-2-1.5C13.9,42.4,13.9,42,14,41.5z">
                </path>
            </g>
            <g>
                <path class="st0" d="M5,132.9L5,132.9c-0.4-3.2-1-6.5-1.5-9.7c-0.3-1.6-0.5-3.2-0.8-4.9c-0.9-5.8-1.1-8.6-1.5-13.7
                      c-0.1-1.3-0.2-2.7-0.3-4.3C0.7,98.6-0.1,88.9,0,85c0,0,0,0,0,0l0,0c0,0,0,0,0,0c0-0.4,0.4-0.7,0.8-0.7c0.3,0,0.5,0.2,0.6,0.4
                      c0.4,0.3,2.1,1.2,2.7,1.5c0.3,0.2,0.6,0.3,0.7,0.4l0.3,0.2c8.4,4.9,16.4,9.6,24.2,14.1c9.6,5.6,19.5,11.4,30.3,17.7
                      c0.9,0.5,9.6,5.9,12,7.5c0.2,0.1,0.3,0.4,0.3,0.6c0,0.2-0.1,0.5-0.3,0.6c-2.9,2.3-5.9,4.1-9.1,6c-1.7,1-3.5,2.1-5.3,3.3
                      c-4.4,2.9-9.3,5.2-14.5,6.8c-0.5,0.1-1.7,0.8-2.9,1.5c-4,2.3-6.7,3.7-8,3l-20.2-10.9c-0.1-0.1-0.6-0.3-1-0.5
                      c-1.7-0.8-2.9-1.3-3.7-1.8C5.4,133.9,5.1,133.4,5,132.9z M5.7,132.9L5.7,132.9L5.7,132.9z M6.5,132.8
                      C6.5,132.8,6.5,132.8,6.5,132.8C6.5,132.8,6.5,132.8,6.5,132.8z M32.6,146.4c0.8,0.3,4.8-2,6.6-3c1.4-0.8,2.6-1.5,3.2-1.7
                      c5.1-1.6,9.8-3.8,14.1-6.6c1.8-1.2,3.6-2.3,5.4-3.3c2.8-1.7,5.5-3.3,8.1-5.2c-3.1-2-10.2-6.4-11-6.9
                      c-10.8-6.2-20.7-12.1-30.3-17.7C20.8,97.5,12.8,92.8,4.4,88l-0.3-0.2c-0.1-0.1-0.3-0.2-0.6-0.3c-0.8-0.4-1.5-0.8-2-1
                      c0,4.5,0.7,12.5,0.9,13.8c0,0,0,0,0,0.1c0.1,1.6,0.2,3.1,0.3,4.3c0.3,5,0.5,7.8,1.4,13.5c0.3,1.6,0.5,3.2,0.8,4.8
                      c0.5,3.1,1.1,6.4,1.5,9.6c0.6,0.6,3.7,1.9,4.7,2.4c0.6,0.3,1,0.4,1.1,0.5L32.6,146.4z M6.4,132.6L6.4,132.6L6.4,132.6z M1.5,85
                      L1.5,85L1.5,85z">
                </path>
            </g>
        </g>
    </symbol>
    <symbol id="symbol-lollipop" viewBox="0 0 95.23 113.85">
        <path d="M55.83,64.5a4.43,4.43,0,0,1-2.73,1.94c-.8.39-1.68.66-2.36,1-7.3,3.57-15,4.24-23,3.82-3.52-.18-7-1.09-9.54-4.13-.34-.48-1.23-.73-1.69-1.12C12.39,63,9.2,59,6.25,54.81c-1.18-1.66-1.53-3.92-2.71-5.58a19.43,19.43,0,0,1-2-3.58c-2.22-5.4-1.73-10.75-.47-16.28a15.6,15.6,0,0,1,.72-3A30.27,30.27,0,0,1,8.27,14.06c1.57-1.82,3.26-3.21,4.91-4.91,4.83-5,11-7.23,17.77-8,1.69-.13,3.31-.38,4.88-.42C38.46.7,40.64,2,43.16,2.54a21,21,0,0,1,9.1,4.27c2.2,1.84,5,3.25,6.4,6a4,4,0,0,0,.88,1c3.68,2.93,5.18,7,6.55,11.26,1.07,3.53,1.62,7.07,2.37,10.65.53,3-.39,6-.59,9C67.21,51.07,63,55.48,59.22,60c-1.57,1.82-1.72,2.11-.13,3.85A78,78,0,0,1,69.2,78.07l.42.59c.84,1.19,1.28,1.05,2.1-.06a13,13,0,0,0,2.41-4.92c.19-.49.17-1,.36-1.51s.45-1.39,1.38-1.33S77.7,71.15,78,72c.44,1.12.79,2.12,2.13,2.24a.51.51,0,0,1,.29.15c.33,1.73,1.26,3,1.59,4.77.32,1.2-.74,2.49-1.64,3.48a3.47,3.47,0,0,1-3.09.94,1.57,1.57,0,0,0-1.83.94,1.67,1.67,0,0,0,.38,2.05c3.61,3.33,5.45,7.93,9.06,11.27a8,8,0,0,1,1.4,2.22,16.76,16.76,0,0,0,3.24,4.31c2.25,2.16,3.63,5.11,5.4,7.61.76,1.07.13,1.69-.7,2.29-1.07.76-1.46,0-1.76-.72-1.15-1.87-2.26-3.94-3.52-5.72-2.53-3.57-5.45-6.68-7.86-10.33a10.56,10.56,0,0,1-1.87-3.14,5.32,5.32,0,0,0-1.52-2.14,13.35,13.35,0,0,1-2.9-3.84c-.86-1.71-1.59-1.73-2.88-.28-1,1.08-1.84,2.2-2.77,3.4a3.71,3.71,0,0,1-5.64.61c-.74-.54-1.13-1.34-2.38-1.35-1.05,0-1.4-1-1.23-2a3.81,3.81,0,0,0-.45-2.9c-.64-1.15.09-2.39,1.49-3.2a14,14,0,0,1,4.26-1.05c1.17-.11,2.88.28,3.37-.78s-.94-1.83-1.74-2.7a32.9,32.9,0,0,1-3.68-5.43C61.28,69.92,58.46,67.46,55.83,64.5ZM63.38,22a10.14,10.14,0,0,0-1.46-3.07,38.07,38.07,0,0,0-7-7.16C52.14,9.4,48.6,10,46.82,13a7.81,7.81,0,0,1-.89,1.52A.89.89,0,0,0,46.1,16c2.42,1.14,4,3.4,6,5C53.64,22.1,54.34,24.1,56,24.9A2.82,2.82,0,0,1,57.62,27,6.49,6.49,0,0,1,58,30.47a2.76,2.76,0,0,0,1.18,2.92A18,18,0,0,1,66.31,41a2.37,2.37,0,0,0,.46-.86A9.43,9.43,0,0,0,67,38.38c.29-4.13-.72-8.07-1.72-12a3.25,3.25,0,0,0-.82-1.92c-2.4-1.87-4.68-3.83-8-3.77a11,11,0,0,1-2.59-.13c-.41-.07-.58-.31-.71-.75s.31-.58.63-.62a11.1,11.1,0,0,1,6,.92C61,20.84,62,21.33,63.38,22ZM15.26,57.18c-.45-2.9.78-5.2,1.31-7.72a7.43,7.43,0,0,1,1.72-3.37c1.53-1.62,1.52-2.15.37-4a12.23,12.23,0,0,1-1.36-3.68c-.3-1.93-.87-2.24-2.77-2.14A15,15,0,0,0,3.74,40.69a2.18,2.18,0,0,0-.65,2.61C4,44.6,4.09,46,4.58,47.41a14.69,14.69,0,0,0,2.73,4.86C9.56,54.43,12.26,55.73,15.26,57.18ZM2.37,39.51c2.56-.92,4-3.39,6.81-3.76,2.58-.4,5.07-.91,7.59-.38.15-.29.19-.49.31-.58s.1-.61,0-.73a12,12,0,0,1,.5-7.86c.38-1-.28-1.41-.94-1.83A13.15,13.15,0,0,0,6.9,22.72a3.34,3.34,0,0,0-2.8,2.35A37.4,37.4,0,0,0,1.87,37.54,3.24,3.24,0,0,0,2.37,39.51ZM31.8,20.79c-.68.3-1,.15-1.22-.21a25.8,25.8,0,0,1-1.82-2.82c-.77-1.6-1.59-1.73-3.1-.84-2.31,1.28-3.67,3.14-5.1,5.4a3.21,3.21,0,0,0,.16,4,17.39,17.39,0,0,0,3.83,3.89c.74.54,1.39.45,1.65-.45.48-2.84,2.79-4.12,4.44-5.83,2.13-2,4.62-3.81,7.87-3.26,2.73.57,4.63-.78,6.53-2.13C42.16,15.23,34.11,14,29.48,16,29.73,17.61,30.82,19.16,31.8,20.79ZM33.89,54a19.38,19.38,0,0,1-13.61-7.86c-3.2,2.8-3.5,6.41-3.59,10.05a1.79,1.79,0,0,0,1.72,2.17A7,7,0,0,1,21.89,60a3,3,0,0,0,2.4.62,3.51,3.51,0,0,1,2,.35,15.43,15.43,0,0,0,9.18.1A11.1,11.1,0,0,1,33.89,54ZM6.42,21.28A14.26,14.26,0,0,1,16,22.5c2.13,1,2.3,1.23,3.32-1.11,1.21-2.83,3.39-4.55,5.73-6,.59-.42,1.61-.25,1.9-1.35a9.93,9.93,0,0,0-5.54-4.29c-3.18-1-6-.72-8.6,2-2,2.16-3.46,5-5.87,6.84C6.15,19.14,6.39,20.23,6.42,21.28ZM40.41,4C33.92,1.6,21,3.59,18.65,7.78c3.95.78,7.43,2.41,9.55,5.91.34.48.74.54,1.1.29,2.16-1,4.43-.82,6.7-.64C35.92,9.47,37.78,6.54,40.41,4ZM54.48,62.6c.85-1.32,2.62-1.85,3.42-3.5.27-.37.63-.62.7-1,.3-3.61.16-7.08-1.47-10.39-.39-.8-1-.9-1.54-.16-1.12,1.69-2.42,3.14-3.46,5a6.58,6.58,0,0,1-2.67,2.79,6.26,6.26,0,0,0-3.16,3.85,54,54,0,0,0-1.17,5.66c-.38,2.24.08,2.63,2.15,1.52A70.74,70.74,0,0,0,54.48,62.6ZM26,68.84c1.46,0,2.57.86,3.95.78,3.27-.18,6.59,0,9.73-.64,1.41-.28,3.22-.5,3.67-1.89.86-2.57,1.92-5.11,1.87-7.94-2.25.35-2.34.23-2.88,1-1.33,1.66-3.29,2.16-5.23,2.46a21.86,21.86,0,0,1-5.41.44,2,2,0,0,0-1.83.94A14.2,14.2,0,0,1,26,68.84Zm11.91-33.1c-2.31,1.28-3,1.26-4.54-.35-.46-.39-.76-1.07-1.44-.77-1,.35-2.05.38-2.8,1.09S27.39,37.5,28,38.33c1.64,2.06,3.12,4.4,6.27,4.31,2.75-.16,5-.83,6.37-3.62,1.26-2.5,1-4.84-.09-7.44a4.25,4.25,0,0,0-3-2.5c-1.3-.33-3,.85-3.58,2-.92,1.73,1.76,2,1.28,3.56-.07.41.59.83,1.12.82A1.25,1.25,0,0,1,37.93,35.74Zm20.51-1.32a6.29,6.29,0,0,0,0,1.58c-.3,2.35.34,4.76-1.18,6.91a3.11,3.11,0,0,0,.14,3.47,16.91,16.91,0,0,1,2.67,8.29c0,.53-.21,1.22.45,1.65a10.42,10.42,0,0,0,1.93-4.59,6.4,6.4,0,0,1,1.13-2.94c2.47-2.82,2.58-5.94.71-9.08C63,37.6,60.87,36.09,58.44,34.42ZM44.93,56.69c1-.56,2.51-1.25,2.48-2.3,0-1.58.27-3.4-.83-5s-1.59-1.73-3-.52a21.7,21.7,0,0,1-5.25,3.18c-.8.39-1.51.89-2.31,1.28a1.38,1.38,0,0,0-1,1.4,11.16,11.16,0,0,0,1,5,1.23,1.23,0,0,0,2.08.67C40.26,58.92,42.87,58.32,44.93,56.69Zm3.61-4c.76-.18,1.32-.4,1.76-.54.12-.08.27-.37.51-.54a24.32,24.32,0,0,0,4.69-9.76,3,3,0,0,0-1.68-3.63c-.78-.34-1.68-.6-2.45-.94-1.07-.5-1.74-.19-2.16,1a30.77,30.77,0,0,1-3,7.12,1.29,1.29,0,0,0,.13,1.69C48,48.63,48.39,50.48,48.53,52.7ZM30.35,52c-.16-2.75.66-5.11,1.16-7.43.22-.69.4-1.71-.21-1.81-1.95-.23-2.6-1.91-3.45-3.1-.59-.83-1.2-.94-1.95-.23a8.67,8.67,0,0,1-4.56,1.63c-.53,0-1.22-.21-1.41.28C21,47.18,25.16,50,30.35,52Zm6.82-38.25c2,0,3.71.94,5.59.32,1.45,1.29,2.15.26,2.56-.92,1-2.33,2.42-4.4,5.54-4.28a36.31,36.31,0,0,0-6.46-3.82,2.75,2.75,0,0,0-3.54.55,9.16,9.16,0,0,0-3.15,5.63A24.28,24.28,0,0,1,37.18,13.76ZM19.34,26.4c-.15.29-.39.46-.43.66-1.06,3.79-.47,7.66-.28,11.45,0,.53.23,1.09,1,1.1,1.69-.13,3.52.18,5-.71a2.1,2.1,0,0,0,1.26-2.5c-.45-2.9-.93-5.59-3.89-7.25C20.95,28.66,20.7,27.05,19.34,26.4ZM43.08,47.28A5.42,5.42,0,0,0,45,45a62,62,0,0,0,3.19-7.09c1.28-3.23.69-2.81-2-3.38a3,3,0,0,0-1.05,0c-1.69.13-2.29.55-2.48,2.3A6,6,0,0,1,41,40.34c-1.8,2-1.42,4-.63,6.17S41.38,48.66,43.08,47.28Zm-31.88,11c2.08,1.92,4.07,3.72,6.06,5.53a16.11,16.11,0,0,0,5.41,3.85c.49.19.86.46,1.34.12a11.25,11.25,0,0,0,4.06-3.6c.54-.74.09-1.13-.49-1.44a6.34,6.34,0,0,1-1.3-.33A78.23,78.23,0,0,1,12.2,57.91,2,2,0,0,0,11.2,58.26ZM38.67,43.08a8.47,8.47,0,0,1-4.39.61A1.58,1.58,0,0,0,32.5,45c-.31,1.83-1.15,3.67-.93,5.49s.64,2.41,2.48,2a16.94,16.94,0,0,0,5.67-2.59c.59-.42.87-.79.36-1.51A10,10,0,0,1,38.67,43.08Zm17.75-4.19c0-2.3.2-4.25,0-6.07-.27-3.92-1.68-4.89-5.68-4.73-1.58,0-1.85.42-1.48,1.94s1.11,3.32.91,5.07c-.1.61.39.8.79.87C53,36.11,54.6,37.32,56.43,38.88Zm-13.33-15a3,3,0,0,0-1.94-1.48c-3-.93-5.74-1.29-8.26,1.21-1.1,1-1.12,1.69-.35,3.29a1.75,1.75,0,0,0,2.54,1.06c.68-.3,1.6-.77,2.25-.35,2.42,1.14,3.68-.11,4.55-2.15C42,24.82,42.83,24.76,43.09,23.86Zm5.83,10a18,18,0,0,0-1.86-6.9,4.12,4.12,0,0,0-1.76-2c-.37-.27-.86-.46-1.13-.09-1.26,1.25-2.72,2.46-3,4.29-.24,1.42.69,2.73,1.17,4.17a.71.71,0,0,0,.86.46C45,32.86,46.73,33.78,48.92,33.84ZM42.54,21.57c2.27,1.43,4.24,2.71,5.35,4.78a1.3,1.3,0,0,0,1.27.53A8.71,8.71,0,0,0,51,26.67c1-.15,2.25.91,2.86-.24.46-.86-.74-1.8-1.33-2.63a25.8,25.8,0,0,0-2.06-2.65,5.55,5.55,0,0,0-1.86-1.36C46.34,18.87,44.68,20.05,42.54,21.57ZM63.31,86.89c-.06-2.1,2.21-1.92,3.06-3.24-1.69.13-3.07.21-4.44.29-.64.1-1.76.54-1.46,1.21.49,1.44.26,3.39,1.09,4.05,1,.9,2,2.13,3.43,2.57s2.1-.06,2.14-1.52a1.87,1.87,0,0,1,1.33-1.66c.59-.42,1.56-.57,2-1.43a1.82,1.82,0,0,0-2.66.28c-.48.34-.66.83-1,1.08s-1,.67-1.37.08.14-.81.5-1.07l3.21-2.28a.88.88,0,0,1-.22-.56C67,85,65.4,86.31,63.31,86.89ZM26.55,35.05a19.12,19.12,0,0,0,3.24-1.23c1-.35,2.25-.35,2.29-1.81s1.3-2.71-.24-4.12A3.15,3.15,0,0,1,31,26.51c-.35-1-.79-.87-1.42-.24C26.89,28.73,26.7,31.73,26.55,35.05Zm51.94,42.5c.2,1.29-1.17,1.37-1.52,2.15S75.39,81,75.3,82.14c.69.22,1-.15,1-.56.27-.37.34-.78,1-.67.34.48-.16,1.54,1,1.43s2-2.16,1.81-3.25c-.55-2.29-2.85-3.52-3.52-5.72,0-.32-.54-.51-.86-.46a.65.65,0,0,0-.54.74c-.21,1.22-.62,2.4-.86,3.83,1.12-.44,1.77-1.79,3.07-1.46-.6,1.68-2.57,2.18-2.67,4C76.16,79.57,76.76,77.89,78.49,77.56Zm-4.91,4.91a1.25,1.25,0,0,0-1.63-.28c-.59.42-.26.9,0,1.25s.71.75,1.3.33A.94.94,0,0,0,73.58,82.47Zm-3.09.94c-.12.08-.12.08-.32,0a9.43,9.43,0,0,1,.62,1.88,1.13,1.13,0,0,0,.91.78c.08.12.32,0,.44-.13.19-.49-.18-.76-.35-1A9,9,0,0,0,70.49,83.41Z"></path>
    </symbol>
    <symbol id="symbol-cat" viewBox="0 0 71 131.4">
        <path class="st0" d="M61,130.9c0.8-20.8,1.6-41.7,2.5-62.5c0.9-21.2,2.2-42.4,2.4-63.5c0-0.7,0.5-4.5-0.6-4.8
              c-0.9-0.2-2.3,2.2-2.7,2.8c-2,2.6-4,5.3-6,8c-1,1.4-2,2.8-3,4.1c-0.4,0.6-0.8,1.1-1.2,1.7c-0.2,0.3-1.2,1.5-0.8,1.4
              c-0.7,0.2-2.8-0.6-3.6-0.7c-2.2-0.3-4.4-0.5-6.6-0.7c-6.6-0.4-13.1,0.3-19.6,1.2c-0.3,0-0.9,0-1.2,0.2c-0.3,0.1-0.8-0.1-0.2,0.2
              c0.6,0.3-0.6-1-0.8-1.3c-1.6-1.9-3.2-3.8-4.8-5.7C14.1,10.3,8.3,2.7,7,4.3c-0.7,0.8-0.1,4-0.1,5c0.1,3,0.2,6,0.2,9.1
              c0.3,8.8,0.4,17.6,0.3,26.4C7.2,61,6.5,77.1,4.9,93.2c-1.2,11.6-2.5,23.1-3.9,34.7c-0.1,0.7-0.2,1.4-0.3,2.2
              c-0.1,0.7,1.1,0.7,1.2,0C3.7,114.5,5.6,98.9,7,83.2C9.3,58.1,8.5,32.9,8,7.8c0-0.6,0.2-2,0-2.5C7.9,5.2,8,5,8,4.9
              c0-0.1-0.5,0.1-0.4,0.3C7.7,5.4,8,5.6,8.2,5.8c1.5,1.3,2.8,2.9,4.2,4.4c2.5,2.8,5.3,5.6,7.4,8.8c0.2,0.2,0.4,0.3,0.7,0.3
              c4.6-0.6,9.2-1.2,13.8-1.5c2.9-0.2,5.7,0,8.6,0.2c2.9,0.2,6.1,0.3,8.8,1.3c0.2,0.1,0.5-0.1,0.7-0.3c3.5-5.2,7.2-10.3,11.1-15.3
              c0.4-0.5,1.8-1.7,1.9-2.4c0-0.1,0.3-0.2,0.2-0.3c0-0.1-0.9-0.2-0.8-0.2c0,0,0.1,0.2,0,0.3c-0.3,0.6,0.1,2.2,0.1,2.9
              c0,9.7-0.5,19.4-0.9,29.1c-0.8,20.5-1.8,41-2.6,61.5c-0.5,12.1-1,24.2-1.5,36.3C59.8,131.6,60.9,131.6,61,130.9L61,130.9z">
        </path>

        <path class="st0" d="M51.4,36.7c-0.2-2-1-5-3.6-4.8c-2,0.1-3.7,3-3.5,4.8c0.1,0.7,1.2,0.7,1.2,0c-0.1-1.1,1-3.2,2.2-3.6
              c2-0.5,2.5,2.3,2.6,3.6C50.3,37.5,51.4,37.5,51.4,36.7L51.4,36.7z">
        </path>

        <path class="st0" d="M28.6,36.7c-0.5-1.3-0.7-2.5-1.6-3.6c-0.8-0.9-1.9-1.5-3.1-1.3c-2.9,0.3-2.6,3.4-2.7,5.5c0,0.7,1.1,0.7,1.2,0
              c0-1.5-0.4-4.2,1.7-4.4c2.3-0.2,2.8,2.5,3.5,4.1C27.8,37.7,28.9,37.4,28.6,36.7L28.6,36.7z">
        </path>

        <path class="st0" d="M42.4,17.8c0,1.2-0.1,2.4-0.1,3.6c0,0.7,1.1,0.7,1.2,0c0-1.2,0.1-2.4,0.1-3.6C43.6,17.1,42.4,17.1,42.4,17.8
              L42.4,17.8z">
        </path>

        <path class="st0" d="M36.7,17.3c0.2,2.1,0.3,4.2,0.2,6.2c0,0.7,1.1,0.7,1.2,0c0.1-2.1,0-4.2-0.2-6.2
              C37.8,16.6,36.7,16.6,36.7,17.3L36.7,17.3z">
        </path>

        <path class="st0" d="M31.6,17.2c0,2.5,0,4.9,0,7.4c0,0.7,1.1,0.7,1.2,0c0.1-2.5,0.1-4.9,0-7.4C32.8,16.5,31.6,16.5,31.6,17.2
              L31.6,17.2z">
        </path>

        <path class="st0" d="M26.9,18.2c0.3,1.4,0.4,2.7,0.4,4.1c0,0.7,1.1,0.7,1.2,0c0-1.5-0.1-3-0.4-4.4C27.9,17.1,26.8,17.4,26.9,18.2
              L26.9,18.2z">
        </path>

        <path class="st0" d="M37.8,50.5c1.7-1,5.9-3.1,5.8-5.5c0-2-3.4-2.1-4.8-2.2c-1.5-0.1-3.5-0.3-5,0c-0.5,0.1-1,0.3-1.1,0.9
              c-0.2,1,0.9,2.3,1.4,3.1c0.8,1.3,1.9,2.5,3,3.5c0.5,0.5,1.4-0.3,0.8-0.8c-1.3-1.3-2.7-2.7-3.5-4.4c-0.2-0.3-0.3-0.6-0.3-0.9
              c-0.1-0.5,0.1-0.6,0.7-0.3c0.8-0.2,2,0,2.9,0c1.2,0,6,0,4,2.4c-1.2,1.4-2.9,2.3-4.4,3.2C36.5,49.8,37.1,50.8,37.8,50.5z">
        </path>

        <path class="st0" d="M48,52.8c0.1,2.1-1.5,3.6-3.5,3.7c-1.5,0.1-2.7-0.7-3.9-1.4c-1.5-0.8-2.7-1.1-4.4-0.7
              c-1.9,0.5-3.5,1.7-5.4,2.2c-3.1,0.8-6.1-1.4-5-4.8c0.2-0.7-0.9-1-1.1-0.3c-0.7,2.1,0,4.5,1.8,5.7c2.3,1.6,5.2,0.4,7.5-0.7
              c0.9-0.4,1.9-1,2.9-1.2c2.2-0.3,2.8,0.6,4.4,1.4c1.2,0.6,2.6,0.9,3.9,0.7c2.4-0.4,4.1-2.3,4-4.8C49.1,52,48,52,48,52.8L48,52.8z">
        </path>

        <path class="st0" d="M40.4,60.5c-2.3,0.8-4.7,0.8-6.9-0.2c-0.7-0.3-1.3,0.7-0.6,1c2.5,1.1,5.2,1.2,7.8,0.3
              C41.4,61.4,41.1,60.3,40.4,60.5L40.4,60.5z">
        </path>

        <path class="st0" d="M47.3,70.4c0.1,4.2,0.2,8.5,0.3,12.7c0.3-0.2,0.6-0.3,0.9-0.5c-4.5-2-9-4-13.5-5.9c0,0.3,0,0.7,0,1
              c4.2-2.6,8.7-4.8,13.2-6.8c0.7-0.3,0.1-1.3-0.6-1c-4.6,2-9,4.2-13.2,6.8c-0.3,0.2-0.4,0.8,0,1c4.5,2,9,4,13.5,5.9
              c0.4,0.2,0.9,0,0.9-0.5c-0.1-4.2-0.2-8.5-0.3-12.7C48.5,69.6,47.3,69.6,47.3,70.4z">
        </path>

        <path class="st0" d="M34.9,76.4c-4.4-2.3-8.9-4.5-13.2-7c-0.4-0.2-0.8,0.1-0.9,0.5c-0.3,4.2-0.5,8.4-0.5,12.6
              c0,0.3,0.4,0.7,0.7,0.6c4.6-1.9,9.1-3.7,13.7-5.6c0.7-0.3,0.4-1.4-0.3-1.1c-4.6,1.9-9.1,3.7-13.7,5.6c0.2,0.2,0.5,0.4,0.7,0.6
              c0-4.2,0.1-8.4,0.5-12.6c-0.3,0.2-0.6,0.3-0.9,0.5c4.3,2.5,8.8,4.7,13.2,7C35,77.7,35.6,76.7,34.9,76.4z">
        </path>

        <path class="st0" d="M66.3,42.1c-4,0.5-8.1,1-12.1,1.5c-0.7,0.1-0.7,1.2,0,1.2c4-0.5,8.1-1,12.1-1.5C67,43.2,67,42.1,66.3,42.1
              L66.3,42.1z">
        </path>

        <path class="st0" d="M70.4,46.3c-3.6,0-7.2-0.1-10.7-0.2c-0.7,0-0.7,1.1,0,1.2c3.6,0.1,7.2,0.2,10.7,0.2
              C71.2,47.5,71.2,46.3,70.4,46.3L70.4,46.3z">
        </path>

        <path class="st0" d="M66.2,52.3c-3.3-0.8-6.6-1.8-9.7-3c-0.7-0.3-1,0.8-0.3,1.1c3.2,1.2,6.4,2.2,9.7,3
              C66.6,53.6,66.9,52.5,66.2,52.3L66.2,52.3z">
        </path>

        <path class="st0" d="M16.7,41.1c-3.9-1.2-7.8-2.2-11.8-3c-0.7-0.2-1,1-0.3,1.1c4,0.8,7.9,1.8,11.8,3
              C17.1,42.4,17.4,41.3,16.7,41.1L16.7,41.1z">
        </path>

        <path class="st0" d="M11.3,43.6c-3.6-0.3-7.2-0.4-10.7-0.3c-0.7,0-0.7,1.2,0,1.2c3.6-0.1,7.2,0,10.7,0.3
              C12,44.9,12,43.7,11.3,43.6L11.3,43.6z">
        </path>

        <path class="st0" d="M16.8,46.3c-4.7,1.1-9.5,2.2-14.2,3.4c-0.7,0.2-0.4,1.3,0.3,1.1c4.7-1.1,9.5-2.2,14.2-3.4
              C17.8,47.2,17.5,46.1,16.8,46.3L16.8,46.3z">
        </path>
    </symbol>
    <symbol id="symbol-unicorn" viewBox="0 0 221 265.8">
        <path d="M85.9,195c0.3-2,0.9-3.8,1.3-5.8c-0.4,0-0.7,0-1.1,0c0.4,1.6,0.8,3.3,0.9,5c0,0.3,0.2,0.5,0.6,0.6
              c3.1,0.2,6.1,0.4,9.2,0.6c-0.1-0.4-0.2-0.7-0.3-1.1c-2.3,1.3-4.6,2.6-6.9,3.9c-0.2,0.1-0.3,0.4-0.3,0.6c0.5,2.6,0.9,5.2,1.5,7.7
              c0.3-0.2,0.6-0.4,0.9-0.5c-1.9-2-3.6-4.2-5.1-6.4c-0.2-0.3-0.6-0.4-0.9-0.1c-1.6,1.8-3.4,3.4-5.4,4.8c0.3,0.2,0.6,0.4,0.8,0.6
              c1-2.4,2.1-4.9,3.1-7.3c0.1-0.3,0-0.7-0.3-0.8c-1.4-0.5-2.9-0.9-4.3-1.4c0,0.4,0,0.7,0,1.1c1.9-0.5,3.7-1.1,5.7-1.1
              c0.7,0,0.7-1.1,0-1.1c-2.1,0-4,0.7-6,1.2c-0.6,0.1-0.5,0.9,0,1.1c1.5,0.4,2.9,0.9,4.3,1.4c-0.1-0.3-0.2-0.6-0.3-0.8
              c-1.1,2.5-2.2,5-3.2,7.6c-0.2,0.5,0.4,0.9,0.8,0.6c2.1-1.5,3.9-3.1,5.6-5c-0.3,0-0.6-0.1-0.9-0.1c1.6,2.3,3.3,4.6,5.3,6.7
              c0.4,0.4,1.1,0,0.9-0.5c-0.6-2.6-1.1-5.2-1.5-7.7c-0.1,0.2-0.2,0.4-0.3,0.6c2.3-1.3,4.6-2.6,6.9-3.9c0.5-0.3,0.2-1-0.3-1.1
              c-3.1-0.2-6.1-0.4-9.2-0.6c0.2,0.2,0.4,0.4,0.6,0.6c-0.1-1.8-0.5-3.6-0.9-5.3c-0.1-0.5-1-0.6-1.1,0c-0.3,1.9-1,3.8-1.3,5.8
              C84.8,195.4,85.8,195.7,85.9,195L85.9,195z">
        </path>

        <path d="M5.8,117c-1,0.2-1.7,1.3-1.3,2.3c0.4,1,1.5,1.5,2.5,1.1c1-0.3,1.8-1.4,1.6-2.4c-0.3-1.1-1.5-1.3-2.4-1.2
              c-0.7,0.1-0.7,1.2,0,1.1c0.4,0,0.9-0.1,1.2,0.2c0.4,0.4-0.1,0.9-0.5,1.1c-0.4,0.2-0.9,0.2-1.2-0.1c-0.4-0.4-0.1-0.9,0.4-1
              C6.8,118,6.5,116.9,5.8,117L5.8,117z">
        </path>

        <path d="M26.3,194.7c0.3-4.2,2.5-8.2,7.2-8.1c2,0.1,3.9,0.3,5.4,1.7c1.3,1.2,2.2,2.8,3,4.3c0.3,0.6,1.3,0.1,1-0.6
              c-1-1.9-2.2-3.9-4-5.2c-1.9-1.3-4.4-1.6-6.6-1.4c-4.7,0.4-6.9,4.9-7.2,9.2C25.1,195.5,26.2,195.5,26.3,194.7L26.3,194.7z">
        </path>

        <path d="M42.6,191.2c0.5-1.5,2-3,3.4-3.8c1.8-1.1,3.9-0.6,5.7,0.3c2.6,1.2,3.7,5.4,3.9,8c0,0.7,1.2,0.7,1.1,0
              c-0.1-2.2-0.9-4.4-1.9-6.3c-0.8-1.7-2-2.5-3.8-3.2c-1.9-0.7-3.8-0.9-5.6,0.2c-1.7,1-3.3,2.6-3.9,4.5
              C41.3,191.6,42.4,191.9,42.6,191.2L42.6,191.2z">
        </path>

        <path d="M56,196.9c3.8-1.3,7.8,0.8,9.5,4.2c0.9,1.8,1.3,3.9,1.2,5.9c-0.1,2-0.4,5.6-2.7,6.2c-0.7,0.2-0.4,1.3,0.3,1.1
              c2.2-0.6,3-2.9,3.3-5c0.5-2.7,0.3-5.5-0.8-8.1c-1.9-4.2-6.6-7-11.1-5.4C55,196,55.3,197.1,56,196.9L56,196.9z">
        </path>

        <path d="M65,213.7c2.5,4.3,1.9,10.2-1.7,13.8c-4.6,4.6-11.6,4.2-17.1,2c-0.7-0.3-1,0.8-0.3,1.1c6.1,2.3,13.9,2.5,18.6-2.7
              c3.6-4,4.2-10.2,1.5-14.8C65.6,212.5,64.6,213.1,65,213.7L65,213.7z">
        </path>

        <path d="M45,228.8c0.1,4.1-2.9,7.2-6.7,8.1c-3.9,1-9-0.6-9.3-5.3c0-0.7-1.2-0.7-1.1,0c0.3,5,5.3,7.3,9.8,6.6
              c4.7-0.7,8.6-4.4,8.5-9.4C46.1,228.1,44.9,228,45,228.8L45,228.8z">
        </path>

        <path d="M28.5,232.3c-1.7,2-5.6,1.2-7.7,0.2c-2.4-1.1-4.1-3.3-4.9-5.8c-0.2-0.7-1.3-0.4-1.1,0.3c0.9,3,2.9,5.5,5.9,6.7
              c2.5,1,6.6,1.7,8.6-0.6C29.7,232.6,28.9,231.8,28.5,232.3L28.5,232.3z">
        </path>

        <path d="M16.9,224.6c-4.1,4.2-11.1-1.2-10.8-6.2c0.2-2.7,1.1-4.7,3.8-5.6c1.8-0.6,3.8-0.8,5.7-1.1c0.7-0.1,0.4-1.2-0.3-1.1
              c-2.7,0.4-6,0.6-8.2,2.3c-2.1,1.7-2.6,5.2-2,7.7c1.2,5,8.5,8.9,12.6,4.7C18.2,224.9,17.4,224.1,16.9,224.6L16.9,224.6z">
        </path>

        <path d="M26,192.7c-4.4-1.9-10.5-1.7-13,3c-2.5,4.9-1.9,10.7,0.1,15.6c0.3,0.7,1.4,0.4,1.1-0.3c-1.6-3.9-2.4-8.4-1.1-12.5
              c0.7-2.4,2-4.7,4.6-5.4c2.5-0.7,5.4-0.4,7.7,0.6C26.1,194,26.6,193,26,192.7L26,192.7z">
        </path>

        <path d="M24.3,200c-1-0.5-2.2,0-2.7,1c-0.5,1.1-0.4,2.6,0.3,3.6c0.4,0.6,1.4,0,1-0.6c-0.4-0.6-0.5-1.3-0.5-2
              c0.1-0.6,0.5-1.5,1.3-1.1C24.3,201.3,24.9,200.4,24.3,200L24.3,200z">
        </path>

        <path d="M18.4,213.2c-1,2.8,0,6.4,2.9,7.6c0.7,0.3,1-0.8,0.3-1.1c-2.4-1-2.9-4.1-2.1-6.3C19.8,212.8,18.7,212.5,18.4,213.2
              L18.4,213.2z">
        </path>

        <path d="M34.9,225c-0.3,1.1,0.1,2.3,1,3.1c1.2,1,2.6,0.6,3.9,0.1c0.7-0.3,0.4-1.3-0.3-1.1c-0.8,0.3-1.9,0.8-2.7,0.2
              c-0.7-0.4-1-1.3-0.8-2C36.2,224.6,35.1,224.3,34.9,225L34.9,225z">
        </path>

        <path d="M61.7,211.6c0.9,1.7,1.1,3.5,0.6,5.4c-0.2,0.7,0.9,1,1.1,0.3c0.6-2.1,0.4-4.3-0.7-6.2C62.3,210.4,61.3,211,61.7,211.6
              L61.7,211.6z">
        </path>

        <path d="M44.1,219.1c1.1,1.7,4,2.4,5.9,1.9c2.3-0.7,3.3-3,3.4-5.2c0-0.7-1.1-0.7-1.1,0c-0.1,1.7-0.8,3.6-2.6,4.1
              c-1.4,0.4-3.9-0.1-4.6-1.4C44.7,217.9,43.8,218.4,44.1,219.1L44.1,219.1z">
        </path>

        <path d="M45,203.2c0.9-1.5,2.3-2.5,4.1-2.6c1.9,0,4.2,1.2,4.3,3.3c0,0.7,1.2,0.7,1.1,0c-0.1-2.5-2.4-4.2-4.7-4.4
              c-2.4-0.3-4.5,1-5.8,3.1C43.6,203.2,44.6,203.8,45,203.2L45,203.2z">
        </path>

        <path d="M31,206.8c-2.5,0.1-4.9,1.2-5.2,3.9c-0.3,2.6,0.3,5.8,3.1,6.8c0.7,0.2,1-0.8,0.3-1.1c-2.2-0.8-2.5-3.5-2.2-5.5
              c0.3-2.1,2.1-2.9,4.1-3C31.7,207.9,31.7,206.8,31,206.8L31,206.8z">
        </path>

        <path d="M24.1,196.5c1.6-0.9,3.4-1.1,5.1-0.5c0.7,0.2,1-0.9,0.3-1.1c-2-0.7-4.2-0.5-6,0.6C22.9,195.9,23.4,196.9,24.1,196.5
              L24.1,196.5z">
        </path>

        <path d="M56.7,167.8c-7.7,3-12.2,10.7-11,18.8c0.1,0.7,1.2,0.4,1.1-0.3c-1-7.5,3.2-14.7,10.2-17.5
              C57.6,168.6,57.3,167.5,56.7,167.8L56.7,167.8z">
        </path>

        <path d="M58.4,157c-12.8,4.4-21.9,15.8-23.3,29.3c-0.1,0.7,1.1,0.7,1.1,0c1.4-13,10.2-23.9,22.5-28.2
              C59.4,157.9,59.1,156.8,58.4,157L58.4,157z">
        </path>

        <path d="M59.6,148.6c-5.3,0.1-10.2,2.4-14.7,4.9c-4.3,2.3-8.1,5.3-11,9.2c-6.2,8.4-10.7,19-10.6,29.5c0,0.7,1.1,0.7,1.1,0
              c-0.1-10,4.1-19.8,9.7-27.9c2.8-4.1,6.5-7.1,10.8-9.5c4.5-2.5,9.4-4.9,14.7-5C60.3,149.7,60.3,148.6,59.6,148.6L59.6,148.6z">
        </path>

        <path d="M60.9,131.2c-0.4,4.7-1,9.4-1.6,14.1c-0.6,4.7-0.8,9.5-1.6,14.2c-1.4,9.1-2.7,18.9-7.9,26.7c-0.4,0.6,0.6,1.2,1,0.6
              c5.2-7.9,6.6-17.8,8-27c0.7-4.6,1-9.3,1.5-14c0.6-4.9,1.3-9.8,1.7-14.7C62.1,130.5,61,130.5,60.9,131.2L60.9,131.2z">
        </path>

        <path d="M37.1,69.4c-10.9,8-21.9,16.7-29.8,27.8c-6.2,8.7-9.7,19.6-5.5,30c2.5,6.2,7.5,11.3,13.3,14.7c8,4.6,18.1,7.6,27.2,4.6
              c8.7-2.9,14.6-10.2,21.1-16.3c0.5-0.5-0.3-1.3-0.8-0.8c-5.4,5.1-10.3,11-17,14.5c-9.4,4.9-19.9,2.3-28.8-2.4
              c-5-2.7-9.5-6.7-12.4-11.7c-5.3-9.2-3.5-20,1.8-28.8C13.8,88.5,26,79,37.7,70.4C38.2,70,37.7,69,37.1,69.4L37.1,69.4z">
        </path>
        <path d="M30.1,121.3c2.2-1.8,4.7-3.7,7.6-2.6c0.7,0.2,1-0.9,0.3-1.1c-3.4-1.1-6.2,0.9-8.7,2.9C28.7,121,29.6,121.8,30.1,121.3
              L30.1,121.3z">
        </path>
        <path d="M33.7,118.5c1.1,4.9-0.6,10.1-2.2,14.7c-1.5,4.5-4,9-8.6,10.8c-0.7,0.3-0.4,1.4,0.3,1.1c4.6-1.8,7.3-5.9,8.9-10.3
              c1.9-5.1,3.8-11.1,2.6-16.6C34.6,117.5,33.5,117.8,33.7,118.5L33.7,118.5z">
        </path>
        <path d="M50.1,83.3c3,3.4,7.9,4.3,12.3,3.8c5-0.6,7.4-3.9,9.3-8.2c0.3-0.7-0.7-1.2-1-0.6c-0.8,1.7-1.6,3.5-2.8,5
              c-1.6,1.8-3.8,2.5-6.1,2.7c-3.9,0.3-8.2-0.5-10.9-3.6C50.4,81.9,49.6,82.7,50.1,83.3L50.1,83.3z">
        </path>
        <path d="M70.7,79.2c3.8,3.6,8.2,4.3,13.3,3.2c0.7-0.2,0.4-1.2-0.3-1.1c-4.6,1-8.7,0.4-12.2-2.9C71,77.9,70.2,78.7,70.7,79.2
              L70.7,79.2z">
        </path>
        <path d="M69.1,83.1c3,2.2,5.9,3.8,9.7,3.1c0.7-0.1,0.4-1.2-0.3-1.1c-3.5,0.6-6.2-1-8.8-3C69.1,81.7,68.5,82.7,69.1,83.1L69.1,83.1
              z">
        </path>
        <path d="M66.4,85.4c1.7,1.7,3.7,3,6,3.7c0.7,0.2,1-0.9,0.3-1.1c-2.1-0.6-4-1.8-5.5-3.4C66.7,84.1,65.9,84.9,66.4,85.4L66.4,85.4z"></path>
        <path d="M64.3,97.6c-0.9-0.1-2.1,0-2.5,1.1c-0.3,1,0.4,2,1.3,2.4c0.9,0.4,2.1,0.4,2.5-0.7c0.3-0.9-0.1-2-0.9-2.5
              c-0.6-0.4-1.2,0.6-0.6,1c0.3,0.2,0.5,0.7,0.4,1.1c-0.1,0.5-0.8,0.2-1.1,0.1c-0.3-0.2-0.8-0.7-0.4-1.1c0.3-0.3,0.9-0.2,1.3-0.2
              C65.1,98.9,65.1,97.7,64.3,97.6L64.3,97.6z">
        </path>
        <path d="M96.3,82.6c-0.8,0.1-1.9-0.2-2.4,0.7c-0.5,0.8,0,2,0.7,2.6c1.7,1.5,3.7-1.5,2.3-2.9c-0.5-0.5-1.3,0.3-0.8,0.8
              c0.3,0.3,0.1,0.9-0.1,1.2c-0.3,0.4-0.7,0.2-0.9-0.2c-0.2-0.3-0.5-0.8-0.1-1c0.4-0.1,0.9,0,1.3-0.1C97,83.6,97,82.5,96.3,82.6
              L96.3,82.6z">
        </path>
        <path d="M53.9,100.2c-0.3-2.1-0.8-4.2-1.3-6.2c-0.1-0.6-0.9-0.5-1.1,0c-0.6,1.8-1.1,3.6-1.7,5.4c-0.4,1.4-1.1,1.6-2.5,1.9
              c-0.9,0.2-1.9,0.2-2.9,0.4c-0.6,0.1-0.8,0.9-0.2,1.1c1.5,0.6,2.9,1.2,4.4,1.8c-0.1-0.3-0.2-0.6-0.3-0.8c-1.1,1.8-1.9,3.7-2.5,5.7
              c-0.1,0.5,0.4,0.9,0.8,0.6c2.3-1.3,4.1-3.2,5.2-5.6c-0.3,0-0.6,0.1-0.9,0.1c1.5,1.2,3,2.4,4.5,3.6c0.3,0.3,1,0.1,1-0.4
              c-0.1-2.2-0.9-4-2.3-5.7c-0.1,0.3-0.2,0.6-0.2,0.9c1.4-0.3,2.8-0.8,4.1-1.4c0.5-0.2,0.3-0.9-0.1-1c-1.5-0.4-3-0.6-4.5-0.6
              c-0.7,0-0.7,1.1,0,1.1c1.4,0,2.8,0.2,4.2,0.6c0-0.3-0.1-0.7-0.1-1c-1.3,0.5-2.5,1-3.8,1.3c-0.4,0.1-0.5,0.6-0.2,0.9
              c1.2,1.4,1.8,3,1.9,4.9c0.3-0.1,0.6-0.3,1-0.4c-1.5-1.2-3-2.4-4.5-3.6c-0.3-0.2-0.7-0.2-0.9,0.1c-1.1,2.2-2.6,4-4.8,5.2
              c0.3,0.2,0.6,0.4,0.8,0.6c0.6-1.9,1.4-3.7,2.4-5.4c0.2-0.3,0-0.7-0.3-0.8c-1.5-0.6-2.9-1.2-4.4-1.8c-0.1,0.4-0.1,0.7-0.2,1.1
              c1.4-0.2,2.9-0.3,4.4-0.5c0.5-0.1,1-0.2,1.4-0.6c0.7-0.7,0.8-2.1,1.1-3c0.4-1.4,0.9-2.9,1.3-4.3c-0.4,0-0.7,0-1.1,0
              c0.6,2.1,1,4.1,1.3,6.2C52.9,101.2,54,100.9,53.9,100.2L53.9,100.2z">
        </path>
        <path d="M58.3,111.6c0.5-1,1.1-1.9,1.8-2.7c-0.4-0.1-0.7-0.2-1.1-0.3c0.1,0.9,0.1,1.8,0,2.7c-0.1,0.4,0.1,0.7,0.5,0.7
              c1.1,0,2.2,0.1,3.3,0.1c-0.1-0.3-0.3-0.6-0.4-1c-0.8,0.6-1.5,0.9-2.4,1.3c-0.3,0.1-0.6,0.2-0.8,0.5c-0.5,0.9,0.5,2.7,0.7,3.6
              c0.3-0.2,0.6-0.4,0.8-0.6c-1-0.6-1.9-1.4-2.6-2.3c-0.2-0.3-0.6-0.4-0.9-0.1c-0.8,0.9-1.6,1.6-2.8,2c0.2,0.2,0.5,0.5,0.7,0.7
              c0.3-1.1,0.8-2.1,1.6-3c0.2-0.3,0.2-0.7-0.1-0.9c-0.7-0.4-1.6-1-2-1.7c0,0.2-0.1,0.5-0.1,0.7c0.2-0.2,2.4,0.7,2.7,0.8
              c0.7,0.2,1-0.9,0.3-1.1c-1-0.3-2.9-1.5-3.8-0.5c-0.2,0.2-0.2,0.5-0.1,0.7c0.5,0.9,1.6,1.5,2.4,2.1c0-0.3-0.1-0.6-0.1-0.9
              c-0.9,1-1.5,2.1-1.9,3.5c-0.1,0.4,0.3,0.8,0.7,0.7c1.3-0.5,2.4-1.2,3.3-2.2c-0.3,0-0.6-0.1-0.9-0.1c0.8,1.1,1.8,2,3,2.7
              c0.4,0.2,1-0.2,0.8-0.6c-0.2-0.6-0.5-1.3-0.6-1.9c-0.1-0.8-0.2-0.7,0.4-1.1c0.8-0.4,1.5-0.8,2.2-1.4c0.4-0.3,0.1-0.9-0.4-1
              c-1.1,0-2.2-0.1-3.3-0.1c0.2,0.2,0.4,0.5,0.5,0.7c0.1-1,0.2-2,0-3c-0.1-0.6-0.7-0.7-1.1-0.3c-0.7,0.9-1.3,1.8-1.8,2.7
              C57,111.6,57.9,112.2,58.3,111.6L58.3,111.6z">
        </path>
        <path d="M124.6,45.5c0.8-0.2,1.1,0.7,0.6,1.3c-0.2,0.3-0.6,0.2-0.7-0.1c-0.2-0.4,0.1-0.9,0.4-1.2c0.4-0.6-0.6-1.2-1-0.6
              c-0.5,0.7-0.8,1.8-0.2,2.6c0.5,0.7,1.5,0.9,2.2,0.2c0.6-0.6,0.8-1.6,0.5-2.3c-0.4-0.8-1.3-1.2-2.1-0.9
              C123.6,44.7,123.9,45.7,124.6,45.5L124.6,45.5z">
        </path>
        <path d="M1.6,1.1c4,1.3,7.9,2.9,11.7,4.8c1.7,0.9,3.5,1.8,5.2,2.8c2.2,1.3,3.4,4.1,2.6,6.7c-0.6,1.9-2.7,1.6-4.1,0.7
              c-0.9-0.6-1.7-1.4-2.4-2.1c-1.4-1.3-2.7-2.7-4.1-4c-3-3-5.8-6.1-8.1-9.6c-0.4-0.6-1.4,0-1,0.6c3.1,4.5,6.8,8.4,10.7,12.2
              c1.9,1.9,6.9,7.7,9.6,3.8c1.1-1.6,0.8-4.1,0.2-5.8c-0.7-2.3-2.7-3.2-4.7-4.3C12.3,4,7.1,1.8,1.9,0.1C1.2-0.2,0.9,0.9,1.6,1.1
              L1.6,1.1z">
        </path>
        <path d="M20.5,9.5c3.2-0.3,5.3,3.5,6.9,5.8c1.6,2.3,2.1,4.6,1.9,7.4c-0.1,1.6-0.7,3.4-2.4,4c-1.5,0.5-3.1,0.1-4.2-0.9
              c-2.3-2-2.7-5.2-2.9-8.1c0-0.7-1.2-0.7-1.1,0c0.2,3.5,0.9,7.7,4.2,9.6c2.4,1.4,5.7,0.8,6.9-1.8c1.5-3.1,0.8-7.5-1.1-10.3
              c-1.8-2.7-4.4-7.2-8.2-6.8C19.8,8.5,19.8,9.6,20.5,9.5L20.5,9.5z">
        </path>
        <path d="M26.9,12.9c8.1-1.3,10.7,9,10.8,15c0,3.2-0.9,10.1-5.7,8.7c-3.5-1-7.1-4.9-6.5-8.7c0.1-0.7-1-1-1.1-0.3
              c-0.8,4.3,2.7,8.2,6.5,9.8c4.5,1.9,6.9-2.3,7.5-6.1c1.3-7.4-1.8-21.1-11.9-19.5C25.9,12,26.2,13.1,26.9,12.9L26.9,12.9z">
        </path>
        <path d="M37.6,21.2c3.7-0.8,8.3,3,9.5,6.4c1.2,3.6,1.5,7.3,1.3,11c-0.1,1.8,0,3.9-1.1,5.4c-1.4,2.2-4.1,2.3-6.3,1.3
              c-2.5-1.1-7.3-4.6-6.2-7.9c0.2-0.7-0.9-1-1.1-0.3c-1.3,3.9,3.8,7.8,6.7,9.2c3.8,1.8,7.9,0.1,8.7-4.2c0.9-5,0.7-11.3-1.4-15.9
              c-0.8-1.8-2.6-3.2-4.1-4.4c-1.9-1.4-4-2.3-6.4-1.7C36.6,20.3,36.9,21.4,37.6,21.2L37.6,21.2z">
        </path>
        <path d="M48.7,29.9c3.5-0.5,6.9,1.7,7.7,5.2c0.9,3.9,0.7,8.4,0.6,12.4c0,0.7,1.1,0.7,1.1,0c0.1-2.7,0-5.5-0.2-8.2
              c-0.1-2.1-0.2-4.3-1.1-6.2c-1.5-3-4.9-4.7-8.2-4.3C48,28.8,48,30,48.7,29.9L48.7,29.9z">
        </path>
        <path d="M43.3,47.1c-0.3,2.2,0.4,4.6,1.6,6.5c1.1,1.8,3.2,2.6,5.1,3.2c0.7,0.2,1-0.9,0.3-1.1c-1.6-0.5-3.3-1.1-4.3-2.5
              c-1.1-1.5-1.9-3.9-1.6-5.8C44.5,46.7,43.4,46.4,43.3,47.1L43.3,47.1z">
        </path>
        <path d="M57.1,36c3-0.1,9.7,0.8,10,4.7c0.1,0.7,1.2,0.7,1.1,0c-0.5-4.7-7.4-6-11.2-5.8C56.4,34.9,56.4,36,57.1,36L57.1,36z"></path>
        <path d="M64,36.6c4.5-2.5,9.1-5.1,14.4-5.3c4.3-0.2,10.8,0.5,13.4,4.4c0.4,0.6,1.4,0,1-0.6c-2.7-4-8.5-4.9-13-5
              c-6-0.2-11.2,2.6-16.3,5.5C62.8,36,63.3,37,64,36.6L64,36.6z">
        </path>
        <path d="M23.6,48.4c1,1.3,2,2.7,3.5,3.6c1.7,1,3.7,1,5.5,1.1c3.9,0.2,8,0,11.4-2.1c0.6-0.4,0-1.4-0.6-1c-2.9,1.8-6.3,2.1-9.6,2
              c-1.6,0-3.4,0-5-0.4c-1.9-0.6-3.1-2.1-4.3-3.7C24.1,47.2,23.1,47.8,23.6,48.4L23.6,48.4z">
        </path>
        <path d="M92.2,46.6c-6.1-0.9-9.2,3.5-12.3,8c-4,5.8-9.9,10.5-16.1,13.8c-7.5,3.9-18,5.5-25.8,1.3c-3.9-2.1-6.7-5.7-9.2-9.3
              c-2.5-3.7-4.4-7.8-4.2-12.4c-0.4,0.1-0.7,0.1-1.1,0.2c1.1,3.8,4.4,6.1,7.6,8c4.7,2.8,10,4.6,15.5,3.7c5.6-0.9,10.5-4.3,14.8-7.8
              c1.6-1.4,3.2-2.9,5-4.1c2.2-1.5,4.6-2.6,7-3.5c2.7-1,5.5-2,8.4-1.5c3.7,0.6,7.2,1.8,9.8,4.6c0.5,0.5,1.3-0.3,0.8-0.8
              c-3.3-3.4-8.8-5.6-13.6-5c-4.5,0.6-9.3,2.7-13,5.2c-3.9,2.6-7,6.1-11.1,8.6c-5.9,3.5-12.3,4.5-18.8,1.9
              c-4.3-1.7-10.1-4.7-11.4-9.5c-0.2-0.6-1.1-0.5-1.1,0.2c-0.3,7.3,4.3,13.8,9.1,18.9c4,4.2,9.1,5.9,14.8,6.2
              c10.1,0.6,19.1-4,26.6-10.5c3.1-2.7,5.6-5.6,7.9-9c2.5-3.6,5.2-6.7,10-6C92.6,47.8,92.9,46.7,92.2,46.6z">
        </path>
        <path d="M87.8,43.2c-6.5-6.4-16.9-5.3-24.3-1.2c-4,2.2-7.2,5.7-10,9.3c-2.1,2.7-4.7,6.9-8.4,7.4c-0.7,0.1-0.7,1.2,0,1.1
              c3-0.4,5.4-2.9,7.2-5.1c2.6-3.2,5-6.6,8.2-9.2c7-5.9,19.3-8.6,26.6-1.5C87.5,44.6,88.3,43.8,87.8,43.2L87.8,43.2z">
        </path>
        <path d="M83.1,40.7c4.7-2.8,9.5-5.5,14.8-6.9c3.2-0.9,6.5-1.1,9.8-1c4.5,0.1,9.2,1.4,13.2,3.5c4.6,2.4,8.3,7.2,11.2,11.4
              c5.5,8.1,7.4,17.4,10,26.6c2.9,10.3,8.1,20.5,16.5,27.3c4.6,3.7,9.5,6.3,15.4,7.1c4.6,0.6,10.1,0,13.4-3.6
              c-0.3-0.2-0.6-0.5-0.9-0.7c-3.8,6.1-9.6,11.2-16.5,13.5c-7.6,2.5-15.2,3.1-22.6-0.5c-2.6-1.3-4.9-2.9-7.1-4.7
              c-2-1.7-4.3-3.5-5.8-5.7c-2.4-3.6-3.4-8-4.5-12.1c-2.7-10.2-5.3-20.3-11.5-29c-6.5-9.1-15.7-15.9-26.5-19.2
              c-0.7-0.2-1,0.9-0.3,1.1c10.6,3.3,19.7,10,26.1,19.2c6.5,9.3,8.7,20.1,11.7,30.8c1,3.7,2.2,7.8,4.6,10.8c3.3,4.1,8.1,7.7,12.9,10
              c7.1,3.4,14.7,3.2,22.1,0.9c7.7-2.4,14-7.6,18.3-14.4c0.3-0.5-0.5-1.2-0.9-0.7c-3.5,3.8-9.6,3.9-14.3,3c-5.7-1.2-10.4-4.2-14.7-8
              c-8.2-7.3-12.7-18.1-15.3-28.5c-2.3-9.3-5.2-18.5-11.1-26.2c-2.7-3.6-6.1-7.5-10.2-9.5c-3.8-1.8-8.1-3.3-12.3-3.4
              c-3.5-0.1-7.1,0-10.5,0.9c-5.6,1.4-10.8,4.2-15.7,7.2C81.9,40.1,82.5,41.1,83.1,40.7L83.1,40.7z">
        </path>
        <path d="M79.1,56.7c6.5,3.5,13.2,6.7,19.5,10.6c5.8,3.6,10.1,9.5,14.4,14.7c4.2,5.1,8.3,10.4,11.7,16.1c3.5,5.9,5.8,12.2,7.3,18.9
              c2.6,12.1,4.2,24.7,2.2,37c-1.8,11.1-6.7,21.2-13,30.4c-3.1,4.6-6.6,8.9-10.3,13c-1.7,1.9-3.5,3.9-5.8,5.1c-3.7,1.9-7.6,1-11-1.1
              c-0.5-0.3-1.1,0.3-0.8,0.8c3,4.4,7.4,8,13.1,7c4.1-0.8,7.2-3.5,10.2-6.2c4.5-4.1,9.1-8,13-12.7c4.5-5.4,8.1-11.6,11.4-17.8
              c4.1-7.6,7.3-15.6,9.2-24c0.2-0.7-0.9-1-1.1-0.3c-3.1,13.3-9.4,25.7-17.1,37c-3.6,5.3-8.1,9.8-12.8,14.1c-2.9,2.6-5.7,5.6-9.2,7.4
              c-2.2,1.2-4.8,1.9-7.4,1.5c-3.7-0.7-6.4-3.5-8.4-6.5c-0.3,0.3-0.5,0.5-0.8,0.8c5.1,3.1,10.6,3.1,15.2-0.9c3.3-2.9,6.2-6.6,8.9-10
              c7.2-9.2,13.5-19.7,16.5-31.1c3-11.6,2.5-23.8,0.6-35.6c-1.2-7.1-2.6-14.1-5.6-20.7c-2.8-6.3-6.7-12-10.9-17.4
              c-2.4-3-4.8-6-7.3-8.9c-2.7-3.1-5.2-6.4-8.4-9c-3.2-2.5-6.9-4.3-10.4-6.2c-4.1-2.2-8.1-4.4-12.2-6.6C79,55.3,78.5,56.3,79.1,56.7
              L79.1,56.7z">
        </path>
        <path d="M163.8,156.5c-4.8,13-11.5,25.4-21.3,35.3c-4.6,4.7-9.9,8.7-15.7,11.8c-3,1.6-6,2.9-9.2,4c-3.5,1.1-7.2,2-10.8,0.6
              c-0.7-0.3-1,0.8-0.3,1.1c4.9,2.1,10.5-0.1,15.1-1.9c5-2,9.7-4.8,14.1-8c8.8-6.6,15.8-15.2,21.2-24.7c3.2-5.6,5.8-11.6,8.1-17.7
              C165.1,156.1,164,155.8,163.8,156.5L163.8,156.5z">
        </path>
        <path d="M182.6,155.8c-2.2,10.6-6.8,21.5-14.2,29.5c-3.8,4.1-8.3,8-12.9,11.2c-3.9,2.7-8.4,4.6-12.8,6.4
              c-6.2,2.6-12.8,3.7-19.5,2.7c-0.7-0.1-1,1-0.3,1.1c5.9,0.9,11.8,0.3,17.5-1.7c4.4-1.5,9.1-3.5,13.2-5.9c5-2.9,9.6-7,13.7-11
              c3.9-3.8,7.1-8.1,9.6-12.9c3.1-5.9,5.4-12.5,6.8-19C183.9,155.3,182.8,155,182.6,155.8L182.6,155.8z">
        </path>
        <path d="M175.9,115.6c2,4.8,3.9,9.6,5.2,14.7c1.4,5.9,2.2,12.2,2.3,18.3c0,0.7,1.1,0.7,1.1,0c-0.1-6-0.8-12.1-2.2-18
              c-1.2-5.3-3.2-10.3-5.3-15.3C176.7,114.6,175.6,114.9,175.9,115.6L175.9,115.6z">
        </path>
        <path d="M138.2,59.3c7.7,5.8,13.8,13,19.1,21c5.8,8.7,10.9,17.7,15.1,27.2c0.3,0.7,1.3,0.1,1-0.6c-4.4-9.9-9.7-19.2-15.7-28.2
              c-5.3-7.8-11.3-14.8-18.9-20.5C138.2,57.9,137.6,58.8,138.2,59.3L138.2,59.3z">
        </path>
        <path d="M154.2,120.5c-0.3,9,6.3,16.4,13.2,21.3c7.7,5.5,16.8,8.8,26.2,9.4c-0.1-0.3-0.3-0.6-0.4-1c-4.1,3.7-9.4,5.5-14.8,6
              c-5.6,0.6-11.6,0.2-16.9-1.5c-10.7-3.4-17.9-13.2-21.1-23.5c-2.1-6.5-2.7-13.4-2.8-20.2c0-0.7-1.1-0.7-1.1,0
              c0.1,12.2,2.4,24.8,10.2,34.5c3.4,4.2,7.8,7.7,12.9,9.7c5.6,2.2,12,2.6,18,2.2c6-0.5,12-2.3,16.5-6.5c0.4-0.4,0.1-0.9-0.4-1
              c-8.8-0.6-17.4-3.5-24.7-8.5c-7-4.8-14-12.1-13.6-21.1C155.4,119.8,154.3,119.8,154.2,120.5L154.2,120.5z">
        </path>
        <path d="M99.2,67.5c1.7,1.9,2.7,4.3,3.8,6.5c1.3,2.9,2.1,5.7,2.4,8.9c0.6,5.4,1.6,12.4-2.4,16.7c-0.3,0.4,0,1.2,0.5,0.9
              c6.7-2.8,11.6-9,12.6-16.2c0.1-0.7-1-1-1.1-0.3c-0.9,6.8-5.4,12.8-11.8,15.4c0.2,0.3,0.4,0.6,0.5,0.9c4.3-4.6,3.4-11.8,2.8-17.5
              c-0.3-3-0.9-5.9-2.2-8.6c-1.2-2.6-2.4-5.4-4.3-7.6C99.5,66.2,98.7,67,99.2,67.5L99.2,67.5z">
        </path>
        <path d="M128,42.1c8.8,4.9,18.4,8.3,28.3,10.3c4.2,0.9,8.5,1.6,12.8,0.8c3.9-0.7,7.4-2.7,10.6-4.9c-0.3-0.3-0.5-0.5-0.8-0.8
              c-3.6,5.7-8.8,10.9-14.5,14.5c-4.9,3.1-10.5,4.5-16.2,5.3c-0.7,0.1-0.4,1.2,0.3,1.1c6-0.9,11.8-2.4,16.9-5.7
              c5.7-3.8,10.8-8.9,14.5-14.7c0.3-0.5-0.3-1.1-0.8-0.8c-3.1,2.2-6.3,4.1-10.1,4.8c-4.6,0.9-9.3-0.1-13.8-1
              c-9.3-2-18.4-5.3-26.8-9.9C127.9,40.8,127.3,41.7,128,42.1L128,42.1z">
        </path>
        <path d="M174.7,177.1c-2.4,14-7.4,27.3-10.9,41c-1.7,6.7-3.1,13.5-3.7,20.4c-0.5,6-0.4,12.5,3.1,17.7c3.6,5.4,9.8,8.1,15.8,9.7
              c0.1-0.4,0.1-0.7,0.2-1.1c-13.9-1.2-28.6-6.6-35.8-19.3c-3.7-6.5-4.2-14.1-4.7-21.4c-0.4-6.9-0.4-14.1,1.5-20.8
              c0.2-0.7-0.9-1-1.1-0.3c-1.6,5.5-1.9,11.3-1.7,16.9c0.1,6,0.5,12.3,1.9,18.2c2.5,10.6,10.7,18.8,20.5,23.2
              c6.1,2.7,12.7,4.1,19.4,4.7c0.6,0.1,0.8-1,0.2-1.1c-5.7-1.5-11.5-4-15-8.9c-3.7-5.3-3.6-12.2-3-18.3c1.2-13.1,5.4-25.7,9.1-38.3
              c2.1-7.2,4.1-14.4,5.3-21.7C175.9,176.7,174.8,176.4,174.7,177.1L174.7,177.1z">
        </path>
        <path d="M127.1,206c-4.4,5.2-7.2,12.3-8.1,19c-0.6,4.2-0.8,8.4-0.3,12.6c0.4,3.9,1.6,7.3,3.3,10.9c0.3,0.5,1,0.2,1.1-0.3
              c0.7-10.5,6.3-20.8,15.2-26.5c0.6-0.4,0-1.4-0.6-1c-9.2,5.9-15.1,16.7-15.8,27.5c0.4-0.1,0.7-0.2,1.1-0.3
              c-1.8-3.6-2.8-6.9-3.2-10.9c-0.4-3.7-0.2-7.5,0.3-11.2c0.8-6.6,3.4-13.7,7.8-18.9C128.4,206.2,127.6,205.4,127.1,206L127.1,206z">
        </path>
        <path d="M126.3,233.7c0.9,4,0.3,7.9,3.9,10.6c3.5,2.5,7.9,2.2,11.9,1.4c-0.2-0.3-0.4-0.6-0.6-0.8c-1.6,2.8-1.2,6.3,0.9,8.8
              c2.3,2.7,6.1,3.5,9.5,3c0.7-0.1,0.4-1.2-0.3-1.1c-2.9,0.4-5.9-0.2-8-2.4c-2-2.1-2.5-5.3-1-7.8c0.3-0.5-0.2-0.9-0.6-0.8
              c-3.9,0.8-8.3,1.1-11.5-1.7c-2.8-2.5-2.2-6.2-2.9-9.6C127.3,232.7,126.2,233,126.3,233.7L126.3,233.7z">
        </path>
        <path d="M162.9,253.9c5.9,1,13.9,1.8,17.1-4.7c-0.3,0-0.7,0-1,0c3.1,4.9,9.5,5.3,14.5,3.5c5-1.8,8.8-6,9-11.4
              c-0.3,0.2-0.6,0.3-0.8,0.5c3.2,1.8,6.9,1.8,10.5,1.5c2.9-0.3,6.1-0.9,7.7-3.7c1.4-2.5,1.6-6.8,0.3-9.4c-1.4-2.9-4.7-3.4-7.7-3.6
              c-0.7,0-0.7,1.1,0,1.1c2.9,0.2,6.1,0.7,7,3.9c0.8,2.7,0.5,6.8-1.7,8.7c-1.9,1.6-4.7,1.8-7.1,1.9c-2.9,0.2-5.8,0-8.4-1.5
              c-0.4-0.2-0.8,0.1-0.8,0.5c-0.2,4.9-3.7,8.7-8.2,10.3c-4.5,1.6-10.5,1.5-13.3-3c-0.2-0.3-0.8-0.4-1,0c-2.9,6-10.4,5.1-15.8,4.2
              C162.5,252.6,162.2,253.7,162.9,253.9L162.9,253.9z">
        </path>
        <path d="M170.3,200.6c4.5-4,12.4-1.8,12.3,4.9c0,0.5,0.6,0.8,1,0.4c4-5.1,11.2-4.6,16.7-2.8c3.5,1.1,4.6,3.6,4.4,7.2
              c-0.2,2.8-0.5,5.9-2.5,8c-0.5,0.5,0.3,1.3,0.8,0.8c2.3-2.3,2.7-5.7,2.9-8.8c0.2-3-0.5-6.1-3.4-7.5c-3.2-1.6-7.6-2.3-11.1-1.9
              c-3.3,0.3-6.4,1.7-8.5,4.3c0.3,0.1,0.6,0.3,1,0.4c0-3.2-1.8-6.1-4.7-7.4c-3.2-1.5-6.9-0.5-9.5,1.8
              C169,200.3,169.8,201.1,170.3,200.6L170.3,200.6z">
        </path>
        <path d="M205.2,214.6c2.9-1.9,8.1-0.3,10.3,2c2.9,3,2.2,7.4,0.6,10.7c-0.3,0.7,0.7,1.2,1,0.6c1.8-3.8,2.5-8.8-0.7-12.1
              c-2.6-2.7-8.3-4.4-11.7-2.2C204,214,204.6,215,205.2,214.6L205.2,214.6z">
        </path>
        <path d="M180.8,207c2.3-0.1,4.7-0.3,6.7,1.2c0.6,0.4,1.1-0.5,0.6-1c-2.1-1.6-4.8-1.5-7.3-1.4C180.1,205.9,180.1,207.1,180.8,207
              L180.8,207z">
        </path>
        <path d="M177.7,225.6c0.4,3.3,3.3,5.2,6.5,5.6c2.9,0.3,7.7,0.3,9.7-2.2c0.5-0.6-0.3-1.4-0.8-0.8c-1.6,2-5.1,1.9-7.4,1.9
              c-2.9,0-6.4-1.2-6.8-4.6C178.8,224.9,177.6,224.9,177.7,225.6L177.7,225.6z">
        </path>
        <path d="M175.7,215.1c-5.3,0.4-7.7,6.2-4.5,10.3c0.5,0.6,1.2-0.2,0.8-0.8c-2.7-3.3-0.6-8,3.7-8.4
              C176.4,216.2,176.4,215,175.7,215.1L175.7,215.1z">
        </path>
        <path d="M168.6,239.6c0.5,4.4,7.1,5.2,10.4,3.9c0.7-0.3,0.4-1.4-0.3-1.1c-1.5,0.6-3.1,0.8-4.8,0.5c-1.6-0.3-4-1.4-4.2-3.2
              C169.7,238.9,168.6,238.9,168.6,239.6L168.6,239.6z">
        </path>
        <path d="M172,191.4c2,1.6,4.1,3.5,4,6.3c0,0.7,1.1,0.7,1.1,0c0.1-3.1-2.1-5.3-4.4-7.1C172.2,190.1,171.4,190.9,172,191.4
              L172,191.4z">
        </path>
        <path d="M175.9,176.5c2.1,1.1,4.2,2.3,5.8,4c1.9,1.9,2.8,4.3,3.4,6.9c1.2,5.2,1,10.6-0.5,15.7c-0.2,0.7,0.9,1,1.1,0.3
              c1.6-5.5,1.8-11.4,0.3-16.9c-0.6-2.4-1.6-4.7-3.3-6.5c-1.8-1.9-4-3.1-6.3-4.4C175.8,175.2,175.2,176.1,175.9,176.5L175.9,176.5z">
        </path>
        <path d="M180.8,165.2c5.7,3.4,10.3,8.3,13.3,14.2c3.5,6.9,4.1,14.7,3.6,22.3c0,0.7,1.1,0.7,1.1,0c0.4-7.8-0.2-15.7-3.8-22.8
              c-3-6.1-7.8-11.1-13.7-14.6C180.8,163.9,180.2,164.8,180.8,165.2L180.8,165.2z">
        </path>
    </symbol>
    
    <symbol id="symbol-narrow-down" viewBox="0 0 10 10">
        <path class="st0" d="M8,1.9c0.6-1.4,2.6-0.1,2,1.2C9,5.4,7.4,7.4,6.1,9.5C5.8,10,5,10.2,4.5,9.9C4.3,9.8,4.2,9.7,4.1,9.5
              c-1.6-2.6-3-5.2-4-8c-0.5-1.4,1.8-2.1,2.2-0.7C3.2,3.5,4.6,5.9,6,8.1H4C5.4,5.9,7,4.2,8,1.9z">
        </path>
    </symbol>
    <symbol id="symbol-dropdown" viewBox="0 0 124.54 68.83">
        <path d="M46.65,23.71c-2.19-2-4.42-3.89-6.71-5.76C31,10.61,18.61-.11,6.22,2.69c-4.43,1-7.1,6.07-6,10.37,3,11,13.81,17.08,22.07,24.06C33.06,46.17,42.88,56,52.87,65.85c3.61,3.54,10.81,4,14.8.86,7.56-6,20.49-14.33,27.53-21,15.48-12.05,29.38-26,29.33-35,.33-7-4.2-10.14-7.33-10.67-8.32-1.41-27,17.75-35.67,25.67C77.38,28.58,69.22,35.58,65,38.28"></path>
    </symbol>
    <symbol id="symbol-decor-1" viewBox="0 0 77 20.5">
        <path d="M2.4,13.4c-0.3,1-0.7,1.2-1.4,0.4c0-0.3,0-0.7,0.1-1c0.4-1.2,1.6-1.7,2.8-1.8c1.6-0.1,3.3,0.5,4.7,1
              c2.8,0.9,5.5,2.1,8.1,3.4c4.4,2.2,9,5.2,14.1,5.2c1.5,0,3.2-0.2,4-1.8c0.5-1.1,0-2.5-1-3.2c-2.5-1.7-4.2,2.5-1.4,2.5
              c0.6,0,0.6-0.9,0-0.9c1.4-0.7,1.8-0.4,1.3,0.8c0.1,0.8-0.2,1.3-1,1.5c-0.6,0.2-1.8,0.2-2.5,0.2c-1.4-0.1-2.8-0.4-4.1-0.8
              c-2.6-0.8-5-2.2-7.4-3.5c-4.2-2.2-8.8-4.6-13.5-5.2c-1.6-0.2-3.4,0-4.5,1.4c-0.7,0.9-1,2.5-0.1,3.4c1.3,1.3,3.3-0.4,2.6-1.9
              C2.9,12.3,2.1,12.8,2.4,13.4">
        </path>
        <path d="M19.4,15.6c-2.3-0.1-4.2-0.6-6.2,0.8c-0.7,0.5-2.6,2.2-1.8,3.2c0.4,0.5,1.6,0.4,2.2,0.4c1,0.1,1.9,0.1,2.9-0.1
              c2-0.4,2.9-1.9,3.5-3.8c0.2-0.6-0.7-0.8-0.9-0.2c-0.5,1.5-1.1,2.8-2.8,3.1c-0.7,0.1-3.4,0.4-3.7-0.2c-0.5-0.8,2.1-2.2,2.7-2.4
              c1.4-0.4,2.9,0,4.3,0.1C20,16.6,20,15.7,19.4,15.6">
        </path>
        <path d="M19.7,15.8c-2.6-2.3-2.9-5.9-0.7-8.6h-0.7c2.8,2.5,1.2,5.8,0.6,8.8c-0.1,0.6,0.8,0.8,0.9,0.2
              c0.7-3.4,2.3-7-0.8-9.8c-0.2-0.2-0.5-0.2-0.7,0c-2.5,3.1-2.3,7.3,0.7,10C19.5,16.8,20.2,16.2,19.7,15.8">
        </path>
        <path d="M46.6,17.4c0.9-0.2,1.3-1.2,0.9-2c-0.6-1.1-2.4-1.2-3.4-0.7c-1,0.5-1.4,1.8-1.1,2.9c0.4,1.7,2,2.5,3.6,2.7
              c4.7,0.8,9.8-1.2,13.8-3.4c2.3-1.3,4.6-2.8,6.8-4.2c1.1-0.7,2.2-1.5,3.4-2c0.7-0.3,1.4-0.5,2.2-0.6c0.6-0.1,1.1-0.1,1.7,0.1
              c2.2,1.2,2,1.9-0.4,2c0-0.6-0.9-0.6-0.9,0c-0.1,2.8,3.9,2.5,3.8-0.2c0-3.7-5-3-7.1-2c-4.2,2-7.8,5.2-12,7.2
              c-2.5,1.2-5.3,2.1-8.1,2.3c-1.2,0.1-2.5,0.1-3.6-0.2c-0.8-0.2-2.3-0.9-2.3-1.9c0.3-0.6,0.6-1.3,0.9-1.9c0.8-0.3,1.3,0,1.6,1
              C45.8,16.6,46,17.5,46.6,17.4">
        </path>
        <path d="M59.6,17.3c2.7-2.2,3.9-5.6,3.4-9c0-0.3-0.4-0.4-0.6-0.3c-3.9,0.5-4,6.2-3.6,9.1c0.1,0.6,1,0.3,0.9-0.2
              c-0.4-2.5-0.4-7.5,2.9-7.9c-0.2-0.1-0.4-0.2-0.6-0.3c0.5,3.1-0.7,6.1-3.1,8.1C58.5,17,59.1,17.7,59.6,17.3">
        </path>
        <path d="M59.4,17.4c3-0.8,6-0.3,8.2,2v-0.7c-2.5,1.9-6.2-0.2-8-2.2c-0.4-0.4-1.1,0.2-0.7,0.7c2.2,2.4,6.4,4.4,9.3,2.2
              c0.2-0.2,0.2-0.5,0-0.7c-2.4-2.5-5.8-3.2-9.1-2.3C58.6,16.7,58.8,17.6,59.4,17.4">
        </path>
        <path d="M39,6.9c2.3-4.6-5.1-8-8.2-4.9c-4.2,4.2,4.3,10,7.5,11.4c0.2,0.1,0.4,0.1,0.6-0.1c3-2.6,8.6-6.6,7.3-11.3
              c-1.1-4.1-6.5-1-7.8,1.3c-0.3,0.5,0.5,1,0.8,0.5c0.7-1.3,2.5-3,4.2-2.7c2.7,0.3,2.1,3.2,1.2,5c-0.7,1.3-1.7,2.5-2.8,3.5
              c-0.7,0.7-2.2,2.5-3.1,2.8c-1.1,0.3-2.4-0.9-3.2-1.5c-1.4-1-2.9-2.4-3.9-3.8c-4.8-7.2,9.4-6,6.6-0.5C37.9,6.9,38.7,7.4,39,6.9">
        </path>
    </symbol>
    <symbol id="symbol-print" viewBox="0 0 20.1 18.9">
        <path d="M17.3,9h-0.7c-0.4,0-0.7,0.3-0.7,0.7v0.7c0,0.4,0.3,0.7,0.7,0.7h0.7c0.4,0,0.7-0.3,0.7-0.7V9.7
              C18,9.3,17.7,9,17.3,9z M17.5,10.4c0,0.1-0.1,0.1-0.1,0.1h-0.7c-0.1,0-0.1-0.1-0.1-0.1V9.7c0-0.1,0.1-0.1,0.1-0.1h0.7
              c0.1,0,0.1,0.1,0.1,0.1V10.4z">
        </path>
        <path d="M19.6,7.6c-0.2-0.2-0.5-0.3-0.8-0.3h-0.6V3.6c0-0.3-0.1-0.5-0.3-0.7s-0.5-0.3-0.7-0.3h-1V0.7
              c0-0.4-0.3-0.7-0.7-0.7H4.4C4,0,3.7,0.3,3.7,0.7v1.9h-1l0,0c-0.6,0-1,0.5-1,1v3.6H1.1l0,0C0.5,7.2,0,7.7,0,8.3v7.6
              C0,16.5,0.5,17,1.1,17h2.5l-0.5,1.3c-0.1,0.1,0,0.3,0.1,0.4s0.2,0.2,0.4,0.2h12.9l0,0c0.2,0,0.3-0.1,0.4-0.2
              c0.1-0.1,0.1-0.3,0.1-0.4L16.5,17H19l0,0c0.6,0,1.1-0.5,1.1-1.1V8.3C19.9,8,19.8,7.8,19.6,7.6z M16.2,3.1L16.2,3.1h1
              c0.1,0,0.2,0,0.3,0.1s0.1,0.2,0.1,0.3v3.7h-1.5L16.2,3.1L16.2,3.1z M4.2,0.6c0-0.1,0.1-0.2,0.2-0.2h11.1c0.1,0,0.2,0.1,0.2,0.2
              v6.6H4.3V0.6H4.2z M2.2,3.5c0-0.2,0.2-0.4,0.4-0.4l0,0h1v4.1H2.2V3.5z M2.8,16.3V15c0-0.1,0.1-0.2,0.2-0.2l0,0h1.2l-0.3,0.7
              l-0.3,0.8l0,0H2.8z M3.6,18.3l0.6-1.6l0,0l0.7-1.9H15l0.7,1.9l0,0l0.6,1.6H3.6z M17,16.4h-0.9L16,16.1l-0.4-1.2h1.2h0.1V15
              L17,16.4z M19.3,15.9c0,0.3-0.2,0.5-0.5,0.5l0,0h-1.2v-1.3c0-0.2-0.1-0.4-0.2-0.5c-0.1-0.1-0.3-0.2-0.5-0.2h-1.6l0,0H4.8l0,0l0,0
              H3.2l0,0c-0.4,0-0.7,0.3-0.7,0.7v1.3H1.3c-0.3,0-0.5-0.2-0.5-0.5V8.3C0.8,8,1,7.8,1.3,7.8l0,0h0.9l17,0.1c0.3,0,0.5,0.2,0.5,0.5
              L19.3,15.9z">
        </path>
        <path d="M11.7,4.6H5.8c-0.2,0-0.3,0.1-0.3,0.3s0.1,0.3,0.3,0.3h5.9c0.2,0,0.3-0.1,0.3-0.3S11.8,4.6,11.7,4.6z"></path>

        <path d="M14.1,4.6h-0.9c-0.2,0-0.3,0.1-0.3,0.3s0.1,0.3,0.3,0.3h0.9c0.2,0,0.3-0.1,0.3-0.3S14.3,4.6,14.1,4.6z"></path>

        <path d="M6.7,2.4H5.8c-0.2,0-0.3,0.1-0.3,0.3C5.5,2.9,5.6,3,5.8,3h0.9C6.9,3,7,2.9,7,2.7S6.8,2.4,6.7,2.4z"></path>

        <path d="M14.1,2.4H8.2C8,2.4,7.9,2.5,7.9,2.7C7.9,2.9,8,3,8.2,3h5.9c0.2,0,0.3-0.1,0.3-0.3S14.3,2.4,14.1,2.4z"></path>
    </symbol>
</svg>
