<svg xmlns="http://www.w3.org/2000/svg" style="display: none;">
    <symbol id="icon-basket-new" viewBox="0 0 35 34">
        <path fill-rule="evenodd" clip-rule="evenodd" d="M9.35 26.048H27.291C28.149 26.048 28.914 25.511 29.198 24.709L34.884 8.679C35.346 7.376 34.371 6.011 32.977 6.011H10.434C9.916 6.011 9.481 5.622 9.428 5.111L9.087 1.8C8.981 0.777 8.112 0 7.075 0H1.011C0.453 0 0 0.448 0 1.002V3.005C0 3.559 0.453 4.007 1.011 4.007H4.338C4.856 4.007 5.29 4.396 5.343 4.907L7.339 24.248C7.444 25.27 8.313 26.048 9.35 26.048ZM28.034 30.827C28.034 32.487 26.676 33.833 25.001 33.833C23.326 33.833 21.969 32.487 21.969 30.827C21.969 29.167 23.326 27.822 25.001 27.822C26.676 27.822 28.034 29.167 28.034 30.827ZM15.162 30.995C15.162 32.654 13.804 34 12.129 34C10.455 34 9.097 32.654 9.097 30.995C9.097 29.334 10.455 27.989 12.129 27.989C13.804 27.989 15.162 29.334 15.162 30.995ZM12.088 22.04H25.143C25.572 22.04 25.954 21.772 26.096 21.371L29.65 11.353C29.881 10.701 29.393 10.018 28.696 10.018H11.054C10.455 10.018 9.987 10.532 10.048 11.122L11.082 21.141C11.135 21.652 11.569 22.04 12.088 22.04Z" />
    </symbol>
    <symbol id="icon-close-new" viewBox="0 0 153.2 151.71">
        <path d="M145.44,120a65.54,65.54,0,0,1-6.46-3.84c-.26-.18-1.63-1.19-2-1.47-1.06-.86-2.09-1.75-3.12-2.64a197.63,197.63,0,0,1-14.1-14c-8.72-9.32-17.28-18.6-26.94-27a249.8,249.8,0,0,1,18.52-21c2.34-2.32,4.79-4.53,7.31-6.65l.88-.71.61-.45c1.23-.9,2.51-1.73,3.8-2.54s2.54-1.49,3.84-2.16c.36-.18.73-.35,1.1-.53a35.3,35.3,0,0,1,3.86-1.14l.48-.12c.06,0,2.42-1.29,2.5-1.29,8.59-.61,13.51-7.45,13.51-16.52,0-8.15-4.84-20.81-21.8-15.8C102.7,12.42,84.72,30.59,68.08,51.67l-2-1.51c1.15.87-2.46-1.94-2.88-2.26C51.53,41.25,41.77,25.2,37.34,21c-2-1.86-3.83-3.83-5.61-5.86-.16-.18-.43-.52-.69-.85q-.84-1.21-1.6-2.47A16,16,0,0,0,7.81,6.15C.46,10.45-2.31,20.39,2.14,27.76,8.34,38,29.54,61.08,38.76,68.55c3.33,2.69,6.71,5.32,10.11,7.93C46.15,80.2,43.49,84,41,87.9c-4.19,6.47-15.32,18-19.84,24.2-.36.5-.74,1-1.11,1.49l-.73.91c-1.15,1.43-2.37,2.81-3.6,4.18-.5.56-1,1.1-1.55,1.64a15.15,15.15,0,0,0-7.62,7.21c-9.17,12.87,5.95,31.73,20.78,22.83,1.71-1,6.06-4.64,1.65-1.26a70.69,70.69,0,0,0,6.28-5.17,88.05,88.05,0,0,0,7.27-8.18c5.36-6.66,17.18-18.69,21.83-25.86,3-4.64,6-9.31,9.08-13.89C92,113,106.87,135.6,129.5,147.29c7.65,4,17.1,2,21.62-5.67C155.29,134.48,153.09,123.95,145.44,120Z"/>
    </symbol>
    <svg id="icon-arrow-down-new" viewBox="0 0 10 10">
        <path d="M8,1.9c0.6-1.4,2.6-0.1,2,1.2C9,5.4,7.4,7.4,6.1,9.5C5.8,10,5,10.2,4.5,9.9C4.3,9.8,4.2,9.7,4.1,9.5 c-1.6-2.6-3-5.2-4-8c-0.5-1.4,1.8-2.1,2.2-0.7C3.2,3.5,4.6,5.9,6,8.1H4C5.4,5.9,7,4.2,8,1.9z"/>
    </svg>

</svg>