<svg xmlns="http://www.w3.org/2000/svg" style="display: none;">
    <symbol id="icon-basket-new" viewBox="0 0 35 34">
        <path fill-rule="evenodd" clip-rule="evenodd" d="M9.35 26.048H27.291C28.149 26.048 28.914 25.511 29.198 24.709L34.884 8.679C35.346 7.376 34.371 6.011 32.977 6.011H10.434C9.916 6.011 9.481 5.622 9.428 5.111L9.087 1.8C8.981 0.777 8.112 0 7.075 0H1.011C0.453 0 0 0.448 0 1.002V3.005C0 3.559 0.453 4.007 1.011 4.007H4.338C4.856 4.007 5.29 4.396 5.343 4.907L7.339 24.248C7.444 25.27 8.313 26.048 9.35 26.048ZM28.034 30.827C28.034 32.487 26.676 33.833 25.001 33.833C23.326 33.833 21.969 32.487 21.969 30.827C21.969 29.167 23.326 27.822 25.001 27.822C26.676 27.822 28.034 29.167 28.034 30.827ZM15.162 30.995C15.162 32.654 13.804 34 12.129 34C10.455 34 9.097 32.654 9.097 30.995C9.097 29.334 10.455 27.989 12.129 27.989C13.804 27.989 15.162 29.334 15.162 30.995ZM12.088 22.04H25.143C25.572 22.04 25.954 21.772 26.096 21.371L29.65 11.353C29.881 10.701 29.393 10.018 28.696 10.018H11.054C10.455 10.018 9.987 10.532 10.048 11.122L11.082 21.141C11.135 21.652 11.569 22.04 12.088 22.04Z" />
    </symbol>
    <symbol id="icon-close-new" viewBox="0 0 153.2 151.71">
        <path d="M145.44,120a65.54,65.54,0,0,1-6.46-3.84c-.26-.18-1.63-1.19-2-1.47-1.06-.86-2.09-1.75-3.12-2.64a197.63,197.63,0,0,1-14.1-14c-8.72-9.32-17.28-18.6-26.94-27a249.8,249.8,0,0,1,18.52-21c2.34-2.32,4.79-4.53,7.31-6.65l.88-.71.61-.45c1.23-.9,2.51-1.73,3.8-2.54s2.54-1.49,3.84-2.16c.36-.18.73-.35,1.1-.53a35.3,35.3,0,0,1,3.86-1.14l.48-.12c.06,0,2.42-1.29,2.5-1.29,8.59-.61,13.51-7.45,13.51-16.52,0-8.15-4.84-20.81-21.8-15.8C102.7,12.42,84.72,30.59,68.08,51.67l-2-1.51c1.15.87-2.46-1.94-2.88-2.26C51.53,41.25,41.77,25.2,37.34,21c-2-1.86-3.83-3.83-5.61-5.86-.16-.18-.43-.52-.69-.85q-.84-1.21-1.6-2.47A16,16,0,0,0,7.81,6.15C.46,10.45-2.31,20.39,2.14,27.76,8.34,38,29.54,61.08,38.76,68.55c3.33,2.69,6.71,5.32,10.11,7.93C46.15,80.2,43.49,84,41,87.9c-4.19,6.47-15.32,18-19.84,24.2-.36.5-.74,1-1.11,1.49l-.73.91c-1.15,1.43-2.37,2.81-3.6,4.18-.5.56-1,1.1-1.55,1.64a15.15,15.15,0,0,0-7.62,7.21c-9.17,12.87,5.95,31.73,20.78,22.83,1.71-1,6.06-4.64,1.65-1.26a70.69,70.69,0,0,0,6.28-5.17,88.05,88.05,0,0,0,7.27-8.18c5.36-6.66,17.18-18.69,21.83-25.86,3-4.64,6-9.31,9.08-13.89C92,113,106.87,135.6,129.5,147.29c7.65,4,17.1,2,21.62-5.67C155.29,134.48,153.09,123.95,145.44,120Z"/>
    </symbol>
    <symbol id="icon-arrow-down-new" viewBox="0 0 10 10">
        <path d="M8,1.9c0.6-1.4,2.6-0.1,2,1.2C9,5.4,7.4,7.4,6.1,9.5C5.8,10,5,10.2,4.5,9.9C4.3,9.8,4.2,9.7,4.1,9.5 c-1.6-2.6-3-5.2-4-8c-0.5-1.4,1.8-2.1,2.2-0.7C3.2,3.5,4.6,5.9,6,8.1H4C5.4,5.9,7,4.2,8,1.9z"/>
    </symbol>
    <symbol id="icon-button-menu" viewBox="-42 0 512 512.001">
        <path d="m135.746094 380.710938c-.988282 1.796874-2.519532 2.335937-3.957032 2.335937s-2.875-.539063-3.863281-2.335937l-10.339843-19.417969v39.371093c0 2.429688-2.964844 3.6875-5.839844 3.6875-2.96875 0-5.84375-1.257812-5.84375-3.6875v-56.183593c0-4.3125 2.875-5.839844 5.84375-5.839844 4.222656 0 6.113281.898437 9.078125 6.199219l11.058593 20.136718 11.054688-20.136718c2.96875-5.300782 4.945312-6.199219 9.171875-6.199219 2.964844 0 5.839844 1.527344 5.839844 5.839844v56.183593c0 2.429688-2.964844 3.6875-5.839844 3.6875-2.96875 0-5.84375-1.257812-5.84375-3.6875v-38.652343zm0 0"/>
        <path d="m190.484375 366.863281h13.664063c2.335937 0 3.683593 2.25 3.683593 4.675781 0 2.066407-1.167969 4.496094-3.683593 4.496094h-13.664063v18.066406h25.4375c2.339844 0 3.6875 2.425782 3.6875 5.214844 0 2.425782-1.167969 5.035156-3.6875 5.035156h-32c-2.605469 0-5.125-1.261718-5.125-3.6875v-58.339843c0-2.425781 2.515625-3.6875 5.125-3.6875h32c2.519531 0 3.6875 2.609375 3.6875 5.035156 0 2.789063-1.347656 5.214844-3.6875 5.214844h-25.4375zm0 0"/>
        <path d="m267.519531 400.664062-19.328125-36.136718v36.136718c0 2.429688-2.964844 3.6875-5.84375 3.6875-2.964844 0-5.84375-1.257812-5.84375-3.6875v-58.339843c0-2.515625 2.878906-3.683594 5.84375-3.683594 4.226563 0 5.933594.898437 8.722656 6.199219l17.347657 33.53125v-36.136719c0-2.515625 2.875-3.597656 5.84375-3.597656 2.875 0 5.839843 1.078125 5.839843 3.597656v58.429687c0 2.425782-2.964843 3.6875-5.839843 3.6875-2.789063 0-5.214844-.898437-6.742188-3.6875zm0 0"/>
        <path d="m332.148438 342.234375c0-2.515625 2.875-3.59375 5.839843-3.59375 2.878907 0 5.84375 1.078125 5.84375 3.59375v42.070313c0 15.011718-9.527343 20.585937-21.574219 20.585937-12.136718 0-21.574218-5.574219-21.574218-20.585937v-42.070313c0-2.515625 2.875-3.59375 5.84375-3.59375 2.875 0 5.839844 1.078125 5.839844 3.59375v42.070313c0 7.011718 3.6875 10.339843 9.890624 10.339843 6.203126 0 9.886719-3.328125 9.886719-10.339843v-42.070313zm0 0"/>
        <path d="m355.257812 422.148438h-42.730468c-4.195313 0-7.59375 3.398437-7.59375 7.589843 0 4.195313 3.398437 7.589844 7.59375 7.589844h42.730468c4.195313 0 7.589844-3.394531 7.589844-7.589844 0-4.191406-3.394531-7.589843-7.589844-7.589843zm0 0"/>
        <path d="m277.207031 422.148438h-172.941406c-4.191406 0-7.589844 3.398437-7.589844 7.589843 0 4.195313 3.398438 7.589844 7.589844 7.589844h172.941406c4.195313 0 7.589844-3.394531 7.589844-7.589844 0-4.191406-3.394531-7.589843-7.589844-7.589843zm0 0"/>
        <path d="m355.257812 306.242188h-250.992187c-4.191406 0-7.589844 3.398437-7.589844 7.589843 0 4.191407 3.398438 7.589844 7.589844 7.589844h250.992187c4.195313 0 7.589844-3.398437 7.589844-7.589844 0-4.191406-3.394531-7.589843-7.589844-7.589843zm0 0"/>
        <path d="m351.035156 212.128906h-7.367187c-2.84375-52.300781-41.074219-95.339844-91.109375-105.527344l1.464844-14.003906c.480468-4.570312-1.011719-9.148437-4.085938-12.558594-3.074219-3.414062-7.472656-5.371093-12.066406-5.371093h-16.214844c-4.597656 0-8.992188 1.960937-12.070312 5.371093-3.074219 3.414063-4.5625 7.992188-4.082032 12.558594l1.464844 14.003906c-50.035156 10.1875-88.265625 53.222657-91.109375 105.523438h-7.367187c-6.515626 0-11.816407 5.300781-11.816407 11.816406v15.664063c0 6.515625 5.300781 11.816406 11.816407 11.816406h242.539062c6.515625 0 11.816406-5.300781 11.816406-11.816406v-15.664063c0-6.511718-5.296875-11.8125-11.8125-11.8125zm-130.167968-121.929687c.210937-.230469.472656-.347657.789062-.347657h16.214844c.3125 0 .578125.117188.789062.347657.210938.234375.300782.511719.265625.820312l-1.417969 13.5625c-2.558593-.171875-5.140624-.269531-7.742187-.269531-2.605469 0-5.183594.097656-7.742187.269531l-1.421876-13.5625c-.03125-.308593.058594-.585937.265626-.820312zm126.800781 146.042969h-235.808594v-8.933594h31.988281c4.195313 0 7.59375-3.398438 7.59375-7.589844s-3.398437-7.589844-7.59375-7.589844h-12.777344c3.242188-51.625 46.265626-92.632812 98.691407-92.632812 52.429687 0 95.453125 41.007812 98.695312 92.632812h-149.289062c-4.195313 0-7.589844 3.398438-7.589844 7.589844s3.394531 7.589844 7.589844 7.589844h168.5zm0 0"/>
        <path d="m409.484375 0h-359.441406c-10.65625 0-19.328125 8.671875-19.328125 19.328125v13.710937h-7.082032c-13.03125 0-23.632812 10.605469-23.632812 23.636719s10.601562 23.636719 23.632812 23.636719h7.082032v32.457031h-7.082032c-13.03125 0-23.632812 10.601563-23.632812 23.636719 0 13.03125 10.601562 23.632812 23.632812 23.632812h7.082032v32.460938h-7.082032c-13.03125 0-23.632812 10.601562-23.632812 23.636719 0 13.03125 10.601562 23.632812 23.632812 23.632812h7.082032v32.460938h-7.082032c-13.03125 0-23.632812 10.601562-23.632812 23.632812 0 13.035157 10.601562 23.636719 23.632812 23.636719h7.082032v32.460938h-7.082032c-13.03125 0-23.632812 10.601562-23.632812 23.632812 0 13.035156 10.601562 23.636719 23.632812 23.636719h7.082032v32.460937h-7.082032c-13.03125 0-23.632812 10.601563-23.632812 23.632813s10.601562 23.636719 23.632812 23.636719h7.082032v13.710937c0 10.65625 8.671875 19.328125 19.328125 19.328125h359.441406c10.65625 0 19.332031-8.671875 19.332031-19.328125v-473.34375c0-10.65625-8.675781-19.328125-19.332031-19.328125zm-378.773437 65.132812h-7.078126c-4.660156 0-8.453124-3.792968-8.453124-8.457031 0-4.660156 3.792968-8.453125 8.453124-8.453125h7.078126zm0 79.726563h-7.078126c-4.660156 0-8.453124-3.792969-8.453124-8.453125 0-4.664062 3.792968-8.453125 8.453124-8.453125h7.078126zm0 79.730469h-7.078126c-4.660156 0-8.453124-3.792969-8.453124-8.453125 0-4.664063 3.792968-8.457031 8.453124-8.457031h7.078126zm0 79.730468h-7.078126c-4.660156 0-8.453124-3.792968-8.453124-8.457031 0-4.660156 3.792968-8.453125 8.453124-8.453125h7.078126zm0 79.726563h-7.078126c-4.660156 0-8.453124-3.789063-8.453124-8.453125 0-4.660156 3.792968-8.453125 8.453124-8.453125h7.078126zm0 79.730469h-7.078126c-4.660156 0-8.453124-3.792969-8.453124-8.453125 0-4.664063 3.792968-8.453125 8.453124-8.453125h7.078126zm382.921874 28.890625c0 2.289062-1.859374 4.152343-4.148437 4.152343h-359.441406c-2.289063 0-4.148438-1.863281-4.148438-4.152343v-473.339844c0-2.285156 1.859375-4.148437 4.148438-4.148437h359.441406c2.289063 0 4.148437 1.863281 4.148437 4.148437zm0 0"/>
    </symbol>
    <symbol id="icon-button-snow"  viewBox="0 0 512 512">
        <path d="m341.657 269.657-11.314-11.314-29.656 29.657h-25.374l18.344-18.343-11.314-11.314-18.343 18.344v-25.374l29.657-29.656-11.314-11.314-18.343 18.343v-20.686h-16v20.686l-18.343-18.343-11.314 11.314 29.657 29.656v25.374l-18.343-18.344-11.314 11.314 18.344 18.343h-25.374l-29.656-29.657-11.314 11.314 18.343 18.343h-20.686v16h20.686l-18.343 18.343 11.314 11.314 29.656-29.657h25.374l-18.344 18.343 11.314 11.314 18.343-18.344v25.374l-29.657 29.656 11.314 11.314 18.343-18.343v20.686h16v-20.686l18.343 18.343 11.314-11.314-29.657-29.656v-25.374l18.343 18.344 11.314-11.314-18.344-18.343h25.374l29.656 29.657 11.314-11.314-18.343-18.343h20.686v-16h-20.686z"/>
        <path d="m136 200h16v16h-16z"/>
        <path d="m88 264h16v16h-16z"/>
        <path d="m400 344h16v16h-16z"/>
        <path d="m352 400h16v16h-16z"/>
        <path d="m130.343 346.343-14.343 14.344-14.343-14.344-11.314 11.314 14.344 14.343-14.344 14.343 11.314 11.314 14.343-14.344 14.343 14.344 11.314-11.314-14.344-14.343 14.344-14.343z"/>
        <path d="m402.343 237.657 11.314-11.314-14.344-14.343 14.344-14.343-11.314-11.314-14.343 14.344-14.343-14.344-11.314 11.314 14.344 14.343-14.344 14.343 11.314 11.314 14.343-14.344z"/>
        <path d="m504 456c-18.452 0-40-12.571-40-48v-344a24.027 24.027 0 0 0 -24-24h-48v-16a24.027 24.027 0 0 0 -24-24h-32a24.027 24.027 0 0 0 -24 24v16h-152v-16a24.027 24.027 0 0 0 -24-24h-32a24.027 24.027 0 0 0 -24 24v16h-56a24.027 24.027 0 0 0 -24 24v424a24.027 24.027 0 0 0 24 24h416a24.027 24.027 0 0 0 24-24v-16h40a8 8 0 0 0 0-16zm-176-432a8.009 8.009 0 0 1 8-8h32a8.009 8.009 0 0 1 8 8v16h-48zm-232 0a8.009 8.009 0 0 1 8-8h32a8.009 8.009 0 0 1 8 8v16h-48zm-16 32h64v8.228a36 36 0 1 0 16 1.837v-10.065h216v8.228a36 36 0 1 0 16 1.837v-10.065h48a8.009 8.009 0 0 1 8 8v80h-392v-80a8.009 8.009 0 0 1 8-8zm80 28.038a19.967 19.967 0 1 1 -16-3.638v23.6h16zm232 0a19.967 19.967 0 1 1 -16-3.638v23.6h16zm56 403.962a8.009 8.009 0 0 1 -8 8h-416a8.009 8.009 0 0 1 -8-8v-424a8.009 8.009 0 0 1 8-8h17.376a23.884 23.884 0 0 0 -1.376 8v344a64.073 64.073 0 0 0 64 64h344zm-344-32a48.054 48.054 0 0 1 -48-48v-248h392v248c0 17.385 5.03 33.227 14.163 44.605q1.426 1.776 2.961 3.395z"/>
    </symbol>
    <symbol id="icon-button-party" viewBox="0 0 512 512">
        <g>
            <path d="m283.821 274.476c1.385 1.109 3.041 1.648 4.686 1.648 2.197 0 4.375-.961 5.856-2.809l27.949-34.866c2.591-3.232 2.071-7.952-1.16-10.543-3.235-2.591-7.952-2.072-10.543 1.16l-27.949 34.866c-2.59 3.234-2.07 7.954 1.161 10.544z"/>
            <path d="m229.92 284.817c1.422 1.243 3.181 1.853 4.932 1.853 2.089 0 4.168-.868 5.65-2.565 10.209-11.683 21.871-25.975 30.962-43.387 1.917-3.672.494-8.202-3.178-10.119-3.672-1.919-8.202-.495-10.119 3.178-8.362 16.016-19.332 29.44-28.96 40.459-2.725 3.118-2.406 7.856.713 10.581z"/>
            <path d="m283.83 318.834c-2.453 3.337-1.737 8.031 1.601 10.485 1.338.983 2.894 1.458 4.436 1.458 2.305 0 4.578-1.06 6.049-3.059 8.686-11.815 19.424-25.454 33.194-37.024 3.171-2.665 3.582-7.395.917-10.567s-7.395-3.581-10.567-.917c-14.98 12.587-26.417 27.094-35.63 39.624z"/>
            <path d="m320.14 357.172c1.318.936 2.834 1.386 4.336 1.386 2.348 0 4.659-1.099 6.122-3.158 12.804-18.029 29.908-36.65 59.691-38.067 4.138-.196 7.332-3.71 7.135-7.848-.196-4.138-3.725-7.336-7.848-7.135-36.419 1.732-57.185 24.619-71.208 44.364-2.399 3.377-1.605 8.059 1.772 10.458z"/>
            <path d="m217.684 205.813c-4.116.466-7.075 4.181-6.608 8.296 1.46 12.889-2.658 21.894-6.878 29.004-2.114 3.561-.941 8.163 2.621 10.277 1.2.713 2.52 1.052 3.821 1.052 2.56 0 5.055-1.312 6.456-3.673 5.172-8.712 10.855-20.944 8.884-38.347-.467-4.117-4.195-7.069-8.296-6.609z"/>
            <path d="m474.232 45.269h-33.545v-10.613c0-19.109-15.545-34.656-34.655-34.656-19.125 0-34.683 15.547-34.683 34.656v10.613h-28.312v-10.613c0-19.109-15.558-34.656-34.683-34.656-19.109 0-34.655 15.547-34.655 34.656v10.613h-28.312v-10.613c0-19.109-15.559-34.656-34.683-34.656-19.109 0-34.655 15.547-34.655 34.656v10.613h-28.312v-10.613c0-19.109-15.559-34.656-34.684-34.656-19.108 0-34.654 15.547-34.654 34.656v10.613h-40.631c-6.637 0-12.035 5.399-12.035 12.035v380.775c0 6.636 5.398 12.035 12.035 12.035h71.737l-11.282 39.061c-.048.163-.089.327-.125.493-1.566 7.231-2.396 15.242 3.323 19.833 2.242 1.799 4.774 2.499 7.426 2.499 4.072 0 8.426-1.649 12.445-3.5.155-.071.308-.148.458-.23l106.485-58.156h245.996c6.637 0 12.035-5.399 12.035-12.035v-380.775c.001-6.636-5.397-12.035-12.034-12.035zm-87.883-10.613c0-10.839 8.83-19.656 19.683-19.656 10.838 0 19.655 8.817 19.655 19.656v10.613h-39.338zm-97.65 0c0-10.839 8.817-19.656 19.655-19.656 10.853 0 19.683 8.817 19.683 19.656v10.613h-39.338zm-97.65 0c0-10.839 8.817-19.656 19.655-19.656 10.853 0 19.683 8.817 19.683 19.656v10.613h-39.338zm-97.65 0c0-10.839 8.816-19.656 19.654-19.656 10.853 0 19.683 8.817 19.683 19.656v10.613h-39.337zm21.394 460.323c-1.036.473-1.906.834-2.631 1.11.116-.812.289-1.803.545-3.004l11.688-40.466 20.699 25.812zm43.671-23.851-28.978-36.137 6.889-23.854 40.179 50.111zm31.461-17.182-48.458-60.437 11.861-41.068 67.724 84.506zm44.497-24.301-76.002-94.835 6.893-23.867 27.688 34.57c1.481 1.85 3.659 2.811 5.858 2.811 1.645 0 3.3-.538 4.684-1.646 3.233-2.589 3.755-7.309 1.165-10.542l-34.302-42.827 3.362-11.639 65.223 52.308 69.103 55.433-42.212 23.053-39.036-48.72c-2.59-3.233-7.31-3.756-10.542-1.163-3.232 2.59-3.754 7.309-1.163 10.542l37.372 46.643zm236.845-268.185h-199.28c-4.143 0-7.5 3.357-7.5 7.5s3.357 7.5 7.5 7.5h199.28v258.654h-215.566l65.081-35.543 9.893 7.934c1.384 1.11 3.041 1.649 4.687 1.649 2.197 0 4.374-.961 5.855-2.808 2.592-3.231 2.073-7.952-1.158-10.543l-179.483-143.942c-3.23-2.592-7.951-2.071-10.543 1.158-2.592 3.231-2.073 7.952 1.158 10.543l9.901 7.94-46.991 162.698c-.08.234-.149.47-.205.71l-.059.204h-73.104v-258.654h196.644c4.143 0 7.5-3.357 7.5-7.5s-3.357-7.5-7.5-7.5h-196.644v-20.206h430.534zm0-35.206h-430.534v-65.985h37.667v10.613c0 19.109 15.546 34.656 34.654 34.656 4.143 0 7.5-3.357 7.5-7.5s-3.357-7.5-7.5-7.5c-10.838 0-19.654-8.817-19.654-19.656v-10.613h82.649v10.613c0 19.109 15.546 34.656 34.655 34.656 4.143 0 7.5-3.357 7.5-7.5s-3.357-7.5-7.5-7.5c-10.838 0-19.655-8.817-19.655-19.656v-10.613h82.65v10.613c0 19.109 15.546 34.656 34.655 34.656 4.143 0 7.5-3.357 7.5-7.5s-3.357-7.5-7.5-7.5c-10.838 0-19.655-8.817-19.655-19.656v-10.613h82.65v10.613c0 19.109 15.558 34.656 34.683 34.656 4.143 0 7.5-3.357 7.5-7.5s-3.357-7.5-7.5-7.5c-10.853 0-19.683-8.817-19.683-19.656v-10.613h84.918z"/>
        </g>
    </symbol>
    <symbol id="icon-button-cake" viewBox="0 0 511.999 511.999">
        <g>
            <g>
                <path d="M491.018,153.787c-2.066-3.59-6.652-4.826-10.242-2.758c-3.59,2.066-4.825,6.652-2.758,10.242
                            C490.614,183.151,497,208.078,497,235.359v188.683c0,12.442-10.123,22.564-22.564,22.564H27.902
                            c-7.114,0-12.902-5.788-12.902-12.902s5.788-12.901,12.902-12.901H85.58c4.142,0,7.5-3.358,7.5-7.5c0-4.142-3.358-7.5-7.5-7.5
                            H35.402v-53.57h417.432c4.537,0,8.229,3.691,8.229,8.229v37.111c0,4.538-3.691,8.229-8.229,8.229H115.58
                            c-4.142,0-7.5,3.358-7.5,7.5c0,4.142,3.358,7.5,7.5,7.5h337.254c12.808,0,23.229-10.421,23.229-23.229v-37.111
                            c0-12.809-10.42-23.229-23.229-23.229H27.902c-7.114,0-12.902-5.788-12.902-12.902s5.788-12.902,12.902-12.902h424.932
                            c12.808,0,23.229-10.42,23.229-23.229v-37.111c0-12.809-10.417-23.229-23.222-23.229H28.563c-0.162-0.01-0.323-0.019-0.486-0.022
                            c-0.03-0.001-0.059,0.003-0.089,0.002c-7.019-0.211-12.805-5.743-12.982-12.531c-0.141-5.354,2.952-10.159,7.877-12.242
                            c14.023-5.932,181.353-84.024,247.595-114.964c1.839,3.719,3.347,7.826,4.5,12.342c-20.736,4.073-36.43,22.382-36.43,44.293
                            c0,24.894,20.252,45.146,45.146,45.146s45.146-20.252,45.146-45.146c0-22.649-16.766-41.45-38.538-44.658
                            c-1.456-6.713-3.529-12.839-6.207-18.339c7.034-3.287,11.555-5.399,12.794-5.979c15.749-7.44,33.59-8.942,50.24-4.229
                            c34.016,9.631,81.411,28.938,114.031,66.221c2.728,3.117,7.465,3.434,10.583,0.706c3.118-2.728,3.434-7.466,0.706-10.583
                            C437.41,87.83,387.182,67.285,351.215,57.102c-20.138-5.702-41.707-3.89-60.705,5.085c-0.36,0.168-5.677,2.653-14.598,6.821
                            c-7.233-8.662-16.689-14.841-28.202-18.296c-3.968-1.191-8.148,1.06-9.339,5.028c-1.19,3.967,1.061,8.149,5.028,9.339
                            c7.195,2.159,13.267,5.714,18.23,10.6C194.071,107.23,30.481,183.566,17.04,189.251c-10.648,4.503-17.332,14.886-17.029,26.45
                            c0.321,12.259,8.914,22.641,20.392,26.007v55.753C8.649,300.746,0,311.544,0,324.331s8.649,23.584,20.402,26.87v55.634
                            C8.649,410.12,0,420.918,0,433.704c0,15.385,12.517,27.902,27.902,27.902h446.533c20.713,0,37.564-16.852,37.564-37.564V235.359
                            C511.999,205.418,504.94,177.973,491.018,153.787z M35.402,242.86h417.439v-0.001c4.25,0,7.757,3.245,8.179,7.389
                            c0.028,0.276,0.042,0.557,0.042,0.84V288.2c0,4.538-3.691,8.229-8.229,8.229H35.402V242.86z M283.34,114.601
                            c0.213,0.018,0.427,0.029,0.643,0.029c0.099,0,0.199-0.019,0.299-0.023c16.351,0.315,29.558,13.705,29.558,30.131
                            c0,16.623-13.523,30.146-30.146,30.146s-30.146-13.523-30.146-30.146C253.548,128.234,266.881,114.792,283.34,114.601z"/>
            </g>
        </g>
    </symbol>
</svg>