<svg xmlns="http://www.w3.org/2000/svg"><svg viewBox="0 0 232.5 89.4"><path d="M74.5 54.7l1.5 3.7-1.3.6-3.4-8.6 1.4-.5 1.5 3.7 1.5-.6-1.5-3.7 1.4-.6 3.4 8.6-1.4.6-1.5-3.7-1.6.5zm5.7-7.7l4.4 8.3-1.4.5-.8-1.5-1.7.6.3 1.7-1.3.4-1.6-9.3 2.1-.7zm-.6 1.9l.9 4.7 1.3-.5-2.2-4.2zm7.7 5.6l-.3-1.3c.3-.1.6-.2.6-.3.1-.1.1-.4 0-.8L86 45.2l4-1 2.3 9-1.4.4-2-7.7-1.2.3 1.3 5.5c.2.8.2 1.5-.1 1.9s-.7.7-1.4.9h-.2zm8.4-4.3l-.3-1.7-1.1.2.8 3.9-1.4.3-1.8-9.1 1.4-.3.8 3.9 1.1-.2-.3-1.7c-.1-.7-.1-1.3.2-1.8.3-.5.8-.8 1.5-.9.7-.1 1.3 0 1.7.3.5.3.7.9.9 1.6l.9 4.7c.1.7.1 1.3-.2 1.8s-.9.7-1.6.8-1.3 0-1.7-.3-.8-.8-.9-1.5zm.5-5.1l1 4.9c.1.6.4.8.9.8.5-.1.7-.4.6-1l-1-4.9c-.1-.6-.4-.8-.9-.8s-.7.4-.6 1zm7.7 5.9l-2.3.3-1.3-9.2 4-.6.2 1.3-2.6.4.3 2.3.8-.1c.7-.1 1.3 0 1.7.3.4.3.7.9.8 1.6l.1 1c.1.7 0 1.3-.3 1.8-.1.6-.6.8-1.4.9zm-1-1.1l.8-.1c.5-.1.7-.4.6-1l-.2-1.2c-.1-.6-.4-.8-.9-.8l-.8.1.5 3zm4.1-1.5l-.4-4.8c-.1-.7.1-1.3.4-1.8.3-.4.9-.7 1.6-.7.7-.1 1.3.1 1.7.5.4.4.6.9.7 1.7l.4 4.8c.1.7-.1 1.3-.4 1.8-.3.4-.9.7-1.6.7s-1.3-.1-1.7-.5-.6-.9-.7-1.7zm1.1-5l.4 5c0 .6.3.9.8.8s.7-.4.7-1l-.4-5c-.1-.6-.3-.9-.8-.8s-.8.4-.7 1zm4.7 6.8l-.3-9.3h1.3l.2 5.9.5-2.1 1.1-3.9 1.6-.1.3 9.3h-1.3l-.2-6.5-.5 2.3-1.1 4.3-1.6.1zm2.4-10.9c-.1.1-.3.1-.5.1s-.4 0-.5-.1-.2-.2-.2-.5h-.9c0 .5.2.8.4 1.1.3.2.6.4 1.1.3.5 0 .9-.2 1.1-.4.3-.3.4-.6.4-1.1h-.9c.2.3.1.5 0 .6zm8.4 1.6c.8 0 1.3.2 1.6.6.3.4.5.9.5 1.6v.3c0 1-.4 1.6-1 1.8.7.3 1 1 1 2v.8c0 .7-.2 1.3-.6 1.6-.4.4-.9.5-1.7.5l-2.3-.1.4-9.3 2.1.2zm-.3 5.1h-.6l-.1 2.8h.8c.3 0 .4-.1.6-.2.1-.1.2-.4.2-.7v-.8c0-.4 0-.7-.2-.9-.2-.1-.4-.2-.7-.2zm.2-3.8h-.7l-.1 2.4h.6c.3 0 .5-.1.7-.2.2-.1.2-.4.2-.7v-.5c0-.6-.2-1-.7-1zm6.4 8.4l-1.1-3.8-.5.8-.3 2.8-1.5-.1.8-9.2 1.5.1-.4 4 2.3-3.9 1.5.1-2.4 3.9 1.6 5.3h-1.5zm8.4-8.2l-2.5 6.6c-.3.9-.7 1.5-1.1 1.8-.5.3-1.2.4-2.1.2l.2-1.3c.4.1.7.1.9 0s.4-.3.5-.6V49l-1-7.4 1.4.2.3 3.2.1 2.2.6-2.1 1.1-3.1 1.6.4zm3 6.4l1.4.3-.2 1.2c-.1.7-.4 1.3-.9 1.6-.4.3-1 .4-1.7.3-.7-.1-1.2-.4-1.5-.9s-.4-1.1-.2-1.8l.9-4.7c.1-.7.4-1.3.9-1.6.4-.3 1-.4 1.7-.3.7.1 1.2.4 1.5.9s.4 1.1.2 1.8l-.2.9-1.4-.3.2-1c.1-.6-.1-.9-.6-1s-.8.2-.9.8l-.9 4.9c-.1.6.1.9.6 1s.8-.2.9-.7l.2-1.4zm2.3 4.1l-.5-.1.3-1.4 1.4.3-.3 1.2-1 1.3-.6-.1.7-1.2zM148 54l2.6-8.9 1.4.4-2.3 7.6 1.6.5 2.3-7.6 1.4.4-2.3 7.6.6.2-.7 2.4-1.4-.4.4-1.2-3.6-1zm11.2-6.2c.7.3 1.2.6 1.4 1s.2 1-.1 1.7l-.1.3c-.3.9-.8 1.4-1.5 1.4.6.5.7 1.3.4 2.2l-.3.7c-.2.7-.6 1.1-1.1 1.4s-1.1.2-1.7 0l-2.2-.8 3.1-8.7 2.1.8zm-1.8 4.7l-.6-.2-1 2.7.8.3c.2.1.4.1.6 0 .2-.1.3-.3.4-.6l.3-.8c.1-.4.2-.7.1-.9-.1-.2-.3-.3-.6-.5zm1.3-3.5l-.7-.2-.8 2.3.5.2c.3.1.5.1.7 0s.3-.3.5-.6l.2-.5c.2-.6.1-1-.4-1.2zm4.9 1.9l-1 2.4 1.9.8-.5 1.2-1.9-.8-1 2.5 2.3 1-.5 1.2-3.7-1.5 3.5-8.6 3.7 1.5-.5 1.2-2.3-.9zm3.3 1.3l.6-1.2 4.1 1.9-.6 1.2-1.4-.6-3.3 7.2-1.3-.6 3.3-7.2-1.4-.7zm8.1 8.2l-3.1 3.1-1.3-.7 4.5-8.1 1.1.6-2.8 5.1 1.4-1.5 2.9-2.8 1.4.8-4.5 8.1-1.1-.6 3.1-5.7-1.6 1.7zm4.8 7.9l.6-.9-.5-.3c-1.2-.8-1.4-1.8-.5-3.1l1.4-2.1c.8-1.3 1.9-1.5 3.1-.7l.5.3.6-.9 1.2.8-.6.9.5.3c1.2.8 1.4 1.8.5 3.1l-1.4 2.1c-.8 1.3-1.9 1.5-3.1.7l-.5-.3-.6.9-1.2-.8zm1.3-2l2.5-3.8-.5-.3c-.4-.3-.8-.1-1.1.4l-1.5 2.3c-.3.5-.3.9.1 1.2l.5.2zm4.2-2.7l-.5-.3-2.5 3.8.5.3c.4.3.8.1 1.1-.4l1.5-2.3c.3-.4.3-.8-.1-1.1zm.2 5.8l2.9-3.9c.4-.6.9-.9 1.5-1 .5-.1 1.1.1 1.7.5.6.4.9.9.9 1.5.1.6-.1 1.1-.6 1.7l-2.9 3.9c-.4.6-.9.9-1.5 1-.5.1-1.1-.1-1.7-.5-.6-.4-.9-.9-.9-1.5-.1-.5.1-1.1.6-1.7zm4.1-3l-3 4c-.4.5-.3.9.1 1.2.4.3.8.2 1.2-.3l3-4c.4-.5.3-.9-.1-1.2-.5-.3-.8-.2-1.2.3zm6.6 2.4c1.1.9 1.2 2 .2 3.2l-.8.9c-1 1.2-2 1.3-3.1.4l-.5-.4-2.2 2.7-1.1-.9 5.9-7.1 1.6 1.2zm-.9 1l-.5-.4-2 2.4.5.4c.2.2.4.2.5.2.2 0 .4-.2.6-.4l.9-1.1c.2-.2.3-.5.3-.6 0-.2-.1-.3-.3-.5zm5.1 2.7l-3.7 5.6 5.2-4.2 1.5 1.4-6.3 6.8-1-.9 4.5-4.9-5.3 4.2-1-.9L198 74l-4.5 4.8-.9-.9 6.3-6.8 1.5 1.4zM208 80l-6.1 3.7c-.8.5-1.4.7-2 .7-.5 0-1.1-.4-1.8-1.2l.9-.9c.3.3.5.5.7.6s.5 0 .7-.2h.1l3.8-6.4 1 1-1.7 2.8-1.3 1.8 1.8-1.3 2.7-1.7L208 80zm-73.5-44.1l3.1-21.4-4.8-.7.1-.6 10.4 1.5-.1.5-4.8-.7-3.1 21.4h-.8zm12.2-15.2c.1-.8.4-1.4.8-2.1.3-.6.7-1.1 1.2-1.5.5-.4 1.1-.7 1.7-.9.6-.1 1.4-.1 2.2.1s1.5.5 2 .9.9 1 1.1 1.5c.2.6.4 1.3.4 1.9 0 .7-.1 1.4-.2 2.2L153.2 34c-.1.8-.4 1.4-.8 2.1-.3.6-.7 1.1-1.2 1.5-.5.4-1.1.7-1.7.8-.6.1-1.4.1-2.2-.1s-1.5-.5-2-.9-.9-1-1.1-1.5c-.2-.6-.4-1.3-.4-1.9 0-.7.1-1.4.2-2.2l2.7-11.1zM144.6 32c-.2.7-.3 1.3-.3 1.9s.1 1.2.3 1.7c.2.5.6 1 1 1.3s1 .7 1.8.8c.7.2 1.4.2 1.9.1.6-.1 1.1-.4 1.4-.7.4-.3.8-.8 1-1.4.3-.5.5-1.1.7-1.8l2.7-11.1c.2-.7.3-1.3.3-1.9s-.1-1.2-.3-1.7-.6-1-1-1.3c-.5-.4-1.1-.7-1.8-.8-.7-.2-1.4-.2-1.9-.1-.6.1-1.1.4-1.4.7-.4.3-.8.8-1 1.4-.3.5-.5 1.2-.7 1.8L144.6 32zm21.5-11.4c.8.2 1.4.7 1.9 1.1.5.4.8.9 1 1.5s.3 1.2.2 1.9c0 .7-.2 1.4-.5 2.1l-.7 2.2c-.6 1.7-1.4 2.8-2.4 3.4-1.1.5-2.5.5-4.1-.1l-3.1-1.1-3.1 9-.7-.2 7.3-21.2 4.2 1.4zm-4.5 11.3c1.5.5 2.6.6 3.5.1.9-.4 1.6-1.4 2.1-3l.7-2.2c.2-.6.3-1.2.4-1.9.1-.6 0-1.2-.1-1.6s-.4-.9-.9-1.3-1-.7-1.7-.9l-3.3-1.2-3.8 10.9 3.1 1.1zm8.3 14.2l9.1-19.6-4.4-2.1.2-.6 9.5 4.4-.2.6-4.4-2.1-9.1 19.6-.7-.2zm17.4-5.5c1.6.9 2.4 2 2.7 3.1.2 1.2-.1 2.5-1 4.1l-1.2 2c-.4.7-.9 1.3-1.3 1.7-.5.5-1 .8-1.6 1-.6.2-1.1.3-1.8.2-.6-.1-1.4-.4-2.1-.8l-3.7-2.2 11.5-19.2.6.4-4.9 8.1 2.8 1.6zm-5.8 10.8c.7.4 1.2.6 1.8.7.5.1 1 0 1.5-.2s1-.6 1.3-.9c.4-.5.8-.9 1.1-1.5l1.2-2c.8-1.4 1.1-2.5.9-3.5s-1-1.9-2.4-2.7l-2.6-1.9-6 9.8 3.2 2.2zM199 36.7l-11.6 19.1-.6-.4 11.6-19.1.6.4z"/></svg></svg>