<svg xmlns="http://www.w3.org/2000/svg">
    <symbol id="symbol-vk" viewBox="0 0 14.16 13.76">
        <path d="M13.41,1C12-.3,3-.06,1.66,1c-2.17,1.73-1,10.2-.09,11.75.47.8,2.59,1.1,4.91,1.1,2.83,0,6-.44,6.87-1,.56-.32.93-1.29,1.11-3,.33-2.89,0-7.91-1-8.91m.26,8.82c-.17,1.54-.5,2.24-.72,2.37-1.58.91-10,1.26-10.7.14A16.84,16.84,0,0,1,1.24,7c-.15-2.75.19-4.73.91-5.31,1.19-.95,9.7-1,10.72,0,.64.6,1.16,5,.79,8.24" transform="translate(-0.42 -0.12)"></path>
        <path d="M9.47,7.25a11.85,11.85,0,0,0,1.36-1.4.79.79,0,1,0-1.23-1A9.83,9.83,0,0,1,8.15,6.28C8.08,5.42,8,4.45,7.84,3.36a.79.79,0,0,0-1.57.2,36.34,36.34,0,0,1,.37,6.16A6.7,6.7,0,0,1,4.57,5.87.79.79,0,1,0,3,6c.22,2.43,2.47,5.53,4,5.53a1,1,0,0,0,.76-.35,4.72,4.72,0,0,0,.49-2.71,3.11,3.11,0,0,1,2.21,2.12.79.79,0,0,0,.75.55.77.77,0,0,0,.24,0,.79.79,0,0,0,.51-1,4.52,4.52,0,0,0-2.5-2.86" transform="translate(-0.42 -0.12)"></path>
    </symbol>
    <symbol id="symbol-o" viewBox="0 0 13.97 13.81">
        <path d="M13.39,1.09C12.39.17,8.25,0,5.88.13c-1.62.08-3.67.31-4.28,1C.15,2.71.16,11.41,1.6,12.89c.89.91,4.21,1,5.6,1h.29c2.19,0,5-.29,5.89-1s1.06-3.42,1.1-5c.05-2-.1-6-1.08-6.86m.29,6.83c-.07,2.62-.47,4.11-.81,4.39s-2.49.77-5.39.8c-3.09,0-4.92-.38-5.31-.77-1-1.07-1.28-9.26,0-10.69C2.44,1.36,3.7,1,5.92.92c3-.14,6.35.22,6.94.76s.92,3,.83,6.25" transform="translate(-0.51 -0.09)"></path>
        <path d="M7.68,3c-1,0-2.69.38-3.93,3a3.22,3.22,0,0,0,.08,3A4.38,4.38,0,0,0,7.1,11.1a3,3,0,0,0,.43,0,3.82,3.82,0,0,0,3-1.66,4.13,4.13,0,0,0,.65-4.15A4,4,0,0,0,7.68,3M9.26,8.51a2.18,2.18,0,0,1-1.92,1,2.84,2.84,0,0,1-2.1-1.34,1.65,1.65,0,0,1,0-1.53c.64-1.36,1.51-2.11,2.47-2.11h0A2.39,2.39,0,0,1,9.73,6a2.6,2.6,0,0,1-.48,2.54" transform="translate(-0.51 -0.09)"></path>
    </symbol>
    <symbol id="symbol-fb" viewBox="0 0 13.25 14.34">
        <path d="M12.84,1.32C10.61.09,3-.1,1.17,1.35-.13,2.36.41,11.64,1,13.06s4,1.61,6.15,1.61h.43c1.44,0,4.83-.25,5.38-1.62.61-1.53,1.07-11-.18-11.73m-.56,11.44c-.2.51-1.87,1.06-4.66,1.12-3.16.07-5.58-.53-5.85-1.14C1,11.09.94,2.64,1.66,2,3,.9,10.1.74,12.43,2c.62.81.51,9.09-.15,10.76" transform="translate(-0.38 -0.33)"></path>
        <path d="M6.75,2.67A2.69,2.69,0,0,0,5.31,5.29c0,.41,0,.89.06,1.42h0A.79.79,0,0,0,5.41,8.3h.06c.13,1.82.28,3.57.29,3.69a.79.79,0,0,0,.79.72h.07a.79.79,0,0,0,.72-.86S7.18,10,7,8.13L8.36,8A.79.79,0,0,0,8.2,6.42l-1.25.13c0-.48,0-.92-.05-1.29a1.14,1.14,0,0,1,.55-1.17,1,1,0,0,1,.93,0,.79.79,0,0,0,1-1.23,2.53,2.53,0,0,0-2.63-.21" transform="translate(-0.38 -0.33)"></path>
    </symbol>
    <symbol id="symbol-cabinet" viewBox="0 0 19 19">
        <path class="st0" d="M9.3,0C4.5-0.1,0.4,3.6,0,8.4C0.1,10.8,0.8,13,2.2,15c1.5,2.4,4.1,4,6.9,4c6,0,9.9-3.3,9.9-8.5
              C19,3.5,15.7,0,9.3,0z M4.5,16.2C4.5,16.1,4.5,16.1,4.5,16.2c0-2,1.4-3.7,3.4-3.9c0.7-0.2,1.4-0.4,1.6-1c0.2-0.6-0.3-1-0.8-1.5
              C7.8,9,7.3,8,7.3,6.9c0.1-1,1.4-1.7,2.6-1.9c0.5,0,2.1-0.1,2.6,1.2c0.8,2.1,0.1,2.7-0.6,3.3c-0.6,0.3-1,1-1,1.7
              c0.1,0.6,0.7,0.8,1.4,1.1c1.8,0.3,3,2.1,2.7,3.9c0,0,0,0,0,0.1c0,0,0,0.1,0,0.1c-1.8,1.1-3.8,1.6-5.8,1.5
              C7.4,17.9,5.8,17.3,4.5,16.2z M6.5,6C6.4,5.9,6.3,5.7,6.3,5.6c0-0.4,0.3-0.7,0.7-0.8c0.2,0,0.4,0,0.5,0.1C7.1,5.2,6.7,5.5,6.5,6z
              M13.1,5.3c-0.3-0.4-0.6-0.7-1-0.9c0-0.1,0.1-0.2,0.2-0.2c0.4,0,0.7,0.2,0.9,0.6C13.3,4.9,13.2,5.1,13.1,5.3z M16,15.5
              c0-2-1.5-3.8-3.4-4.2c-0.2-0.1-0.4-0.1-0.6-0.2c0-0.2,0.1-0.3,0.6-0.7c1.3-0.9,1.7-2.6,1-4.1c0.6-0.4,0.9-1.2,0.7-1.9
              c-0.3-0.8-1.1-1.3-2-1.3c-0.5,0.1-1,0.4-1.1,1C10.7,4,10.2,4,9.7,4.1C9.3,4.1,8.8,4.2,8.4,4.4C8,3.9,7.3,3.6,6.7,3.7
              C5.8,4,5.2,4.7,5.2,5.6c0,0.7,0.4,1.2,1,1.5c0.1,1.3,0.7,2.6,1.7,3.4c0.2,0.1,0.3,0.3,0.5,0.4c-0.2,0.1-0.5,0.2-0.7,0.3
              c-2.1,0.3-3.7,1.9-4.1,4C2,13.1,1.2,10.8,1,8.3C1.5,4.1,5.1,1,9.3,1.1c5.8,0,8.6,3.1,8.6,9.5C18,12.4,17.3,14.2,16,15.5z">
        </path>
    </symbol>
    <symbol id="symbol-search" viewBox="0 0 20 20">
        <path d="M2.4,18c-0.3,0-0.7-0.1-1.1-0.3l-0.2-0.1l0-0.2c-0.1-0.9,1.3-2.4,2.8-3.8c0.1-0.1,0.2-0.2,0.2-0.2
              c1-1,2.2-2,3.8-3.1l0.3-0.2l0.2,0.3c0.1,0.2,0.3,0.4,0.4,0.5L9,11.1l-0.1,0.2c0,0,0,0,0.1,0c0,0,0.1,0,0.1,0.1l0.3,0.3l-0.3,0.3
              c-0.5,0.5-1,1.1-1.5,1.6c-0.4,0.5-0.8,0.9-1.2,1.4c-0.5,0.5-1.1,1.1-1.6,1.6l0,0l-1.1,0.9C3.4,17.7,3,18,2.4,18z M1.8,17.2
              c0.6,0.2,1,0.2,1.4-0.2l0,0L4.2,16c0.5-0.5,1.1-1,1.6-1.6C6.3,14,6.6,13.5,7,13.1c0.4-0.5,0.8-1,1.3-1.4c-0.1-0.1-0.1-0.2-0.1-0.3
              C8.1,11.2,8,11.2,8,11.1c-1.4,1-2.5,1.9-3.4,2.8C4.5,14,4.4,14,4.4,14.1c-0.4,0.4-1.1,1-1.7,1.7C2.1,16.6,1.9,17,1.8,17.2z">
        </path>
        <path d="M18.4,10.8c2.1-2.8,1.4-6.9-1.5-8.9c-3-2.1-7.4-2-9.7,1.1c-1.6,2.2-1.3,5.3,0.4,7.2C6.9,10.6,5,12.2,2.9,14
              c-0.8,0.6-1.1,0.9-1.9,1.9c-0.2,0.2-0.3,0.4-0.4,0.7c0,0-0.2,0.5-0.2,0.6c-0.2,1.5,1.4,1.7,2.6,1.2c1.2-0.6,2.3-1.8,3.1-2.7
              c1.1-1.1,2.3-2.3,3-3.7C12,14,16.2,13.8,18.4,10.8z M6.1,14.7c-0.5,0.5-1.1,1.1-1.6,1.6l-1.1,0.9c-0.5,0.6-1.2,0.6-2,0.2
              c-0.1-1,2.4-3.2,2.9-3.7c1.2-1.1,2.4-2.1,3.7-3.1c0.1,0.2,0.3,0.4,0.5,0.6c0,0.1,0,0.3,0.1,0.3c0,0,0.1,0.1,0.1,0.1
              C7.8,12.6,7,13.7,6.1,14.7z M9.5,11.3c0.1-0.1,0.1-0.3,0-0.4C7.2,9,5.9,6.2,7.6,3.5c1.7-2.8,5.3-3.2,8.1-1.8
              c3.2,1.6,4.6,5.6,2.2,8.6C15.8,13,12.1,13.2,9.5,11.3z">
        </path>
        <path d="M1.8,19c-0.4,0-0.8-0.1-1.1-0.3c-0.5-0.3-0.7-0.9-0.6-1.5c0,0,0.1-0.4,0.2-0.7c0.1-0.3,0.3-0.5,0.4-0.8
              l0.1-0.1c0.8-1,1.2-1.3,2-1.9c2.2-1.9,3.7-3.1,4.5-3.7C6.4,9,5.9,7.9,5.8,6.6C5.7,5.2,6.1,3.8,7,2.7C8.1,1.1,9.8,0.2,11.8,0
              c1.8-0.2,3.8,0.4,5.4,1.5c1.5,1,2.5,2.7,2.8,4.4s-0.1,3.6-1.2,5l0,0c-1.1,1.4-2.6,2.3-4.3,2.6c-1.7,0.3-3.6-0.1-5.1-1.1
              c-0.8,1.3-1.9,2.4-2.9,3.5C6.2,16,6.1,16.1,6,16.3c-0.8,0.9-1.8,1.8-2.8,2.4C2.7,18.9,2.3,19,1.8,19z M0.8,16.8
              c0,0.1-0.1,0.3-0.1,0.4c0,0.4,0.1,0.7,0.3,0.9c0.4,0.3,1.1,0.2,1.7-0.1c0.1,0,0.2-0.1,0.3-0.2c-0.5,0.2-1.1,0.2-1.8-0.2l-0.2-0.1
              l0-0.2c-0.1-0.8,0.9-2,2.2-3.2l-0.1,0.1l0,0c-0.7,0.6-1.1,0.9-1.9,1.8l0,0C1.1,16.3,1,16.5,0.8,16.8L0.8,16.8L0.8,16.8z M3.7,17.4
              C3.7,17.5,3.6,17.5,3.7,17.4c0.3-0.2,0.7-0.6,1-0.9L3.7,17.4z M1.8,17.2c0.6,0.2,1,0.2,1.4-0.2l0,0L4.2,16c0.5-0.5,1.1-1,1.6-1.6
              l0,0C6.3,14,6.6,13.5,7,13.1c0.4-0.5,0.8-1,1.3-1.4c-0.1-0.1-0.1-0.2-0.1-0.3C8.1,11.2,8,11.2,8,11.1c-1.4,1-2.5,1.9-3.4,2.8
              C4.5,14,4.4,14,4.3,14.1c-0.4,0.4-1.1,1-1.7,1.7C2.1,16.6,1.9,17,1.8,17.2L1.8,17.2z M9.9,11.1c2.5,1.7,5.8,1.3,7.7-1
              c1-1.2,1.3-2.7,1-4.2c-0.4-1.6-1.5-3.1-3.1-3.9C13,0.8,9.6,0.9,7.9,3.7C6.3,6.4,7.8,9,9.7,10.6C9.9,10.7,9.9,10.9,9.9,11.1z
              M8.9,11.3C8.9,11.3,8.9,11.3,8.9,11.3L8.9,11.3l0.3-0.2c-0.3-0.2-0.6-0.5-0.8-0.8l0,0.1c0.1,0.2,0.3,0.4,0.4,0.5L9,11.1L8.9,11.3z
              M7.3,8.9c0.2,0.3,0.4,0.6,0.6,0.9C7.7,9.6,7.5,9.2,7.3,8.9L7.3,8.9z">
        </path>
    </symbol>
    <symbol id="symbol-email" viewBox="0 0 14 14">
        <path d="M12.89,1.09C11.89.17,7.75,0,5.38.12c-1.62.08-3.67.31-4.29,1C-.33,2.69-.34,11.13,1,12.8l0,0,0,.06,0,0h0c1,.87,4.18,1,5.55,1H7c2.14,0,4.9-.28,5.81-.94h0l0,0,0,0,0,0,0-.06c.79-.8,1-3.38,1-4.89C14,6,13.87,2,12.89,1.09ZM5.42.92a22.47,22.47,0,0,1,6.38.49c-.87,1.83-3.3,5.75-4.87,5.82-.67,0-3.09-3-4.92-5.77A11.42,11.42,0,0,1,5.42.92ZM1.44,2A34.36,34.36,0,0,0,5.23,6.94c-.78,1-2.95,3.83-3.81,5C.66,10.06.52,4,1.44,2ZM7,13.11a13.7,13.7,0,0,1-5-.59c1.21-1.61,3.15-4.16,3.86-5.05A2,2,0,0,0,6.94,8H7a2.65,2.65,0,0,0,1.39-.57c.67.83,2.84,3.57,3.72,5A16.5,16.5,0,0,1,7,13.11Zm6.2-5.19a13.23,13.23,0,0,1-.55,3.94c-1-1.54-3-4.11-3.67-4.92a20.86,20.86,0,0,0,3.5-5.1C12.89,2.54,13.26,5,13.18,7.92Z"></path>
    </symbol>

    <symbol id="symbol-phone" viewBox="0 0 16 18">
        <path d="M2.1,6.7L2.1,6.7c0.7,0,0.9-0.6,0.9-1.3c0-1,0.2-2,0.4-2.9c1.3-0.5,7.5-0.7,8.8-0.1c0.3,0.9,0.5,1.8,0.6,2.7
              C13,5.7,13.3,6.3,14,6.2c0.7-0.1,1.1-0.7,1-1.4c0,0,0-0.1,0-0.1c-0.2-2.3-0.5-3.1-0.8-3.5S12.9,0.1,9.3,0C3.4-0.1,2,1.1,1.8,1.4
              C1.4,1.8,1,2.7,0.9,5.4C1,6.1,1.5,6.6,2.1,6.7z">
        </path>
        <path d="M13,9.4c-1.2-1-2-2.4-2.1-4c0-0.4-0.3-0.8-0.6-0.9C8.8,4,7,3.9,5.4,4.4C5.2,4.6,5.1,4.8,5.1,5
              c0,1.8-0.8,3.4-2.2,4.5C1,11,0,13.3,0,15.7C0,17.9,6.9,18,8.3,18c1.7,0,3.4-0.1,5-0.5C14,17.4,16,17,16,15.7
              C15.9,13.3,14.9,11,13,9.4z M12.8,16.7c-4.6,0.8-11.4,0-11.7-0.9c0-2.1,0.9-4.1,2.6-5.4c1.6-1.2,2.5-3.1,2.5-5.1
              C7.4,5,8.7,5.1,9.9,5.5c0.1,1.8,1,3.5,2.4,4.6c1.7,1.4,2.6,3.4,2.7,5.6C14.9,15.8,14.6,16.3,12.8,16.7L12.8,16.7z">
        </path>
        <path d="M8.4,9.4c-0.7-0.1-2.1,0-3.4,1.9l0,0c-0.4,0.7-0.4,1.5,0,2.2c0.5,1.1,1.4,2,2.6,2.3c0.2,0,0.4,0,0.5,0
              c0.8,0,1.6-0.4,2.1-0.9c0.7-0.7,1-1.8,0.9-2.8C10.8,10.8,9.8,9.8,8.4,9.4z M9.4,14c-0.5,0.5-1.3,0.7-2,0.5c-0.9-0.3-1.4-1.3-1.1-2.2
              c0.2-0.6,0.3-1.3,1.8-1.3c1,0,1.8,0.8,1.8,1.8c0,0,0,0,0,0C9.9,13.2,9.8,13.7,9.4,14L9.4,14z">
        </path>
    </symbol>
    <symbol id="symbol-basket-bubble" viewBox="0 0 29 25.8">

        <path d="M5.9,4.9C6,3.8,7.6,1.6,11.6,1c1.1-0.2,5.7-0.8,8.6-0.4c1.1-0.1,3.9,0.7,4.8,1.2c1,0.6,1.6,1.6,2.2,2.6
              c0.5,1,0.6,2.1,0.9,3.1c0.3,1,0.5,2.1,0.5,3.1c0,0.8-0.1,4-0.1,4.8c0,1.1-0.1,2.1-0.2,3.2c-0.1,1.7-1.1,2.9-2.3,3.9
              c-1.4,1.2-5.7,2.4-12.8,2.8c-6.3,0.5-7.4-4.6-7.5-5.7c-0.1-1.2-0.1-2.5,0-3.7c0.1-0.8,0-1.5-0.3-2.2c-0.4-1-1-1.7-1.9-2.2
              c-0.5-0.3-1.1-0.3-1.6-0.6c-0.4-0.3-0.9-0.2-1.3-0.5c-0.4-0.3,3-1.7,3.9-1.8c0.3,0,0.6-0.1,0.8-0.3c0.4-0.3,0.2-0.7,0.2-1
              C5.4,6.4,5.8,5.5,5.9,4.9z">
        </path>
    </symbol>
    <symbol id="symbol-close" viewBox="0 0 153 151">
        <path d="M145.44,120a65.54,65.54,0,0,1-6.46-3.84c-.26-.18-1.63-1.19-2-1.47-1.06-.86-2.09-1.75-3.12-2.64a197.63,197.63,0,0,1-14.1-14c-8.72-9.32-17.28-18.6-26.94-27a249.8,249.8,0,0,1,18.52-21c2.34-2.32,4.79-4.53,7.31-6.65l.88-.71.61-.45c1.23-.9,2.51-1.73,3.8-2.54s2.54-1.49,3.84-2.16c.36-.18.73-.35,1.1-.53a35.3,35.3,0,0,1,3.86-1.14l.48-.12c.06,0,2.42-1.29,2.5-1.29,8.59-.61,13.51-7.45,13.51-16.52,0-8.15-4.84-20.81-21.8-15.8C102.7,12.42,84.72,30.59,68.08,51.67l-2-1.51c1.15.87-2.46-1.94-2.88-2.26C51.53,41.25,41.77,25.2,37.34,21c-2-1.86-3.83-3.83-5.61-5.86-.16-.18-.43-.52-.69-.85q-.84-1.21-1.6-2.47A16,16,0,0,0,7.81,6.15C.46,10.45-2.31,20.39,2.14,27.76,8.34,38,29.54,61.08,38.76,68.55c3.33,2.69,6.71,5.32,10.11,7.93C46.15,80.2,43.49,84,41,87.9c-4.19,6.47-15.32,18-19.84,24.2-.36.5-.74,1-1.11,1.49l-.73.91c-1.15,1.43-2.37,2.81-3.6,4.18-.5.56-1,1.1-1.55,1.64a15.15,15.15,0,0,0-7.62,7.21c-9.17,12.87,5.95,31.73,20.78,22.83,1.71-1,6.06-4.64,1.65-1.26a70.69,70.69,0,0,0,6.28-5.17,88.05,88.05,0,0,0,7.27-8.18c5.36-6.66,17.18-18.69,21.83-25.86,3-4.64,6-9.31,9.08-13.89C92,113,106.87,135.6,129.5,147.29c7.65,4,17.1,2,21.62-5.67C155.29,134.48,153.09,123.95,145.44,120Z" transform="translate(0 -0.96)"></path>
    </symbol>
    <symbol id="symbol-positive" viewBox="0 0 13 20">
        <path d="M12.94,7.47a4.35,4.35,0,0,0-2.11-.83c1-2.52,1.2-4.82.57-5.9A1.41,1.41,0,0,0,10.35,0a1.19,1.19,0,0,0-1,.32c-1.14,1-1.51,4.31-1.52,6l-.53,0c-.33,0-.78,0-1.28,0C5.9,3,5.47,1.3,4.64.64A1.44,1.44,0,0,0,3.44.36a1.52,1.52,0,0,0-1.11,1,7.64,7.64,0,0,0,.39,5.35,3.85,3.85,0,0,0-1.57.76c-.72.66-.83,4.68-.85,5.48,0,1.46,0,5,.78,6.26.65,1,3,1.25,5,1.25h.15c1.89,0,6.2-.34,6.76-1.26s1.19-10.37,0-11.71M9.92.92A.39.39,0,0,1,10.25.8a.62.62,0,0,1,.47.34c.51.88.22,3.07-.68,5.37-.44-.07-.9-.12-1.37-.16,0-1.83.45-4.71,1.25-5.42M3,1.66c.21-.46.45-.51.53-.52a.65.65,0,0,1,.57.12c.61.48,1,2.14,1.13,5A15.2,15.2,0,0,0,3.5,6.5,7,7,0,0,1,3,1.66m9.27,17.09c-.43.45-4.85,1.14-8.12.81-1.89-.19-2.35-.62-2.46-.8C.68,17.08,1,8.81,1.69,8s2.9-1,5.63-1,4.67.55,5,1c.92,1,.4,10,0,10.74" transform="translate(-0.29 0)"></path>
        <path d="M11.67,13.3a.4.4,0,0,0-.47.3c-.21.95-1.77,1.74-3.79,1.94-2.2.21-4-.34-4.48-1.34a.4.4,0,0,0-.73.32c.58,1.32,2.46,1.86,4.33,1.86.32,0,.64,0,.95,0,1.85-.18,4.13-1,4.49-2.55a.4.4,0,0,0-.3-.47" transform="translate(-0.29 0)"></path>
        <path d="M2.69,11.25a4.83,4.83,0,0,1,3,.18.4.4,0,0,0,.34-.72,5.61,5.61,0,0,0-3.55-.23.4.4,0,1,0,.17.77" transform="translate(-0.29 0)"></path>
        <path d="M8.15,11.3a.39.39,0,0,0,.17,0,4.65,4.65,0,0,1,2.83-.1.4.4,0,0,0,.36-.7A5.34,5.34,0,0,0,8,10.54a.4.4,0,0,0,.17.76" transform="translate(-0.29 0)"></path>
    </symbol>

    <symbol id="symbol-negative" viewBox="0 0 13 20">
        <path d="M12.58,7.51a2.45,2.45,0,0,0-1.44-.87,7.58,7.58,0,0,0,.22-5.22A1.62,1.62,0,0,0,10.19.36,1.44,1.44,0,0,0,9,.64C8.16,1.3,7.73,3,7.56,6.26H7.44c-.45,0-1,0-1.68.07,0-1.64-.37-5-1.52-6a1.19,1.19,0,0,0-1-.33A1.41,1.41,0,0,0,2.22.74c-.63,1.09-.4,3.4.58,5.93a3.69,3.69,0,0,0-2.14.84C.1,8.44-.52,17.89.72,19.23c.68.74,3.3,1.14,5.6,1.2H7c1.65,0,4.37-.17,5.48-1.19.72-.67.83-4.68.85-5.48,0-1.46,0-5-.78-6.26M9.48,1.26A.65.65,0,0,1,10,1.14c.24,0,.44.25.6.6a6.73,6.73,0,0,1-.29,4.72,15.14,15.14,0,0,0-2-.19c.15-2.88.52-4.53,1.13-5M2.91,1.13A.62.62,0,0,1,3.38.8a.39.39,0,0,1,.33.13C4.51,1.65,5,4.56,5,6.39c-.45,0-.91.09-1.36.15C2.69,4.23,2.4,2,2.91,1.13M12,18.67c-1.69,1.55-9.74,1-10.67,0s-.4-10,0-10.74C1.69,7.57,4.7,7,7.58,7c.64,0,1.28,0,1.87.09,1.89.19,2.35.62,2.46.8,1.06,1.69.7,10,.06,10.74" transform="translate(0 0)"></path>
        <path d="M5.5,14.45c-.93.21-1.44.54-1.52,1a.4.4,0,0,0,.32.47h.07a.38.38,0,0,0,.38-.32,3.77,3.77,0,0,1,2.14-.54,3.06,3.06,0,0,1,2,.32.4.4,0,0,0,.65-.46c-.63-.89-3-.7-4-.48" transform="translate(0 0)"></path>
        <path d="M10.8,10.32a6.19,6.19,0,0,1-2.61-.65.4.4,0,0,0-.79,0,.61.61,0,0,0,.17.46c.51.56,2.35.91,3.2.94h0a.4.4,0,0,0,0-.79" transform="translate(0 0)"></path>
        <path d="M5.84,9.83a.4.4,0,0,0-.77-.12,8.33,8.33,0,0,1-2.53.74.4.4,0,0,0,0,.79h0s3.21-.44,3.21-1.4" transform="translate(0 0)"></path>
        <path d="M4.21,11.75a.57.57,0,1,0,.57-.57.57.57,0,0,0-.57.57" transform="translate(0 0)"></path>
        <path d="M9.07,11.31a.57.57,0,1,0,.57.57.57.57,0,0,0-.57-.57" transform="translate(0 0)"></path>
    </symbol>
    <symbol id="symbol-ru" viewBox="0 0 19 19">
        <path d="M17.5,1.3c-1.4-1.3-7-1.4-10.2-1.3c-2.2,0.1-5,0.4-5.8,1.4c-2,2.1-2,14.1,0,16.1C2.7,18.8,7.2,19,9.1,19h0.4
              c3,0,6.9-0.4,8-1.4c1.1-1,1.4-4.7,1.5-6.8C19.1,8.1,18.8,2.6,17.5,1.3 M17.9,10.7c-0.1,3.6-0.6,5.7-1.1,6s-3.4,1.1-7.3,1.1
              c-4.2,0-6.7-0.5-7.2-1.1C0.9,15.4,0.6,4,2.3,2.1c0.4-0.4,2.1-0.9,5.1-1c4.1-0.2,8.6,0.3,9.4,1C17.6,2.9,18.1,6.3,17.9,10.7">
        </path>
        <path d="M5.1,11.5h0.8V12H3.3v-0.5h0.8V6.3H3.3V5.8h0.9H5H6c0.3,0,0.6,0,0.9,0.1C7.1,5.9,7.4,6,7.6,6.2
              C7.8,6.3,8,6.4,8.1,6.6c0.1,0.2,0.2,0.5,0.2,0.8c0,0.4-0.1,0.8-0.4,1.1c-0.3,0.3-0.6,0.5-1,0.6l1.8,2.4h0.5V12H7.8L6,9.3H5.1V11.5z
              M5.8,8.9c0.4,0,0.8-0.1,1.1-0.4c0.3-0.3,0.4-0.6,0.4-1c0-0.4-0.1-0.7-0.4-1C6.5,6.3,6.1,6.1,5.7,6.2H5.3H5v2.7L5.8,8.9z">
        </path>
        <path d="M14.9,10.9c-0.1,0.3-0.3,0.5-0.5,0.7c-0.2,0.2-0.5,0.3-0.7,0.4c-0.3,0.1-0.6,0.1-1,0.1c-0.7,0-1.3-0.1-1.9-0.5
              c-0.5-0.4-0.7-1-0.7-1.6V6.3H9.4V5.8h2.5v0.5h-0.7v3.6c0,0.3,0,0.5,0.1,0.8c0.1,0.2,0.2,0.4,0.3,0.5c0.2,0.1,0.3,0.2,0.5,0.3
              c0.2,0.1,0.5,0.1,0.7,0.1c0.4,0,0.9-0.1,1.2-0.4c0.3-0.3,0.5-0.8,0.4-1.3V6.3h-0.7V5.8h2.1v0.5h-0.8v3.6
              C15.1,10.2,15.1,10.6,14.9,10.9z">
        </path>
    </symbol>

    <symbol id="symbol-en" viewBox="0 0 19 19">
        <path d="M17.5,1.3c-1.4-1.3-7-1.4-10.2-1.3c-2.2,0.1-5,0.4-5.8,1.4c-2,2.1-2,14.1,0,16.1C2.7,18.8,7.2,19,9.1,19h0.4
              c3,0,6.9-0.4,8-1.4c1.1-1,1.4-4.7,1.5-6.8C19.1,8.1,18.8,2.6,17.5,1.3 M17.9,10.7c-0.1,3.6-0.6,5.7-1.1,6s-3.4,1.1-7.3,1.1
              c-4.2,0-6.7-0.5-7.2-1.1C0.9,15.4,0.6,4,2.3,2.1c0.4-0.4,2.1-0.9,5.1-1c4.1-0.2,8.6,0.3,9.4,1C17.6,2.9,18.1,6.3,17.9,10.7">
        </path>
        <path d="M8,5.8v1.4H7.4V6.5L7.2,6.3H5.1v2.3h1.5l0.1-0.1V8.1h0.6v1.6H6.7V9.2L6.6,9.1H5.1v2.4h2.3l0.2-0.2v-0.9h0.5V12
              H3.3v-0.5h0.8V6.3H3.3V5.8H8z">
        </path>
        <path d="M13.5,5.8h2.2v0.5h-0.8v5.9h-0.6l-3.6-4.9l-0.4-0.7l0,0l0.1,0.7v4.3h0.8V12H9v-0.5h0.8V6.3H9V5.8h1.8l3.1,4.3
              l0.5,0.8l0,0V10V6.3h-0.8V5.8z">
        </path>
    </symbol>
</svg>
