<svg xmlns="http://www.w3.org/2000/svg">
    <symbol id="symbol-ice-cream" viewBox="100.1 402.8 26 36">
        <path d="M114,412.9c0.7,1.4,2.1,2.2,3.6,2.2c0.6,0,1.2-0.1,1.8-0.4c2-1,2.8-3.4,1.8-5.4c-0.3-0.6-0.7-1.1-1.2-1.5
              c0.6-0.9,1.5-1.7,2.4-2.3c0.4-0.3,0.5-0.8,0.3-1.2c-0.2-0.4-0.8-0.5-1.2-0.3c-1.3,0.8-2.3,1.8-3.1,3.1c-0.8-0.2-1.7,0-2.5,0.4
              c-1,0.5-1.7,1.3-2,2.3C113.4,410.8,113.5,411.9,114,412.9L114,412.9z M115.4,410.4c0.2-0.6,0.6-1,1.1-1.3c0,0,0,0,0,0
              c0.3-0.1,0.5-0.2,0.8-0.2c0,0.1-0.1,0.2-0.1,0.3c-0.2,0.5,0.1,1,0.5,1.1c0.5,0.2,0.9-0.1,1.1-0.5c0-0.1,0.1-0.2,0.1-0.3
              c0.2,0.2,0.4,0.4,0.5,0.7c0.5,1.1,0.1,2.5-1,3c-1.1,0.6-2.4,0.1-3-1C115.3,411.6,115.2,411,115.4,410.4L115.4,410.4z M120.7,422.4
              c0.1,0.5-0.3,0.9-0.7,1c-0.2,0-0.3,0-0.5,0.1c0,0,0,0-0.1,0c-0.5,0-0.8-0.4-0.9-0.8c0-0.5,0.3-0.9,0.8-0.9c0.1,0,0.2,0,0.4,0
              C120.2,421.6,120.6,421.9,120.7,422.4L120.7,422.4z M123.4,414c0.1,0.3,0.1,0.6,0.1,1c0,0,0,0,0,0c0,1.9-1,3.4-2.8,4.1
              c-0.8,0.3-1.9,0.5-2.9,0.5c-0.9,0-1.8-0.1-2.7-0.3c-2.1-0.5-4-1.5-5.2-2.9c-1.9-2.1-2.3-4.7-1.1-7.4c0.2-0.4,0.7-0.6,1.2-0.4
              c0.4,0.2,0.6,0.7,0.4,1.2c-0.9,2.1-0.7,3.9,0.8,5.4c1.6,1.6,4.3,2.7,6.6,2.7c0.8,0,1.6-0.1,2.3-0.4c1.2-0.5,1.7-1.3,1.7-2.5
              c0-0.2,0-0.4-0.1-0.7c-0.1-0.5,0.2-0.9,0.7-1C122.9,413.2,123.4,413.6,123.4,414L123.4,414z M124.1,418.7c-0.4-0.3-0.9-0.2-1.2,0.2
              c-0.3,0.4-0.2,0.9,0.2,1.2c0.8,0.5,1.3,1.4,1.3,2.4c0,1.6-1.3,2.9-2.8,2.9h-15.3c0,0,0,0,0,0c-2.4,0-4.4-2-4.4-4.4
              c0-1.3,0.5-2.5,1.5-3.3c0.4-0.3,0.4-0.9,0.1-1.2c-0.3-0.4-0.9-0.4-1.2-0.1c-1.3,1.2-2.1,2.9-2.1,4.6c0,2.5,1.5,4.7,3.7,5.7
              c0,0,0,0.1,0,0.1l4.7,7.5c0.2,0.3,0.4,0.4,0.7,0.4h3.5v2.5h-3.5c-0.5,0-0.9,0.4-0.9,0.9s0.4,0.9,0.9,0.9h4.4c0,0,0,0,0,0
              c0,0,0,0,0,0h4.4c0.5,0,0.9-0.4,0.9-0.9s-0.4-0.9-0.9-0.9h-3.5v-2.5h3.5c0.3,0,0.6-0.2,0.7-0.4l4.7-7.5c0,0,0-0.1,0-0.1
              c1.5-0.8,2.5-2.3,2.5-4.1C126.1,420.9,125.3,419.5,124.1,418.7L124.1,418.7z M117.6,432.8h-7.9l-3.6-5.7h15.1L117.6,432.8
              L117.6,432.8z M106.5,419.3c-1.9-2.1-2.9-4.8-2.9-7.5c0-2.3,0.8-4.4,2.3-6c1.6-1.7,4-2.8,7-3c0.3,0,0.5,0.1,0.7,0.3
              c0.2,0.2,0.3,0.5,0.2,0.7c-0.1,0.9-0.1,1.7,0.2,2.3c0.2,0.5,0,1-0.5,1.1c-0.4,0.2-0.9,0-1.1-0.5c-0.2-0.6-0.4-1.3-0.4-2.1
              c-4.9,0.8-6.6,4.2-6.7,7.1c0,4.3,3.3,9.1,9.6,9.7c0.5,0,0.8,0.5,0.8,1c0,0.5-0.4,0.8-0.9,0.8c0,0-0.1,0-0.1,0
              C110.5,422.9,107.9,420.9,106.5,419.3L106.5,419.3z M107,423.2c-0.1,0.3-0.5,0.5-0.8,0.5c-0.1,0-0.2,0-0.3-0.1
              c-1.2-0.5-2.1-1.5-2.5-2.8c-0.1-0.5,0.1-1,0.6-1.1c0.5-0.2,0.9,0.1,1.1,0.6c0.3,0.8,0.8,1.4,1.6,1.7
              C107,422.3,107.2,422.8,107,423.2z">
        </path>
    </symbol>
    <symbol id="symbol-salad" viewBox="-437.9 264.9 37 33">
        <path d="M-401.3,280.6c-0.3-0.3-0.7-0.5-1.1-0.5h-0.1c0.5-1,0.8-2.1,0.8-3.2c0-2.5-1.5-4.8-3.8-5.8
              c-0.1-3.5-2.8-6.2-6.2-6.2c-3.4,0-6.2,2.8-6.2,6.2c-0.1,0-0.3,0-0.4,0c-0.6,0-1.1,0.3-1.4,0.7l-0.2,0.2c-0.1,0.2-0.4,0.3-0.6,0.2
              l-0.2-0.1c-0.5-0.2-1.1-0.2-1.6,0.1s-0.8,0.8-0.8,1.3l0,0.3c0,0.1-0.1,0.2-0.1,0.4c-0.1-0.1-0.2-0.2-0.3-0.4l0-0.3
              c0-0.5-0.3-1-0.7-1.3l2-2.8c0.4-0.6,0.5-1.2,0.4-1.9c-0.1-0.7-0.5-1.3-1-1.6c-1.1-0.8-2.7-0.5-3.5,0.6l-3.6,5.2
              c-0.1,0.2-0.2,0.4-0.3,0.6c-0.1,0-0.1,0-0.2,0l-0.2-0.1c-0.5-0.2-1.1-0.2-1.6,0.1c-0.5,0.3-0.8,0.8-0.8,1.3l0,0.3
              c0,0.2-0.2,0.4-0.4,0.4l-0.3,0c-0.6,0.1-1,0.4-1.3,0.9c-0.3,0.5-0.3,1.1-0.1,1.6l0.1,0.2c0.1,0.2,0,0.4-0.2,0.6l-0.2,0.2
              c-0.5,0.3-0.7,0.9-0.7,1.4c0,0.4,0.1,0.7,0.3,1h-0.6c-0.4,0-0.8,0.2-1.1,0.5c-0.3,0.3-0.4,0.7-0.4,1.1c0.4,5.6,3.8,8.3,9,10.8
              c0.6,0.3,1,0.7,1.3,1.3c0.3,0.5,0.2,1.3-0.1,1.9c-0.3,0.5-0.3,1,0,1.5c0.3,0.5,0.7,0.7,1.2,0.7h14.2c0.5,0,1-0.3,1.2-0.7
              c0.3-0.5,0.2-1,0-1.5c-0.3-0.6-0.4-1.3-0.1-1.8c0.3-0.6,0.8-1,1.3-1.3c5.1-2.5,8.6-5.3,9-10.8C-400.9,281.3-401,280.9-401.3,280.6z
              M-402.9,277c0,1.2-0.4,2.3-1.1,3.2h-3.3v-2.5c0-0.4-0.3-0.6-0.6-0.6c-0.3,0-0.6,0.3-0.6,0.6v2.5h-2.2c0.1-0.1,0.1-0.1,0.1-0.2
              c0,0,0,0,0,0c0.1-0.1,0.1-0.2,0.1-0.3c0,0,0-0.1,0-0.1c0-0.1,0-0.2,0-0.4c0-0.6-0.3-1.1-0.7-1.4l-0.1-0.1c0,0,0.1,0,0.1,0
              c0.1,0,0.1,0,0.2,0c0.1,0,0.2,0,0.4-0.1c0.1,0,0.1,0,0.2,0c0.1,0,0.3-0.1,0.4-0.1c0.1,0,0.1,0,0.2,0c0.2-0.1,0.4-0.1,0.5-0.2
              c0,0,0.1,0,0.1-0.1c0.1-0.1,0.2-0.1,0.4-0.2c0.1,0,0.1-0.1,0.2-0.1c0.1-0.1,0.2-0.1,0.3-0.2c0.1,0,0.1-0.1,0.2-0.1
              c0.1-0.1,0.2-0.1,0.2-0.2c0.1-0.1,0.1-0.1,0.2-0.2c0.1-0.1,0.1-0.1,0.2-0.2c0.1-0.1,0.1-0.1,0.2-0.2c0.1-0.1,0.1-0.1,0.2-0.2
              c0.1-0.1,0.2-0.3,0.4-0.4c0-0.1,0.1-0.1,0.1-0.2c0.1-0.1,0.1-0.2,0.2-0.3c0-0.1,0.1-0.1,0.1-0.2c0.1-0.1,0.1-0.2,0.2-0.3
              c0,0,0-0.1,0.1-0.1c0.1-0.1,0.1-0.3,0.2-0.4c0,0,0-0.1,0-0.1c0.1-0.3,0.2-0.6,0.3-1C-403.9,273.4-402.9,275.1-402.9,277z
              M-411.6,266.2c2.8,0,5,2.3,5,5.1c0,0.1,0,0.2,0,0.3c0,0,0,0,0,0c0,0.7-0.2,1.3-0.5,1.9c0,0,0,0,0,0c-0.1,0.1-0.1,0.3-0.2,0.4
              c0,0,0,0,0,0c-0.1,0.1-0.1,0.2-0.2,0.3c0,0,0,0,0,0.1c-0.1,0.1-0.1,0.2-0.2,0.3c0,0,0,0.1-0.1,0.1c-0.1,0.1-0.2,0.2-0.2,0.2
              c0,0-0.1,0.1-0.1,0.1c-0.1,0.1-0.2,0.1-0.2,0.2c0,0-0.1,0.1-0.1,0.1c-0.1,0.1-0.2,0.1-0.2,0.2c0,0-0.1,0.1-0.1,0.1
              c-0.1,0.1-0.2,0.1-0.2,0.1c-0.1,0-0.1,0.1-0.2,0.1c-0.1,0-0.2,0.1-0.2,0.1c-0.1,0-0.1,0.1-0.2,0.1c-0.1,0-0.2,0.1-0.2,0.1
              c-0.1,0-0.1,0-0.2,0.1c-0.1,0-0.2,0-0.2,0.1c-0.1,0-0.1,0-0.2,0.1c-0.1,0-0.2,0-0.2,0c-0.1,0-0.2,0-0.2,0c0,0,0,0,0,0v0
              c0,0,0,0,0,0c0-0.1,0-0.2,0-0.3c0,0,0-0.1,0-0.1c0-0.1,0-0.2,0-0.3c0,0,0-0.1,0-0.1c0-0.1-0.1-0.2-0.1-0.3
              c-0.3-0.5-0.8-0.8-1.3-0.9l-0.3,0c-0.2,0-0.3-0.1-0.4-0.3l1.3-1.4c0.2-0.2,0.2-0.6,0-0.9s-0.6-0.2-0.9,0l-0.9,0.9
              c-0.1-0.2-0.3-0.3-0.5-0.4c-0.1-0.1-0.3-0.1-0.4-0.2c0,0-0.1,0-0.1,0c-0.1,0-0.2,0-0.3,0c0,0,0,0,0,0c-0.1,0-0.1,0-0.2,0
              c0,0-0.1,0-0.1,0c-0.1,0-0.3,0.1-0.4,0.1l-0.2,0.1c-0.1,0-0.1,0-0.2,0c0,0,0,0,0,0c-0.1,0-0.1,0-0.2-0.1c-0.1-0.3-0.1-0.6-0.1-0.9
              C-416.6,268.4-414.4,266.2-411.6,266.2z M-421.9,273.9l0-0.3c0-0.2,0.1-0.3,0.2-0.4c0.1-0.1,0.3-0.1,0.4,0l0.2,0.1
              c0.7,0.4,1.6,0.1,2.1-0.6l0.2-0.2c0.2-0.3,0.6-0.3,0.8,0l0.2,0.2c0.3,0.5,0.8,0.7,1.3,0.7c0,0,0,0,0,0c0.1,0,0.2,0,0.2,0
              c0,0,0.1,0,0.1,0c0.1,0,0.1,0,0.2,0c0.1,0,0.2-0.1,0.3-0.1l0.2-0.1c0.1-0.1,0.3-0.1,0.4,0c0.1,0.1,0.2,0.2,0.2,0.4l0,0.3
              c0.1,0.8,0.7,1.5,1.5,1.6l0.3,0c0.2,0,0.3,0.1,0.4,0.2c0.1,0.1,0.1,0.3,0,0.4l-0.1,0.3c0,0,0,0,0,0c-0.2,0.5-0.2,1.1,0.1,1.6
              c0,0,0,0,0,0c0,0.1,0.1,0.1,0.1,0.2c0,0,0,0.1,0.1,0.1c0,0,0.1,0.1,0.1,0.1c0.1,0.1,0.1,0.1,0.2,0.2l0.2,0.2
              c0.1,0.1,0.2,0.2,0.2,0.4c0,0.2-0.1,0.3-0.2,0.4l-0.2,0.2c0,0,0,0,0,0c-0.1,0.1-0.2,0.1-0.2,0.2c0,0-0.1,0.1-0.1,0.1
              c0,0-0.1,0.1-0.1,0.1c0,0,0,0,0,0.1h-8.2c0.1-0.1,0.1-0.1,0.1-0.2c0,0,0,0,0,0c0.1-0.1,0.1-0.2,0.1-0.3c0,0,0-0.1,0-0.1
              c0-0.1,0-0.2,0-0.4v0l0,0l0,0c0-0.1,0-0.2,0-0.2c0-0.1,0-0.1,0-0.2c0-0.2-0.1-0.4-0.2-0.5c-0.1-0.2-0.3-0.4-0.4-0.5l-0.2-0.2
              c-0.2-0.1-0.2-0.4-0.2-0.6l0.1-0.2c0.1-0.1,0.1-0.2,0.1-0.4c0,0,0-0.1,0-0.1c0-0.1,0-0.2,0-0.3c0,0,0-0.1,0-0.1c0-0.1,0-0.2,0-0.2
              c0-0.1,0-0.1,0-0.2c0,0,0-0.1,0-0.1c0,0,0,0,0-0.1c0,0,0-0.1,0-0.1c0-0.1-0.1-0.1-0.1-0.2c0,0-0.1-0.1-0.1-0.1
              c-0.1-0.1-0.2-0.2-0.3-0.2c0,0,0,0-0.1-0.1C-421.9,274.3-421.9,274.1-421.9,273.9z M-425.3,267.2c0.4-0.6,1.2-0.7,1.7-0.3
              c0.3,0.2,0.5,0.5,0.5,0.8c0.1,0.3,0,0.7-0.2,0.9l-2.4,3.5c0,0,0,0,0,0l-1.2,1.7c-0.2,0.3-0.5,0.5-0.8,0.5c-0.3,0.1-0.7,0-0.9-0.2
              c0,0,0,0,0,0c-0.1-0.1-0.2-0.1-0.2-0.2c0,0,0,0,0-0.1c-0.1-0.1-0.1-0.2-0.1-0.3c0,0,0,0,0,0c0-0.1-0.1-0.2-0.1-0.3c0,0,0-0.1,0-0.1
              c0-0.1,0-0.2,0-0.3c0-0.2,0.1-0.3,0.2-0.5L-425.3,267.2z M-434.5,279.6l-0.2-0.2c-0.1-0.1-0.2-0.2-0.2-0.4s0.1-0.3,0.2-0.4l0.2-0.2
              c0.7-0.5,0.9-1.4,0.6-2.2l-0.1-0.2c-0.1-0.1-0.1-0.3,0-0.4c0.1-0.1,0.2-0.2,0.4-0.2l0.3,0c0.8-0.1,1.5-0.7,1.6-1.6l0-0.3
              c0-0.2,0.1-0.3,0.2-0.4c0.1-0.1,0.3-0.1,0.4,0l0.2,0.1c0.2,0.1,0.4,0.1,0.6,0.1c0,0,0,0,0,0c0,0,0,0,0,0c0,0.1,0,0.1,0.1,0.2
              c0,0.1,0,0.2,0.1,0.2c0,0.1,0.1,0.2,0.1,0.3c0,0.1,0.1,0.1,0.1,0.2c0.1,0.1,0.1,0.2,0.2,0.3c0,0,0.1,0.1,0.1,0.1
              c0.1,0.1,0.2,0.2,0.4,0.3c0.1,0.1,0.3,0.2,0.4,0.2c0,0,0.1,0,0.1,0.1c0.1,0,0.2,0.1,0.3,0.1c0,0,0.1,0,0.2,0c0.1,0,0.2,0,0.3,0
              c0,0,0.1,0,0.1,0c0,0,0,0,0,0c0.1,0,0.3,0,0.4,0c0.7-0.1,1.2-0.5,1.6-1l0.9-1.3c0.1,0.1,0.2,0.2,0.2,0.3l0,0.3
              c0.1,0.8,0.7,1.5,1.5,1.6l0.3,0c0.1,0,0.1,0,0.2,0.1c0,0,0,0,0.1,0c0,0,0.1,0.1,0.1,0.1c0,0,0,0,0,0.1c0,0.1,0.1,0.1,0.1,0.2
              c0,0,0,0,0,0c0,0.1,0,0.1,0,0.2l-0.1,0.2c-0.1,0.3-0.2,0.6-0.2,0.9c0,0,0,0,0,0c0,0.1,0,0.2,0,0.3c0.1,0.4,0.3,0.7,0.7,1l0.2,0.1
              l0.1,0c0.1,0.1,0.2,0.2,0.2,0.4c0,0.1,0,0.2-0.1,0.2c0,0,0,0,0,0c0,0-0.1,0.1-0.1,0.1l0,0l-0.2,0.2c-0.1,0.1-0.2,0.1-0.2,0.2
              c0,0,0,0.1-0.1,0.1c0,0.1-0.1,0.1-0.1,0.2c0,0,0,0,0,0H-434C-434.2,279.9-434.3,279.8-434.5,279.6z M-410.4,291.4
              c-0.8,0.4-1.5,1.1-1.9,1.9c-0.5,0.9-0.4,2.1,0.2,3.1c0,0.1,0,0.1,0,0.2c0,0-0.1,0.1-0.1,0.1h-14.2c-0.1,0-0.1,0-0.1-0.1
              c0,0,0-0.1,0-0.2c0.6-1,0.6-2.1,0.2-3.1c-0.4-0.8-1.1-1.5-1.9-1.9c-4.8-2.3-7.9-4.8-8.2-9.8c0-0.1,0-0.2,0.1-0.2
              c0,0,0.1-0.1,0.2-0.1h2h12.3h10h0h8.4h1.3c0.1,0,0.1,0,0.2,0.1c0,0,0.1,0.1,0.1,0.2C-402.5,286.6-405.5,289.1-410.4,291.4z">
        </path>
        <path class="st0" d="M-414.8,292.2h-5.4c-0.3,0-0.6,0.3-0.6,0.6c0,0.4,0.3,0.6,0.6,0.6h5.4c0.3,0,0.6-0.3,0.6-0.6
              C-414.1,292.5-414.4,292.2-414.8,292.2z">
        </path>
        <path class="st0" d="M-424.1,293.5h2.1c0.3,0,0.6-0.3,0.6-0.6c0-0.4-0.3-0.6-0.6-0.6h-2.1c-0.3,0-0.6,0.3-0.6,0.6
              C-424.8,293.2-424.5,293.5-424.1,293.5z">
        </path>
        <path class="st0" d="M-414.8,294.1h-9.4c-0.3,0-0.6,0.3-0.6,0.6c0,0.4,0.3,0.6,0.6,0.6h9.4c0.3,0,0.6-0.3,0.6-0.6
              C-414.1,294.4-414.4,294.1-414.8,294.1z">
        </path>
        <path class="st0" d="M-413,270.8c0.1,0.1,0.3,0.2,0.4,0.2c0.2,0,0.3-0.1,0.4-0.2c0.2-0.2,0.2-0.6,0-0.9l-1.8-1.8
              c-0.2-0.2-0.6-0.2-0.9,0c-0.2,0.2-0.2,0.6,0,0.9L-413,270.8z">
        </path>
        <path class="st0" d="M-409.4,274.4c0.1,0.1,0.3,0.2,0.4,0.2s0.3-0.1,0.4-0.2c0.2-0.2,0.2-0.6,0-0.9l-1.8-1.8
              c-0.2-0.2-0.6-0.2-0.9,0c-0.2,0.2-0.2,0.6,0,0.9L-409.4,274.4z">
        </path>
        <path class="st0" d="M-410.8,271c0.2,0,0.3-0.1,0.4-0.2l1.8-1.8c0.2-0.2,0.2-0.6,0-0.9c-0.2-0.2-0.6-0.2-0.9,0l-1.8,1.8
              c-0.2,0.2-0.2,0.6,0,0.9C-411.1,270.9-410.9,271-410.8,271z">
        </path>
        <path class="st0" d="M-407.3,276.3c0,0.4,0.3,0.6,0.6,0.6h2.5c0.3,0,0.6-0.3,0.6-0.6c0-0.4-0.3-0.6-0.6-0.6h-2.5
              C-407,275.7-407.3,276-407.3,276.3z">
        </path>
        <path class="st0" d="M-418.8,276.6c0.2,0,0.3-0.1,0.4-0.2l0.9-1c0.2-0.2,0.2-0.6,0-0.9s-0.6-0.2-0.9,0l-0.9,1
              c-0.2,0.2-0.2,0.6,0,0.9C-419.2,276.6-419,276.6-418.8,276.6z">
        </path>
        <path class="st0" d="M-415.8,278c0.1,0.1,0.3,0.2,0.4,0.2s0.3-0.1,0.4-0.2c0.2-0.2,0.2-0.6,0-0.9l-0.6-0.6c-0.2-0.2-0.6-0.2-0.9,0
              c-0.2,0.2-0.2,0.6,0,0.9L-415.8,278z">
        </path>
        <path class="st0" d="M-418.3,277.8l-0.6,0.6c-0.2,0.2-0.2,0.6,0,0.9c0.1,0.1,0.3,0.2,0.4,0.2s0.3-0.1,0.4-0.2l0.6-0.6
              c0.2-0.2,0.2-0.6,0-0.9C-417.7,277.5-418.1,277.5-418.3,277.8z">
        </path>
    </symbol>
    <symbol id="symbol-baby" viewBox="16 265 34 31">
        <path d="M24.1,276.6c-0.3-0.2-0.8-0.1-1,0.3l0,0c-0.2,0.3-0.1,0.8,0.3,1c0.1,0.1,0.2,0.1,0.3,0.1
              c0.3,0,0.5-0.1,0.6-0.4l0,0C24.5,277.3,24.4,276.8,24.1,276.6z">
        </path>
        <path d="M46.7,278.9c-1.1-4.3-4.2-7.9-8.5-9.6c-0.7-2.3-2.9-3.8-5.3-3.8c-2.5,0-4.6,1.6-5.3,3.8
              c-2.5,1-4.7,2.7-6.3,5c-1,1.4-1.7,3-2.2,4.6c-1.8,0.1-3.3,1.7-3.3,3.5c0,1.9,1.4,3.4,3.3,3.5c1.6,6.1,7.1,10.6,13.7,10.6
              c6.6,0,12.1-4.5,13.7-10.6c1.8-0.1,3.3-1.7,3.3-3.5C50,280.6,48.6,279,46.7,278.9z M17.4,282.4c0-1,0.7-1.8,1.6-2
              c-0.1,0.4-0.1,0.8-0.1,1.3c0,0,0,0,0,0c0,0.1,0,0.2,0,0.2c0,0,0,0.1,0,0.1c0,0.1,0,0.1,0,0.2c0,0.1,0,0.2,0,0.3
              c0,0.1,0,0.2,0,0.3c0,0,0,0.1,0,0.1c0,0.1,0,0.2,0,0.2c0,0,0,0.1,0,0.1c0,0.1,0,0.2,0,0.3c0,0,0,0.1,0,0.1c0,0.1,0,0.1,0,0.2
              c0,0.1,0,0.1,0,0.2c0,0.1,0,0.1,0,0.2c0,0.1,0,0.2,0,0.2c0,0,0,0.1,0,0.1C18.1,284.2,17.4,283.4,17.4,282.4z M33,266.8
              c1.4,0,2.7,0.7,3.4,1.8c0,0,0,0,0,0c0,0,0,0,0,0c0,0,0,0,0,0c-2.2,0-4,1.8-4,4c0,0.9,0.3,1.7,0.8,2.4c0,0-0.1,0-0.1,0
              c-2.3,0-4.1-1.8-4.1-4.1C28.9,268.7,30.7,266.8,33,266.8z M45.7,282.8C45.7,282.8,45.7,282.8,45.7,282.8c0,0.1,0,0.2,0,0.3
              c0,0,0,0,0,0.1c0,0.1,0,0.2,0,0.3c0,0,0,0,0,0.1c0,0.1,0,0.2,0,0.3c0,0,0,0.1,0,0.1c0,0.1,0,0.2,0,0.3c0,0,0,0.1,0,0.1
              c0,0.1,0,0.1,0,0.2c0,0,0,0.1,0,0.1c0,0.1,0,0.1,0,0.2c0,0.1,0,0.1,0,0.2c0,0,0,0.1,0,0.1c-1.2,5.8-6.3,10.1-12.5,10.1
              c-6.1,0-11.3-4.4-12.5-10.2c0-0.1,0-0.1,0-0.2c0-0.1,0-0.1,0-0.2c0-0.1,0-0.1,0-0.2c0,0,0-0.1,0-0.1c0-0.1,0-0.2,0-0.3
              c0,0,0,0,0,0c0-0.1,0-0.2,0-0.3c0,0,0,0,0,0c0-0.4-0.1-0.9-0.1-1.3c0-0.1,0-0.2,0-0.3c0,0,0-0.1,0-0.1c0-0.1,0-0.1,0-0.2
              c0,0,0-0.1,0-0.1c0-0.1,0-0.1,0-0.2c0-0.1,0-0.2,0-0.3c0,0,0,0,0,0c0.4-4.4,3.2-8.3,7.2-10.2c0,0,0,0,0,0c0,0.5,0.1,1,0.2,1.5
              c-1.3,0.7-2.4,1.6-3.3,2.7c-0.3,0.3-0.2,0.7,0.1,1c0.1,0.1,0.3,0.2,0.5,0.2c0.2,0,0.4-0.1,0.5-0.3c0.8-0.9,1.7-1.7,2.8-2.3
              c1,1.6,2.7,2.8,4.8,2.8c0.6,0,1.2-0.1,1.8-0.3c0.3-0.1,0.4-0.3,0.5-0.6c0-0.3-0.1-0.5-0.3-0.7c-0.8-0.5-1.2-1.3-1.2-2.2
              c0-1.4,1.1-2.6,2.5-2.6c4.7,1.3,8.2,5.1,9.2,9.7c0,0.1,0,0.2,0,0.2c0,0,0,0.1,0,0.1c0,0.1,0,0.1,0,0.2c0,0,0,0.1,0,0.1
              c0,0.1,0,0.1,0,0.2c0,0,0,0.1,0,0.1c0,0.2,0,0.4,0.1,0.6c0,0,0,0,0,0.1c0,0.1,0,0.2,0,0.2c0,0,0,0.1,0,0.1c0,0.1,0,0.2,0,0.2
              c0,0,0,0.1,0,0.1c0,0.1,0,0.2,0,0.3C45.7,282.5,45.7,282.6,45.7,282.8z M47,284.5c0-0.1,0-0.1,0-0.2c0-0.1,0-0.1,0-0.2
              c0-0.1,0-0.1,0-0.2c0,0,0-0.1,0-0.1c0-0.1,0-0.1,0-0.2c0,0,0-0.1,0-0.1c0-0.1,0-0.2,0-0.3c0,0,0-0.1,0-0.1c0-0.1,0-0.2,0-0.2
              c0,0,0-0.1,0-0.1c0-0.1,0-0.2,0-0.3c0-0.1,0-0.2,0-0.3c0,0,0-0.1,0-0.1c0-0.1,0-0.1,0-0.2c0,0,0-0.1,0-0.1c0-0.1,0-0.1,0-0.2
              c0,0,0-0.1,0-0.1c0,0,0-0.1,0-0.1c0,0,0-0.1,0-0.1c0,0,0-0.1,0-0.1c0,0,0-0.1,0-0.1c0-0.1,0-0.1,0-0.2c0-0.1,0-0.1,0-0.2
              c0-0.1,0-0.1,0-0.2c0.9,0.2,1.6,1.1,1.6,2C48.6,283.4,47.9,284.2,47,284.5z">
        </path>
        <path d="M30.5,283.2c-0.3-1.2-1.5-2.1-2.7-2.1c-1.3,0-2.4,0.9-2.7,2.1c-0.1,0.4,0.1,0.8,0.5,0.9
              c0.4,0.1,0.8-0.1,0.9-0.5c0.2-0.6,0.7-1.1,1.4-1.1c0.6,0,1.2,0.4,1.4,1.1c0.1,0.3,0.4,0.5,0.7,0.5c0.1,0,0.1,0,0.2,0
              C30.4,284,30.6,283.6,30.5,283.2z">
        </path>
        <path d="M38.3,281.1c-1.3,0-2.4,0.9-2.7,2.1c-0.1,0.4,0.1,0.8,0.5,0.9c0.4,0.1,0.8-0.1,0.9-0.5
              c0.2-0.6,0.7-1.1,1.4-1.1c0.6,0,1.2,0.4,1.4,1.1c0.1,0.3,0.4,0.5,0.7,0.5c0.1,0,0.1,0,0.2,0c0.4-0.1,0.6-0.5,0.5-0.9
              C40.7,282,39.5,281.1,38.3,281.1z">
        </path>
        <path d="M35.2,288.2c-0.4-0.1-0.8,0.1-0.9,0.5c-0.2,0.6-0.7,1.1-1.4,1.1c-0.6,0-1.2-0.4-1.4-1.1
              c-0.1-0.4-0.5-0.6-0.9-0.5c-0.4,0.1-0.6,0.5-0.5,0.9c0.3,1.2,1.5,2.1,2.7,2.1c1.3,0,2.4-0.9,2.7-2.1
              C35.8,288.7,35.6,288.3,35.2,288.2z">
        </path>
    </symbol>
    <symbol id="symbol-shopping-bag" viewBox="0 0 490 490">
        <path d="M211.7,457.75c0-5.5-4.4-9.9-9.9-9.9H63.7c-24.2,0-43.8-19.7-43.8-43.8v-285.5h60v37.3
              c0,5.5,4.4,9.9,9.9,9.9s9.9-4.4,9.9-9.9v-37.3H219v37.3c0,5.5,4.4,9.9,9.9,9.9s9.9-4.4,9.9-9.9v-37.3h60v19.5
              c0,5.5,4.4,9.9,9.9,9.9s9.9-4.4,9.9-9.9v-29.4c0-5.5-4.4-9.9-9.9-9.9h-70c-1.7-42.3-36.6-76.3-79.4-76.3s-77.7,33.9-79.4,76.3h-70
              c-5.5,0-9.9,4.4-9.9,9.9v295.4c0,35.1,28.5,63.6,63.6,63.6h138.1C207.3,467.65,211.7,463.15,211.7,457.75z M159.3,42.25
              c31.8,0,57.9,25.1,59.6,56.5H99.7C101.4,67.35,127.5,42.25,159.3,42.25z">
        </path>
        <path d="M295.8,221.75v11.3h-54.5c-5.5,0-9.9,4.4-9.9,9.9v173.7c0,28.1,22.8,50.9,50.9,50.9h156.9
              c28.1,0,50.9-22.8,50.9-50.9v-173.7c0-5.5-4.4-9.9-9.9-9.9h-54.5v-11.3c0-35.8-29.1-65-65-65
              C324.9,156.85,295.8,185.95,295.8,221.75z M415.8,287.35c5.5,0,9.9-4.4,9.9-9.9v-24.6h44.6v163.8c0,17.2-14,31.1-31.1,31.1H282.3
              c-17.2,0-31.1-14-31.1-31.1v-163.8h44.6v24.6c0,5.5,4.4,9.9,9.9,9.9s9.9-4.4,9.9-9.9v-24.6h90.3v24.6
              C405.9,282.95,410.3,287.35,415.8,287.35z M405.9,221.75v11.3h-90.3v-11.3c0-24.9,20.3-45.2,45.2-45.2
              C385.6,176.65,405.9,196.85,405.9,221.75z">
        </path>
    </symbol>
    <symbol id="symbol-lean" viewBox="0 0 36 18">
        <path d="M36,9.5c-0.1-1.4-0.7-2.8-1.8-3.8c-1-1-2.4-1.8-4.4-2.4c-2-0.7-4-1-5.9-1c0,0,0,0,0,0c-0.8-1-1.9-1.4-3-0.9
              c-0.5-0.8-1.8-1.4-3-1.4c-0.8,0-1.4,0.4-1.7,1c-0.6-0.4-2.2-1.2-3.4-0.3c-0.2,0.2-0.4,0.4-0.5,0.6c-1.1,0-2.4,0.3-3.4,0.6L8.5,2
              C7.2,2.3,5.9,2.7,4.9,3.3C3.2,4.1,1.1,5.5,0.3,7.8c-0.8,2.2,0.1,4.5,2.2,6.3c1.8,1.5,4,2.6,6,2.9c0,0,0,0,0.1,0
              c1.5,0.5,3.1,0.6,4.6,0.7l0.3,0c1.7,0.1,3.4,0.2,5,0.2c0.2,0,0.5,0,0.7,0c2.7,0,5.2-0.3,7.7-1c2.6-0.7,5.5-1.6,7.6-3.7
              C35.5,12.1,36.1,10.9,36,9.5z M23.1,2.1c0.3,0.3,0.5,0.6,0.7,0.9c0.1,0.2,0.2,0.3,0.3,0.5c0.3,0.5,0.8,0.7,1.3,0.9
              c0.5,0.2,1.1,0.4,1.2,1c0,0,0,0,0,0c-0.4-0.2-0.9-0.1-1.3,0C24.6,5.7,24,6.3,23.6,7c-0.1-0.1-0.1-0.2-0.2-0.3c0.2-0.3,0.3-0.7,0.2-1
              c0-0.1-0.1-0.1-0.1-0.1c0,0,0,0,0,0c-0.1,0-0.1,0-0.1,0.1c0,0.2-0.1,0.4-0.1,0.6C23.2,6.2,23.1,6,23,5.8c0.3-0.7,0.6-1.7,0.2-2.3
              c0-0.1-0.1-0.1-0.2-0.1c-0.1,0-0.1,0.1-0.1,0.1c0,0.1,0,0.2,0,0.4c0,0.3,0,0.5,0,0.8c0,0.2-0.1,0.4-0.1,0.6
              c-0.1-0.3-0.2-0.6-0.2-0.8c-0.1-0.3-0.1-0.5-0.2-0.8c0-0.1-0.1-0.1-0.2-0.1c-0.1,0-0.1,0.1-0.1,0.1c0,0.5,0.1,1.1,0.3,1.6
              c-0.1,0-0.2-0.1-0.3-0.1c-0.1,0-0.1,0-0.2,0.1c0,0.1,0,0.1,0,0.2c0.2,0.2,0.4,0.3,0.7,0.4c0.3,0.5,0.6,1,0.9,1.4
              c0,0.2-0.1,0.3-0.1,0.5c-0.4-0.3-0.8-0.4-1.2-0.1c-0.1,0-0.1,0.1-0.1,0.1c-0.1,0-0.2-0.1-0.3-0.1c-0.1,0-0.3-0.1-0.4-0.2
              c-0.1-0.1-0.2-0.1-0.3-0.2c0.3-0.6,0.5-1.4,0.5-1.9c0.2-0.4,0.3-0.8,0.2-1.2c-0.1-0.4-0.4-0.8-0.8-1.1c0.3-0.5,0.3-1.2,0.1-1.7
              C21.9,1.5,22.6,1.5,23.1,2.1z M9.7,9.1C9.7,9.1,9.7,9.1,9.7,9.1C9.7,9.1,9.7,9.1,9.7,9.1C9.7,9.1,9.7,9.1,9.7,9.1z M7.6,7.4
              c0,0,0-0.1,0-0.1c0,0,0,0,0,0C7.6,7.3,7.6,7.3,7.6,7.4z M16.9,1.7C17,1.7,17,1.6,17.1,1.6c0,0,0.1-0.1,0.1-0.1
              c-0.1,0.1-0.3,0.2-0.4,0.4c0,0-0.1,0-0.1-0.1C16.8,1.8,16.9,1.8,16.9,1.7z M16.4,5.3c0.1-0.1,0.1-0.1,0.2-0.2c0.1-0.1,0.5-0.1,0.6,0
              c0,0.1,0,0.1,0,0.1c0,0.1-0.1,0.2-0.3,0.2C16.7,5.5,16.5,5.4,16.4,5.3z M19.8,3.5c0.1-0.2,0.1-0.4,0.1-0.6C20,3,20.1,3.2,20.1,3.4
              c0,0-0.1,0-0.1,0C19.9,3.5,19.9,3.5,19.8,3.5z M19.6,3c0,0.1,0,0.2-0.1,0.2c0,0,0,0.1,0,0.1c0,0-0.1,0-0.1,0
              c0.1-0.2,0.2-0.3,0.2-0.5C19.6,2.9,19.6,3,19.6,3z M18.6,3c0.1-0.1,0.1-0.2,0.2-0.3l0.1-0.1C18.9,2.5,19,2.3,19,2.2c0,0,0,0,0,0
              l0,0.1c0,0.1-0.1,0.3-0.1,0.4c0,0.1,0,0.1-0.1,0.2c0,0.1-0.1,0.2-0.1,0.3C18.7,3.1,18.7,3,18.6,3z M18.6,2.4
              C18.6,2.4,18.6,2.4,18.6,2.4l0,0.1L18.6,2.4l-0.1,0.2c0,0.1-0.1,0.2-0.1,0.3c0,0-0.1-0.1-0.1-0.1C18.4,2.6,18.5,2.5,18.6,2.4z
              M19.3,2.2C19.3,2.2,19.3,2.2,19.3,2.2c0,0.2,0,0.3,0,0.5c0,0.1,0,0.2-0.1,0.2c0,0.1-0.1,0.2-0.1,0.3c0,0-0.1,0-0.1-0.1
              C19.2,3,19.3,2.5,19.3,2.2z M16.6,1.5c0-0.1,0.1-0.1,0.1-0.1c0.1,0,0.2-0.1,0.3-0.1c0,0,0,0,0,0l0,0C16.8,1.4,16.7,1.5,16.6,1.5
              C16.5,1.6,16.5,1.6,16.6,1.5C16.5,1.6,16.5,1.5,16.6,1.5z M16,5.1c0,0.1,0,0.2,0,0.3c0,0.1,0.1,0.1,0.1,0.1c0,0,0,0,0,0
              c0,0.1,0.1,0.2,0.2,0.2c0.2,0.2,0.6,0.1,0.8,0.1c0.2-0.1,0.5-0.4,0.5-0.6c0-0.1,0-0.2-0.1-0.3c0.1-0.7,0.3-1.3,0.6-1.8
              c0,0,0.1,0.1,0.1,0.1c0,0.1,0,0.2,0,0.3c-0.2,0.3-0.5,0.8-0.6,1.3c0,0.1,0,0.1,0.1,0.1c0.1,0,0.1,0,0.2-0.1c0.2-0.2,0.3-0.5,0.4-0.8
              c0.1,0.6,0.5,1.4,1.1,1.8c0.1,0,0.1,0,0.2,0c0.1,0,0.1-0.1,0-0.2c-0.1-0.2-0.2-0.4-0.3-0.6c-0.1-0.2-0.3-0.4-0.4-0.7
              c0.1,0.1,0.3,0.2,0.4,0.2l0.1,0c0.3,0.2,0.6,0.3,1,0.4c0.1,0,0.1,0,0.2-0.1c0-0.1,0-0.1-0.1-0.2c-0.2-0.1-0.4-0.3-0.7-0.4
              c-0.1,0-0.2-0.1-0.3-0.2c-0.1-0.1-0.2-0.1-0.3-0.2C19,4.1,18.8,4,18.7,3.9c0-0.2-0.1-0.3-0.1-0.5C19,3.7,19.8,4,20.4,3.8
              c0.1,0,0.2-0.1,0.3-0.2C21,4,21.3,4.3,21.3,4.8c0,0.7-0.6,1-1.1,1.2c-0.7,0.2-1.4,0.2-2.1,0.1l-0.2,0C17,6.1,15.7,6,14.8,6.6
              c-0.1-0.5-0.2-1-0.5-1.5c0.1-0.2,0.2-0.4,0.3-0.6C14.8,4.2,15,4,15.1,3.7C15,4.1,15,4.5,15.2,4.9c0,0.1,0.1,0.1,0.2,0.1
              c0.1,0,0.1-0.1,0.1-0.1c0-0.2,0-0.3,0-0.5c0-0.2,0-0.4,0.1-0.6c0.1-0.3,0.2-0.7,0.4-1.1c0.2-0.2,0.4-0.4,0.6-0.6
              c0.1,0.1,0.2,0.2,0.3,0.2C16,3.2,15.8,4.2,16,5.1z M9.5,13.1c0,0.1-0.1,0.2-0.1,0.2c0,0.1,0,0.1,0.1,0.2c0,0,0.1,0,0.2,0
              c0.1-0.1,0.2-0.2,0.3-0.3l0.1-0.1c0,0,0,0,0.1-0.1c0,0.1,0,0.1,0.1,0.2c0,0,0,0-0.1,0c-0.1,0-0.1,0-0.1,0.1c0,0,0,0,0,0.1
              c0,0.1-0.1,0.2-0.1,0.3c-0.4-0.2-0.8-0.3-1.2-0.6C8.9,13.2,9.2,13.2,9.5,13.1z M10.2,13.6C10.2,13.6,10.2,13.6,10.2,13.6
              c0.2,0.2,0.5,0.5,0.9,0.6c-0.3-0.1-0.7-0.2-1-0.4C10.1,13.8,10.1,13.7,10.2,13.6z M11.3,9.8c0-0.2,0-0.3,0-0.5c0-0.4,0.1-0.7,0.2-1
              c0.7,0.2,1.5,0.4,2.2,0.1c-0.3,0.7-0.2,1.5,0.2,2.3c-0.8,0.1-1.7-0.1-2.2-0.4C11.4,10.2,11.3,10.2,11.3,9.8z M22.4,8.1
              c0-0.1,0.2-0.1,0.5-0.1c0.4,0,0.6,0.4,0.9,0.8c0.3,0.4,0.6,0.9,1.2,1c0.6,0.1,1.2-0.1,1.6-0.5l0.2-0.1c0,0,0,0,0,0
              c0,0.4,0,0.7-0.2,1.1c-0.2,0.3-0.5,0.7-0.9,1c-0.8,0.6-1.4,0.6-2.5,0.5c0.3-0.1,0.5-0.2,0.6-0.5c0.2-0.3,0.1-0.6,0-1
              c-0.2-0.4-0.4-0.7-0.7-1C22.4,8.5,22.4,8.3,22.4,8.1z M21.5,13.1c0,0.1-0.1,0.1-0.1,0.2c0,0,0,0,0,0c0-0.1,0-0.1,0-0.2
              C21.4,13.1,21.5,13.1,21.5,13.1z M23.5,11C23.5,11,23.4,11,23.5,11c0,0-0.1,0-0.1-0.1c0,0-0.1-0.1-0.1-0.1c-0.1-0.1-0.2-0.3-0.3-0.4
              l0,0c0,0,0,0,0-0.1c0,0,0,0,0,0l0,0c0,0.1,0.1,0.2,0.1,0.3l0,0.1C23.3,10.8,23.3,10.9,23.5,11C23.5,11,23.5,11,23.5,11z M27.5,6.1
              c0,0.1-0.1,0.2-0.1,0.2c0,0,0,0.1-0.1,0.1c0,0,0,0,0,0.1c0,0,0-0.1,0-0.1l0,0C27.3,6.3,27.4,6.2,27.5,6.1L27.5,6.1
              C27.5,6.1,27.5,6.1,27.5,6.1C27.5,6,27.5,6,27.5,6.1C27.5,6.1,27.5,6.1,27.5,6.1z M18.2,10.1C18.2,10.1,18.2,10.1,18.2,10.1
              C18.2,10.1,18.2,10.1,18.2,10.1C18.2,10.1,18.2,10.1,18.2,10.1z M17.4,12.4c0.1,0.1,0.1,0.1,0.2,0.2c0.2,0.6,0.7,1.3,1.4,1.4
              c0.1,0,0.1,0,0.2-0.1c0-0.1,0-0.1,0-0.2c-0.1-0.1-0.2-0.2-0.3-0.3c-0.1-0.1-0.3-0.2-0.4-0.3c0,0,0,0,0,0c0.5,0.3,1.3,0.6,2,0.5
              c0.1,0,0.1-0.1,0.1-0.1c0-0.1,0-0.1-0.1-0.2c-0.2-0.1-0.5-0.2-0.7-0.2c-0.3-0.1-0.6-0.1-0.8-0.3c-0.1,0-0.2-0.1-0.3-0.1
              c0.4,0,0.8,0,1.1,0c0.1,0,0.1-0.1,0.1-0.1c0-0.1,0-0.1-0.1-0.1c-0.4-0.1-0.9-0.1-1.4-0.1c0.5-0.1,1.2-0.4,1.5-0.9
              c0.1,0.1,0.2,0.2,0.3,0.3c0.6,0.7,1.2,1.3,1.1,2.3c-0.2,0-0.4,0-0.6,0.1c-0.6,0.1-1.2,0.1-1.8,0c-0.8-0.1-1.5-0.5-2.1-0.9
              c0.1-0.3,0.2-0.5,0.2-0.8C16.9,12.4,17.2,12.4,17.4,12.4z M19.9,10.5c0-0.1-0.1-0.1-0.2-0.1l0,0c-0.1-0.2-0.4-0.4-0.6-0.5l-0.1-0.1
              c-0.3-0.2-0.6-0.4-0.9-0.5c0.1-0.2,0.2-0.3,0.3-0.4c0.3,0.1,0.6,0.2,0.9,0.3c0.1,0.7,0.7,1.4,1.3,1.5c0.1,0,0.1,0,0.2-0.1
              c0-0.1,0-0.1-0.1-0.2c-0.4-0.2-0.6-0.4-0.8-0.7c-0.1-0.1-0.1-0.2-0.2-0.3c0.2,0.1,0.3,0.2,0.5,0.3c0.3,0.2,0.6,0.5,0.8,0.7
              c0.2,0.2,0.4,0.4,0.6,0.5c0.1,0,0.1,0,0.2,0c0.1,0,0.1-0.1,0-0.2c-0.3-0.6-0.9-1.2-1.7-1.6c0.3,0,0.6,0,0.9,0c0,0,0,0,0,0
              c0.1,0,0.1,0,0.1-0.1c0-0.1,0-0.1-0.1-0.2c-0.5-0.2-1.2-0.2-1.8-0.1c-0.3-0.1-0.6-0.2-0.9-0.2c0-0.1,0.1-0.1,0.1-0.2
              C19,8.2,19.1,8,19.1,7.7c0,0,0,0,0.1,0c1.3,0.2,3,1.2,3.4,2.5c0.2,0.5,0.2,1.1,0,1.5c0,0.1,0,0.1-0.1,0.2c0,0,0,0.1,0,0.1
              c-0.2,0.4-0.7,0.5-1.2,0.6c-0.3-0.7-0.9-1.3-1.4-1.6c0-0.1,0.1-0.2,0.1-0.3c0,0,0,0,0-0.1C20,10.6,20,10.5,19.9,10.5z M27.2,10.2
              c0,0.1,0,0.3-0.1,0.4l-0.2,0l0.1,0c-0.1,0.6-0.5,1.1-1,1.4c-1.1,0.8-2.2,0.5-3,0c0.4,0.1,0.7,0.2,1,0.2c0.7,0,1.3-0.2,1.9-0.7
              c0.3-0.2,1-0.9,1.2-1.6C27.1,10,27.2,10.1,27.2,10.2z M22.7,12.5c0.3,0.3,0.7,0.5,1.2,0.6c0.9,0.1,2-0.1,2.6-0.6
              c0.5-0.4,0.8-0.9,1-1.4c0.1,0,0.1,0.1,0.2,0.1c0.1,0,0.1,0.1,0.2,0.1c0.3,0.1,0.5,0.3,0.5,0.5c0,0.2-0.1,0.5-0.4,0.8
              c-0.5,0.6-1.1,0.9-2,1.2c-1.8,0.5-3.1,0.3-4-0.7C22.3,12.8,22.5,12.7,22.7,12.5z M28.3,10.9c0.1,0,0.2,0,0.3,0c0,0,0,0.1,0,0.1l0,0
              c0,0,0,0,0,0C28.5,11,28.4,10.9,28.3,10.9z M27.6,10.6L27.6,10.6c0.1-0.8-0.1-1.5-0.6-2.2c0,0-0.1-0.1-0.1-0.1c0,0,0,0-0.1,0
              c-0.2-0.2-0.5-0.2-0.9-0.1c0.2-0.2,0.4-0.4,0.6-0.5c0.1,0,0.2,0,0.3,0c0.2,0,0.4,0,0.6-0.1c0,0.1-0.1,0.2-0.1,0.3c0,0,0,0.1,0,0.1
              c0,0,0.1,0.1,0.1,0.1c0.5,0.2,1,0.1,1.4-0.2c0.4,0.2,0.7,0.4,0.9,0.7c0.3,0.5,0,1.1-0.3,1.5c-0.4,0.3-0.9,0.4-1.4,0.4
              C28,10.6,27.8,10.6,27.6,10.6C27.6,10.6,27.6,10.6,27.6,10.6z M26.5,8.8C26.5,8.8,26.5,8.8,26.5,8.8c-0.1,0-0.1-0.1-0.1-0.2
              c0,0,0.1,0,0.1,0C26.5,8.6,26.5,8.7,26.5,8.8C26.5,8.7,26.5,8.7,26.5,8.8L26.5,8.8z M25.4,9.1L25.4,9.1c-0.1-0.1-0.1-0.2-0.2-0.3
              c0,0,0,0,0,0c0,0,0.1,0,0.1,0l0,0c0,0,0,0.1,0.1,0.1l0.1,0.2c0,0,0,0.1,0,0.1c0,0.1,0.1,0.1,0.1,0.2c0,0-0.1,0-0.1,0
              C25.5,9.3,25.4,9.2,25.4,9.1z M25.9,9L25.9,9C26,9.1,26,9.2,26.1,9.2c0,0-0.1,0.1-0.1,0.1c0-0.1-0.1-0.2-0.1-0.3l0,0l0,0
              c-0.1-0.1-0.1-0.2-0.2-0.3c0,0,0.1,0,0.1,0C25.8,8.8,25.9,8.9,25.9,9z M24.9,9C25,9.1,25,9.1,25,9.2l0,0.1c0,0.1,0.1,0.1,0.1,0.2
              c0,0-0.1,0-0.1,0c0-0.1-0.1-0.2-0.1-0.3c0-0.1-0.1-0.1-0.1-0.2C24.8,9,24.9,9,24.9,9z M14.9,8.7C14.9,8.6,14.9,8.6,14.9,8.7
              c0.1-0.2,0.2-0.2,0.3-0.3c0,0,0,0,0,0c0,0,0,0,0,0C15.1,8.5,15,8.6,14.9,8.7C14.9,8.7,14.9,8.7,14.9,8.7C14.9,8.7,14.9,8.7,14.9,8.7
              z M15.2,8.8L15.2,8.8c0.1-0.1,0.1-0.2,0.2-0.3c0,0,0,0,0,0c0,0-0.1,0.1-0.1,0.1C15.3,8.8,15.3,8.8,15.2,8.8
              C15.2,8.9,15.2,8.9,15.2,8.8C15.2,8.9,15.2,8.8,15.2,8.8z M24.5,9.2c0,0,0.1,0.1,0.1,0.1C24.6,9.2,24.5,9.2,24.5,9.2
              C24.5,9.2,24.5,9.2,24.5,9.2z M26.8,8.9C26.8,8.9,26.9,8.9,26.8,8.9c0,0-0.1,0.1-0.1,0.1c0,0.1,0,0.1,0,0.2l-0.2,0
              C26.7,9.1,26.8,9,26.8,8.9z M20.6,7.4c-0.1,0.1-0.1,0.2-0.2,0.3c-0.2-0.1-0.4-0.1-0.6-0.2c0.2-0.1,0.4-0.2,0.6-0.4
              c0.1-0.1,0.3-0.2,0.4-0.3C20.8,7,20.7,7.2,20.6,7.4z M20.2,6.8c-0.3,0.2-0.6,0.3-0.9,0.4c-0.1,0-0.2,0.1-0.2,0.1
              c-0.1-0.2-0.3-0.4-0.7-0.6c-0.7-0.3-1.2,0.3-1.5,0.8c-0.1,0.1-0.1,0.2-0.2,0.3c-0.1,0.2-0.3,0.5-0.5,0.7c-0.2-0.2-0.5-0.4-0.7-0.6
              c-0.2-0.1-0.4-0.2-0.7-0.3c0.1-0.2,0.1-0.5,0.1-0.8c0.9-0.5,1.9-0.5,3-0.4c0.9,0.1,1.9,0.1,2.8-0.2c0,0,0,0,0,0
              C20.5,6.5,20.4,6.7,20.2,6.8z M15.5,9.3c0.8-0.1,1.1-0.6,1.4-1.2c0.1-0.2,0.3-0.5,0.5-0.7c0.2-0.2,0.7-0.3,1-0.2
              c0.2,0.1,0.3,0.3,0.3,0.6c0,0.2-0.2,0.4-0.4,0.6c-0.1,0.1-0.1,0.2-0.2,0.2c-0.2,0.3-0.5,0.8-0.5,1.3c0.1,0.9,1.1,0.9,1.8,0.9
              c-0.8,1.1-2.3,1.4-3.7,0.9c-0.7-0.3-1.3-0.8-1.5-1.4c-0.2-0.5-0.2-1.1,0-1.8c0,0.1,0.1,0.2,0.2,0.4C14.6,9.2,15,9.3,15.5,9.3z
              M31.1,7.4c-0.4,0.5-0.6,1-0.8,1.4c0-0.2-0.1-0.4-0.2-0.6c0.2-0.3,0.4-0.8,0.5-1.1l0-0.1C30.9,7.1,31,7.3,31.1,7.4
              C31.1,7.4,31.1,7.4,31.1,7.4z M26.8,6.3c0,0.1,0.1,0.2,0.1,0.4c0,0.2,0.1,0.4,0.2,0.6c-0.2,0-0.3,0-0.5,0c-0.5-0.2-1.3-0.3-1.8-0.1
              c-0.1,0-0.1,0.1-0.1,0.2c0,0.1,0.1,0.1,0.1,0.1c0.3,0,0.5,0,0.8,0.1c-0.5,0.1-0.9,0.4-1.3,0.6c-0.1,0-0.1,0.1,0,0.2
              c0,0.1,0.1,0.1,0.2,0.1l0.2-0.1C25,8.1,25.4,8,25.8,7.9c-0.2,0.2-0.4,0.3-0.5,0.5c-0.4,0.1-0.8,0.2-1.1,0.6
              c-0.1-0.1-0.2-0.3-0.3-0.4c-0.1-0.1-0.1-0.2-0.2-0.3c0,0-0.1-0.1-0.1-0.1C23.7,7.5,24,7,24.5,6.5c0.4-0.4,1.1-0.9,1.6-0.8
              c0.3,0,0.5,0.2,0.6,0.5C26.7,6.2,26.7,6.3,26.8,6.3z M22.9,9.9c-0.1-0.1-0.1-0.3-0.2-0.4c0,0,0,0,0.1,0.1
              C22.8,9.7,22.9,9.8,22.9,9.9C22.9,9.9,22.9,9.9,22.9,9.9z M21.2,8.1c0.2,0.1,0.5,0.2,0.7,0.2c0,0.1,0,0.3,0.1,0.5
              C21.8,8.5,21.5,8.3,21.2,8.1z M20.8,7.8C20.8,7.8,20.8,7.8,20.8,7.8C20.8,7.8,20.8,7.8,20.8,7.8C20.8,7.8,20.8,7.8,20.8,7.8z
              M14.1,11c0.1,0.1,0.1,0.2,0.2,0.2c-0.1,0-0.2,0.1-0.2,0.1c0,0,0,0,0,0c-0.9-0.2-2,0.1-2.7,0.7c0,0-0.1,0.1,0,0.2
              c0,0.1,0.1,0.1,0.2,0.1c0.1,0,0.2-0.1,0.3-0.1c0.3-0.1,0.6-0.3,0.9-0.3c0.3-0.1,0.6-0.1,0.9-0.1c-0.5,0.4-1.1,0.9-1.4,1.5
              c0,0.1,0,0.1,0,0.2c0.1,0,0.1,0,0.2,0c0.1-0.1,0.3-0.3,0.4-0.4c0.2-0.2,0.4-0.4,0.6-0.6c0.2-0.2,0.3-0.3,0.5-0.4c0,0,0,0,0,0
              c0,0.1,0.1,0.3,0.1,0.4c0,0.1,0,0.1,0,0.2c0,0.1,0,0.2,0,0.3c0,0.1,0.1,0.1,0.1,0.1c0.1,0,0.1,0,0.2-0.1c0.2-0.4,0.1-0.9-0.1-1.2
              c0.1-0.1,0.2-0.1,0.3-0.2c0.3,0.3,0.6,0.5,0.9,0.6c0.2,0.1,0.6,0.2,0.9,0.3c-0.3,0.9-0.8,1.4-1.8,1.6c-0.7,0.2-1.5,0.2-2.4,0.1
              c-0.8-0.1-1.3-0.3-1.6-0.7c-0.2-0.3-0.2-0.6-0.1-1c0.2-0.8,0.8-1.3,1.7-1.5c0.2,0.1,0.4,0.1,0.5,0.1C13.2,11.1,13.7,11.2,14.1,11z
              M15.1,14.3c0.1,0,0.1,0,0.2-0.1c0,0,0,0,0,0c-0.1,0.1-0.2,0.2-0.2,0.4c0,0,0,0.1,0.1,0.1c0,0,0.1,0,0.1,0c0.2,0,0.3-0.2,0.4-0.3
              l0-0.1c0.1-0.1,0.2-0.3,0.3-0.5c0,0,0,0,0-0.1c0.1-0.1,0.3-0.2,0.4-0.3c0.1,0.1,0.1,0.1,0.2,0.2c0,0.1-0.1,0.2-0.1,0.2
              c-0.1,0.1-0.1,0.2-0.2,0.4c0,0.1,0,0.1,0,0.2c0,0,0.1,0.1,0.2,0c0.2-0.1,0.3-0.3,0.4-0.6c0.2,0.1,0.5,0.3,0.7,0.4c0,0,0,0,0,0.1
              c0,0.1-0.1,0.2-0.1,0.3c0,0,0,0.1,0.1,0.1c0,0,0.1,0,0.1,0c0.1-0.1,0.1-0.1,0.2-0.2l0,0c0,0,0-0.1,0-0.1c0.2,0.1,0.5,0.1,0.7,0.2
              c0,0.1,0,0.2,0,0.3c0,0,0,0.1,0.1,0.1c0,0,0.1,0,0.1,0c0.1-0.1,0.2-0.2,0.2-0.3c0.6,0.1,1.5,0,2.2-0.4c0,0,0.1-0.1,0.1-0.1
              c0,0,0,0,0,0c0-0.1,0-0.1,0.1-0.2c0,0,0,0,0,0c0.2-0.1,0.4-0.4,0.5-0.7c0.1,0.1,0.2,0.2,0.3,0.3c0,0,0,0,0,0c0,0.1-0.1,0.2-0.1,0.3
              l0,0.1c0,0.1-0.1,0.2-0.1,0.2c0,0.1,0,0.1,0.1,0.2c0,0,0.1,0,0.1,0c0.2-0.1,0.3-0.2,0.4-0.5c0.2,0.2,0.5,0.3,0.9,0.4
              c0,0.1-0.1,0.2-0.1,0.2c0,0.1,0,0.1,0.1,0.1c0,0,0.1,0,0.1,0c0,0,0.1-0.1,0.1-0.1l0-0.1c0-0.1,0-0.1,0.1-0.1c0,0,0,0,0,0
              c0.7,0.1,1.5,0,2.3-0.2c-1,0.3-2,0.5-2.8,0.6c-3.1,0.5-7.4,0.9-11.6-0.3C12.8,14.7,14,14.6,15.1,14.3z M30,12
              c-1,0.9-2.2,1.5-3.4,1.9c0.1,0,0.2-0.1,0.3-0.1c0.7-0.3,1.7-1,1.9-1.8c0-0.2,0-0.4-0.1-0.6c0.1-0.2,0.2-0.4,0.2-0.5
              c0.1,0,0.3-0.1,0.4-0.1c0,0.1-0.1,0.2-0.1,0.3l-0.1,0.2c-0.1,0.1-0.1,0.3-0.1,0.5c0,0.1,0,0.1,0.1,0.2c0,0,0,0,0.1,0
              c0,0,0.1,0,0.1-0.1l0,0c0.2-0.2,0.3-0.6,0.4-0.9c0-0.1,0-0.1,0-0.2c0-0.1,0-0.1-0.1-0.2c0.2-0.2,0.4-0.4,0.6-0.7
              c0-0.1,0.1-0.2,0.1-0.3c0,0,0,0,0,0c0,0,0.1,0,0.1-0.1c0.2-0.3,0.4-0.7,0.5-1c0.1-0.2,0.2-0.5,0.3-0.7c0.3,0.4,0.5,0.8,0.5,1.2
              C31.9,9.9,31.3,11,30,12z M30.4,6.8c0,0.1-0.1,0.1-0.1,0.2c-0.2,0.3-0.3,0.6-0.5,1c-0.1-0.1-0.2-0.1-0.3-0.2
              c0.1-0.1,0.1-0.2,0.1-0.3l0-0.1c0-0.1,0.1-0.3,0.1-0.4c0-0.1,0-0.1-0.1-0.1l0,0c0.1-0.1,0.1-0.3,0.1-0.4C30,6.5,30.2,6.6,30.4,6.8z
              M29.4,5.4c0.1,0.5,0.1,1.1-0.2,1.6v0c-0.1,0.3-0.3,0.5-0.5,0.7c-0.1,0.1-0.6,0.2-0.8,0.2c0,0,0,0,0,0c0,0,0,0,0,0
              c0-0.1,0.1-0.4,0.1-0.5c0-0.2,0.1-0.3,0.1-0.3c0-0.3,0.1-0.7-0.1-1c-0.1-0.2-0.2-0.3-0.4-0.4c-0.2,0-0.4,0-0.6,0.2c0,0,0,0,0,0
              c0.2-0.2,0.3-0.6,0.2-0.8c-0.1-0.3-0.4-0.6-0.7-0.7l-0.1-0.1l0,0.1c0,0-0.1,0-0.1,0c0,0,0,0-0.1,0c0.7-0.3,1.5-0.3,2.1-0.1
              C28.9,4.4,29.2,4.8,29.4,5.4z M20.7,2.9c0,0.2-0.1,0.3-0.2,0.4c0-0.3-0.1-0.6-0.3-0.9c-0.4-0.5-1-0.7-1.4-0.5
              c-0.5,0.2-0.8,0.7-1.1,1.2c-0.3,0.6-0.4,1.1-0.5,1.7c-0.2-0.1-0.6-0.1-0.9,0c0-0.6,0.1-1.1,0.4-1.6C17,2.7,17.3,2.4,17.7,2
              c0.2-0.2,0.3-0.3,0.4-0.5c0,0,0-0.1,0-0.1c0,0,0-0.1,0-0.1c-0.1-0.2-0.2-0.4-0.5-0.4c-0.2-0.1-0.5-0.1-0.8,0
              c0.4-0.3,0.8-0.4,1.3-0.4c0.5,0,1.3,0.1,1.9,0.7C20.5,1.5,20.8,2.3,20.7,2.9z M9.5,3.4c0.2,0.5,0.5,1,0.9,1.5c0,0.7,0.5,1.8,1.1,2.2
              c0.1,0,0.1,0,0.2,0c0.1,0,0.1-0.1,0-0.2c-0.1-0.2-0.2-0.4-0.3-0.5c-0.1-0.2-0.2-0.3-0.3-0.5c0-0.1-0.1-0.2-0.1-0.3
              c0.5,0.5,1.2,1.1,1.9,1.6c0.1,0,0.1,0,0.2,0c0,0,0.1-0.1,0-0.2c-0.4-0.5-0.8-0.9-1.3-1.3c-0.2-0.2-0.3-0.3-0.5-0.5
              c0,0-0.1-0.1-0.1-0.1c0.1,0,0.1,0,0.2,0.1C12,5.3,12.6,5.6,13.1,6c0.1,0,0.1,0,0.2,0c0.1,0,0.1-0.1,0-0.2c-0.4-0.7-1.4-1-2.2-1.1
              c-0.1,0-0.3-0.1-0.4-0.1c0,0,0,0,0,0c-0.3-0.4-0.6-0.8-0.9-1.3c1.3,0,2.6,0.4,3.4,1.2c0.8,0.7,1.3,2,1.1,3.1c0,0-0.1,0-0.1,0.1
              c-0.1,0.1-0.1,0.1-0.1,0.2c-0.2,0-0.4,0.1-0.5,0.1c-0.4,0.1-0.7,0.2-1.1,0.1c-0.4,0-0.8-0.2-1.3-0.3L11,7.7c-0.1-0.4-0.4-0.7-0.7-1
              C10,6.5,9.8,6.4,9.4,6.4C9,5.4,9.2,4.5,9.5,3.4z M10.2,9.2c0-0.3-0.2-0.6-0.4-0.7c-0.3-0.2-0.7-0.2-1,0c0,0,0,0-0.1,0
              c-1,0.7-2.1,1-2.9,0.7C5.5,9.1,5.4,8.9,5.3,8.7c0-0.2,0.1-0.3,0.4-0.4c0.2-0.1,0.4-0.1,0.6-0.1l0.1,0c0.1,0,0.1,0,0.2,0
              c0.3,0,0.7,0,1-0.2c0.2-0.1,0.5-0.4,0.6-0.7c0-0.1,0-0.3-0.1-0.4C8,7,8,6.9,7.9,6.9c0.4-0.1,0.8-0.1,1.2-0.1
              c0.7,0.1,1.1,0.3,1.4,0.7c0.2,0.3,0.3,0.8,0.1,1.1c-0.1,0.1-0.2,0.2-0.3,0.4C10.2,9.1,10.2,9.1,10.2,9.2z M11.1,8.1
              c0,0,0.1,0,0.1,0.1c-0.1,0.1-0.1,0.2-0.2,0.3C11.1,8.4,11.1,8.3,11.1,8.1z M16.3,1.9c-0.2,0.1-0.4,0.3-0.6,0.5
              c-0.8-0.2-1.7,0-2.3,0.5c-0.1,0-0.1,0.1,0,0.2c0,0.1,0.1,0.1,0.2,0.1l0.1-0.1c0.3-0.1,0.6-0.3,1-0.4c0.3-0.1,0.5-0.1,0.8-0.1
              c-0.6,0.7-1.1,1.4-1.3,2.1c-0.1-0.2-0.2-0.3-0.3-0.4c-0.4-0.4-0.8-0.7-1.4-1c0-0.9-0.1-2.1,1-2.5c0.8-0.3,1.5,0,2.3,0.3
              c0.1,0,0.2,0.1,0.3,0.1c0,0.1,0,0.1,0.1,0.2c0,0,0,0,0,0c0,0,0,0,0,0.1C16.2,1.7,16.2,1.8,16.3,1.9z M12,3.2C11.2,3,10.4,2.9,9.6,3
              c0,0-0.1,0-0.1,0c0,0,0,0-0.1,0C9.3,3,9.3,3,9.2,3.1C8.9,4,8.4,5.3,8.9,6.3C8,6.3,7.1,6.6,6.5,7.2c0,0-0.1,0-0.1,0.1
              c0,0,0,0.1,0,0.1c0,0,0,0.1,0,0.1c0,0,0,0,0.1,0c0.1,0.1,0.2,0.3,0.4,0.3c0,0,0,0,0,0C6.7,7.7,6.7,7.7,6.6,7.6l0,0
              C6.4,7.5,6.2,7.4,6.1,7.4c-0.1,0-0.1,0-0.2,0.1c0,0.1,0,0.1,0,0.2c0.1,0.1,0.2,0.2,0.3,0.2c0,0-0.1,0-0.1,0C5.8,7.9,5.3,8,5.1,8.3
              C4.9,8.5,4.9,8.6,4.9,8.9C5,9.3,5.4,9.6,6.3,9.7c0.5,0,1,0,1.4-0.2c0,0,0.1,0.1,0.1,0.1c-0.1,0.7,0,1.7,0.6,2.3c0,0,0.1,0.1,0.2,0
              c0.1,0,0.1-0.1,0.1-0.2c0-0.1-0.1-0.2-0.2-0.4c-0.1-0.2-0.2-0.4-0.2-0.6c-0.1-0.3-0.1-0.6-0.1-0.8c0,0,0,0,0,0
              c0.1,0.1,0.2,0.2,0.4,0.3c0.1,0.1,0.2,0.3,0.3,0.4c0.2,0.3,0.4,0.5,0.7,0.7c0,0,0.1,0,0.2,0c0,0,0.1-0.1,0-0.2
              c-0.2-0.4-0.5-0.8-0.8-1.1l-0.1-0.1C8.8,10,8.7,9.9,8.7,9.9c0.1,0,0.2,0,0.3,0.1c0.2,0.1,0.3,0.1,0.5,0.2c0.1,0.1,0.3,0.1,0.5,0.2
              c0.1,0,0.1,0,0.2-0.1c0-0.1,0-0.1,0-0.2C9.6,9.6,8.8,9.4,8.2,9.4c0,0,0,0-0.1-0.1C8.3,9.2,8.5,9.1,8.7,9c0.3,0.3,1,0.8,1.5,0.6
              c0,0,0,0,0,0c0,0,0,0,0,0c0.3-0.2,0.6-0.4,0.7-0.7C11,9,10.9,9.2,10.9,9.4c0,0.3-0.1,0.9,0.2,1.1c0.1,0.1,0.2,0.1,0.4,0.2
              c-0.6,0.2-1,0.7-1.3,1.3c-0.1,0.2-0.1,0.4-0.2,0.5c0,0-0.1,0.1-0.1,0.1c-0.4,0-0.7,0-1.1,0c-1.3,0-2.4,0-3.5-0.8
              c-0.7-0.5-1.2-1.4-1.1-2.1c0-0.9,0.7-1.6,1.3-2.2c0,0,0.1,0,0.1,0c0,0,0.1-0.1,0-0.1C5.4,6.4,5.5,5.7,5.9,4.9
              c0.2-0.3,0.4-0.6,0.7-0.8c0,0,0,0,0,0C6.5,4.3,6.4,4.4,6.3,4.5c0,0.1-0.1,0.1-0.1,0.2C5.6,5.5,5.3,6.6,6.1,7.2c0.1,0.1,0.2,0,0.2,0
              C6.4,7.1,6.4,7,6.3,7C5.7,6.1,6.1,5.5,6.6,4.9c0.2-0.3,0.4-0.6,0.6-1c0-0.1,0-0.1,0-0.2c0-0.1-0.1-0.1-0.2-0.1
              C6.3,3.8,5.6,4.4,5.3,5.2C5,5.9,4.9,6.7,5.2,7.2C4.5,7.7,3.9,8.5,3.8,9.4c-0.1,0.8,0.1,1.5,0.6,2.1c0.7,0.9,2,1.5,3.6,1.6
              c0,0,0,0.1,0.1,0.1c3.2,2.1,7.3,2.8,13.1,2.2c2.1-0.2,4.4-0.5,6.6-1.4c1.2-0.5,3.5-1.7,4.3-3.7c0.9-2.2-0.9-3.7-2.1-4.4
              c0-0.2,0-0.4-0.1-0.5c-0.2-0.8-0.8-1.5-1.7-1.8c-0.8-0.2-1.7-0.1-2.2,0.5c-0.1,0-0.2,0-0.2-0.1c-0.1,0-0.3-0.1-0.4-0.1
              c-0.6-0.2-0.7-0.5-1-1c0-0.1-0.1-0.2-0.2-0.3c2.5,0.2,6.1,0.7,8.8,2.7c1.5,1.1,2.5,2.6,2.6,4.1c0.1,1.4-0.5,2.7-1.8,3.9
              c-2,1.8-4.7,2.6-7.3,3.3c-2.2,0.5-4.4,0.8-6.7,0.9c-1.9,0-3.8,0-5.7-0.1l-0.4,0c-1.6-0.1-3.3-0.2-4.8-0.7c-0.4-0.2-0.9-0.3-1.3-0.5
              c-0.5-0.2-1.1-0.4-1.6-0.6c-1.1-0.5-2.1-1.1-2.9-1.8c-1.1-0.9-3.5-3.4-2-6.5c2-4.1,7.7-5.1,11.2-5.7C11.9,2.2,11.9,2.7,12,3.2z"></path>
    </symbol>
</svg>
