<svg width="56" height="56" fill="none" xmlns="http://www.w3.org/2000/svg"><path class="st0" fill="#FFF" d="M10.6 7.9h35v40.3h-35z"/><path d="M53.233 27.982l2.617-6.351c.373-.747 0-1.681-.561-2.055l-5.42-4.109-.935-6.911c-.187-.747-.748-1.494-1.495-1.494l-6.916-.934L36.41.71c-.56-.56-1.308-.934-2.056-.56L28 2.764 21.645.15c-.748-.373-1.682 0-2.056.56l-4.112 5.418-6.916.934c-.747 0-1.495.747-1.495 1.494l-.934 6.911-5.42 4.11c-.562.56-.935 1.307-.562 2.054l2.617 6.35L.15 34.334c-.373.747 0 1.68.561 2.054l5.42 4.11.935 6.91c.187.748.748 1.495 1.495 1.495l6.916.934 4.112 5.417c.374.373.935.747 1.308.747.561 0 .187 0 7.103-2.802l6.355 2.615c.748.374 1.682 0 2.056-.56l4.112-5.417 6.916-.934c.747-.187 1.495-.747 1.495-1.494l.934-6.911 5.42-4.11c.562-.56.935-1.307.562-2.054l-2.617-6.351zM14.356 14.346c7.476-7.471 19.812-7.471 27.288 0 .748.747.748 1.868 0 2.428-.747.748-1.869.748-2.43 0-6.167-6.164-16.26-6.164-22.429 0-.747.748-1.869.748-2.43 0-.747-.56-.747-1.68 0-2.428zm10.653 19.426H23.14v-11.58h2.243v8.218l5.981-8.219h1.683v11.581h-2.243V25.74l-5.795 8.032zm-13.644-11.58h2.43l2.99 4.296 2.804-4.297h2.43l-4.112 5.79 4.112 5.791h-2.43l-2.804-4.11-2.803 4.11h-2.43l3.925-5.79-4.112-5.79zm30.28 19.425c-7.477 7.472-19.813 7.472-27.29 0-.747-.747-.747-1.868 0-2.428.748-.747 1.87-.747 2.43 0a15.688 15.688 0 0022.243 0c.747-.747 1.869-.747 2.43 0 .934.56.934 1.681.186 2.428zm2.803-17.558H40.71v9.713h-2.243V24.06h-3.738v-2.054h9.719v2.054z" fill="#C7368A"/></svg>