<svg xmlns="http://www.w3.org/2000/svg" viewBox="0 0 512.002 512.002" fill="#FFF"><path d="M288.672 244.259l-20.719-12.722 5.866-23.595a7.499 7.499 0 00-10.851-8.404l-21.377 11.583-17.5-16.878a7.5 7.5 0 00-12.704 5.196l-.658 24.304-23.367 6.717a7.5 7.5 0 00-1.852 13.599l20.719 12.722-5.866 23.595a7.499 7.499 0 0010.851 8.404l21.377-11.583 17.5 16.878a7.496 7.496 0 008.046 1.544 7.5 7.5 0 004.658-6.739l.658-24.305 23.367-6.717a7.5 7.5 0 001.852-13.599zm-34.642 7.417a7.5 7.5 0 00-5.425 7.005l-.346 12.791-9.208-8.881a7.497 7.497 0 00-8.779-1.196l-11.25 6.095 3.087-12.416a7.5 7.5 0 00-3.354-8.201l-10.903-6.694 12.296-3.535a7.5 7.5 0 005.425-7.005l.346-12.79 9.209 8.881a7.501 7.501 0 008.779 1.196l11.249-6.095-3.087 12.416a7.5 7.5 0 003.354 8.201l10.903 6.694-12.296 3.534zm-85.617-40.64l-73.446-25.079a7.5 7.5 0 00-4.847 14.195l73.446 25.079a7.502 7.502 0 004.847-14.195zm55.095-46.86L195.81 69.011a7.5 7.5 0 00-14.402 4.191l27.697 95.167a7.504 7.504 0 007.198 5.406 7.5 7.5 0 007.205-9.599zM354.574 92.46a7.5 7.5 0 00-10.522 1.338l-63.808 82.392a7.498 7.498 0 001.337 10.521 7.469 7.469 0 004.587 1.571c2.24 0 4.457-1 5.935-2.908l63.808-82.392a7.5 7.5 0 00-1.337-10.522zm-83.116-2.631a7.498 7.498 0 00-8.951 5.69l-19.257 86.473a7.499 7.499 0 005.69 8.951 7.48 7.48 0 001.637.182 7.504 7.504 0 007.314-5.872l19.257-86.473a7.5 7.5 0 00-5.69-8.951zm-77.521 94.479l-37.923-42.677a7.5 7.5 0 00-11.213 9.963l37.923 42.678a7.48 7.48 0 005.609 2.518 7.5 7.5 0 005.604-12.482zm-24.971 65.236a7.5 7.5 0 00-8.067-6.887l-43.2 3.414a7.5 7.5 0 001.181 14.953l43.2-3.413a7.5 7.5 0 006.886-8.067zm29.139-228.988a23.377 23.377 0 00-8.936-15.638c-10.259-7.945-25.068-6.062-33.015 4.196-7.945 10.261-6.062 25.071 4.197 33.017 4.166 3.227 9.176 4.931 14.361 4.931 1 0 2.007-.063 3.015-.192 6.235-.792 11.789-3.966 15.638-8.936s5.533-11.142 4.74-17.378zm-16.6 8.193a8.476 8.476 0 01-5.67 3.24 8.48 8.48 0 01-6.3-1.718 8.476 8.476 0 01-3.24-5.67 8.482 8.482 0 011.719-6.3 8.527 8.527 0 016.756-3.305c1.825 0 3.664.582 5.214 1.783a8.476 8.476 0 013.24 5.67 8.476 8.476 0 01-1.719 6.3zM69.058 174.095a23.38 23.38 0 00-8.936-15.638c-4.97-3.849-11.141-5.533-17.376-4.739a23.377 23.377 0 00-15.638 8.936 23.376 23.376 0 00-4.739 17.376 23.38 23.38 0 008.936 15.638c4.166 3.227 9.176 4.931 14.361 4.931 1-.001 2.007-.064 3.015-.192 6.235-.792 11.789-3.966 15.638-8.936s5.532-11.141 4.739-17.376zm-16.598 8.191a8.477 8.477 0 01-5.67 3.24 8.481 8.481 0 01-6.3-1.719 8.469 8.469 0 01-3.24-5.669 8.475 8.475 0 011.718-6.3 8.476 8.476 0 015.67-3.24 8.466 8.466 0 016.3 1.719 8.476 8.476 0 013.24 5.669 8.474 8.474 0 01-1.718 6.3zM393.84 41.755a23.376 23.376 0 00-17.376-4.739 23.377 23.377 0 00-15.638 8.936 23.376 23.376 0 00-4.739 17.376 23.371 23.371 0 008.935 15.639 23.417 23.417 0 0014.383 4.917c7.035 0 14-3.134 18.631-9.114 7.945-10.258 6.063-25.069-4.196-33.015zm-7.664 23.833c-2.88 3.72-8.251 4.402-11.97 1.522a8.476 8.476 0 01-3.24-5.67 8.481 8.481 0 011.719-6.301 8.476 8.476 0 015.67-3.24 8.47 8.47 0 016.3 1.718c3.72 2.881 4.402 8.251 1.521 11.971zM328.998 367.2l-42.657-64.836a7.501 7.501 0 00-12.532 8.245l42.657 64.836a7.493 7.493 0 0010.387 2.143 7.5 7.5 0 002.145-10.388zm87.999-126.893l-99.069-3.008c-4.148-.113-7.598 3.128-7.724 7.269a7.501 7.501 0 007.269 7.725l99.069 3.008c.078.002.155.004.232.004a7.5 7.5 0 00.223-14.998zm-39.083-68.034a7.5 7.5 0 00-10.09-3.27l-78.905 40.279a7.5 7.5 0 006.82 13.36l78.905-40.279a7.5 7.5 0 003.27-10.09zm-21.273 124.732l-50.807-26.039a7.5 7.5 0 00-6.842 13.349l50.807 26.039a7.499 7.499 0 0010.095-3.253 7.501 7.501 0 00-3.253-10.096zm-91.532 63.228l-7.503-42.681a7.5 7.5 0 00-14.773 2.597l7.503 42.681a7.502 7.502 0 008.685 6.088 7.499 7.499 0 006.088-8.685zm215.602-129.53a23.376 23.376 0 00-17.376-4.739c-6.235.792-11.789 3.966-15.638 8.936s-5.532 11.141-4.739 17.376a23.372 23.372 0 008.936 15.638c4.166 3.227 9.176 4.931 14.361 4.931 1 0 2.007-.063 3.016-.191a23.38 23.38 0 0015.638-8.936c7.943-10.259 6.061-25.07-4.198-33.015zm-7.664 23.831a8.48 8.48 0 01-5.67 3.24 8.48 8.48 0 01-6.3-1.718 8.476 8.476 0 01-3.24-5.67 8.474 8.474 0 011.718-6.3 8.476 8.476 0 015.67-3.24 8.47 8.47 0 016.3 1.718c3.72 2.879 4.403 8.25 1.522 11.97zM364.34 394.058c-10.259-7.945-25.069-6.063-33.015 4.196-7.945 10.259-6.063 25.069 4.196 33.015 4.166 3.227 9.176 4.931 14.361 4.931 1 0 2.007-.063 3.016-.192a23.377 23.377 0 0015.638-8.936c7.945-10.259 6.063-25.068-4.196-33.014zm-7.663 23.83a8.476 8.476 0 01-5.67 3.24 8.48 8.48 0 01-6.3-1.718c-3.72-2.88-4.402-8.25-1.521-11.97a8.48 8.48 0 015.67-3.24 8.468 8.468 0 016.3 1.718c3.719 2.881 4.402 8.25 1.521 11.97zM185.999 298.704a7.5 7.5 0 00-10.605.17c-3.729 3.85-91.78 95.526-132.94 202.941a7.5 7.5 0 004.32 9.687 7.49 7.49 0 009.687-4.319c40.038-104.488 128.817-196.952 129.71-197.874a7.502 7.502 0 00-.172-10.605z"/></svg>