<svg height="512" viewBox="0 0 508.362 508.362" width="512" xmlns="http://www.w3.org/2000/svg" fill="#FFF"><path d="M439.81 340.225L209.375 123.694a20.91 20.91 0 00-23.101-3.791 20.909 20.909 0 00-12.239 19.958l9 216.255a7.482 7.482 0 007.806 7.182 7.5 7.5 0 007.182-7.806l-9-216.255c-.155-3.729 2.633-5.3 3.491-5.693s3.868-1.476 6.589 1.082l230.435 216.532c2.59 2.434 2.119 5.346 1.796 6.485s-1.449 3.866-4.931 4.58l-82.967 17.02a7.501 7.501 0 00-5.313 10.468l14.019 30.645a7.502 7.502 0 006.825 4.382 7.471 7.471 0 003.116-.682 7.5 7.5 0 003.7-9.94l-10.097-22.072 73.733-15.125a21.404 21.404 0 0016.348-15.187 21.41 21.41 0 00-5.957-21.507zm-60.728 102.959a7.5 7.5 0 10-13.64 6.24l9.155 20.011c.458 1.002.5 2.124.115 3.157a4.098 4.098 0 01-2.151 2.313l-39.504 18.072a4.108 4.108 0 01-3.156.115 4.101 4.101 0 01-2.313-2.151l-36.472-79.727a7.504 7.504 0 00-11.394-2.825l-67.129 51.644c-2.816 2.167-5.616 1.237-6.688.736s-3.584-2.049-3.732-5.6l-2.818-67.715a7.488 7.488 0 00-7.806-7.182 7.5 7.5 0 00-7.182 7.806l2.818 67.715a21.403 21.403 0 0012.375 18.568 21.403 21.403 0 0022.179-2.439l59.657-45.896 32.55 71.155a19 19 0 0010.721 9.969 19.135 19.135 0 006.682 1.212c2.709 0 5.411-.583 7.948-1.744l39.503-18.071c4.646-2.125 8.187-5.933 9.969-10.721s1.594-9.983-.532-14.63z"/><path d="M211.108 82.148c13.065 4.863 23.454 14.523 29.253 27.201 3.229 7.057 4.82 14.551 4.731 22.272a7.5 7.5 0 007.413 7.586c4.127.064 7.538-3.271 7.586-7.413.114-9.95-1.935-19.601-6.09-28.685-7.466-16.32-20.841-28.757-37.661-35.018s-35.07-5.598-51.391 1.869c-33.69 15.413-48.561 55.361-33.149 89.052a66.868 66.868 0 0014.714 20.656 7.475 7.475 0 005.175 2.072 7.502 7.502 0 005.178-12.928 51.881 51.881 0 01-11.426-16.041c-11.972-26.169-.421-57.199 25.749-69.171 12.676-5.8 26.853-6.315 39.918-1.452zm94.858 22.668c5.704 24.46 3.163 50.631-7.156 73.69a7.5 7.5 0 006.841 10.565 7.501 7.501 0 006.85-4.438c11.65-26.034 14.517-55.59 8.073-83.224a7.5 7.5 0 00-14.608 3.407z"/><path d="M157.101 241.45c-30.842-10.011-56.26-32.65-69.738-62.111-12.896-28.19-14.042-59.715-3.228-88.767s32.295-52.154 60.486-65.05c55.817-25.537 122.042-3.097 150.763 51.084a7.5 7.5 0 1013.253-7.025c-32.437-61.19-107.221-86.535-170.256-57.7-31.833 14.563-56.091 40.65-68.303 73.458-12.212 32.807-10.918 68.406 3.645 100.24 15.22 33.27 43.922 58.834 78.748 70.139a7.48 7.48 0 002.317.368 7.502 7.502 0 002.313-14.636z"/></svg>