<svg width="56" height="56" viewBox="0 0 56 56" fill="none" xmlns="http://www.w3.org/2000/svg">
<rect x="10.6" y="7.9" class="st0" width="35" height="40.3" fill="#FFFFFF"/>
<path d="M53.2328 27.9818L55.8495 21.631C56.2233 20.8838 55.8495 19.9499 55.2888 19.5763L49.8684 15.467L48.9339 8.55584C48.747 7.80869 48.1862 7.06153 47.4386 7.06153L40.5229 6.12759L36.4109 0.71074C35.8502 0.150376 35.1026 -0.2232 34.3549 0.150376L28 2.76541L21.6451 0.150376C20.8974 -0.2232 19.9629 0.150376 19.5891 0.71074L15.4771 6.12759L8.5614 7.06153C7.81377 7.06153 7.06613 7.80869 7.06613 8.55584L6.13158 15.467L0.711202 19.5763C0.150474 20.1367 -0.223345 20.8838 0.150474 21.631L2.76721 27.9818L0.150474 34.3326C-0.223345 35.0797 0.150474 36.0137 0.711202 36.3873L6.13158 40.4966L7.06613 47.4078C7.25304 48.1549 7.81377 48.9021 8.5614 48.9021L15.4771 49.836L19.5891 55.2528C19.9629 55.6264 20.5236 56 20.8974 56C21.4582 56 21.0843 56 28 53.1982L34.3549 55.8132C35.1026 56.1868 36.0371 55.8132 36.4109 55.2528L40.5229 49.836L47.4386 48.9021C48.1862 48.7153 48.9339 48.1549 48.9339 47.4078L49.8684 40.4966L55.2888 36.3873C55.8495 35.8269 56.2233 35.0797 55.8495 34.3326L53.2328 27.9818ZM14.3556 14.3463C21.832 6.87474 34.168 6.87474 41.6444 14.3463C42.392 15.0934 42.392 16.2141 41.6444 16.7745C40.8968 17.5217 39.7753 17.5217 39.2146 16.7745C33.0466 10.6105 22.9534 10.6105 16.7854 16.7745C16.0378 17.5217 14.9163 17.5217 14.3556 16.7745C13.608 16.2141 13.608 15.0934 14.3556 14.3463ZM25.0094 33.7722H23.1403V22.1914H25.3833V30.41L31.3644 22.1914H33.0466V33.7722H30.8036V25.7403L25.0094 33.7722ZM11.365 22.1914H13.7949L16.7854 26.4875L19.5891 22.1914H22.0189L17.9069 27.9818L22.0189 33.7722H19.5891L16.7854 29.6629L13.9818 33.7722H11.552L15.4771 27.9818L11.365 22.1914ZM41.6444 41.6173C34.168 49.0888 21.832 49.0888 14.3556 41.6173C13.608 40.8702 13.608 39.7494 14.3556 39.1891C15.1032 38.4419 16.2247 38.4419 16.7854 39.1891C22.9534 45.3531 32.8597 45.3531 39.0277 39.1891C39.7753 38.4419 40.8968 38.4419 41.4575 39.1891C42.392 39.7494 42.392 40.8702 41.6444 41.6173ZM44.448 24.0592H40.7098V33.7722H38.4669V24.0592H34.7287V22.0046H44.448V24.0592Z" fill="#C7368A"/>
</svg>

