<svg 
 xmlns="http://www.w3.org/2000/svg"
 xmlns:xlink="http://www.w3.org/1999/xlink"
 width="1152.5px" height="315.5px">
<path fill-rule="evenodd"  fill="rgb(154, 204, 79)"
 d="M289.500,303.499 C289.500,303.499 285.969,272.667 274.500,254.499 C261.380,233.716 236.958,227.294 219.500,223.499 C186.886,216.410 145.842,209.148 130.500,208.499 C84.314,206.545 57.468,192.367 44.500,181.499 C13.478,155.503 -8.813,109.119 10.500,65.499 C20.403,43.132 42.541,20.373 73.500,13.499 C177.590,-9.612 290.024,109.347 691.500,45.499 C815.408,25.793 1003.067,21.038 1094.500,83.499 C1141.411,115.545 1178.255,187.119 1070.500,208.499 C928.510,236.671 753.416,213.062 734.500,211.499 C552.048,196.428 433.496,197.901 363.500,232.499 C310.154,258.868 289.500,303.499 289.500,303.499 Z"/>
<path fill-rule="evenodd"  stroke="rgb(0, 0, 1)" stroke-width="1px" stroke-dasharray="4, 2" stroke-linecap="butt" stroke-linejoin="miter" fill="none"
 d="M290.163,314.499 C290.163,314.499 286.590,281.562 274.983,262.155 C261.705,239.953 236.988,233.093 219.321,229.039 C186.315,221.465 144.777,213.708 129.250,213.015 C82.508,210.928 55.339,195.781 42.215,184.172 C10.819,156.402 -11.740,106.853 7.805,60.255 C17.828,36.362 40.233,12.049 71.564,4.706 C176.906,-19.983 290.693,107.096 697.001,38.890 C822.400,17.839 1012.318,12.761 1104.851,79.484 C1152.327,113.717 1189.615,190.176 1080.562,213.015 C936.864,243.110 759.663,217.889 740.519,216.219 C555.871,200.120 435.892,201.693 365.054,238.654 C311.066,266.821 290.163,314.499 290.163,314.499 Z"/>
</svg>