<svg width="43" height="37" viewBox="0 0 43 37" fill="none" xmlns="http://www.w3.org/2000/svg">
<path d="M35 22L35.3671 18.8793C35.782 15.3534 35.2758 11.7801 33.8981 8.50808L33.4808 7.51694C32.5446 5.29344 30.6506 3.61445 28.3308 2.95167V2.95167C23.8663 1.67608 19.1337 1.67608 14.6692 2.95167V2.95167C12.3494 3.61445 10.4554 5.29344 9.51918 7.51694L9.10186 8.50808C7.72417 11.7801 7.21804 15.3534 7.63286 18.8793L8 22V22C8 28.6274 13.3726 34 20 34V34" stroke="#9acc4f" stroke-width="2" stroke-linejoin="round"/>
<circle cx="21" cy="34" r="3" fill="#9acc4f"/>
<path d="M5.0395 18.9622C5.25147 21.7155 5.86152 23.9137 4.27223 24.0361C2.68293 24.1584 1.22272 22.0256 1.01075 19.2724C0.798785 16.5191 1.91533 14.1879 3.50463 14.0656C5.09393 13.9432 4.82753 16.2089 5.0395 18.9622Z" fill="#9acc4f"/>
<path d="M38.066 18.9622C37.854 21.7155 37.2439 23.9137 38.8332 24.0361C40.4225 24.1584 41.8828 22.0256 42.0947 19.2724C42.3067 16.5191 41.1901 14.1879 39.6008 14.0656C38.0115 13.9432 38.2779 16.2089 38.066 18.9622Z" fill="#9acc4f"/>
<circle cx="17" cy="17" r="2" fill="#9acc4f"/>
<circle cx="25" cy="17" r="2" fill="#9acc4f"/>
<path d="M15.1228 22.4911C15.055 22.2199 15.2199 21.945 15.4911 21.8772C19.1155 20.9711 22.8993 20.907 26.5524 21.6898L27.4864 21.89C27.7672 21.9501 27.9423 22.231 27.8726 22.5095L27.5077 23.9694C27.1902 25.239 26.2628 26.2681 25.0329 26.7153C22.7507 27.5452 20.2493 27.5452 17.9671 26.7153C16.7372 26.2681 15.8098 25.239 15.4923 23.9694L15.1228 22.4911Z" fill="#9acc4f"/>
</svg>
