<svg height="512pt" viewBox="0 -10 512 512" width="512pt" xmlns="http://www.w3.org/2000/svg"><path d="M356.285 178.266h7.793c4.145 0 7.5-3.356 7.5-7.5a7.5 7.5 0 00-7.5-7.5h-3.926V149.8c0-4.145-3.355-7.5-7.5-7.5a7.5 7.5 0 00-7.5 7.5v17.508c0 6.043 4.996 10.957 11.133 10.957zM323.61 161.82a7.5 7.5 0 007.5-7.5v-6.629a7.5 7.5 0 10-15 0v6.63c0 4.144 3.355 7.5 7.5 7.5zm69.09 0a7.5 7.5 0 007.5-7.5v-6.629a7.5 7.5 0 10-15 0v6.63c0 4.144 3.355 7.5 7.5 7.5zm-63.774 34.801c8.117 7.777 18.777 11.668 29.441 11.668 10.66 0 21.324-3.89 29.438-11.668a7.499 7.499 0 10-10.375-10.828c-10.512 10.07-27.614 10.07-38.13 0a7.494 7.494 0 00-10.6.227 7.494 7.494 0 00.226 10.601zm17.144 104.602a7.56 7.56 0 00-5.312-2.2 7.54 7.54 0 00-5.297 2.2 7.54 7.54 0 00-2.203 5.3c0 1.98.8 3.91 2.203 5.301a7.543 7.543 0 005.297 2.2c1.98 0 3.91-.801 5.312-2.2a7.551 7.551 0 002.2-5.3c0-1.97-.81-3.91-2.2-5.301zm38.5 0a7.552 7.552 0 00-5.3-2.2c-1.98 0-3.91.801-5.31 2.2-1.394 1.39-2.19 3.332-2.19 5.3s.8 3.91 2.19 5.301a7.55 7.55 0 005.31 2.2 7.56 7.56 0 005.3-2.2c1.399-1.39 2.2-3.332 2.2-5.3s-.801-3.903-2.2-5.301zm-38.5 42.711a7.585 7.585 0 00-5.312-2.192 7.57 7.57 0 00-5.297 2.192 7.558 7.558 0 00-2.203 5.308c0 1.973.8 3.903 2.203 5.301a7.543 7.543 0 005.297 2.2c1.98 0 3.91-.802 5.312-2.2a7.565 7.565 0 002.2-5.3 7.59 7.59 0 00-2.2-5.31zm33.2-2.192c-1.98 0-3.91.801-5.31 2.192a7.576 7.576 0 00-2.19 5.308c0 1.973.8 3.903 2.19 5.301a7.55 7.55 0 005.31 2.2 7.547 7.547 0 005.3-2.2 7.546 7.546 0 002.2-5.3c0-1.97-.801-3.911-2.2-5.31a7.578 7.578 0 00-5.3-2.19zm-33.2 44.91a7.581 7.581 0 00-5.312-2.187 7.565 7.565 0 00-5.297 2.187 7.553 7.553 0 00-2.203 5.313c0 1.969.8 3.898 2.203 5.297a7.53 7.53 0 005.297 2.203c1.98 0 3.91-.8 5.312-2.203a7.577 7.577 0 002.2-5.297 7.6 7.6 0 00-2.2-5.313zm-5.308 40.52c-1.973 0-3.903.8-5.301 2.2a7.543 7.543 0 00-2.2 5.3c0 1.98.798 3.91 2.2 5.312a7.584 7.584 0 005.3 2.188c1.977 0 3.91-.8 5.31-2.188a7.6 7.6 0 002.199-5.312c0-1.969-.81-3.91-2.2-5.3a7.557 7.557 0 00-5.308-2.2zm0 0"/><path d="M508.086 448.328a29.926 29.926 0 003.773-10.402 10.596 10.596 0 00-3.972-10.102 29.917 29.917 0 003.972-10.738 10.588 10.588 0 00-3.972-10.102 29.917 29.917 0 003.972-10.738 10.588 10.588 0 00-3.972-10.098 29.944 29.944 0 003.972-10.738 10.6 10.6 0 00-2.382-8.586 10.598 10.598 0 00-8.098-3.75h-19.36v-20.5a7.5 7.5 0 00-7.5-7.5 7.497 7.497 0 00-7.5 7.5v20.5h-82.718a10.603 10.603 0 00-8.094 3.742 10.603 10.603 0 00-2.39 8.598 29.925 29.925 0 003.972 10.734 10.6 10.6 0 00-3.973 10.105 29.878 29.878 0 003.973 10.731 10.607 10.607 0 00-3.973 10.105 29.925 29.925 0 003.973 10.735 10.603 10.603 0 00-3.973 10.105 30.274 30.274 0 002.036 6.962h-49.567V292.85c0-3.773 2.504-9.874 5.153-12.558l46.222-46.82a68.384 68.384 0 0013.582-3.653v2.035c0 8.758 6.063 17.965 14.102 21.422l56.648 24.356c2.488 1.07 5.024 4.926 5.024 7.64v22.301a7.5 7.5 0 1015 0v-22.3c0-8.754-6.063-17.965-14.098-21.419L411.27 239.5c-2.489-1.07-5.028-4.926-5.028-7.64v-10.036c13.223-9.312 23.02-23.152 27.094-39.25h4.57c11.25 0 20.399-9.133 20.399-20.363v-15.574c0-11.23-9.149-20.364-20.399-20.364h-2.48V95.441C445.563 87.43 451.5 75.285 451.5 62.2c0-23.383-19.004-42.402-42.36-42.402a42.3 42.3 0 00-13.773 2.305C388.074 8.609 373.988 0 358.152 0c-15.84 0-29.925 8.61-37.214 22.102a42.292 42.292 0 00-13.774-2.305c-23.355 0-42.36 19.02-42.36 42.402 0 13.387 6.438 26.047 17.055 33.996v30.075h-3.464c-11.247 0-20.399 9.136-20.399 20.367v15.574c0 11.23 9.152 20.363 20.399 20.363h5.554c3.973 15.696 13.387 29.25 26.11 38.555v10.726c0 2.715-2.536 6.57-5.024 7.641l-56.648 24.36c-8.04 3.453-14.102 12.664-14.102 21.417v22.024a87.682 87.682 0 00-50.347-20.961v-11.07c0-8.73-7.098-15.836-15.825-15.836h-41.62c-8.727 0-15.825 7.105-15.825 15.836v11.07a87.723 87.723 0 00-52.414 22.766 88.025 88.025 0 00-25.016 39.933H7.5a7.5 7.5 0 00-7.5 7.5c0 4.145 3.355 7.5 7.5 7.5h2.535v11.461c0 6.895 5.61 12.5 12.5 12.5h1.317v23.137c0 9.648 7.851 17.5 17.5 17.5v16.258H12.5c-6.895 0-12.5 5.605-12.5 12.5v21.257c0 6.891 5.605 12.5 12.5 12.5H427a7.5 7.5 0 007.5-7.5c0-4.144-3.355-7.5-7.5-7.5H15v-16.257h482v16.257h-34a7.497 7.497 0 00-7.5 7.5 7.5 7.5 0 007.5 7.5h36.5c6.895 0 12.5-5.609 12.5-12.5v-21.257c0-3.567-1.512-6.782-3.914-9.063zm-70.18-307.058c2.98 0 5.399 2.406 5.399 5.367v15.574c0 2.957-2.422 5.363-5.399 5.363h-2.523c.015-.594.047-1.183.047-1.781V141.27zm-159.508 26.304c-2.976 0-5.398-2.406-5.398-5.363v-15.574c0-2.957 2.422-5.367 5.398-5.367h3.461v24.523c0 .598.032 1.187.047 1.781zM293.2 85.762c-8.262-4.926-13.394-13.953-13.394-23.563 0-15.11 12.273-27.402 27.36-27.402 4.878 0 9.67 1.305 13.858 3.777a7.507 7.507 0 006.524.535 7.505 7.505 0 004.457-4.789C335.559 22.766 346.066 15 358.152 15s22.594 7.766 26.149 19.32a7.5 7.5 0 0010.98 4.254 27.283 27.283 0 0113.86-3.777c15.086 0 27.355 12.293 27.355 27.402 0 9.38-4.719 18.008-12.621 23.082a7.502 7.502 0 00-3.45 6.313v25.21H296.86v-24.6a7.496 7.496 0 00-3.66-6.442zm3.66 80.031v-33.988h123.567v33.988c0 29.531-24.094 53.562-53.711 53.562h-16.14c-29.618-.003-53.716-24.03-53.716-53.562zM125.668 275.266c0-.461.371-.832.824-.832h41.621c.457 0 .824.375.824.832v10.777h-43.269zm-57.293 44.902a72.844 72.844 0 0149.266-19.125h59.328a72.842 72.842 0 0149.261 19.125 73.14 73.14 0 0119.364 28.867H49.016a73.172 73.172 0 0119.359-28.867zm-43.34 52.828v-8.96H269.57v8.96zm37.102 71.895h-5.785v-16.258h5.785zm176.12 0h-5.784v-16.258h5.785zM129 413.633a7.5 7.5 0 00-7.5 7.5 7.5 7.5 0 007.5 7.5h88.473v16.258H77.137v-16.258H94a7.5 7.5 0 007.5-7.5 7.5 7.5 0 00-7.5-7.5H41.355c-1.355 0-2.5-1.145-2.5-2.5v-23.137h216.899v23.137c0 1.355-1.145 2.5-2.5 2.5zm182.285-120.781V444.89h-58.027v-16.258c9.648 0 17.496-7.852 17.496-17.5v-23.137h1.316c6.895 0 12.5-5.605 12.5-12.5v-11.46h2.535c4.145 0 7.5-3.356 7.5-7.5a7.5 7.5 0 00-7.5-7.5h-25.738a87.847 87.847 0 00-12.078-25.13v-38.633c0-2.714 2.535-6.57 5.023-7.64l56.649-24.356c8.035-3.457 14.098-12.664 14.098-21.422v-2.406a68.36 68.36 0 0013.14 3.781l9.235 9.508-26.672 27.016c-5.403 5.473-9.477 15.402-9.477 23.098zM491.488 444.89h-97.3a14.738 14.738 0 01-3.758-4.305h104.816a14.68 14.68 0 01-3.758 4.305zm-2.441-19.305h-92.414a14.794 14.794 0 01-6.203-5.836h104.82a14.794 14.794 0 01-6.203 5.836zm0-20.836h-92.414a14.803 14.803 0 01-6.203-5.84h104.82a14.803 14.803 0 01-6.203 5.84zm0-20.84h-92.414a14.794 14.794 0 01-6.203-5.836h104.82a14.794 14.794 0 01-6.203 5.836zm0 0"/><path d="M131.133 189.703h17.941c9.153 0 16.602 7.461 16.602 16.633 0 9.168-7.45 16.629-16.602 16.629h-17.488a7.5 7.5 0 00-7.5 7.5c0 4.144 3.355 7.5 7.5 7.5h17.488c17.422 0 31.602-14.188 31.602-31.63 0-17.44-14.18-31.632-31.602-31.632h-17.941a7.5 7.5 0 00-7.5 7.5c0 4.145 3.355 7.5 7.5 7.5zm-49.028 0h21.051a7.5 7.5 0 100-15h-21.05c-10.715 0-19.434-8.73-19.434-19.469 0-10.734 8.719-19.468 19.433-19.468h23.766a7.5 7.5 0 007.5-7.5c0-4.145-3.355-7.5-7.5-7.5H82.105c-18.988 0-34.433 15.46-34.433 34.468s15.445 34.47 34.433 34.47zm51.93-40.82a7.5 7.5 0 007.5-7.5v-4.352c0-5.965 4.844-10.816 10.797-10.816h43.332c16.176 0 29.336-13.172 29.336-29.363 0-16.192-13.16-29.364-29.336-29.364h-15.066a7.497 7.497 0 00-7.5 7.5 7.5 7.5 0 007.5 7.5h15.066c7.902 0 14.336 6.442 14.336 14.364 0 7.918-6.434 14.363-14.336 14.363h-43.332c-14.223 0-25.797 11.582-25.797 25.816v4.352c0 4.14 3.36 7.5 7.5 7.5zm0 0"/></svg>