<svg height="512" width="512" xmlns="http://www.w3.org/2000/svg" data-name="Layer 1"><path d="M143.565 155.808A14.783 14.783 0 00129 170.675v68.034c0 12.607.6 24.843 7.49 35.966a56.451 56.451 0 018.51 29.707V330h-6.184a5.816 5.816 0 00-5.816 5.816V369a6 6 0 006 6v122.5a6.519 6.519 0 006.5 6.5h79.625a5.875 5.875 0 005.875-5.875V375h1.5a5.5 5.5 0 005.5-5.5v-33.947a5.553 5.553 0 00-5.553-5.553H227l.066-19.147a26.814 26.814 0 0112.755-23.017q.615-.368 1.254-.709c7.982-4.265 11.925-11.4 11.925-20.993v-66.253a5.881 5.881 0 00-5.881-5.881h-2.244c-8.16 0-15.875 3.64-19.875 9.508v-44.694a16.639 16.639 0 00-16.646-16.456 17.052 17.052 0 00-4.652.656 16.947 16.947 0 00-33.836.016 16.543 16.543 0 00-21.058 13.629 16.241 16.241 0 00-5.243-.851zM219 492h-68V375h68zm7-129h-81v-21h81zm-71.185-140.925a6 6 0 006.185-6v-55.382a4.63 4.63 0 014.058-4.672A4.5 4.5 0 01170 160.5v55.326a6.166 6.166 0 005.815 6.249 6 6 0 006.185-6v-69.86a5.145 5.145 0 014.509-5.192A5 5 0 01192 146v69.826a6.166 6.166 0 005.815 6.249 6 6 0 006.185-6l-.111-55.44a4.679 4.679 0 014.123-4.733 4.558 4.558 0 014.988 4.54v74.717a8.832 8.832 0 0017.664.037l.063-15.188A14.033 14.033 0 01241 206.386v59.748c0 6.384-2.673 8.724-5.626 10.3q-.7.372-1.379.77a38.238 38.238 0 00-18.611 32.406L215 330h-58v-26.5a67.544 67.544 0 00-10.375-35.255c-5.17-8.431-5.625-18.369-5.625-29.54v-66.533a4.116 4.116 0 013.608-4.153A4 4 0 01149 172v43.826a6.166 6.166 0 005.815 6.249zm314.092-9.717a16.3 16.3 0 00-4.606.672 16.9 16.9 0 00-33.744-.016 14.726 14.726 0 00-4.649-.652A16.391 16.391 0 00410 228.835v44.682A27.234 27.234 0 00389.3 264h-2.243a6.069 6.069 0 00-6.057 6.052v66.082c0 9.593 4.073 16.62 12.055 20.886q.639.341 1.255.707a28.036 28.036 0 0113.345 21.965L408 384h-6.33a5.669 5.669 0 00-5.67 5.67v32.974a6.374 6.374 0 006.356 6.356H403v68.5a6.519 6.519 0 006.5 6.5h79.8a5.7 5.7 0 005.7-5.7V429h.354a5.646 5.646 0 005.646-5.646v-33.8a5.553 5.553 0 00-5.553-5.554H489v-9.618a56.439 56.439 0 018.51-29.706c6.887-11.123 7.49-23.36 7.49-35.967v-68.138a14.681 14.681 0 00-14.391-14.763 16.331 16.331 0 00-5.348.851 16.541 16.541 0 00-16.354-14.301zM483 492h-68v-63h68zm6-75h-81v-21h81zm-3-175.3a3.633 3.633 0 013.312-3.693A3.5 3.5 0 01493 241.5v67.209c0 11.171-.455 21.108-5.625 29.539A67.546 67.546 0 00477 373.5V384h-57l-.543-5.922a39.747 39.747 0 00-19.082-30.741q-.79-.465-1.6-.9c-2.954-1.579-5.771-3.919-5.771-10.3v-59.75a14.183 14.183 0 0110.406 13.681l.136 14.779a9.229 9.229 0 0018.454-.085v-74.2a4.545 4.545 0 013.968-4.586 4.417 4.417 0 014.864 4.38l.168 55.517a6.147 6.147 0 005.815 6.226 6.02 6.02 0 006.185-6.021v-70.385a4.63 4.63 0 014.058-4.672A4.5 4.5 0 01452 215.5v70.326a6.166 6.166 0 005.815 6.249 6 6 0 006.185-6v-54.86a5.145 5.145 0 014.509-5.192A5 5 0 01474 231v54.826a6.166 6.166 0 005.815 6.249 6 6 0 006.185-6z"/><path d="M182.057 453.933a6 6 0 005.973 5.5c.166 0 .334-.007.5-.021a6 6 0 005.483-6.476l-.594-7.151a12.8 12.8 0 012.768-8.977 24.822 24.822 0 005.353-20.952l-1.033-4.507a6 6 0 10-11.7 2.679l1.032 4.507a12.677 12.677 0 01-2.575 10.247 24.617 24.617 0 00-5.807 18zm269.307-125.956a5.979 5.979 0 00-5.2-2.977h-18.422a5.971 5.971 0 00-5.2 2.969l-9.212 15.952a6.041 6.041 0 000 6.02l9.212 15.993a6.06 6.06 0 005.2 3.066h18.425a6.06 6.06 0 005.2-3.066l9.212-16a6.026 6.026 0 000-6.012zM442.7 357h-11.492l-5.751-10 5.751-10H442.7l5.751 10zm-265.132-79.543a21.379 21.379 0 10-21.378-21.379 21.4 21.4 0 0021.378 21.379zm0-30.757a9.379 9.379 0 11-9.378 9.378 9.389 9.389 0 019.378-9.378zm89.487 80.32q.639.341 1.255.709a27.3 27.3 0 0112.975 23.029L282 390h-6.447a5.553 5.553 0 00-5.553 5.553v53.091a6.356 6.356 0 006.356 6.356H277v42.5a6.519 6.519 0 006.5 6.5h79.8a5.7 5.7 0 005.7-5.7V455h.354a5.646 5.646 0 005.646-5.646v-53.8a5.553 5.553 0 00-5.553-5.554H363v-25.618c0-30.3 3-40.833 8.49-49.674 6.906-11.132 7.51-23.38 7.51-36v-68.137a14.681 14.681 0 00-14.391-14.763 16.331 16.331 0 00-5.348.851 16.542 16.542 0 00-16.354-14.3 16.3 16.3 0 00-4.606.672 16.9 16.9 0 00-33.744-.016 14.728 14.728 0 00-4.65-.652A16.392 16.392 0 00284 198.834v44.683A27.234 27.234 0 00263.3 234h-2.243a6.069 6.069 0 00-6.057 6.052v66.082c0 9.593 4.073 16.62 12.055 20.886zM357 492h-68v-37h68zm6-49h-81v-41h81zm-96-196.613a14.184 14.184 0 0110.406 13.681l.136 14.779a9.229 9.229 0 0018.458-.085v-74.069a4.63 4.63 0 014.058-4.672A4.5 4.5 0 01305 200.5v55.326a6.167 6.167 0 005.815 6.249 6 6 0 006.185-6v-70.382a4.63 4.63 0 014.058-4.672A4.5 4.5 0 01326 185.5v70.326a6.167 6.167 0 005.815 6.249 6 6 0 006.185-6v-54.86a5.145 5.145 0 014.509-5.192A5 5 0 01348 201v54.826a6.167 6.167 0 005.815 6.249 6 6 0 006.185-6V213.7a3.633 3.633 0 013.312-3.693A3.5 3.5 0 01367 213.5v65.209c0 11.23-.459 21.214-5.708 29.673-6.654 10.726-10.292 22.827-10.292 56V390h-57l-1.053-40.283a38.514 38.514 0 00-18.587-32.28q-.783-.462-1.589-.893c-2.954-1.578-5.771-4.026-5.771-10.41zM116.452 359.291a30.579 30.579 0 013.623-2.271c7.982-4.266 11.925-11.293 11.925-20.886V269.88a5.881 5.881 0 00-5.88-5.88h-2.245c-8.16 0-15.875 3.64-19.875 9.508v-44.694a16.639 16.639 0 00-16.646-16.456 17.052 17.052 0 00-4.652.656 16.947 16.947 0 00-33.836.016 16.543 16.543 0 00-21.058 13.629 16.241 16.241 0 00-5.243-.851A14.783 14.783 0 008 240.675v68.034c0 12.607.6 24.843 7.49 35.966A56.451 56.451 0 0124 374.382V420h-6.184A5.816 5.816 0 0012 425.816V459a6 6 0 006 6v32.5a6.519 6.519 0 006.5 6.5h79.625a5.875 5.875 0 005.875-5.875V465h1.5a5.5 5.5 0 005.5-5.5v-33.947a5.553 5.553 0 00-5.553-5.553H106l.078-39.744a25.927 25.927 0 0110.374-20.965zM98 492H30v-27h68zm7-39H24v-21h81zm-8.927-86.964a18.179 18.179 0 00-1.544 7.2L94 420H36v-46.5a67.546 67.546 0 00-10.375-35.255C20.455 329.818 20 319.88 20 308.709v-66.537a4.116 4.116 0 013.608-4.153A4 4 0 0128 242v43.826a6.166 6.166 0 005.815 6.249 6 6 0 006.185-6v-55.441a4.5 4.5 0 119-.1v55.288a6.166 6.166 0 005.816 6.249 6 6 0 006.184-6v-69.856a5.145 5.145 0 014.509-5.192A5 5 0 0171 216v69.826a6.167 6.167 0 005.815 6.249 6 6 0 006.185-6l-.111-55.627a4.556 4.556 0 015.017-4.542 4.7 4.7 0 014.094 4.74v74.513a8.832 8.832 0 0017.664.037l.063-15.188A14.031 14.031 0 01120 276.387v59.747c0 6.384-2.673 8.724-5.626 10.3a41.313 41.313 0 00-18.301 19.602zM32.625 19.992l4.023 3.373a6.747 6.747 0 011.589 8.357 18.652 18.652 0 001.995 20.814l4.87 5.925a6 6 0 109.271-7.619L49.5 44.917a6.7 6.7 0 01-.717-7.477 18.786 18.786 0 00-4.428-23.271l-4.02-3.369a6 6 0 00-7.71 9.2zm348.38 118.76l-2.175 4.779a18.787 18.787 0 006.037 22.907 6.7 6.7 0 012.575 7.053l-1.84 7.447a6 6 0 1011.65 2.878l1.84-7.448a18.65 18.65 0 00-7.174-19.64 6.748 6.748 0 01-2.166-8.227l2.175-4.779a6 6 0 00-10.922-4.97zM14.291 192.989a6.7 6.7 0 012.574 7.053l-1.839 7.448a6 6 0 1011.65 2.877l1.839-7.448a18.648 18.648 0 00-7.173-19.64 6.747 6.747 0 01-2.167-8.226l2.176-4.78a6 6 0 00-10.923-4.97l-2.175 4.779a18.786 18.786 0 006.038 22.907zM292.654 76.493a6.7 6.7 0 012.574 7.053l-1.839 7.448a6 6 0 1011.65 2.877l1.839-7.448a18.65 18.65 0 00-7.173-19.64 6.745 6.745 0 01-2.166-8.226l2.175-4.779a6 6 0 00-10.922-4.971l-2.176 4.779a18.789 18.789 0 006.038 22.907zM170.112 54.18a5.839 5.839 0 005.2 2.82h18.424a5.837 5.837 0 005.2-2.82l9.208-15.88a5.916 5.916 0 000-5.95l-9.213-16.159a6.183 6.183 0 00-5.2-3.192H175.31a6.209 6.209 0 00-5.2 3.214L160.9 32.29a5.93 5.93 0 000 5.958zM178.775 25h11.494l5.751 10-5.751 10h-11.494l-5.751-10zm170.303 43.149a5.864 5.864 0 005.2 2.851H372.7a5.866 5.866 0 005.2-2.851l9.212-15.893a5.932 5.932 0 000-5.959L377.9 30.165A6.16 6.16 0 00372.7 27h-18.425a6.175 6.175 0 00-5.2 3.184l-9.213 16.06a5.945 5.945 0 000 5.966zM357.74 39h11.494l5.751 10-5.751 10H357.74l-5.751-10z"/><path d="M80.135 334.052a6.049 6.049 0 00-5.2-3.052H56.513a6.049 6.049 0 00-5.2 3.052l-9.212 16a6.026 6.026 0 000 6.009l9.212 15.955a5.988 5.988 0 005.2 2.989h18.424a5.984 5.984 0 005.2-2.982l9.212-15.96a6.039 6.039 0 000-6.016zM71.472 363H59.978l-5.751-10 5.751-10h11.494l5.751 10zM37.888 129.878A18.184 18.184 0 1019.7 111.694a18.2 18.2 0 0018.188 18.184zm0-24.368a6.184 6.184 0 11-6.184 6.184 6.191 6.191 0 016.184-6.184zm196.87 16.59a17.118 17.118 0 10-17.118-17.117 17.136 17.136 0 0017.118 17.117zm0-22.235a5.118 5.118 0 11-5.118 5.118 5.124 5.124 0 015.118-5.114zM49.24 185.033a6 6 0 007.1 7.428l52.26-11.674a6 6 0 004.482-4.283l6.544-24.106a6 6 0 00-1.452-5.717l-9.084-7.975 19.778-5.448a6 6 0 004.184-4.164l6.789-24.2a6 6 0 00-7.308-7.422l-5.062 1.335-5.071-5.43 19.132-4.277a6 6 0 004.482-4.284l6.545-24.1a6 6 0 00-7.1-7.428L93.2 64.961a6 6 0 00-4.482 4.283L82.176 93.35a6 6 0 001.452 5.717l9.908 8.7-13.1 3.457a6 6 0 00-4.341 4.569l-5.111 24.339a5.99 5.99 0 001.564 5.392l-.009.008 6.653 6.89-18.924 4.228a6 6 0 00-4.483 4.283zm50.112-109.15l39.021-8.717-2.991 11.016L96.361 86.9zm14.947 26.4l-6.76 1.783-6.713-5.87 7.994-1.786zm-27.222 19.594l38.374-10.126-3.04 10.838-37.662 10.373zm13.9 25.674l-8.061 1.8-4.722-4.891 7.034-1.937zm-34.56 20.015l39.021-8.716-2.991 11.015-39.021 8.717zM412.873 82.4a6.1 6.1 0 004.521 3.877l14.215 1.633L422 99.117a6 6 0 00-.988 6.222l10.083 24.012a5.986 5.986 0 004.354 3.547v.012l10.323 2.062-14.129 15.309a6 6 0 00-1.248 6.069l8.718 24.665a6 6 0 0010.066 2.07l38.058-41.237a6 6 0 001.248-6.069l-8.718-24.665a6 6 0 00-4.449-3.878l-13.071-1.5 14.134-16.9a6 6 0 001.07-5.8l-8.571-24.898a6 6 0 00-10.235-1.946l-3.677 4.3-8.243-1.792L461 43.235a6 6 0 001.247-6.069l-8.72-24.666a6 6 0 00-10.067-2.069L405.4 51.668a6 6 0 00-1.248 6.069zm18.1-6.631l6.317-6.845 8.833 1.923-5.175 6.053zm40.789 48.731l4.2 11.872-28.862 31.261-4.2-11.871zm-24.062-1.378l5.314-6.356 8.649.978-6.364 6.9zm13.247-51.154L465 83.732l-26.665 31.89-4.847-11.522zm-15.418-46.086l4.2 11.872L420.87 69.02l-4.2-11.872z"/></svg>