<svg xmlns="http://www.w3.org/2000/svg" viewBox="0 0 512 512" width="39" height="39" fill="#fff"><g class="cls-2"><path d="M460.75 439.16c75.49-87.07 66.25-218.37-18.95-294.58C485.55 297.87 369.87 451 210.5 451c-3.07 0 15.45.11-57.48-.34A209.75 209.75 0 00301.5 512l195.56-1c13.33-.06 20-16.29 10.46-25.68z"/><path d="M210.5 421C326.57 421 421 326.57 421 210.5S326.57 0 210.5 0 0 94.43 0 210.5a208.93 208.93 0 0051.25 137.66L4.48 394.32C-5 403.68 1.56 419.93 14.94 420l195.56 1M121 136h180a15 15 0 010 30H121a15 15 0 110-30m0 60h180a15 15 0 010 30H121a15 15 0 110-30m-15 75a15 15 0 0115-15h180a15 15 0 010 30H121a15 15 0 01-15-15"/></g></svg>