<svg xmlns="http://www.w3.org/2000/svg" viewBox="0 0 211.076 211.076"><path d="M105.47 211.076c-37.51 0-68.027-30.517-68.027-68.028v-.988h-1.488c-11.568 0-20.979-9.411-20.979-20.979v-9.606c0-11.568 9.411-20.979 20.979-20.979h1.488V59.579c0-11.853 5.486-23.12 14.753-30.465a24.346 24.346 0 01-.506-4.943c0-4.319 2.3-8.756 6.153-11.868.039-.031.078-.061.118-.09l2.334-1.666c.083-.059.169-.113.258-.162.363-.198.774-.445 1.245-.728 2.199-1.319 5.522-3.313 11.018-4.99h.001C80.421 2.177 88.407.726 97.231.23c33.881-1.898 64.038 8.071 73.364 24.252 1.193 1.927 2.005 3.411 2.795 5.111 7.619 16.386 1.423 33.585.107 36.862v24.041h1.624c11.568 0 20.979 9.411 20.979 20.979v9.606c0 11.568-9.411 20.979-20.979 20.979h-1.624v.988c.001 37.511-30.516 68.028-68.027 68.028zm-63.027-71.515v3.488c0 34.754 28.274 63.028 63.027 63.028 34.754 0 63.028-28.274 63.028-63.028v-21.191h-4.429a2.5 2.5 0 01-2.5-2.528c.003-.29.303-29.081-1.925-37.996-2.04-8.159-7.934-11.366-7.994-11.398a2.5 2.5 0 01-.978-3.485c.033-.055 3.431-5.876 3.581-11.458.023-.87-3.561-2.988-8.3-4.337-5.417-1.16-9.582-1.1-9.687-1.096H84.205c-7.521 0-14.019-1.292-19.313-3.842a22.787 22.787 0 01-2.554-1.439c-2.335 2.7-5.657 7.304-5.648 10.775.014 5.525 3.523 11.304 3.559 11.361a2.498 2.498 0 01-.957 3.52c-.231.126-5.98 3.342-7.994 11.398-2.229 8.915-1.929 37.706-1.925 37.996a2.5 2.5 0 01-2.5 2.528h-4.429v17.704zm131.191-2.5h1.488c8.811 0 15.979-7.168 15.979-15.979v-9.606c0-8.811-7.168-15.979-15.979-15.979h-1.488v41.564zM35.955 95.496c-8.811 0-15.979 7.168-15.979 15.979v9.606c0 8.811 7.168 15.979 15.979 15.979h1.488V95.496h-1.488zm130.63 21.362h1.913V66.593c-2.173-4.74-5.537-8.161-9.288-10.63-.302 4.367-1.991 8.548-3.146 10.954 2.525 1.973 6.663 6.137 8.43 13.204 1.999 7.996 2.114 29.338 2.091 36.737zm-124.142 0h1.913c-.023-7.398.092-28.741 2.091-36.737 1.761-7.043 5.876-11.204 8.404-13.185-1.272-2.577-3.15-7.171-3.162-11.869-.013-5.307 4.219-11.005 6.778-13.963a23.547 23.547 0 01-4.648-6.826c-7.176 6.39-11.376 15.622-11.376 25.301v57.279zm94.208-72.381c3.392 0 23.563.639 33.742 15.312.355-1.348.71-2.915 1.002-4.647-2.933-2.857-13.529-12.21-29.297-15.208-11.022-2.095-24.042-1.284-36.633-.499-9.361.584-19.04 1.188-27.616.536-8.314-.631-14.077-2.801-18.019-5.227 1.808 2.758 4.323 5.017 7.344 6.452 4.592 2.182 10.319 3.288 17.021 3.288h52c.064-.004.219-.007.456-.007zm-11.294-10.878c6.125 0 12.095.361 17.675 1.422 13.856 2.634 23.881 9.605 29.015 13.95a42.343 42.343 0 00-.271-6.915c-6.97-6.976-19.33-11.841-35.824-14.089-8.735-1.189-18.695.165-29.239 1.599-10.625 1.446-21.612 2.941-31.5 1.64-10.966-1.443-15.992-5.392-18.282-8.933a7.909 7.909 0 00-.241 1.899c0 .235.004.47.013.703.811 1.571 5.428 8.887 21.526 10.11 8.231.625 17.312.059 26.926-.541 6.714-.419 13.55-.845 20.202-.845zm3.363-11.08c2.712 0 5.358.146 7.906.493 13.973 1.904 25.27 5.678 33.214 11.041-.293-.787-.62-1.57-.983-2.351-.707-1.52-1.442-2.86-2.537-4.627a1.77 1.77 0 01-.061-.104C157.974 12.6 129.068 3.452 97.512 5.222c-8.399.471-15.98 1.848-23.176 4.208-.029.01-.059.019-.088.027-4.893 1.496-7.891 3.295-9.877 4.486a42.7 42.7 0 01-1.29.756l-2.152 1.536c-.292.239-.573.489-.84.75.314 1.97 2.399 7.501 15.775 9.261 9.223 1.213 19.874-.236 30.173-1.637 7.594-1.031 15.376-2.09 22.683-2.09zm-22.311 175.639c-11.203 0-20.317-9.114-20.317-20.317v-2.944c-11.591-5.32-16.006-13.865-16.196-14.242a2.498 2.498 0 012.233-3.626h68.562a2.5 2.5 0 012.233 3.626c-.19.376-4.605 8.921-16.197 14.242v2.943c-.001 11.204-9.115 20.318-20.318 20.318zm-15.317-24.899v4.583c0 8.446 6.871 15.317 15.317 15.317s15.317-6.871 15.317-15.317v-15.811h-12.817v19.843a2.5 2.5 0 11-5 0v-19.843H91.092v11.228zm35.634-11.228v7.279c4.285-2.328 7.246-5.107 9.122-7.279h-9.122zm-49.755 0c1.875 2.17 4.836 4.95 9.122 7.278v-7.278h-9.122zm52.862-37.832c-8.398 0-15.231-6.833-15.231-15.231 0-8.399 6.833-15.232 15.231-15.232 8.399 0 15.232 6.833 15.232 15.232 0 8.398-6.833 15.231-15.232 15.231zm0-25.464c-5.642 0-10.231 4.59-10.231 10.232 0 5.642 4.59 10.231 10.231 10.231 5.642 0 10.232-4.59 10.232-10.231 0-5.642-4.59-10.232-10.232-10.232zm0 12.982a2.5 2.5 0 01-2.5-2.5v-.25a2.5 2.5 0 115 0v.25a2.5 2.5 0 01-2.5 2.5zm-63.702-.249a2.5 2.5 0 01-2.338-3.387c.144-.378 3.644-9.263 15.098-9.263 11.414 0 15.119 8.835 15.271 9.211a2.5 2.5 0 01-4.629 1.889c-.13-.304-2.72-6.101-10.642-6.101-8.041 0-10.399 5.975-10.422 6.035a2.502 2.502 0 01-2.338 1.616zm72.417-25.395c-.437 0-.879-.114-1.281-.355l-17.333-10.366a2.5 2.5 0 112.567-4.291l17.333 10.366a2.5 2.5 0 01-1.286 4.646zm-68.225 0a2.5 2.5 0 01-1.286-4.646L86.37 71.061a2.5 2.5 0 012.567 4.291L71.604 85.718c-.402.24-.844.355-1.281.355z"/></svg>