<svg height="512" width="512" xmlns="http://www.w3.org/2000/svg"><path d="M512 348.29c0-67.987-55.249-123.85-123.85-123.85-41.498 0-78.292 20.518-100.777 51.939H131.195v-30.014c0-9.603-7.812-17.415-17.415-17.415H78.306c-9.603 0-17.415 7.812-17.415 17.415v30.014h-8.534c-20.632 0-37.417-16.785-37.417-37.417v-55.847c0-20.632 16.786-37.417 37.417-37.417h354.298c20.632 0 37.418 16.785 37.418 37.417v33.807c0 4.126 3.344 7.47 7.47 7.47s7.47-3.344 7.47-7.47v-33.807c0-28.869-23.488-52.357-52.358-52.357h-77.534V98.356c0-32.254-26.241-58.495-58.495-58.495h-82.239c-32.255 0-58.495 26.241-58.495 58.495v32.403H52.357C23.488 130.758 0 154.246 0 183.115v221.529c0 28.87 23.488 52.358 52.357 52.358h238.752c4.126 0 7.47-3.344 7.47-7.47s-3.344-7.47-7.47-7.47H52.357c-20.632 0-37.417-16.786-37.417-37.418v-129.11c9.512 9.73 22.768 15.785 37.417 15.785h8.534v7.593c0 19.382 15.769 35.151 35.152 35.151s35.152-15.769 35.152-35.151v-7.593h147.012c-8.879 17.065-13.906 36.441-13.906 56.971 0 68.004 55.266 123.85 123.85 123.85C456.676 472.14 512 416.344 512 348.29zM284.134 130.758H174.879V98.356c0-7.449 6.06-13.508 13.508-13.508h82.239c7.449 0 13.508 6.06 13.508 13.508zM144.832 98.356c0-24.017 19.539-43.555 43.555-43.555h82.239c24.017 0 43.555 19.539 43.555 43.555v32.403h-15.107V98.356c0-15.686-12.762-28.448-28.448-28.448h-82.239c-15.686 0-28.448 12.762-28.448 28.448v32.403h-15.107zM78.306 243.89h35.474a2.478 2.478 0 012.475 2.475v11.452H75.831v-11.452a2.478 2.478 0 012.475-2.475zm37.949 55.022c0 11.145-9.067 20.211-20.212 20.211s-20.212-9.066-20.212-20.211v-26.156h40.423v26.156zm369.438 97.782c-9.525-2.698-21.429-4.923-34.986-6.592 4.985-26.767 4.994-56.809 0-83.625 13.557-1.669 25.461-3.894 34.986-6.592 7.27 14.59 11.368 31.026 11.368 48.404-.001 17.379-4.099 33.815-11.368 48.405zm-53.428-103.379c-11.506.941-23.875 1.518-36.645 1.681v-54.341c19.116 6.459 31.11 33.253 36.645 52.66zM380.68 240.61v54.386c-12.764-.163-25.126-.739-36.628-1.679 7.875-27.707 21.384-47.699 36.628-52.707zm-36.654 162.656c11.509-.941 23.881-1.519 36.655-1.681v54.374c-15.234-4.986-28.774-24.87-36.655-52.693zm51.594 52.659v-54.341c12.77.163 25.139.74 36.645 1.681-5.533 19.4-17.526 46.2-36.645 52.66zm0-69.282v-76.705c14.1-.171 27.63-.824 40.143-1.906 4.972 25.698 5.012 54.613 0 80.517-12.513-1.082-26.043-1.736-40.143-1.906zm82.182-100.115c-8.454 2.12-18.789 3.903-30.409 5.28-4.934-18.386-12.239-34.01-21.213-45.572 21.053 7.871 39.036 22.079 51.622 40.292zm-127.779-40.255c-8.921 11.508-16.202 27.078-21.128 45.534-11.616-1.378-21.947-3.16-30.397-5.279 12.567-18.185 30.514-32.376 51.525-40.255zm-59.415 53.614c9.526 2.698 21.431 4.923 34.991 6.592-1.578 8.517-2.693 17.504-3.28 26.878a7.47 7.47 0 006.988 7.922c4.109.254 7.664-2.87 7.923-6.989.573-9.144 1.708-17.947 3.322-26.257 12.509 1.081 26.034 1.734 40.128 1.905v76.705c-14.095.171-27.619.824-40.129 1.905a203.47 203.47 0 01-2.879-20.442c-.369-4.109-4.001-7.152-8.108-6.773a7.471 7.471 0 00-6.773 8.107 217.086 217.086 0 002.851 20.657c-13.578 1.669-25.499 3.896-35.035 6.598-7.27-14.59-11.368-31.026-11.368-48.404.002-17.379 4.1-33.815 11.369-48.404zm7.891 110.165c8.472-2.125 18.832-3.91 30.482-5.289 4.266 15.867 11.017 32.535 21.132 45.578-21.05-7.872-39.03-22.078-51.614-40.289zm127.681 40.292c8.974-11.562 16.279-27.186 21.213-45.572 11.62 1.378 21.955 3.16 30.409 5.28-12.586 18.213-30.569 32.421-51.622 40.292z"/></svg>