<svg height="512" width="512" xmlns="http://www.w3.org/2000/svg"><path d="M48 496h416a32.036 32.036 0 0032-32V48a32.036 32.036 0 00-32-32H48a32.036 32.036 0 00-32 32v416a32.036 32.036 0 0032 32zm-16-32h32v16H48a16.018 16.018 0 01-16-16zm128-48H80v-16h80zm0 16v16H80v-16zm0 32v16H80v-16zm0-80H80v-16h80zm-32-32H32V176h96zm-64 16v16H32v-16zm0 32v16H32v-16zm0 32v16H32v-16zm400 48H176V368h304v96a16.018 16.018 0 01-16 16zm16-432v304H144V32h320a16.018 16.018 0 0116 16zM48 32h80v128H32V48a16.018 16.018 0 0116-16z"/><path d="M208 384h104v16H208zm80 32h144v16H288zm-40 32h48v16h-48zm72 0h24v16h-24zm56-64h56v16h-56z"/><circle cx="56" cy="56" r="8"/><circle cx="80" cy="56" r="8"/><circle cx="104" cy="56" r="8"/><path d="M384 312h80v16h-80zm-51.313 16l5.656 5.657a8 8 0 0011.314 0l16-16A7.999 7.999 0 00368 312v-24a8 8 0 00-8-8h-32a8 8 0 00-8 8v24H160v16zM336 296h16v12.687l-8 8-8-8zM48 192h48v16H48zm0 32h32v16H48zm0 32h48v16H48zm32 32h32v16H80zm0 32h32v16H80zm130.665-66.04a8.002 8.002 0 006.218 1.991l72-8a7.998 7.998 0 004.774-2.294L323.313 216h19.243l-6.447 38.685a8 8 0 004.313 8.47l16 8a8 8 0 0010.931-4.004l20.143-47a33.755 33.755 0 00-25.476-46.591l-17.37-2.895L355.313 160H392a8 8 0 004.8-1.6l32-24a8 8 0 002.355-9.978l-8-16a7.999 7.999 0 00-9.095-4.183l-29.49 7.372-25.219-10.087A23.964 23.964 0 00360 96V68.944a20.944 20.944 0 00-30.31-18.733l-13.268 6.634A8 8 0 00312 64v24h-32a8.002 8.002 0 00-2.971.572l-40 16A8 8 0 00232 112v16a8 8 0 008 8h45.754l-5.36 21.44-22.332 52.106-44.592 14.865A8 8 0 00208 232v16a8 8 0 002.665 5.96zm162.649-52.72a17.735 17.735 0 01-.524 12.609l-16.801 39.201-3.127-1.563 7.03-42.172A8 8 0 00352 200h-40.929a20.161 20.161 0 01-19.126-26.537l.961-2.884 32.123 12.849a7.986 7.986 0 001.657.457v.006l32.703 5.45a17.715 17.715 0 0113.925 11.9zM352 144a7.999 7.999 0 00-5.657 2.343l-20.27 20.27-28.618-11.447 6.306-25.226A8 8 0 00296 120h-8v-16h25.376a23.98 23.98 0 0037.033 11.18l26.822 10.729L381.754 144zm-8-48a8 8 0 01-16 0v-8h16zm69.859 29.606l-17.02 12.765-3.137-12.55 18.012-4.504zm-77.013-61.084A4.943 4.943 0 01344 68.944V72h-16v-3.056zM248 117.416l24-9.6V120h-24zm-24 120.35l42.53-14.177a8 8 0 004.823-4.438l8.812-20.56c.266.438.532.877.818 1.306a36.076 36.076 0 0020.894 14.912l-17.55 17.55L224 239.062z"/></svg>