<svg height="512pt" viewBox="-23 0 512 512" width="512pt" xmlns="http://www.w3.org/2000/svg"><path d="M466.79 45.172L447.964 5.344a7.447 7.447 0 00-4.219-3.82 7.405 7.405 0 00-5.68.277L364.28 36.676a7.436 7.436 0 00-3.543 9.898s7.992 16.91 7.996 16.914l26.446 55.95-45.399 44.011a47.107 47.107 0 004.317-12.441c2.398-12.246-.118-24.692-7.078-35.051-6.965-10.355-17.543-17.379-29.79-19.777-9.683-1.899-19.488-.711-28.289 3.304a7.415 7.415 0 00-2.043-3.59c-8.343-8.085-20.742-7.886-28.84.465l-70.94 73.176c-.286-.2-.579-.394-.868-.59 9.66-8.601 15.762-21.125 15.762-35.05 0-22.29-16.465-42.157-38.418-46.149a.116.116 0 01-.04-.008c-28.218-5.129-55.417 17.403-55.417 46.157 0 14.847 6.933 28.093 17.726 36.703-.418.316-.836.636-1.246.968l-53.11-51.488L98.77 62.402l7.996-16.914a7.436 7.436 0 00-3.543-9.898L29.44.715a7.433 7.433 0 00-5.683-.281 7.46 7.46 0 00-4.215 3.824L.715 44.086a7.434 7.434 0 003.543 9.898l67.062 31.7-11.406 24.129a20.903 20.903 0 00-10.715-2.735c-12.207.188-23.703 12.086-23.515 24.258.086 5.644 2.355 10.906 6.39 14.816l7.309 7.086-6.656 14.082a7.433 7.433 0 003.546 9.899 7.4 7.4 0 003.172.715 7.439 7.439 0 006.727-4.258l4.492-9.504 54.61 52.941v27.989a37.984 37.984 0 00-5.079 19v38.738c0 .246.012.488.035.726-9.937 8.528-16.25 21.16-16.25 35.25v43.465c-15.117 2.418-26.71 15.547-26.71 31.336 0 15.938 11.812 29.168 27.14 31.403v27.484c0 21.776 17.72 39.496 39.496 39.496 11.574 0 21.317-4.04 28.176-11.676 6.57-7.316 10.305-17.652 11.14-30.773h14.215a7.434 7.434 0 007.434-7.434 7.434 7.434 0 00-7.434-7.437h-26.535c-5.468 0-9.922-4.45-9.922-9.918v-13.79c0-5.468 4.454-9.917 9.922-9.917h164.942c5.469 0 9.922 4.449 9.922 9.918v13.789c0 5.468-4.454 9.918-9.922 9.918H207.176a7.437 7.437 0 00-7.434 7.437 7.434 7.434 0 007.434 7.434h100.25v2.953c0 21.777 17.719 39.496 39.496 39.496 21.781 0 39.496-17.719 39.496-39.496v-29.746c11.27-4.88 19.176-16.102 19.176-29.14 0-13.204-8.11-24.548-19.606-29.321v-45.48c0-6.567-1.562-12.95-4.36-18.872-1.378-2.922-3.038-5.703-4.82-8.39-.874-1.32-2.609-2.946-3.117-4.418-.582-1.684.11-2.461.11-4.293v-38.742c0-12.727-6.262-24.016-15.86-30.965V219.84l58.082-56.309 5.313 11.23a7.43 7.43 0 009.898 3.548 7.437 7.437 0 003.543-9.899l-7.476-15.812 5.625-5.453c4.035-3.91 6.304-9.176 6.394-14.82.086-5.645-2.02-10.973-5.93-15.009 0 0-.933-.964-.937-.964l-.515-.536-1.317-1.355c-3.914-4.035-9.176-6.305-14.82-6.395a21.016 21.016 0 00-8.723 1.746l-10.89-23.039 67.058-31.703a7.434 7.434 0 003.543-9.898zM46.097 139.039l-2.707-2.625a7.525 7.525 0 01-2.282-5.316 7.53 7.53 0 012.118-5.391l.183-.184.719-.746a7.547 7.547 0 015.43-2.289c1.34 0 2.675.36 3.863 1.063zm14.738 14.285l-3.461-3.351 7.418-15.692 5.758 5.582c-3.512 4.79-6.707 9.223-9.715 13.461zM17.336 43.72l12.473-26.387 60.336 28.523-4.817 10.196-7.656 16.191zm273.14 71.879c7.06-4.75 15.547-6.465 23.895-4.828s15.563 6.425 20.309 13.488c3.375 5.02 5.21 10.765 5.402 16.668l-56.039-19.61a31.868 31.868 0 016.434-5.718zm46.59 40.027c-2.421 5.152-6.199 9.574-11.046 12.836-7.06 4.746-15.543 6.457-23.895 4.824-17.234-3.375-28.512-20.144-25.133-37.383.078-.406.172-.804.266-1.207zm-68.332-48.918c1.168-1.203 2.512-1.852 3.887-1.875 1.379-.008 2.73.578 3.926 1.742.207.2.422.38.644.551-7.62 6.754-12.804 15.762-14.793 25.922-.023.113-.039.23-.058.344l-11.469-8.254zM230.95 225.891h-21.797v-12.754l54.746-56.477a47.037 47.037 0 008.653 15.465 52.008 52.008 0 00-2.676 1.953l-1.793-.492c-11.652-3.207-23.742 3.664-26.95 15.316zM125.875 120.66c4.75-10.395 14.914-17.755 26.586-18.716.152-.011.3-.027.45-.035a30.55 30.55 0 012.163-.082c.727 0 1.446.031 2.16.082.153.008.301.024.45.035 11.675.965 21.836 8.32 26.586 18.715.011.024.023.047.03.07h-58.456c.011-.023.023-.046.031-.07zm-2.824 14.937h64.047c-.887 16.894-14.914 30.37-32.024 30.37-17.113 0-31.137-13.476-32.023-30.37zM71.64 163.8a996.886 996.886 0 019.691-13.488l38.012 36.847a7.444 7.444 0 005.383 2.094 7.431 7.431 0 005.257-2.39 37.648 37.648 0 0110.97-8.204 46.75 46.75 0 0014.12 2.176 46.63 46.63 0 0016.547-3.024 37.708 37.708 0 0110.984 7.2 7.419 7.419 0 005.106 2.027 7.412 7.412 0 005.34-2.258l47.36-48.855 13.48 9.699-57.555 59.371a7.44 7.44 0 00-2.094 5.469c.02.484.04.972.04 1.46v13.962h-55.876a37.997 37.997 0 00-18.261 4.656v-16.578a7.425 7.425 0 00-2.262-5.336zm76.691 305.617c-1.352 18.394-9.547 27.715-24.426 27.715-13.578 0-24.625-11.051-24.625-24.63V445.36h26.848c.297 12.528 9.933 22.79 22.203 24.059zm223.215 3.086c0 13.578-11.047 24.625-24.625 24.625s-24.625-11.047-24.625-24.625v-3.813c10.363-2.796 18.058-12.16 18.324-23.336h30.926zm2.305-75.754c9.304 0 16.87 7.566 16.87 16.867 0 7.317-4.687 13.54-11.21 15.875h-38.926c-.77-12.98-11.57-23.308-24.742-23.308H150.902c-13.172 0-23.972 10.328-24.742 23.308H84.414v.344c-7.074-2.008-12.273-8.512-12.273-16.219 0-9.3 7.57-16.867 16.87-16.867zm-157.649-89.512H339.54c17.414 0 31.578 14.164 31.578 31.578v41.672H98.852v-41.672c0-17.41 14.164-31.578 31.578-31.578h56.035a7.434 7.434 0 100-14.867H130.43c-5.383 0-10.551.93-15.364 2.621v-30.89a23.18 23.18 0 013.188-11.754c.5-.559.914-1.192 1.226-1.887 4.247-5.871 11.145-9.703 18.926-9.703h197.18c12.871 0 23.344 10.472 23.344 23.344v32.523a46.144 46.144 0 00-19.39-4.258H216.202a7.434 7.434 0 00-7.433 7.434 7.434 7.434 0 007.433 7.437zm129.113-95.87a7.427 7.427 0 00-2.261 5.421l.008 9.84a38.333 38.333 0 00-7.477-.738h-57.672l.848-5.598a7.431 7.431 0 00-6.235-8.465c-4.062-.621-7.847 2.172-8.464 6.235l-1.192 7.828h-16.5l9.098-33.043a6.965 6.965 0 013.32-4.243 7.01 7.01 0 015.348-.683l4.066 1.121.043.012a10.22 10.22 0 009.332-2.078 39.947 39.947 0 016.902-4.73 46.497 46.497 0 0014.786 5.632 47.1 47.1 0 009.078.887A46.166 46.166 0 00326.617 185c.192.184 9.133 7.64 11.137 7.695 2 .055 3.941-.699 5.379-2.093l40.535-39.297a968.432 968.432 0 019.687 13.488zm70.247-87.876a7.505 7.505 0 015.312 2.278l.906.937a7.512 7.512 0 012.11 5.379c-.032 2.035-.84 3.922-2.282 5.32l-1.023.989-6.945-14.692a7.515 7.515 0 011.921-.21zm-6.254 25.836l-5.145 4.988a1063.458 1063.458 0 00-9.715-13.46l7.442-7.22zm-19.477-76L377.358 46.94l60.34-28.52 12.469 26.384zm0 0"/><path d="M151.555 311.602c-17.79 0-32.262 14.472-32.262 32.261 0 17.79 14.473 32.262 32.262 32.262s32.261-14.473 32.261-32.262-14.472-32.261-32.261-32.261zm0 49.656c-9.59 0-17.395-7.805-17.395-17.395s7.805-17.394 17.395-17.394 17.39 7.804 17.39 17.394c0 9.59-7.8 17.395-17.39 17.395zm170.539 14.867c17.789 0 32.261-14.473 32.261-32.262s-14.472-32.261-32.261-32.261-32.262 14.472-32.262 32.261c0 17.79 14.473 32.262 32.262 32.262zm0-49.656c9.59 0 17.394 7.804 17.394 17.394 0 9.59-7.804 17.395-17.394 17.395s-17.39-7.805-17.39-17.395 7.8-17.394 17.39-17.394zm0 0"/></svg>